<?xml version="1.0" encoding="UTF-8" standalone="no"?>
<svg
   xmlns:dc="http://purl.org/dc/elements/1.1/"
   xmlns:cc="http://creativecommons.org/ns#"
   xmlns:rdf="http://www.w3.org/1999/02/22-rdf-syntax-ns#"
   xmlns:svg="http://www.w3.org/2000/svg"
   xmlns="http://www.w3.org/2000/svg"
   viewBox="0 0 132.5 137.30499"
   height="137.30499"
   width="132.5"
   xml:space="preserve"
   version="1.1"
   id="svg2"><metadata
     id="metadata8"><rdf:RDF><cc:Work
         rdf:about=""><dc:format>image/svg+xml</dc:format><dc:type
           rdf:resource="http://purl.org/dc/dcmitype/StillImage" /><dc:title></dc:title></cc:Work></rdf:RDF></metadata><defs
     id="defs6"><clipPath
       id="clipPath16"
       clipPathUnits="userSpaceOnUse"><path
         id="path18"
         d="m 0,109.844 106,0 L 106,0 0,0 0,109.844 Z" /></clipPath><clipPath
       id="clipPath112"
       clipPathUnits="userSpaceOnUse"><path
         id="path114"
         d="M 53,109.844 C 23.775,109.844 0,86.438 0,57.669 l 0,0 C 0,28.899 23.775,5.495 53,5.495 l 0,0 c 29.225,0 53,23.404 53,52.174 l 0,0 c 0,28.769 -23.775,52.175 -53,52.175 z" /></clipPath></defs><g
     transform="matrix(1.25,0,0,-1.25,0,137.305)"
     id="g10"><g
       id="g12"><g
         clip-path="url(#clipPath16)"
         id="g14"><g
           transform="translate(53,5.4941)"
           id="g20"><path
             id="path22"
             style="fill:#ff876c;fill-opacity:1;fill-rule:nonzero;stroke:none"
             d="m 0,0 c -29.225,0 -53,23.405 -53,52.175 0,28.769 23.775,52.175 53,52.175 29.225,0 53,-23.406 53,-52.175 C 53,23.405 29.225,0 0,0" /></g><g
           transform="translate(90.9351,9.3164)"
           id="g24"><path
             id="path26"
             style="fill:#cdd5d7;fill-opacity:1;fill-rule:nonzero;stroke:none"
             d="m 0,0 c 0,-0.25 -0.201,-0.454 -0.45,-0.454 -0.25,0 -0.453,0.204 -0.453,0.454 l 0,1.541 c 0,0.252 0.203,0.454 0.453,0.454 C -0.201,1.995 0,1.793 0,1.541 L 0,0 Z" /></g><g
           transform="translate(92.29,18.1455)"
           id="g28"><path
             id="path30"
             style="fill:#30363d;fill-opacity:1;fill-rule:nonzero;stroke:none"
             d="M 0,0 C 0.361,7.647 0.596,17.135 0.589,27.475 0.582,37.916 0.396,47.757 0.076,55.747 l -3.764,0 C -4.007,47.757 -4.191,37.916 -4.201,27.475 -4.208,17.135 -3.974,7.646 -3.612,0 L 0,0 Z" /></g><g
           transform="translate(91.4082,18.1455)"
           id="g32"><path
             id="path34"
             style="fill:#484f59;fill-opacity:1;fill-rule:nonzero;stroke:none"
             d="M 0,0 C 0.184,7.647 0.305,17.135 0.3,27.475 0.296,37.916 0.201,47.757 0.037,55.747 l -1.923,0 C -2.049,47.757 -2.144,37.916 -2.148,27.475 -2.152,17.135 -2.031,7.646 -1.848,0 L 0,0 Z" /></g><g
           transform="translate(88.6016,73.8926)"
           id="g36"><path
             id="path38"
             style="fill:#e5e8ec;fill-opacity:1;fill-rule:nonzero;stroke:none"
             d="M 0,0 3.765,0 C 3.714,1.308 3.658,2.572 3.6,3.775 2.584,4.512 1.184,4.514 0.168,3.775 0.108,2.572 0.054,1.308 0,0" /></g><g
           transform="translate(88.9224,73.8926)"
           id="g40"><path
             id="path42"
             style="fill:#cdd5d7;fill-opacity:1;fill-rule:nonzero;stroke:none"
             d="M 0,0 2.488,0 C 2.454,1.261 2.416,2.478 2.377,3.637 1.705,4.347 0.781,4.347 0.107,3.637 0.07,2.478 0.033,1.261 0,0" /></g><g
           transform="translate(90.0684,77.6689)"
           id="g44"><path
             id="path46"
             style="fill:#b7bec0;fill-opacity:1;fill-rule:nonzero;stroke:none"
             d="m 0,0 -0.764,0 0,-0.001 c -0.014,-1.203 -0.025,-2.468 -0.038,-3.775 l 0.84,0 C 0.025,-2.469 0.012,-1.204 0,-0.001 L 0,0 Z" /></g><g
           transform="translate(88.4941,73.8818)"
           id="g48"><path
             id="path50"
             style="fill:#cdd5d7;fill-opacity:1;fill-rule:nonzero;stroke:none"
             d="M 0,0 3.98,0 C 3.974,0.133 3.969,0.262 3.963,0.395 l -3.945,0 C 0.013,0.262 0.006,0.133 0,0" /></g><g
           transform="translate(90.7031,73.8818)"
           id="g52"><path
             id="path54"
             style="fill:#e5e8ec;fill-opacity:1;fill-rule:nonzero;stroke:none"
             d="M 0,0 1.213,0 C 1.211,0.133 1.208,0.262 1.206,0.395 l -1.202,0 C 0.001,0.262 0.001,0.133 0,0" /></g><g
           transform="translate(88.8945,73.8818)"
           id="g56"><path
             id="path58"
             style="fill:#b7bec0;fill-opacity:1;fill-rule:nonzero;stroke:none"
             d="M 0,0 0.682,0 C 0.679,0.133 0.679,0.262 0.677,0.395 l -0.675,0 C 0.002,0.262 0,0.133 0,0" /></g><g
           transform="translate(88.0752,49.7529)"
           id="g60"><path
             id="path62"
             style="fill:#cdd5d7;fill-opacity:1;fill-rule:nonzero;stroke:none"
             d="M 0,0 4.819,0 C 4.811,0.174 4.808,0.345 4.799,0.516 l -4.78,0 C 0.013,0.345 0.007,0.174 0,0" /></g><g
           transform="translate(89.7383,49.7529)"
           id="g64"><path
             id="path66"
             style="fill:#e5e8ec;fill-opacity:1;fill-rule:nonzero;stroke:none"
             d="M 0,0 2.48,0 C 2.476,0.174 2.474,0.345 2.469,0.516 l -2.458,0 C 0.006,0.345 0.002,0.174 0,0" /></g><g
           transform="translate(88.5576,49.7529)"
           id="g68"><path
             id="path70"
             style="fill:#b7bec0;fill-opacity:1;fill-rule:nonzero;stroke:none"
             d="M 0,0 0.825,0 C 0.824,0.174 0.824,0.345 0.821,0.516 l -0.816,0 C 0.003,0.345 0,0.174 0,0" /></g><g
           transform="translate(88.0752,47.5674)"
           id="g72"><path
             id="path74"
             style="fill:#cdd5d7;fill-opacity:1;fill-rule:nonzero;stroke:none"
             d="M 0,0 4.819,0 C 4.811,0.498 4.808,0.988 4.799,1.483 l -4.78,0 C 0.013,0.988 0.007,0.498 0,0" /></g><g
           transform="translate(89.7383,47.5674)"
           id="g76"><path
             id="path78"
             style="fill:#e5e8ec;fill-opacity:1;fill-rule:nonzero;stroke:none"
             d="M 0,0 2.48,0 C 2.476,0.498 2.474,0.988 2.469,1.483 l -2.458,0 C 0.006,0.988 0.002,0.498 0,0" /></g><g
           transform="translate(88.5576,47.5674)"
           id="g80"><path
             id="path82"
             style="fill:#b7bec0;fill-opacity:1;fill-rule:nonzero;stroke:none"
             d="M 0,0 0.825,0 C 0.824,0.498 0.824,0.988 0.821,1.483 l -0.816,0 C 0.003,0.988 0,0.498 0,0" /></g><g
           transform="translate(88.687,18.1455)"
           id="g84"><path
             id="path86"
             style="fill:#e5e8ec;fill-opacity:1;fill-rule:nonzero;stroke:none"
             d="m 0,0 c 0.427,-3.179 0.774,-6.04 1.039,-8.51 l 1.518,0 C 2.821,-6.039 3.167,-3.179 3.594,0 L 0,0 Z" /></g><g
           transform="translate(89.7256,9.6357)"
           id="g88"><path
             id="path90"
             style="fill:#cdd5d7;fill-opacity:1;fill-rule:nonzero;stroke:none"
             d="M 0,0 0.906,0 C 0.823,2.548 0.757,5.396 0.711,8.51 l -1.75,0 C -0.611,5.331 -0.265,2.47 0,0" /></g><g
           transform="translate(89.6348,18.1455)"
           id="g92"><path
             id="path94"
             style="fill:#b7bec0;fill-opacity:1;fill-rule:nonzero;stroke:none"
             d="m 0,0 -0.668,0 c 0.427,-3.179 0.773,-6.04 1.038,-8.51 l 0.279,0 C 0.421,-6.001 0.363,-3.145 0,0" /></g><g
           transform="translate(89.5273,73.9463)"
           id="g96"><path
             id="path98"
             style="fill:#e5e8ec;fill-opacity:1;fill-rule:nonzero;stroke:none"
             d="m 0,0 0,-18.152 c 0,-0.641 0.518,-1.158 1.156,-1.158 0.64,0 1.158,0.517 1.158,1.158 L 2.314,0 0,0 Z" /></g><g
           transform="translate(89.5273,73.9463)"
           id="g100"><path
             id="path102"
             style="fill:#b7bec0;fill-opacity:1;fill-rule:nonzero;stroke:none"
             d="m 0,0 0,-18.152 c 0,-0.641 0.399,-1.158 0.891,-1.158 0.492,0 0.89,0.517 0.89,1.158 L 1.781,0 0,0 Z" /></g><g
           transform="translate(89.8457,73.9463)"
           id="g104"><path
             id="path106"
             style="fill:#cdd5d7;fill-opacity:1;fill-rule:nonzero;stroke:none"
             d="m 0,0 0,-17.967 c 0,-0.631 0.402,-1.143 0.897,-1.143 0.496,0 0.898,0.512 0.898,1.143 L 1.795,0 0,0 Z" /></g></g></g><g
       id="g108"><g
         clip-path="url(#clipPath112)"
         id="g110"><g
           transform="translate(77.8906,0)"
           id="g116"><path
             id="path118"
             style="fill:#e5e8ec;fill-opacity:1;fill-rule:nonzero;stroke:none"
             d="m 0,0 0,45.006 0,22.563 -16.17,16.172 -45.101,0 0,-16.707 0,-22.028 L -61.271,0 0,0 Z" /></g><g
           transform="translate(61.7207,67.5693)"
           id="g120"><path
             id="path122"
             style="fill:#484f59;fill-opacity:1;fill-rule:nonzero;stroke:none"
             d="M 0,0 16.17,0 0,16.172 0,0 Z" /></g><g
           transform="translate(77.8906,67.5693)"
           id="g124"><path
             id="path126"
             style="fill:#cdd5d7;fill-opacity:1;fill-rule:nonzero;stroke:none"
             d="M 0,0 -16.17,0 0,-16.168 0,0 Z" /></g><path
           id="path128"
           style="fill:#b7bec0;fill-opacity:1;fill-rule:nonzero;stroke:none"
           d="m 69.056,42.858 -43.156,0 0,1.064 43.156,0 0,-1.064 z" /><path
           id="path130"
           style="fill:#b7bec0;fill-opacity:1;fill-rule:nonzero;stroke:none"
           d="m 70.164,40.312 -44.264,0 0,1.066 44.264,0 0,-1.066 z" /><path
           id="path132"
           style="fill:#b7bec0;fill-opacity:1;fill-rule:nonzero;stroke:none"
           d="m 69.24,37.768 -43.34,0 0,1.062 43.34,0 0,-1.062 z" /><path
           id="path134"
           style="fill:#b7bec0;fill-opacity:1;fill-rule:nonzero;stroke:none"
           d="m 64.143,35.22 -38.242,0 0,1.062 38.242,0 0,-1.062 z" /><path
           id="path136"
           style="fill:#b7bec0;fill-opacity:1;fill-rule:nonzero;stroke:none"
           d="m 69.056,62.698 -43.156,0 0,1.062 43.156,0 0,-1.062 z" /><path
           id="path138"
           style="fill:#b7bec0;fill-opacity:1;fill-rule:nonzero;stroke:none"
           d="m 70.164,60.15 -44.264,0 0,1.064 44.264,0 0,-1.064 z" /><path
           id="path140"
           style="fill:#b7bec0;fill-opacity:1;fill-rule:nonzero;stroke:none"
           d="m 69.24,57.606 -43.34,0 0,1.062 43.34,0 0,-1.062 z" /><path
           id="path142"
           style="fill:#b7bec0;fill-opacity:1;fill-rule:nonzero;stroke:none"
           d="m 52.119,55.058 -26.219,0 0,1.064 26.219,0 0,-1.064 z" /><path
           id="path144"
           style="fill:#b7bec0;fill-opacity:1;fill-rule:nonzero;stroke:none"
           d="m 69.056,50.524 -43.156,0 0,1.064 43.156,0 0,-1.064 z" /><path
           id="path146"
           style="fill:#b7bec0;fill-opacity:1;fill-rule:nonzero;stroke:none"
           d="m 70.164,47.978 -44.264,0 0,1.064 44.264,0 0,-1.064 z" /><path
           id="path148"
           style="fill:#b7bec0;fill-opacity:1;fill-rule:nonzero;stroke:none"
           d="m 69.24,45.432 -43.34,0 0,1.062 43.34,0 0,-1.062 z" /><path
           id="path150"
           style="fill:#b7bec0;fill-opacity:1;fill-rule:nonzero;stroke:none"
           d="m 69.056,30.533 -43.156,0 0,1.065 43.156,0 0,-1.065 z" /><path
           id="path152"
           style="fill:#b7bec0;fill-opacity:1;fill-rule:nonzero;stroke:none"
           d="m 70.164,27.987 -44.264,0 0,1.064 44.264,0 0,-1.064 z" /><path
           id="path154"
           style="fill:#b7bec0;fill-opacity:1;fill-rule:nonzero;stroke:none"
           d="m 69.24,25.442 -43.34,0 0,1.062 43.34,0 0,-1.062 z" /><path
           id="path156"
           style="fill:#b7bec0;fill-opacity:1;fill-rule:nonzero;stroke:none"
           d="m 52.119,22.896 -26.219,0 0,1.062 26.219,0 0,-1.062 z" /><path
           id="path158"
           style="fill:#b7bec0;fill-opacity:1;fill-rule:nonzero;stroke:none"
           d="m 69.056,18.36 -43.156,0 0,1.062 43.156,0 0,-1.062 z" /><path
           id="path160"
           style="fill:#b7bec0;fill-opacity:1;fill-rule:nonzero;stroke:none"
           d="m 70.164,15.813 -44.264,0 0,1.064 44.264,0 0,-1.064 z" /><path
           id="path162"
           style="fill:#b7bec0;fill-opacity:1;fill-rule:nonzero;stroke:none"
           d="m 40.105,13.269 -14.205,0 0,1.061 14.205,0 0,-1.061 z" /><path
           id="path164"
           style="fill:#969c9e;fill-opacity:1;fill-rule:nonzero;stroke:none"
           d="m 46.443,67.104 -20.611,0 0,1.729 20.611,0 0,-1.729 z" /></g></g></g></svg>