<?xml version="1.0" encoding="UTF-8" standalone="no"?>
<!-- Created with Inkscape (http://www.inkscape.org/) -->

<svg
   xmlns:dc="http://purl.org/dc/elements/1.1/"
   xmlns:cc="http://creativecommons.org/ns#"
   xmlns:rdf="http://www.w3.org/1999/02/22-rdf-syntax-ns#"
   xmlns:svg="http://www.w3.org/2000/svg"
   xmlns="http://www.w3.org/2000/svg"
   xmlns:sodipodi="http://sodipodi.sourceforge.net/DTD/sodipodi-0.dtd"
   xmlns:inkscape="http://www.inkscape.org/namespaces/inkscape"
   id="svg2"
   version="1.1"
   inkscape:version="0.91 r13725"
   xml:space="preserve"
   width="142.99001"
   height="130.4375"
   viewBox="0 0 142.99001 130.4375"
   sodipodi:docname="advert-site.svg"><metadata
     id="metadata8"><rdf:RDF><cc:Work
         rdf:about=""><dc:format>image/svg+xml</dc:format><dc:type
           rdf:resource="http://purl.org/dc/dcmitype/StillImage" /><dc:title></dc:title></cc:Work></rdf:RDF></metadata><defs
     id="defs6"><clipPath
       clipPathUnits="userSpaceOnUse"
       id="clipPath16"><path
         d="m 0,104.35 114.392,0 L 114.392,0 0,0 0,104.35 Z"
         id="path18"
         inkscape:connector-curvature="0" /></clipPath><clipPath
       clipPathUnits="userSpaceOnUse"
       id="clipPath28"><path
         d="M 53,104.35 C 23.776,104.35 0,80.944 0,52.175 l 0,0 C 0,23.405 23.776,0 53,0 l 0,0 c 29.224,0 53,23.405 53,52.175 l 0,0 c 0,28.769 -23.776,52.175 -53,52.175 z"
         id="path30"
         inkscape:connector-curvature="0" /></clipPath><clipPath
       clipPathUnits="userSpaceOnUse"
       id="clipPath92"><path
         d="m 0,104.35 114.392,0 L 114.392,0 0,0 0,104.35 Z"
         id="path94"
         inkscape:connector-curvature="0" /></clipPath></defs><sodipodi:namedview
     pagecolor="#ffffff"
     bordercolor="#666666"
     borderopacity="1"
     objecttolerance="10"
     gridtolerance="10"
     guidetolerance="10"
     inkscape:pageopacity="0"
     inkscape:pageshadow="2"
     inkscape:window-width="640"
     inkscape:window-height="480"
     id="namedview4"
     showgrid="false"
     inkscape:zoom="1.8092956"
     inkscape:cx="71.495003"
     inkscape:cy="65.21875"
     inkscape:window-x="0"
     inkscape:window-y="0"
     inkscape:window-maximized="0"
     inkscape:current-layer="g10" /><g
     id="g10"
     inkscape:groupmode="layer"
     inkscape:label="advert-site"
     transform="matrix(1.25,0,0,-1.25,0,130.4375)"><g
       id="g12"><g
         id="g14"
         clip-path="url(#clipPath16)"><g
           id="g20"
           transform="translate(53,0)"><path
             d="m 0,0 c -29.224,0 -53,23.405 -53,52.175 0,28.769 23.776,52.175 53,52.175 29.224,0 53,-23.406 53,-52.175 C 53,23.405 29.224,0 0,0"
             style="fill:#822780;fill-opacity:1;fill-rule:nonzero;stroke:none"
             id="path22"
             inkscape:connector-curvature="0" /></g></g></g><g
       id="g24"><g
         id="g26"
         clip-path="url(#clipPath28)"><path
           d="m 108.194,17.239 -85.166,0 0,63.976 85.166,0 0,-63.976 z"
           style="fill:#e5e8ec;fill-opacity:1;fill-rule:nonzero;stroke:none"
           id="path32"
           inkscape:connector-curvature="0" /><path
           d="m 108.194,75.102 -85.166,0 0,6.113 85.166,0 0,-6.113 z"
           style="fill:#cdd5d7;fill-opacity:1;fill-rule:nonzero;stroke:none"
           id="path34"
           inkscape:connector-curvature="0" /><path
           d="m 104.527,76.63 -50.53,0 0,3.056 50.53,0 0,-3.056 z"
           style="fill:#ffffff;fill-opacity:1;fill-rule:nonzero;stroke:none"
           id="path36"
           inkscape:connector-curvature="0" /><g
           id="g38"
           transform="translate(27.5103,78.1587)"><path
             d="m 0,0 c 0,-0.674 -0.548,-1.223 -1.223,-1.223 -0.675,0 -1.222,0.549 -1.222,1.223 0,0.677 0.547,1.222 1.222,1.222 C -0.548,1.222 0,0.677 0,0"
             style="fill:#424953;fill-opacity:1;fill-rule:nonzero;stroke:none"
             id="path40"
             inkscape:connector-curvature="0" /></g><g
           id="g42"
           transform="translate(31.3813,78.1587)"><path
             d="m 0,0 c 0,-0.674 -0.547,-1.223 -1.223,-1.223 -0.674,0 -1.221,0.549 -1.221,1.223 0,0.677 0.547,1.222 1.221,1.222 C -0.547,1.222 0,0.677 0,0"
             style="fill:#ff876c;fill-opacity:1;fill-rule:nonzero;stroke:none"
             id="path44"
             inkscape:connector-curvature="0" /></g><g
           id="g46"
           transform="translate(35.2524,78.1587)"><path
             d="m 0,0 c 0,-0.674 -0.547,-1.223 -1.223,-1.223 -0.674,0 -1.222,0.549 -1.222,1.223 0,0.677 0.548,1.222 1.222,1.222 C -0.547,1.222 0,0.677 0,0"
             style="fill:#01bacc;fill-opacity:1;fill-rule:nonzero;stroke:none"
             id="path48"
             inkscape:connector-curvature="0" /></g><g
           id="g50"
           transform="translate(84.0581,36.0723)"><path
             d="m 0,0 0,4.952 0,14.463 -10.363,10.364 -28.908,0 0,-10.708 0,-14.119 0,-4.952 L 0,0 Z"
             style="fill:#ffa38f;fill-opacity:1;fill-rule:nonzero;stroke:none"
             id="path52"
             inkscape:connector-curvature="0" /></g><g
           id="g54"
           transform="translate(73.6948,55.4868)"><path
             d="M 0,0 10.363,0 0,10.365 0,0 Z"
             style="fill:#f7f8fc;fill-opacity:1;fill-rule:nonzero;stroke:none"
             id="path56"
             inkscape:connector-curvature="0" /></g><g
           id="g58"
           transform="translate(84.0581,55.4868)"><path
             d="M 0,0 -10.363,0 0,-10.363 0,0 Z"
             style="fill:#ff876c;fill-opacity:1;fill-rule:nonzero;stroke:none"
             id="path60"
             inkscape:connector-curvature="0" /></g><path
           d="m 71.933,57.613 -25.25,0 0,6.5 25.25,0 0,-6.5 z"
           style="fill:#ff876c;fill-opacity:1;fill-rule:nonzero;stroke:none"
           id="path62"
           inkscape:connector-curvature="0" /><path
           d="m 71.933,50.239 -25.25,0 0,6.5 25.25,0 0,-6.5 z"
           style="fill:#ff876c;fill-opacity:1;fill-rule:nonzero;stroke:none"
           id="path64"
           inkscape:connector-curvature="0" /><path
           d="m 57.183,38.363 -10.5,0 0,6.5 10.5,0 0,-6.5 z"
           style="fill:#ff876c;fill-opacity:1;fill-rule:nonzero;stroke:none"
           id="path66"
           inkscape:connector-curvature="0" /><g
           id="g68"
           transform="translate(39.0581,46.4048)"><path
             d="m 0,0 0,3.235 0,9.444 -6.767,6.768 -18.878,0 0,-6.993 0,-9.219 0,-3.235 L 0,0 Z"
             style="fill:#00c6da;fill-opacity:1;fill-rule:nonzero;stroke:none"
             id="path70"
             inkscape:connector-curvature="0" /></g><g
           id="g72"
           transform="translate(32.291,59.0835)"><path
             d="M 0,0 6.767,0 0,6.768 0,0 Z"
             style="fill:#f7f8fc;fill-opacity:1;fill-rule:nonzero;stroke:none"
             id="path74"
             inkscape:connector-curvature="0" /></g><g
           id="g76"
           transform="translate(39.0581,59.0835)"><path
             d="M 0,0 -6.767,0 0,-6.767 0,0 Z"
             style="fill:#01bacc;fill-opacity:1;fill-rule:nonzero;stroke:none"
             id="path78"
             inkscape:connector-curvature="0" /></g><g
           id="g80"
           transform="translate(51.3921,61.2388)"><path
             d="m 0,0 c 0,-1.197 -0.971,-2.167 -2.167,-2.167 -1.196,0 -2.167,0.97 -2.167,2.167 0,1.197 0.971,2.166 2.167,2.166 C -0.971,2.166 0,1.197 0,0"
             style="fill:#484f59;fill-opacity:1;fill-rule:nonzero;stroke:none"
             id="path82"
             inkscape:connector-curvature="0" /></g><g
           id="g84"
           transform="translate(50.0581,51.1548)"><path
             d="m 0,0 -19,0 0,2 17,0 0,8.25 2,0 L 0,0 Z"
             style="fill:#484f59;fill-opacity:1;fill-rule:nonzero;stroke:none"
             id="path86"
             inkscape:connector-curvature="0" /></g></g></g><g
       id="g88"><g
         id="g90"
         clip-path="url(#clipPath92)"><g
           id="g96"
           transform="translate(95.4761,11.5713)"><path
             d="m 0,0 0,4.435 0,12.951 -9.28,9.281 -25.888,0 0,-9.588 0,-12.644 0,-4.435 L 0,0 Z"
             style="fill:#f4da80;fill-opacity:1;fill-rule:nonzero;stroke:none"
             id="path98"
             inkscape:connector-curvature="0" /></g><g
           id="g100"
           transform="translate(86.1958,28.9575)"><path
             d="M 0,0 9.28,0 0,9.281 0,0 Z"
             style="fill:#f7f8fc;fill-opacity:1;fill-rule:nonzero;stroke:none"
             id="path102"
             inkscape:connector-curvature="0" /></g><g
           id="g104"
           transform="translate(95.4761,28.9575)"><path
             d="M 0,0 -9.28,0 0,-9.28 0,0 Z"
             style="fill:#f0ca67;fill-opacity:1;fill-rule:nonzero;stroke:none"
             id="path106"
             inkscape:connector-curvature="0" /></g><g
           id="g108"
           transform="translate(51.0581,41.7388)"><path
             d="m 0,0 c 0,-1.197 0.971,-2.167 2.167,-2.167 1.196,0 2.167,0.97 2.167,2.167 0,1.197 -0.971,2.166 -2.167,2.166 C 0.971,2.166 0,1.197 0,0"
             style="fill:#484f59;fill-opacity:1;fill-rule:nonzero;stroke:none"
             id="path110"
             inkscape:connector-curvature="0" /></g><g
           id="g112"
           transform="translate(71.3921,25.6553)"><path
             d="m 0,0 -19,0 0,16.25 2,0 L -17,2 0,2 0,0 Z"
             style="fill:#484f59;fill-opacity:1;fill-rule:nonzero;stroke:none"
             id="path114"
             inkscape:connector-curvature="0" /></g><g
           id="g116"
           transform="translate(114.3921,41.6548)"><path
             d="m 0,0 0,3.235 0,9.444 -6.768,6.768 -18.878,0 0,-6.993 0,-9.219 0,-3.235 L 0,0 Z"
             style="fill:#82cf8f;fill-opacity:1;fill-rule:nonzero;stroke:none"
             id="path118"
             inkscape:connector-curvature="0" /></g><g
           id="g120"
           transform="translate(107.624,54.3335)"><path
             d="M 0,0 6.768,0 0,6.768 0,0 Z"
             style="fill:#e5e8ec;fill-opacity:1;fill-rule:nonzero;stroke:none"
             id="path122"
             inkscape:connector-curvature="0" /></g><g
           id="g124"
           transform="translate(114.3921,54.3335)"><path
             d="M 0,0 -6.768,0 0,-6.767 0,0 Z"
             style="fill:#7ac286;fill-opacity:1;fill-rule:nonzero;stroke:none"
             id="path126"
             inkscape:connector-curvature="0" /></g><g
           id="g128"
           transform="translate(65.1831,53.6128)"><path
             d="m 0,0 c 0,-1.196 0.971,-2.166 2.167,-2.166 1.196,0 2.167,0.97 2.167,2.166 0,1.197 -0.971,2.168 -2.167,2.168 C 0.971,2.168 0,1.197 0,0"
             style="fill:#484f59;fill-opacity:1;fill-rule:nonzero;stroke:none"
             id="path130"
             inkscape:connector-curvature="0" /></g><g
           id="g132"
           transform="translate(97.1831,46.1128)"><path
             d="m 0,0 -30.666,0 0,7.668 2,0 0,-5.668 L 0,2 0,0 Z"
             style="fill:#484f59;fill-opacity:1;fill-rule:nonzero;stroke:none"
             id="path134"
             inkscape:connector-curvature="0" /></g></g></g></g></svg>