<?xml version="1.0" encoding="UTF-8" standalone="no"?>
<!-- Created with Inkscape (http://www.inkscape.org/) -->

<svg
   xmlns:dc="http://purl.org/dc/elements/1.1/"
   xmlns:cc="http://creativecommons.org/ns#"
   xmlns:rdf="http://www.w3.org/1999/02/22-rdf-syntax-ns#"
   xmlns:svg="http://www.w3.org/2000/svg"
   xmlns="http://www.w3.org/2000/svg"
   xmlns:sodipodi="http://sodipodi.sourceforge.net/DTD/sodipodi-0.dtd"
   xmlns:inkscape="http://www.inkscape.org/namespaces/inkscape"
   id="svg3507"
   version="1.1"
   inkscape:version="0.91 r13725"
   xml:space="preserve"
   width="132.5"
   height="147.06"
   viewBox="0 0 132.5 147.06"
   sodipodi:docname="advertese-site-ban.svg"><metadata
     id="metadata3513"><rdf:RDF><cc:Work
         rdf:about=""><dc:format>image/svg+xml</dc:format><dc:type
           rdf:resource="http://purl.org/dc/dcmitype/StillImage" /><dc:title></dc:title></cc:Work></rdf:RDF></metadata><defs
     id="defs3511"><clipPath
       clipPathUnits="userSpaceOnUse"
       id="clipPath3521"><path
         d="m 0,117.648 106,0 L 106,0 0,0 0,117.648 Z"
         id="path3523"
         inkscape:connector-curvature="0" /></clipPath><clipPath
       clipPathUnits="userSpaceOnUse"
       id="clipPath3533"><path
         d="M 0,65.473 C 0,36.704 23.775,13.298 53,13.298 l 0,0 c 29.225,0 53,23.406 53,52.175 l 0,0 c 0,28.768 -23.775,52.174 -53,52.174 l 0,0 C 23.775,117.647 0,94.241 0,65.473"
         id="path3535"
         inkscape:connector-curvature="0" /></clipPath><clipPath
       clipPathUnits="userSpaceOnUse"
       id="clipPath3581"><path
         d="m 0,117.648 106,0 L 106,0 0,0 0,117.648 Z"
         id="path3583"
         inkscape:connector-curvature="0" /></clipPath></defs><sodipodi:namedview
     pagecolor="#ffffff"
     bordercolor="#666666"
     borderopacity="1"
     objecttolerance="10"
     gridtolerance="10"
     guidetolerance="10"
     inkscape:pageopacity="0"
     inkscape:pageshadow="2"
     inkscape:window-width="640"
     inkscape:window-height="480"
     id="namedview3509"
     showgrid="false"
     inkscape:zoom="1.6047872"
     inkscape:cx="66.25"
     inkscape:cy="68.684596"
     inkscape:window-x="0"
     inkscape:window-y="0"
     inkscape:window-maximized="0"
     inkscape:current-layer="g3515" /><g
     id="g3515"
     inkscape:groupmode="layer"
     inkscape:label="advertese-site-ban"
     transform="matrix(1.25,0,0,-1.25,0,147.06)"><g
       id="g3517"><g
         id="g3519"
         clip-path="url(#clipPath3521)"><g
           id="g3525"
           transform="translate(53,13.2979)"><path
             d="m 0,0 c -29.225,0 -53,23.406 -53,52.176 0,28.767 23.775,52.174 53,52.174 29.225,0 53,-23.407 53,-52.174 C 53,23.406 29.225,0 0,0"
             style="fill:#e5e8ec;fill-opacity:1;fill-rule:nonzero;stroke:none"
             id="path3527"
             inkscape:connector-curvature="0" /></g></g></g><g
       id="g3529"><g
         id="g3531"
         clip-path="url(#clipPath3533)"><g
           id="g3537"
           transform="translate(51.4131,34.3486)"><path
             d="m 0,0 0,0 c 0.457,0 0.828,0.547 0.828,1.229 l 0,56.88 c 0,0.682 -0.373,1.233 -0.828,1.233 -0.459,0 -0.828,-0.555 -0.828,-1.233 L -0.826,1.229 C -0.826,0.547 -0.455,0 0,0"
             style="fill:#7ac286;fill-opacity:1;fill-rule:nonzero;stroke:none"
             id="path3539"
             inkscape:connector-curvature="0" /></g><g
           id="g3541"
           transform="translate(51.3809,43.9961)"><path
             d="m 0,0 0,0 c 0.321,0.323 0.321,0.847 -0.002,1.171 l -5.352,5.353 c -0.324,0.321 -0.848,0.321 -1.171,0 -0.324,-0.324 -0.324,-0.849 0,-1.172 L -1.172,0 C -0.848,-0.323 -0.322,-0.323 0,0"
             style="fill:#7ac286;fill-opacity:1;fill-rule:nonzero;stroke:none"
             id="path3543"
             inkscape:connector-curvature="0" /></g><g
           id="g3545"
           transform="translate(30.6387,64.7373)"><path
             d="m 0,0 c 4.503,2.104 10.018,1.314 13.733,-2.4 3.716,-3.715 4.506,-9.233 2.399,-13.733 C 11.635,-18.238 6.116,-17.447 2.4,-13.733 -1.315,-10.016 -2.107,-4.5 0,0"
             style="fill:#7ac286;fill-opacity:1;fill-rule:nonzero;stroke:none"
             id="path3547"
             inkscape:connector-curvature="0" /></g><g
           id="g3549"
           transform="translate(46.7705,48.6045)"><path
             d="m 0,0 c -4.497,-2.105 -10.016,-1.314 -13.731,2.399 -3.716,3.718 -4.508,9.234 -2.401,13.734 L 0,0 Z"
             style="fill:#afd7a6;fill-opacity:1;fill-rule:nonzero;stroke:none"
             id="path3551"
             inkscape:connector-curvature="0" /></g><g
           id="g3553"
           transform="translate(51.4902,43.9961)"><path
             d="m 0,0 0,0 c -0.322,0.323 -0.322,0.847 0,1.171 l 5.353,5.353 c 0.325,0.321 0.847,0.321 1.171,0 0.323,-0.324 0.323,-0.849 0,-1.172 L 1.167,0 C 0.847,-0.323 0.324,-0.323 0,0"
             style="fill:#7ac286;fill-opacity:1;fill-rule:nonzero;stroke:none"
             id="path3555"
             inkscape:connector-curvature="0" /></g><g
           id="g3557"
           transform="translate(72.2324,64.7373)"><path
             d="m 0,0 c -4.499,2.104 -10.018,1.314 -13.733,-2.4 -3.716,-3.715 -4.505,-9.233 -2.399,-13.733 4.497,-2.105 10.017,-1.314 13.734,2.4 C 1.315,-10.016 2.107,-4.5 0,0"
             style="fill:#7ac286;fill-opacity:1;fill-rule:nonzero;stroke:none"
             id="path3559"
             inkscape:connector-curvature="0" /></g><g
           id="g3561"
           transform="translate(56.1006,48.6045)"><path
             d="m 0,0 c 4.497,-2.105 10.017,-1.314 13.733,2.399 3.714,3.718 4.506,9.234 2.399,13.734 L 0,0 Z"
             style="fill:#afd7a6;fill-opacity:1;fill-rule:nonzero;stroke:none"
             id="path3563"
             inkscape:connector-curvature="0" /></g><g
           id="g3565"
           transform="translate(31.584,1.9063)"><path
             d="m 0,0 c 0.138,-1.056 1.025,-1.906 1.981,-1.906 l 35.569,0 c 0.953,0 1.843,0.85 1.981,1.906 1.12,8.665 2.243,17.331 3.367,25.997 0.14,1.053 -0.68,1.904 -1.834,1.904 l -42.599,0 c -1.15,0 -1.972,-0.851 -1.832,-1.904 C -2.247,17.331 -1.123,8.665 0,0"
             style="fill:#484f59;fill-opacity:1;fill-rule:nonzero;stroke:none"
             id="path3567"
             inkscape:connector-curvature="0" /></g><g
           id="g3569"
           transform="translate(30.0488,29.8076)"><path
             d="m 0,0 42.6,0 c 1.153,0 1.973,-0.852 1.834,-1.904 -0.23,-1.766 -0.457,-3.529 -0.689,-5.291 l -44.892,0 C -1.375,-5.433 -1.603,-3.67 -1.832,-1.904 -1.972,-0.852 -1.149,0 0,0"
             style="fill:#30363d;fill-opacity:1;fill-rule:nonzero;stroke:none"
             id="path3571"
             inkscape:connector-curvature="0" /></g><g
           id="g3573"
           transform="translate(75.8975,26.6025)"><path
             d="m 0,0 -49.097,0 -1.499,10.867 52.095,0 L 0,0 Z"
             style="fill:#484f59;fill-opacity:1;fill-rule:nonzero;stroke:none"
             id="path3575"
             inkscape:connector-curvature="0" /></g></g></g><g
       id="g3577"><g
         id="g3579"
         clip-path="url(#clipPath3581)"><path
           d="m 23.53,72.435 57.818,0 0,31.768 -57.818,0 0,-31.768 z"
           style="fill:#7ac286;fill-opacity:1;fill-rule:nonzero;stroke:none"
           id="path3585"
           inkscape:connector-curvature="0" /><g
           id="g3587"
           transform="translate(51.9141,84.5117)"><path
             d="m 0,0 c -1.252,0 -2.396,0.405 -3.209,0.853 l -0.577,-2.262 c 0.736,-0.406 1.989,-0.773 3.283,-0.832 l 0,-1.832 1.911,0 0,1.989 c 2.225,0.366 3.418,1.832 3.418,3.552 0,1.757 -0.903,2.818 -3.204,3.631 -1.66,0.599 -2.336,1.025 -2.336,1.642 0,0.542 0.405,1.102 1.663,1.102 1.388,0 2.296,-0.447 2.78,-0.678 l 0.58,2.183 C 3.633,9.655 2.763,9.946 1.489,9.987 l 0,1.698 -1.893,0 0,-1.832 c -2.07,-0.385 -3.264,-1.72 -3.264,-3.439 0,-1.873 1.407,-2.843 3.477,-3.538 C 1.255,2.396 1.876,1.932 1.876,1.196 1.876,0.442 1.118,0 0,0"
             style="fill:#afd7a6;fill-opacity:1;fill-rule:nonzero;stroke:none"
             id="path3589"
             inkscape:connector-curvature="0" /></g><g
           id="g3591"
           transform="translate(69.0928,85.4941)"><path
             d="M 0,0 C 1.558,0 2.822,1.268 2.822,2.825 2.822,4.382 1.558,5.646 0,5.646 -1.555,5.646 -2.822,4.382 -2.822,2.825 -2.822,1.268 -1.555,0 0,0"
             style="fill:#afd7a6;fill-opacity:1;fill-rule:nonzero;stroke:none"
             id="path3593"
             inkscape:connector-curvature="0" /></g><g
           id="g3595"
           transform="translate(35.7773,85.4941)"><path
             d="M 0,0 C 1.559,0 2.822,1.268 2.822,2.825 2.822,4.382 1.559,5.646 0,5.646 -1.555,5.646 -2.822,4.382 -2.822,2.825 -2.822,1.268 -1.555,0 0,0"
             style="fill:#afd7a6;fill-opacity:1;fill-rule:nonzero;stroke:none"
             id="path3597"
             inkscape:connector-curvature="0" /></g><g
           id="g3599"
           transform="translate(35.7773,92.5713)"><path
             d="m 0,0 c 2.349,0 4.253,-1.908 4.253,-4.252 0,-2.346 -1.904,-4.257 -4.253,-4.257 -2.343,0 -4.25,1.911 -4.25,4.257 C -4.25,-1.908 -2.343,0 0,0 m 16.655,5.967 c 5.651,0 10.226,-4.577 10.226,-10.219 0,-5.649 -4.575,-10.224 -10.226,-10.224 -5.64,0 -10.217,4.575 -10.217,10.224 0,5.642 4.577,10.219 10.217,10.219 M 33.315,0 c 2.344,0 4.25,-1.908 4.25,-4.252 0,-2.346 -1.906,-4.257 -4.25,-4.257 -2.344,0 -4.25,1.911 -4.25,4.257 0,2.344 1.906,4.252 4.25,4.252 M -9.083,-14.137 c 1.59,0.22 3.129,-1.132 3.129,-2.785 0,-0.004 -0.022,-0.205 -0.022,-0.211 -0.009,-0.195 0.059,-0.387 0.195,-0.529 0.135,-0.141 0.325,-0.221 0.517,-0.221 l 43.846,0 c 0.196,0 0.376,0.176 0.511,0.321 0.136,0.146 0.193,0.435 0.178,0.632 0,1.557 1.269,2.823 2.827,2.823 0.104,0 0.204,-0.016 0.414,-0.044 0.209,-0.028 0.409,0.036 0.564,0.174 0.154,0.135 0.239,0.331 0.239,0.536 l 0,18.378 c 0,0.208 -0.087,0.405 -0.246,0.542 -0.16,0.133 -0.373,0.199 -0.574,0.164 -1.635,-0.239 -3.224,1.088 -3.224,2.77 L 38.582,8.46 39.294,8.614 C 39.31,8.813 39.239,9.007 39.105,9.15 38.97,9.296 38.778,9.379 38.582,9.379 l -43.846,0 C -5.456,9.379 -5.634,9.195 -5.77,9.053 -5.905,8.912 -5.963,8.614 -5.954,8.42 -5.954,6.73 -7.561,5.404 -9.177,5.643 -9.378,5.678 -9.591,5.612 -9.749,5.479 -9.908,5.342 -9.995,5.145 -9.995,4.937 l 0,-18.378 c 0,-0.207 0.139,-0.398 0.293,-0.534 0.158,-0.134 0.414,-0.189 0.619,-0.162"
             style="fill:#afd7a6;fill-opacity:1;fill-rule:nonzero;stroke:none"
             id="path3601"
             inkscape:connector-curvature="0" /></g></g></g></g></svg>