<?xml version="1.0" encoding="UTF-8" standalone="no"?>
<!-- Created with Inkscape (http://www.inkscape.org/) -->

<svg
   xmlns:dc="http://purl.org/dc/elements/1.1/"
   xmlns:cc="http://creativecommons.org/ns#"
   xmlns:rdf="http://www.w3.org/1999/02/22-rdf-syntax-ns#"
   xmlns:svg="http://www.w3.org/2000/svg"
   xmlns="http://www.w3.org/2000/svg"
   xmlns:sodipodi="http://sodipodi.sourceforge.net/DTD/sodipodi-0.dtd"
   xmlns:inkscape="http://www.inkscape.org/namespaces/inkscape"
   id="svg3603"
   version="1.1"
   inkscape:version="0.91 r13725"
   xml:space="preserve"
   width="132.5"
   height="130.4375"
   viewBox="0 0 132.5 130.4375"
   sodipodi:docname="bed-ban.svg"><metadata
     id="metadata3609"><rdf:RDF><cc:Work
         rdf:about=""><dc:format>image/svg+xml</dc:format><dc:type
           rdf:resource="http://purl.org/dc/dcmitype/StillImage" /><dc:title></dc:title></cc:Work></rdf:RDF></metadata><defs
     id="defs3607"><clipPath
       clipPathUnits="userSpaceOnUse"
       id="clipPath3617"><path
         d="m 0,104.35 106,0 L 106,0 0,0 0,104.35 Z"
         id="path3619"
         inkscape:connector-curvature="0" /></clipPath></defs><sodipodi:namedview
     pagecolor="#ffffff"
     bordercolor="#666666"
     borderopacity="1"
     objecttolerance="10"
     gridtolerance="10"
     guidetolerance="10"
     inkscape:pageopacity="0"
     inkscape:pageshadow="2"
     inkscape:window-width="640"
     inkscape:window-height="480"
     id="namedview3605"
     showgrid="false"
     inkscape:zoom="1.8092956"
     inkscape:cx="66.25"
     inkscape:cy="65.21875"
     inkscape:window-x="0"
     inkscape:window-y="0"
     inkscape:window-maximized="0"
     inkscape:current-layer="g3611" /><g
     id="g3611"
     inkscape:groupmode="layer"
     inkscape:label="bed-ban"
     transform="matrix(1.25,0,0,-1.25,0,130.4375)"><g
       id="g3613"><g
         id="g3615"
         clip-path="url(#clipPath3617)"><g
           id="g3621"
           transform="translate(53,0)"><path
             d="m 0,0 c -29.225,0 -53,23.406 -53,52.175 0,28.77 23.775,52.175 53,52.175 29.225,0 53,-23.405 53,-52.175 C 53,23.406 29.225,0 0,0"
             style="fill:#484f59;fill-opacity:1;fill-rule:nonzero;stroke:none"
             id="path3623"
             inkscape:connector-curvature="0" /></g><g
           id="g3625"
           transform="translate(28.3613,68.333)"><path
             d="m 0,0 35.787,0 0,-3.928 -39.006,0 0,0.709 C -3.219,-1.444 -1.773,0 0,0 m 52.496,-12.076 -14.193,0 0,1.681 14.193,0 0,-1.681 z m 0,-8.392 -14.193,0 0,5.873 14.193,0 0,-5.873 z m -3.221,-5.073 -10.972,0 0,2.556 14.193,0 0,-3.548 c -0.92,0.626 -2.027,0.992 -3.221,0.992 m -10.972,-5.835 14.193,0 0,-0.61 -14.193,0 0,0.61 z m 0,3.318 10.972,0 c 0.813,0 1.553,-0.304 2.121,-0.801 l -13.093,0 0,0.801 z m -38.303,0 35.787,0 0,-3.928 -39.006,0 0,0.711 c 0,1.773 1.446,3.217 3.219,3.217 m 35.787,17.662 0,-15.145 -20.57,0 0,0.745 c 0,2.949 -2.399,5.348 -5.346,5.348 l -6.717,0 c -2.947,0 -5.345,-2.399 -5.345,-5.348 l 0,-1.183 c -0.364,-0.15 -0.707,-0.336 -1.028,-0.554 l 0,16.137 39.006,0 z M 49.275,0 c 1.778,0 3.221,-1.444 3.221,-3.219 l 0,-0.709 -14.193,0 0,3.928 10.972,0 z m 3.221,6.375 0,-4.852 c -0.92,0.625 -2.025,0.993 -3.221,0.993 l -10.972,0 0,3.859 -2.516,0 0,-3.859 -20.57,0 0,0.746 c 0,2.947 -2.399,5.346 -5.346,5.346 l -6.717,0 c -2.947,0 -5.345,-2.399 -5.345,-5.346 l 0,-1.184 C -2.555,1.928 -2.898,1.743 -3.219,1.525 l 0,9.846 -2.515,0 0,-55.058 2.515,0 0,5.234 39.006,0 0,-5.234 2.516,0 0,5.234 14.193,0 0,-5.234 2.516,0 0,50.062 -2.516,0 z"
             style="fill:#b7bec0;fill-opacity:1;fill-rule:nonzero;stroke:none"
             id="path3627"
             inkscape:connector-curvature="0" /></g><path
           d="m 66.664,24.646 -2.516,0 0,50.062 2.516,0 0,-50.062 z"
           style="fill:#e04037;fill-opacity:1;fill-rule:nonzero;stroke:none"
           id="path3629"
           inkscape:connector-curvature="0" /><path
           d="m 83.373,24.646 -2.516,0 0,50.062 2.516,0 0,-50.062 z"
           style="fill:#e04037;fill-opacity:1;fill-rule:nonzero;stroke:none"
           id="path3631"
           inkscape:connector-curvature="0" /><path
           d="m 64.947,47.889 17.93,0 0,-2.517 -17.93,0 0,2.517 z"
           style="fill:#e04037;fill-opacity:1;fill-rule:nonzero;stroke:none"
           id="path3633"
           inkscape:connector-curvature="0" /><path
           d="m 64.947,56.243 17.93,0 0,-2.517 -17.93,0 0,2.517 z"
           style="fill:#e04037;fill-opacity:1;fill-rule:nonzero;stroke:none"
           id="path3635"
           inkscape:connector-curvature="0" /><path
           d="m 64.947,39.534 17.93,0 0,-2.516 -17.93,0 0,2.516 z"
           style="fill:#e04037;fill-opacity:1;fill-rule:nonzero;stroke:none"
           id="path3637"
           inkscape:connector-curvature="0" /><path
           d="m 64.947,64.499 17.93,0 0,-2.516 -17.93,0 0,2.516 z"
           style="fill:#e04037;fill-opacity:1;fill-rule:nonzero;stroke:none"
           id="path3639"
           inkscape:connector-curvature="0" /><g
           id="g3641"
           transform="translate(43.5566,70.748)"><path
             d="m 0,0 c 0,0.036 0.006,0.071 0.006,0.106 l 0,0.961 c 0,2.831 -2.113,5.126 -4.719,5.126 l -7.863,0 c -2.606,0 -4.717,-2.295 -4.717,-5.126 l 0,-0.961 c 0,-0.035 0.004,-0.07 0.004,-0.106 L 0,0 Z"
             style="fill:#00c6da;fill-opacity:1;fill-rule:nonzero;stroke:none"
             id="path3643"
             inkscape:connector-curvature="0" /></g><g
           id="g3645"
           transform="translate(43.5566,42.7031)"><path
             d="m 0,0 c 0,0.037 0.006,0.071 0.006,0.106 l 0,0.962 c 0,2.83 -2.113,5.124 -4.719,5.124 l -7.863,0 c -2.606,0 -4.717,-2.294 -4.717,-5.124 l 0,-0.962 c 0,-0.035 0.004,-0.069 0.004,-0.106 L 0,0 Z"
             style="fill:#00c6da;fill-opacity:1;fill-rule:nonzero;stroke:none"
             id="path3647"
             inkscape:connector-curvature="0" /></g></g></g></g></svg>