<?xml version="1.0" encoding="UTF-8" standalone="no"?>
<!-- Created with Inkscape (http://www.inkscape.org/) -->

<svg
   xmlns:dc="http://purl.org/dc/elements/1.1/"
   xmlns:cc="http://creativecommons.org/ns#"
   xmlns:rdf="http://www.w3.org/1999/02/22-rdf-syntax-ns#"
   xmlns:svg="http://www.w3.org/2000/svg"
   xmlns="http://www.w3.org/2000/svg"
   xmlns:sodipodi="http://sodipodi.sourceforge.net/DTD/sodipodi-0.dtd"
   xmlns:inkscape="http://www.inkscape.org/namespaces/inkscape"
   id="svg3649"
   version="1.1"
   inkscape:version="0.91 r13725"
   xml:space="preserve"
   width="132.5"
   height="130.4375"
   viewBox="0 0 132.5 130.4375"
   sodipodi:docname="brief-case-ban.svg"><metadata
     id="metadata3655"><rdf:RDF><cc:Work
         rdf:about=""><dc:format>image/svg+xml</dc:format><dc:type
           rdf:resource="http://purl.org/dc/dcmitype/StillImage" /><dc:title></dc:title></cc:Work></rdf:RDF></metadata><defs
     id="defs3653"><clipPath
       clipPathUnits="userSpaceOnUse"
       id="clipPath3663"><path
         d="m 0,104.35 106,0 L 106,0 0,0 0,104.35 Z"
         id="path3665"
         inkscape:connector-curvature="0" /></clipPath></defs><sodipodi:namedview
     pagecolor="#ffffff"
     bordercolor="#666666"
     borderopacity="1"
     objecttolerance="10"
     gridtolerance="10"
     guidetolerance="10"
     inkscape:pageopacity="0"
     inkscape:pageshadow="2"
     inkscape:window-width="640"
     inkscape:window-height="480"
     id="namedview3651"
     showgrid="false"
     inkscape:zoom="1.8092956"
     inkscape:cx="66.25"
     inkscape:cy="65.21875"
     inkscape:window-x="0"
     inkscape:window-y="0"
     inkscape:window-maximized="0"
     inkscape:current-layer="g3657" /><g
     id="g3657"
     inkscape:groupmode="layer"
     inkscape:label="brief-case-ban"
     transform="matrix(1.25,0,0,-1.25,0,130.4375)"><g
       id="g3659"><g
         id="g3661"
         clip-path="url(#clipPath3663)"><g
           id="g3667"
           transform="translate(53,0)"><path
             d="m 0,0 c -29.225,0 -53,23.406 -53,52.175 0,28.77 23.775,52.175 53,52.175 29.225,0 53,-23.405 53,-52.175 C 53,23.406 29.225,0 0,0"
             style="fill:#ff876c;fill-opacity:1;fill-rule:nonzero;stroke:none"
             id="path3669"
             inkscape:connector-curvature="0" /></g><g
           id="g3671"
           transform="translate(87.3877,28.8472)"><path
             d="m 0,0 c 0,-0.305 -0.245,-0.552 -0.551,-0.552 l -65.563,0 c -0.305,0 -0.552,0.247 -0.552,0.552 l 0,43.801 c 0,0.304 0.247,0.551 0.552,0.551 l 65.563,0 C -0.245,44.352 0,44.105 0,43.801 L 0,0 Z"
             style="fill:#282d33;fill-opacity:1;fill-rule:nonzero;stroke:none"
             id="path3673"
             inkscape:connector-curvature="0" /></g><path
           d="m 47.265,69.484 13.581,0 0,7.062 -13.581,0 0,-7.062 z m -1.199,-1.845 c -0.357,0 -0.648,0.29 -0.648,0.646 l 0,9.46 c 0,0.357 0.291,0.647 0.648,0.647 l 15.977,0 c 0.358,0 0.648,-0.29 0.648,-0.647 l 0,-9.46 c 0,-0.356 -0.29,-0.646 -0.648,-0.646 l -15.977,0 z"
           style="fill:#30363d;fill-opacity:1;fill-rule:nonzero;stroke:none"
           id="path3675"
           inkscape:connector-curvature="0" /><g
           id="g3677"
           transform="translate(87.3877,56.1177)"><path
             d="m 0,0 c 0,-1.203 -0.964,-2.432 -2.159,-2.725 -20.494,-4.901 -41.856,-4.901 -62.35,0 -1.194,0.293 -2.16,1.522 -2.157,2.725 l 0,14.842 c -0.003,1.201 0.977,2.183 2.189,2.191 l 62.287,0 C -0.979,17.025 0,16.043 0,14.842 L 0,0 Z"
             style="fill:#282d33;fill-opacity:1;fill-rule:nonzero;stroke:none"
             id="path3679"
             inkscape:connector-curvature="0" /></g><g
           id="g3681"
           transform="translate(54.0547,51.1768)"><path
             d="m 0,0 c -10.375,0 -20.749,1.224 -30.837,3.635 -0.528,0.132 -1.037,0.763 -1.037,1.306 l 0,14.842 c 0,0.402 0.331,0.728 0.737,0.73 l 62.28,0 c 0.4,-0.002 0.732,-0.33 0.732,-0.731 l 0,-14.841 c 0,-0.543 -0.51,-1.176 -1.047,-1.307 C 20.746,1.224 10.373,0 0,0"
             style="fill:#30363d;fill-opacity:1;fill-rule:nonzero;stroke:none"
             id="path3683"
             inkscape:connector-curvature="0" /></g><g
           id="g3685"
           transform="translate(54.0547,51.7974)"><path
             d="m 0,0 c -10.13,0 -20.265,1.255 -30.338,3.727 -0.53,0.133 -1.067,0.785 -1.102,1.337 -0.307,5.072 -0.612,10.145 -0.917,15.217 -0.028,0.41 0.289,0.746 0.703,0.748 l 63.318,0 c 0.405,-0.002 0.719,-0.338 0.693,-0.748 C 32.052,15.208 31.745,10.136 31.439,5.064 31.408,4.513 30.866,3.859 30.331,3.726 20.268,1.255 10.129,0 0,0"
             style="fill:#484f59;fill-opacity:1;fill-rule:nonzero;stroke:none"
             id="path3687"
             inkscape:connector-curvature="0" /></g><g
           id="g3689"
           transform="translate(35.2422,73.272)"><path
             d="m 0,0 0,-17.282 0,-2.136 0,-6.324 0,-10.959 0,-8.459 6.312,0 0,8.459 0,10.959 0,6.324 0,2.136 L 6.312,0 0,0 Z"
             style="fill:#30363d;fill-opacity:1;fill-rule:nonzero;stroke:none"
             id="path3691"
             inkscape:connector-curvature="0" /></g><g
           id="g3693"
           transform="translate(36.0088,73.272)"><path
             d="m 0,0 0,-19.418 c 0,-0.967 0.028,-1.753 0.062,-1.753 l 0.598,0 c 0.032,0 0.061,0.786 0.061,1.753 L 0.721,0 0,0 Z"
             style="fill:#282d33;fill-opacity:1;fill-rule:nonzero;stroke:none"
             id="path3695"
             inkscape:connector-curvature="0" /></g><g
           id="g3697"
           transform="translate(40.0664,73.272)"><path
             d="m 0,0 0,-19.418 c 0,-0.967 0.027,-1.753 0.061,-1.753 l 0.599,0 c 0.031,0 0.062,0.786 0.062,1.753 L 0.722,0 0,0 Z"
             style="fill:#282d33;fill-opacity:1;fill-rule:nonzero;stroke:none"
             id="path3699"
             inkscape:connector-curvature="0" /></g><g
           id="g3701"
           transform="translate(40.7881,28.2383)"><path
             d="m 0,0 0,19.418 c 0,0.968 -0.028,1.754 -0.06,1.754 l -0.599,0 c -0.033,0 -0.063,-0.786 -0.063,-1.754 L -0.722,0 0,0 Z"
             style="fill:#282d33;fill-opacity:1;fill-rule:nonzero;stroke:none"
             id="path3703"
             inkscape:connector-curvature="0" /></g><g
           id="g3705"
           transform="translate(36.7295,28.2383)"><path
             d="m 0,0 0,19.418 c 0,0.968 -0.026,1.754 -0.06,1.754 l -0.598,0 c -0.032,0 -0.063,-0.786 -0.063,-1.754 L -0.721,0 0,0 Z"
             style="fill:#282d33;fill-opacity:1;fill-rule:nonzero;stroke:none"
             id="path3707"
             inkscape:connector-curvature="0" /></g><g
           id="g3709"
           transform="translate(41.2246,46.6636)"><path
             d="m 0,0 c 0,-0.266 -0.21,-0.564 -0.471,-0.647 -1.535,-0.473 -3.175,-0.473 -4.711,0 -0.263,0.083 -0.471,0.381 -0.471,0.647 l 0,5.652 c 0,0.265 0.21,0.564 0.471,0.647 1.536,0.472 3.176,0.472 4.711,0 C -0.209,6.216 0,5.917 0,5.652 L 0,0 Z"
             style="fill:#b7bec0;fill-opacity:1;fill-rule:nonzero;stroke:none"
             id="path3711"
             inkscape:connector-curvature="0" /></g><g
           id="g3713"
           transform="translate(40.7539,52.7705)"><path
             d="m 0,0 c -1.535,0.445 -3.175,0.445 -4.711,0 -0.262,-0.077 -0.472,-0.36 -0.472,-0.608 l 0,-2.462 c 0.018,-0.002 0.036,-0.009 0.052,-0.009 l 5.602,0 0,2.471 C 0.471,-0.36 0.262,-0.077 0,0"
             style="fill:#cdd5d7;fill-opacity:1;fill-rule:nonzero;stroke:none"
             id="path3715"
             inkscape:connector-curvature="0" /></g><g
           id="g3717"
           transform="translate(35.5713,49.168)"><path
             d="m 0,0 0,-2.504 c 0,-0.266 0.208,-0.564 0.472,-0.648 1.536,-0.472 3.175,-0.472 4.711,0 0.26,0.084 0.47,0.382 0.47,0.648 L 5.653,0 0,0 Z"
             style="fill:#b7bec0;fill-opacity:1;fill-rule:nonzero;stroke:none"
             id="path3719"
             inkscape:connector-curvature="0" /></g><g
           id="g3721"
           transform="translate(38.3984,46.1455)"><path
             d="m 0,0 c -0.75,0 -1.494,0.114 -2.213,0.333 -0.055,0.019 -0.129,0.129 -0.129,0.183 l 0,2.02 4.684,0 0,-2.018 C 2.342,0.458 2.264,0.35 2.208,0.332 1.494,0.114 0.752,0 0,0"
             style="fill:#b7bec0;fill-opacity:1;fill-rule:nonzero;stroke:none"
             id="path3723"
             inkscape:connector-curvature="0" /></g><g
           id="g3725"
           transform="translate(38.3984,46.1167)"><path
             d="m 0,0 c -0.754,0 -1.5,0.113 -2.221,0.334 -0.064,0.02 -0.152,0.139 -0.15,0.212 l 0,5.653 c 0,0.072 0.086,0.192 0.153,0.213 0.718,0.22 1.464,0.333 2.218,0.333 0.754,0 1.502,-0.113 2.223,-0.334 0.062,-0.02 0.149,-0.14 0.149,-0.215 l 0,-5.649 C 2.372,0.476 2.286,0.354 2.219,0.334 1.501,0.113 0.754,0 0,0"
             style="fill:#282d33;fill-opacity:1;fill-rule:nonzero;stroke:none"
             id="path3727"
             inkscape:connector-curvature="0" /></g><g
           id="g3729"
           transform="translate(38.1104,49.0815)"><path
             d="m 0,0 0,-2.798 c 0,-0.073 0.011,-0.191 0.018,-0.211 0.086,-0.222 0.178,-0.335 0.27,-0.335 0.092,0 0.183,0.113 0.27,0.334 0.008,0.021 0.019,0.142 0.019,0.213 L 0.577,0 0,0 Z"
             style="fill:#cdd5d7;fill-opacity:1;fill-rule:nonzero;stroke:none"
             id="path3731"
             inkscape:connector-curvature="0" /></g><g
           id="g3733"
           transform="translate(66.5557,73.272)"><path
             d="m 0,0 0,-17.282 0,-2.136 0,-6.324 0,-10.959 0,-8.459 6.312,0 0,8.459 0,10.959 0,6.324 0,2.136 L 6.312,0 0,0 Z"
             style="fill:#30363d;fill-opacity:1;fill-rule:nonzero;stroke:none"
             id="path3735"
             inkscape:connector-curvature="0" /></g><g
           id="g3737"
           transform="translate(67.3223,73.272)"><path
             d="m 0,0 0,-19.418 c 0,-0.967 0.027,-1.753 0.06,-1.753 l 0.598,0 c 0.034,0 0.063,0.786 0.063,1.753 L 0.721,0 0,0 Z"
             style="fill:#282d33;fill-opacity:1;fill-rule:nonzero;stroke:none"
             id="path3739"
             inkscape:connector-curvature="0" /></g><g
           id="g3741"
           transform="translate(71.3799,73.272)"><path
             d="m 0,0 0,-19.418 c 0,-0.967 0.028,-1.753 0.061,-1.753 l 0.598,0 c 0.033,0 0.063,0.786 0.063,1.753 L 0.722,0 0,0 Z"
             style="fill:#282d33;fill-opacity:1;fill-rule:nonzero;stroke:none"
             id="path3743"
             inkscape:connector-curvature="0" /></g><g
           id="g3745"
           transform="translate(72.1016,28.2383)"><path
             d="m 0,0 0,19.418 c 0,0.968 -0.028,1.754 -0.061,1.754 l -0.599,0 c -0.033,0 -0.062,-0.786 -0.062,-1.754 L -0.722,0 0,0 Z"
             style="fill:#282d33;fill-opacity:1;fill-rule:nonzero;stroke:none"
             id="path3747"
             inkscape:connector-curvature="0" /></g><g
           id="g3749"
           transform="translate(68.043,28.2383)"><path
             d="m 0,0 0,19.418 c 0,0.968 -0.028,1.754 -0.061,1.754 l -0.597,0 c -0.034,0 -0.063,-0.786 -0.063,-1.754 L -0.721,0 0,0 Z"
             style="fill:#282d33;fill-opacity:1;fill-rule:nonzero;stroke:none"
             id="path3751"
             inkscape:connector-curvature="0" /></g><g
           id="g3753"
           transform="translate(72.5381,46.6636)"><path
             d="m 0,0 c -0.001,-0.266 -0.21,-0.564 -0.471,-0.647 -1.536,-0.473 -3.176,-0.473 -4.711,0 -0.263,0.083 -0.471,0.381 -0.471,0.647 l 0,5.652 c 0,0.265 0.209,0.564 0.471,0.647 1.535,0.472 3.175,0.472 4.711,0 C -0.21,6.216 -0.001,5.917 0,5.652 L 0,0 Z"
             style="fill:#b7bec0;fill-opacity:1;fill-rule:nonzero;stroke:none"
             id="path3755"
             inkscape:connector-curvature="0" /></g><g
           id="g3757"
           transform="translate(72.0674,52.7705)"><path
             d="m 0,0 c -1.536,0.445 -3.177,0.445 -4.711,0 -0.263,-0.077 -0.472,-0.36 -0.472,-0.608 l 0,-2.462 c 0.018,-0.002 0.036,-0.009 0.052,-0.009 l 5.602,0 0,2.471 C 0.47,-0.36 0.261,-0.077 0,0"
             style="fill:#cdd5d7;fill-opacity:1;fill-rule:nonzero;stroke:none"
             id="path3759"
             inkscape:connector-curvature="0" /></g><g
           id="g3761"
           transform="translate(66.8848,49.168)"><path
             d="m 0,0 0,-2.504 c 0,-0.266 0.208,-0.564 0.472,-0.648 1.534,-0.472 3.174,-0.472 4.711,0 0.26,0.084 0.469,0.382 0.47,0.648 L 5.653,0 0,0 Z"
             style="fill:#b7bec0;fill-opacity:1;fill-rule:nonzero;stroke:none"
             id="path3763"
             inkscape:connector-curvature="0" /></g><g
           id="g3765"
           transform="translate(69.7109,46.1455)"><path
             d="m 0,0 c -0.75,0 -1.493,0.114 -2.213,0.333 -0.056,0.019 -0.128,0.129 -0.128,0.183 l 0,2.02 4.685,0 0,-2.018 C 2.344,0.458 2.265,0.35 2.209,0.332 1.496,0.114 0.75,0 0,0"
             style="fill:#b7bec0;fill-opacity:1;fill-rule:nonzero;stroke:none"
             id="path3767"
             inkscape:connector-curvature="0" /></g><g
           id="g3769"
           transform="translate(69.7109,46.1167)"><path
             d="m 0,0 c -0.752,0 -1.502,0.113 -2.22,0.334 -0.065,0.02 -0.152,0.139 -0.152,0.212 l 0,5.653 c 0,0.072 0.087,0.192 0.155,0.213 0.715,0.22 1.463,0.333 2.217,0.333 0.754,0 1.502,-0.113 2.222,-0.334 0.063,-0.02 0.151,-0.14 0.151,-0.215 l 0,-5.649 C 2.373,0.476 2.285,0.354 2.219,0.334 1.502,0.113 0.754,0 0,0"
             style="fill:#282d33;fill-opacity:1;fill-rule:nonzero;stroke:none"
             id="path3771"
             inkscape:connector-curvature="0" /></g><g
           id="g3773"
           transform="translate(69.4219,49.0815)"><path
             d="m 0,0 0,-2.798 c 0,-0.073 0.011,-0.191 0.02,-0.211 0.085,-0.222 0.178,-0.335 0.269,-0.335 0.093,0 0.184,0.113 0.271,0.334 0.008,0.021 0.018,0.142 0.018,0.213 L 0.578,0 0,0 Z"
             style="fill:#cdd5d7;fill-opacity:1;fill-rule:nonzero;stroke:none"
             id="path3775"
             inkscape:connector-curvature="0" /></g></g></g></g></svg>