<?xml version="1.0" encoding="UTF-8" standalone="no"?>
<!-- Created with Inkscape (http://www.inkscape.org/) -->

<svg
   xmlns:dc="http://purl.org/dc/elements/1.1/"
   xmlns:cc="http://creativecommons.org/ns#"
   xmlns:rdf="http://www.w3.org/1999/02/22-rdf-syntax-ns#"
   xmlns:svg="http://www.w3.org/2000/svg"
   xmlns="http://www.w3.org/2000/svg"
   xmlns:sodipodi="http://sodipodi.sourceforge.net/DTD/sodipodi-0.dtd"
   xmlns:inkscape="http://www.inkscape.org/namespaces/inkscape"
   id="svg3777"
   version="1.1"
   inkscape:version="0.91 r13725"
   xml:space="preserve"
   width="144.24875"
   height="137.00751"
   viewBox="0 0 144.24875 137.00751"
   sodipodi:docname="card-position-ban.svg"><metadata
     id="metadata3783"><rdf:RDF><cc:Work
         rdf:about=""><dc:format>image/svg+xml</dc:format><dc:type
           rdf:resource="http://purl.org/dc/dcmitype/StillImage" /><dc:title></dc:title></cc:Work></rdf:RDF></metadata><defs
     id="defs3781"><clipPath
       clipPathUnits="userSpaceOnUse"
       id="clipPath3791"><path
         d="m 0,109.606 115.399,0 L 115.399,0 0,0 0,109.606 Z"
         id="path3793"
         inkscape:connector-curvature="0" /></clipPath><clipPath
       clipPathUnits="userSpaceOnUse"
       id="clipPath3803"><path
         d="M 56.886,109.607 C 27.662,109.607 3.887,86.201 3.887,57.432 l 0,0 c 0,-28.77 23.775,-52.175 52.999,-52.175 l 0,0 c 29.225,0 53,23.405 53,52.175 l 0,0 c 0,28.769 -23.775,52.175 -53,52.175 z"
         id="path3805"
         inkscape:connector-curvature="0" /></clipPath><clipPath
       clipPathUnits="userSpaceOnUse"
       id="clipPath3877"><path
         d="m 0,109.606 115.399,0 L 115.399,0 0,0 0,109.606 Z"
         id="path3879"
         inkscape:connector-curvature="0" /></clipPath></defs><sodipodi:namedview
     pagecolor="#ffffff"
     bordercolor="#666666"
     borderopacity="1"
     objecttolerance="10"
     gridtolerance="10"
     guidetolerance="10"
     inkscape:pageopacity="0"
     inkscape:pageshadow="2"
     inkscape:window-width="640"
     inkscape:window-height="480"
     id="namedview3779"
     showgrid="false"
     inkscape:zoom="1.7225333"
     inkscape:cx="72.124374"
     inkscape:cy="68.503754"
     inkscape:window-x="0"
     inkscape:window-y="0"
     inkscape:window-maximized="0"
     inkscape:current-layer="g3785" /><g
     id="g3785"
     inkscape:groupmode="layer"
     inkscape:label="card-position-ban"
     transform="matrix(1.25,0,0,-1.25,0,137.0075)"><g
       id="g3787"><g
         id="g3789"
         clip-path="url(#clipPath3791)"><g
           id="g3795"
           transform="translate(56.8867,5.2568)"><path
             d="m 0,0 c -29.225,0 -53,23.405 -53,52.175 0,28.769 23.775,52.175 53,52.175 29.225,0 53,-23.406 53,-52.175 C 53,23.405 29.225,0 0,0"
             style="fill:#484f59;fill-opacity:1;fill-rule:nonzero;stroke:none"
             id="path3797"
             inkscape:connector-curvature="0" /></g></g></g><g
       id="g3799"><g
         id="g3801"
         clip-path="url(#clipPath3803)"><path
           d="m 115.036,23.974 -85.167,0 0,63.977 85.167,0 0,-63.977 z"
           style="fill:#f7f8fc;fill-opacity:1;fill-rule:nonzero;stroke:none"
           id="path3807"
           inkscape:connector-curvature="0" /><path
           d="m 115.036,81.839 -85.167,0 0,6.111 85.167,0 0,-6.111 z"
           style="fill:#cdd5d7;fill-opacity:1;fill-rule:nonzero;stroke:none"
           id="path3809"
           inkscape:connector-curvature="0" /><path
           d="m 111.368,83.366 -50.529,0 0,3.057 50.529,0 0,-3.057 z"
           style="fill:#ffffff;fill-opacity:1;fill-rule:nonzero;stroke:none"
           id="path3811"
           inkscape:connector-curvature="0" /><g
           id="g3813"
           transform="translate(34.3525,84.8936)"><path
             d="m 0,0 c 0,-0.674 -0.549,-1.223 -1.223,-1.223 -0.676,0 -1.222,0.549 -1.222,1.223 0,0.678 0.546,1.223 1.222,1.223 C -0.549,1.223 0,0.678 0,0"
             style="fill:#424953;fill-opacity:1;fill-rule:nonzero;stroke:none"
             id="path3815"
             inkscape:connector-curvature="0" /></g><g
           id="g3817"
           transform="translate(38.2236,84.8936)"><path
             d="m 0,0 c 0,-0.674 -0.547,-1.223 -1.223,-1.223 -0.675,0 -1.222,0.549 -1.222,1.223 0,0.678 0.547,1.223 1.222,1.223 C -0.547,1.223 0,0.678 0,0"
             style="fill:#ff876c;fill-opacity:1;fill-rule:nonzero;stroke:none"
             id="path3819"
             inkscape:connector-curvature="0" /></g><g
           id="g3821"
           transform="translate(42.0947,84.8936)"><path
             d="m 0,0 c 0,-0.674 -0.547,-1.223 -1.223,-1.223 -0.675,0 -1.222,0.549 -1.222,1.223 0,0.678 0.547,1.223 1.222,1.223 C -0.547,1.223 0,0.678 0,0"
             style="fill:#01bacc;fill-opacity:1;fill-rule:nonzero;stroke:none"
             id="path3823"
             inkscape:connector-curvature="0" /></g><path
           d="m 31.96,58.593 81.648,0 0,16.951 -81.648,0 0,-16.951 z"
           style="fill:#cdd5d7;fill-opacity:1;fill-rule:nonzero;stroke:none"
           id="path3825"
           inkscape:connector-curvature="0" /><path
           d="m 30.169,77.571 85.23,0 0,3.913 -85.23,0 0,-3.913 z"
           style="fill:#ff876c;fill-opacity:1;fill-rule:nonzero;stroke:none"
           id="path3827"
           inkscape:connector-curvature="0" /><path
           d="m 31.96,41.491 23.643,0 0,12.24 -23.643,0 0,-12.24 z"
           style="fill:#cdd5d7;fill-opacity:1;fill-rule:nonzero;stroke:none"
           id="path3829"
           inkscape:connector-curvature="0" /><path
           d="m 47.005,37.409 -15.045,0 0,0.973 15.045,0 0,-0.973 z"
           style="fill:#cdd5d7;fill-opacity:1;fill-rule:nonzero;stroke:none"
           id="path3831"
           inkscape:connector-curvature="0" /><path
           d="m 53.841,35.165 -21.881,0 0,0.483 21.881,0 0,-0.483 z"
           style="fill:#cdd5d7;fill-opacity:1;fill-rule:nonzero;stroke:none"
           id="path3833"
           inkscape:connector-curvature="0" /><path
           d="m 53.841,30.188 -21.881,0 0,0.486 21.881,0 0,-0.486 z"
           style="fill:#cdd5d7;fill-opacity:1;fill-rule:nonzero;stroke:none"
           id="path3835"
           inkscape:connector-curvature="0" /><path
           d="m 55.786,32.677 -23.826,0 0,0.485 23.826,0 0,-0.485 z"
           style="fill:#cdd5d7;fill-opacity:1;fill-rule:nonzero;stroke:none"
           id="path3837"
           inkscape:connector-curvature="0" /><path
           d="m 60.872,41.491 23.643,0 0,12.24 -23.643,0 0,-12.24 z"
           style="fill:#cdd5d7;fill-opacity:1;fill-rule:nonzero;stroke:none"
           id="path3839"
           inkscape:connector-curvature="0" /><path
           d="m 75.915,37.409 -15.043,0 0,0.973 15.043,0 0,-0.973 z"
           style="fill:#cdd5d7;fill-opacity:1;fill-rule:nonzero;stroke:none"
           id="path3841"
           inkscape:connector-curvature="0" /><path
           d="m 82.751,35.165 -21.879,0 0,0.483 21.879,0 0,-0.483 z"
           style="fill:#cdd5d7;fill-opacity:1;fill-rule:nonzero;stroke:none"
           id="path3843"
           inkscape:connector-curvature="0" /><path
           d="m 82.751,30.188 -21.879,0 0,0.486 21.879,0 0,-0.486 z"
           style="fill:#cdd5d7;fill-opacity:1;fill-rule:nonzero;stroke:none"
           id="path3845"
           inkscape:connector-curvature="0" /><path
           d="m 84.696,32.677 -23.824,0 0,0.485 23.824,0 0,-0.485 z"
           style="fill:#cdd5d7;fill-opacity:1;fill-rule:nonzero;stroke:none"
           id="path3847"
           inkscape:connector-curvature="0" /><path
           d="m 89.784,41.491 23.643,0 0,12.24 -23.643,0 0,-12.24 z"
           style="fill:#cdd5d7;fill-opacity:1;fill-rule:nonzero;stroke:none"
           id="path3849"
           inkscape:connector-curvature="0" /><path
           d="m 104.827,37.409 -15.043,0 0,0.973 15.043,0 0,-0.973 z"
           style="fill:#cdd5d7;fill-opacity:1;fill-rule:nonzero;stroke:none"
           id="path3851"
           inkscape:connector-curvature="0" /><path
           d="m 111.663,35.165 -21.879,0 0,0.483 21.879,0 0,-0.483 z"
           style="fill:#cdd5d7;fill-opacity:1;fill-rule:nonzero;stroke:none"
           id="path3853"
           inkscape:connector-curvature="0" /><path
           d="m 111.663,30.188 -21.879,0 0,0.486 21.879,0 0,-0.486 z"
           style="fill:#cdd5d7;fill-opacity:1;fill-rule:nonzero;stroke:none"
           id="path3855"
           inkscape:connector-curvature="0" /><path
           d="m 113.608,32.677 -23.824,0 0,0.485 23.824,0 0,-0.485 z"
           style="fill:#cdd5d7;fill-opacity:1;fill-rule:nonzero;stroke:none"
           id="path3857"
           inkscape:connector-curvature="0" /><path
           d="m 47.782,79.062 -15.043,0 0,0.971 15.043,0 0,-0.971 z"
           style="fill:#e5e8ec;fill-opacity:1;fill-rule:nonzero;stroke:none"
           id="path3859"
           inkscape:connector-curvature="0" /><path
           d="m 112.831,79.304 -5.791,0 0,0.486 5.791,0 0,-0.486 z"
           style="fill:#e5e8ec;fill-opacity:1;fill-rule:nonzero;stroke:none"
           id="path3861"
           inkscape:connector-curvature="0" /><path
           d="m 105.05,79.304 -5.789,0 0,0.486 5.789,0 0,-0.486 z"
           style="fill:#e5e8ec;fill-opacity:1;fill-rule:nonzero;stroke:none"
           id="path3863"
           inkscape:connector-curvature="0" /><path
           d="m 97.271,79.304 -5.791,0 0,0.486 5.791,0 0,-0.486 z"
           style="fill:#e5e8ec;fill-opacity:1;fill-rule:nonzero;stroke:none"
           id="path3865"
           inkscape:connector-curvature="0" /><path
           d="m 89.489,79.304 -5.789,0 0,0.486 5.789,0 0,-0.486 z"
           style="fill:#e5e8ec;fill-opacity:1;fill-rule:nonzero;stroke:none"
           id="path3867"
           inkscape:connector-curvature="0" /><path
           d="m 81.71,79.304 -5.791,0 0,0.486 5.791,0 0,-0.486 z"
           style="fill:#e5e8ec;fill-opacity:1;fill-rule:nonzero;stroke:none"
           id="path3869"
           inkscape:connector-curvature="0" /><path
           d="m 73.929,79.304 -5.789,0 0,0.486 5.789,0 0,-0.486 z"
           style="fill:#e5e8ec;fill-opacity:1;fill-rule:nonzero;stroke:none"
           id="path3871"
           inkscape:connector-curvature="0" /></g></g><g
       id="g3873"><g
         id="g3875"
         clip-path="url(#clipPath3877)"><g
           id="g3881"
           transform="translate(16.6279,33.5049)"><path
             d="m 0,0 6.385,2.709 6.385,2.711 13.616,-32.076 -7.65,0.268 -5.12,-5.688 L 0,0 Z"
             style="fill:#ff876c;fill-opacity:1;fill-rule:nonzero;stroke:none"
             id="path3883"
             inkscape:connector-curvature="0" /></g><g
           id="g3885"
           transform="translate(31.2266,2.5195)"><path
             d="M 0,0 1.146,1.272 -11.944,32.111 -13.373,31.505 0,0 Z"
             style="fill:#ffa38f;fill-opacity:1;fill-rule:nonzero;stroke:none"
             id="path3887"
             inkscape:connector-curvature="0" /></g><g
           id="g3889"
           transform="translate(39.8359,6.9609)"><path
             d="M 0,0 1.712,-0.062 -11.662,31.442 -13.09,30.838 0,0 Z"
             style="fill:#ffa38f;fill-opacity:1;fill-rule:nonzero;stroke:none"
             id="path3891"
             inkscape:connector-curvature="0" /></g><g
           id="g3893"
           transform="translate(19.459,37.5059)"><path
             d="m 0,0 6.43,-2.597 6.431,-2.599 -13.051,-32.309 -5.222,5.6 -7.643,-0.404 L 0,0 Z"
             style="fill:#ff876c;fill-opacity:1;fill-rule:nonzero;stroke:none"
             id="path3895"
             inkscape:connector-curvature="0" /></g><g
           id="g3897"
           transform="translate(7.8701,5.2754)"><path
             d="M 0,0 1.71,0.089 14.261,31.151 12.821,31.733 0,0 Z"
             style="fill:#ffa38f;fill-opacity:1;fill-rule:nonzero;stroke:none"
             id="path3899"
             inkscape:connector-curvature="0" /></g><g
           id="g3901"
           transform="translate(17.0996,2.3262)"><path
             d="M 0,0 1.166,-1.25 13.988,30.483 12.549,31.062 0,0 Z"
             style="fill:#ffa38f;fill-opacity:1;fill-rule:nonzero;stroke:none"
             id="path3903"
             inkscape:connector-curvature="0" /></g><g
           id="g3905"
           transform="translate(49.416,40.7441)"><path
             d="m 0,0 c 0,-1.573 -2.418,-2.89 -2.712,-4.377 -0.304,-1.532 1.421,-3.672 0.837,-5.081 -0.596,-1.436 -3.333,-1.725 -4.187,-3 -0.86,-1.285 -0.086,-3.924 -1.175,-5.014 -1.09,-1.09 -3.729,-0.315 -5.014,-1.175 -1.274,-0.854 -1.564,-3.591 -2.999,-4.186 -1.41,-0.584 -3.548,1.141 -5.08,0.837 -1.487,-0.294 -2.804,-2.712 -4.377,-2.712 -1.574,10e-4 -2.89,2.418 -4.377,2.713 -1.533,0.303 -3.671,-1.421 -5.081,-0.836 -1.435,0.596 -1.725,3.332 -3,4.185 -1.285,0.86 -3.924,0.086 -5.014,1.176 -1.089,1.09 -0.315,3.729 -1.175,5.014 -0.854,1.274 -3.591,1.564 -4.186,2.998 -0.585,1.41 1.14,3.549 0.836,5.08 -0.294,1.488 -2.712,2.804 -2.712,4.378 0,1.574 2.418,2.891 2.713,4.378 0.303,1.533 -1.422,3.671 -0.837,5.08 0.595,1.436 3.332,1.726 4.186,3.001 0.861,1.284 0.087,3.924 1.176,5.013 1.09,1.09 3.729,0.315 5.014,1.175 1.275,0.854 1.564,3.59 2.999,4.185 1.41,0.585 3.549,-1.14 5.081,-0.835 1.487,0.293 2.803,2.711 4.377,2.711 1.574,0 2.89,-2.418 4.377,-2.711 1.533,-0.304 3.672,1.42 5.082,0.835 1.435,-0.595 1.724,-3.332 2.999,-4.186 1.285,-0.861 3.924,-0.086 5.013,-1.175 1.09,-1.089 0.315,-3.729 1.175,-5.014 0.854,-1.276 3.591,-1.565 4.186,-2.999 C -1.29,8.048 -3.016,5.909 -2.712,4.377 -2.418,2.89 0,1.573 0,0"
             style="fill:#f0ca67;fill-opacity:1;fill-rule:nonzero;stroke:none"
             id="path3907"
             inkscape:connector-curvature="0" /></g><g
           id="g3909"
           transform="translate(43.0361,40.7441)"><path
             d="m 0,0 c 0,-10.122 -8.207,-18.328 -18.327,-18.328 -10.122,0 -18.329,8.206 -18.329,18.328 0,10.124 8.207,18.328 18.329,18.328 C -8.207,18.328 0,10.124 0,0"
             style="fill:#f3b840;fill-opacity:1;fill-rule:nonzero;stroke:none"
             id="path3911"
             inkscape:connector-curvature="0" /></g><g
           id="g3913"
           transform="translate(41.0732,40.7441)"><path
             d="m 0,0 c 0,-9.037 -7.327,-16.365 -16.364,-16.365 -9.037,0 -16.365,7.328 -16.365,16.365 0,9.036 7.328,16.366 16.365,16.366 C -7.327,16.366 0,9.036 0,0"
             style="fill:#f4da80;fill-opacity:1;fill-rule:nonzero;stroke:none"
             id="path3915"
             inkscape:connector-curvature="0" /></g><g
           id="g3917"
           transform="translate(41.0732,40.3076)"><path
             d="m 0,0 c 0,-8.795 -7.132,-15.929 -15.928,-15.929 -8.798,0 -15.927,7.134 -15.927,15.929 0,8.797 7.129,15.93 15.927,15.93 C -7.132,15.93 0,8.797 0,0"
             style="fill:#f0ca67;fill-opacity:1;fill-rule:nonzero;stroke:none"
             id="path3919"
             inkscape:connector-curvature="0" /></g><g
           id="g3921"
           transform="translate(24.2725,51.1729)"><path
             d="m 0,0 3.245,-6.574 7.256,-1.055 -5.25,-5.119 1.239,-7.225 -6.49,3.411 -6.49,-3.411 1.24,7.225 -5.251,5.119 7.256,1.055 L 0,0 Z"
             style="fill:#484f59;fill-opacity:1;fill-rule:nonzero;stroke:none"
             id="path3923"
             inkscape:connector-curvature="0" /></g></g></g></g></svg>