<?xml version="1.0" encoding="UTF-8" standalone="no"?>
<!-- Created with Inkscape (http://www.inkscape.org/) -->

<svg
   xmlns:dc="http://purl.org/dc/elements/1.1/"
   xmlns:cc="http://creativecommons.org/ns#"
   xmlns:rdf="http://www.w3.org/1999/02/22-rdf-syntax-ns#"
   xmlns:svg="http://www.w3.org/2000/svg"
   xmlns="http://www.w3.org/2000/svg"
   xmlns:sodipodi="http://sodipodi.sourceforge.net/DTD/sodipodi-0.dtd"
   xmlns:inkscape="http://www.inkscape.org/namespaces/inkscape"
   id="svg2"
   version="1.1"
   inkscape:version="0.91 r13725"
   xml:space="preserve"
   width="126.22375"
   height="87.054497"
   viewBox="0 0 126.22375 87.054497"
   sodipodi:docname="clear-advert-s.svg"><metadata
     id="metadata8"><rdf:RDF><cc:Work
         rdf:about=""><dc:format>image/svg+xml</dc:format><dc:type
           rdf:resource="http://purl.org/dc/dcmitype/StillImage" /><dc:title></dc:title></cc:Work></rdf:RDF></metadata><defs
     id="defs6"><clipPath
       clipPathUnits="userSpaceOnUse"
       id="clipPath22"><path
         d="m 0,69.644 100.979,0 L 100.979,0 0,0 0,69.644 Z"
         id="path24"
         inkscape:connector-curvature="0" /></clipPath></defs><sodipodi:namedview
     pagecolor="#ffffff"
     bordercolor="#666666"
     borderopacity="1"
     objecttolerance="10"
     gridtolerance="10"
     guidetolerance="10"
     inkscape:pageopacity="0"
     inkscape:pageshadow="2"
     inkscape:window-width="640"
     inkscape:window-height="480"
     id="namedview4"
     showgrid="false"
     inkscape:zoom="2.7109455"
     inkscape:cx="63.111874"
     inkscape:cy="43.527248"
     inkscape:window-x="0"
     inkscape:window-y="0"
     inkscape:window-maximized="0"
     inkscape:current-layer="g10" /><g
     id="g10"
     inkscape:groupmode="layer"
     inkscape:label="clear-advert-s"
     transform="matrix(1.25,0,0,-1.25,0,87.0545)"><path
       d="m 9.615,5.667 85.165,0 0,63.977 -85.165,0 0,-63.977 z"
       style="fill:#e5e8ec;fill-opacity:1;fill-rule:nonzero;stroke:none"
       id="path12"
       inkscape:connector-curvature="0" /><path
       d="m 9.615,63.531 85.165,0 0,6.113 -85.165,0 0,-6.113 z"
       style="fill:#cdd5d7;fill-opacity:1;fill-rule:nonzero;stroke:none"
       id="path14"
       inkscape:connector-curvature="0" /><path
       d="m 91.113,65.059 -50.53,0 0,3.056 50.53,0 0,-3.056 z"
       style="fill:#ffffff;fill-opacity:1;fill-rule:nonzero;stroke:none"
       id="path16"
       inkscape:connector-curvature="0" /><g
       id="g18"><g
         id="g20"
         clip-path="url(#clipPath22)"><g
           id="g26"
           transform="translate(14.0967,66.5874)"><path
             d="m 0,0 c 0,-0.674 -0.548,-1.223 -1.223,-1.223 -0.675,0 -1.222,0.549 -1.222,1.223 0,0.677 0.547,1.222 1.222,1.222 C -0.548,1.222 0,0.677 0,0"
             style="fill:#424953;fill-opacity:1;fill-rule:nonzero;stroke:none"
             id="path28"
             inkscape:connector-curvature="0" /></g><g
           id="g30"
           transform="translate(17.9678,66.5874)"><path
             d="m 0,0 c 0,-0.674 -0.547,-1.223 -1.223,-1.223 -0.674,0 -1.221,0.549 -1.221,1.223 0,0.677 0.547,1.222 1.221,1.222 C -0.547,1.222 0,0.677 0,0"
             style="fill:#ff876c;fill-opacity:1;fill-rule:nonzero;stroke:none"
             id="path32"
             inkscape:connector-curvature="0" /></g><g
           id="g34"
           transform="translate(21.8389,66.5874)"><path
             d="m 0,0 c 0,-0.674 -0.547,-1.223 -1.223,-1.223 -0.674,0 -1.222,0.549 -1.222,1.223 0,0.677 0.548,1.222 1.222,1.222 C -0.547,1.222 0,0.677 0,0"
             style="fill:#01bacc;fill-opacity:1;fill-rule:nonzero;stroke:none"
             id="path36"
             inkscape:connector-curvature="0" /></g><g
           id="g38"
           transform="translate(70.6445,24.501)"><path
             d="m 0,0 0,4.952 0,14.463 -10.363,10.364 -28.908,0 0,-10.708 0,-14.119 0,-4.952 L 0,0 Z"
             style="fill:#ffa38f;fill-opacity:1;fill-rule:nonzero;stroke:none"
             id="path40"
             inkscape:connector-curvature="0" /></g><g
           id="g42"
           transform="translate(60.2813,43.9155)"><path
             d="M 0,0 10.363,0 0,10.365 0,0 Z"
             style="fill:#f7f8fc;fill-opacity:1;fill-rule:nonzero;stroke:none"
             id="path44"
             inkscape:connector-curvature="0" /></g><g
           id="g46"
           transform="translate(70.6445,43.9155)"><path
             d="M 0,0 -10.363,0 0,-10.363 0,0 Z"
             style="fill:#ff876c;fill-opacity:1;fill-rule:nonzero;stroke:none"
             id="path48"
             inkscape:connector-curvature="0" /></g><path
           d="m 58.52,46.042 -25.25,0 0,6.5 25.25,0 0,-6.5 z"
           style="fill:#ff876c;fill-opacity:1;fill-rule:nonzero;stroke:none"
           id="path50"
           inkscape:connector-curvature="0" /><path
           d="m 58.52,38.667 -25.25,0 0,6.5 25.25,0 0,-6.5 z"
           style="fill:#ff876c;fill-opacity:1;fill-rule:nonzero;stroke:none"
           id="path52"
           inkscape:connector-curvature="0" /><path
           d="m 43.77,26.792 -10.5,0 0,6.5 10.5,0 0,-6.5 z"
           style="fill:#ff876c;fill-opacity:1;fill-rule:nonzero;stroke:none"
           id="path54"
           inkscape:connector-curvature="0" /><g
           id="g56"
           transform="translate(25.6445,34.8335)"><path
             d="m 0,0 0,3.235 0,9.444 -6.767,6.768 -18.878,0 0,-6.993 0,-9.219 0,-3.235 L 0,0 Z"
             style="fill:#00c6da;fill-opacity:1;fill-rule:nonzero;stroke:none"
             id="path58"
             inkscape:connector-curvature="0" /></g><g
           id="g60"
           transform="translate(18.8774,47.5122)"><path
             d="M 0,0 6.767,0 0,6.768 0,0 Z"
             style="fill:#f7f8fc;fill-opacity:1;fill-rule:nonzero;stroke:none"
             id="path62"
             inkscape:connector-curvature="0" /></g><g
           id="g64"
           transform="translate(25.6445,47.5122)"><path
             d="M 0,0 -6.767,0 0,-6.767 0,0 Z"
             style="fill:#01bacc;fill-opacity:1;fill-rule:nonzero;stroke:none"
             id="path66"
             inkscape:connector-curvature="0" /></g><g
           id="g68"
           transform="translate(37.9785,49.6675)"><path
             d="m 0,0 c 0,-1.197 -0.971,-2.167 -2.167,-2.167 -1.196,0 -2.167,0.97 -2.167,2.167 0,1.197 0.971,2.166 2.167,2.166 C -0.971,2.166 0,1.197 0,0"
             style="fill:#484f59;fill-opacity:1;fill-rule:nonzero;stroke:none"
             id="path70"
             inkscape:connector-curvature="0" /></g><g
           id="g72"
           transform="translate(36.6445,39.5835)"><path
             d="m 0,0 -19,0 0,2 17,0 0,8.25 2,0 L 0,0 Z"
             style="fill:#484f59;fill-opacity:1;fill-rule:nonzero;stroke:none"
             id="path74"
             inkscape:connector-curvature="0" /></g><g
           id="g76"
           transform="translate(82.0625,0)"><path
             d="m 0,0 0,4.435 0,12.951 -9.28,9.281 -25.888,0 0,-9.588 0,-12.644 0,-4.435 L 0,0 Z"
             style="fill:#f4da80;fill-opacity:1;fill-rule:nonzero;stroke:none"
             id="path78"
             inkscape:connector-curvature="0" /></g><g
           id="g80"
           transform="translate(72.7822,17.3862)"><path
             d="M 0,0 9.28,0 0,9.281 0,0 Z"
             style="fill:#f7f8fc;fill-opacity:1;fill-rule:nonzero;stroke:none"
             id="path82"
             inkscape:connector-curvature="0" /></g><g
           id="g84"
           transform="translate(82.0625,17.3862)"><path
             d="M 0,0 -9.28,0 0,-9.28 0,0 Z"
             style="fill:#f0ca67;fill-opacity:1;fill-rule:nonzero;stroke:none"
             id="path86"
             inkscape:connector-curvature="0" /></g><g
           id="g88"
           transform="translate(37.6445,30.1675)"><path
             d="m 0,0 c 0,-1.197 0.971,-2.167 2.167,-2.167 1.196,0 2.167,0.97 2.167,2.167 0,1.197 -0.971,2.166 -2.167,2.166 C 0.971,2.166 0,1.197 0,0"
             style="fill:#484f59;fill-opacity:1;fill-rule:nonzero;stroke:none"
             id="path90"
             inkscape:connector-curvature="0" /></g><g
           id="g92"
           transform="translate(57.9785,14.084)"><path
             d="m 0,0 -19,0 0,16.25 2,0 L -17,2 0,2 0,0 Z"
             style="fill:#484f59;fill-opacity:1;fill-rule:nonzero;stroke:none"
             id="path94"
             inkscape:connector-curvature="0" /></g><g
           id="g96"
           transform="translate(100.9785,30.0835)"><path
             d="m 0,0 0,3.235 0,9.444 -6.768,6.768 -18.878,0 0,-6.993 0,-9.219 0,-3.235 L 0,0 Z"
             style="fill:#82cf8f;fill-opacity:1;fill-rule:nonzero;stroke:none"
             id="path98"
             inkscape:connector-curvature="0" /></g><g
           id="g100"
           transform="translate(94.2104,42.7622)"><path
             d="M 0,0 6.768,0 0,6.768 0,0 Z"
             style="fill:#e5e8ec;fill-opacity:1;fill-rule:nonzero;stroke:none"
             id="path102"
             inkscape:connector-curvature="0" /></g><g
           id="g104"
           transform="translate(100.9785,42.7622)"><path
             d="M 0,0 -6.768,0 0,-6.767 0,0 Z"
             style="fill:#7ac286;fill-opacity:1;fill-rule:nonzero;stroke:none"
             id="path106"
             inkscape:connector-curvature="0" /></g><g
           id="g108"
           transform="translate(51.7695,42.0415)"><path
             d="m 0,0 c 0,-1.196 0.971,-2.166 2.167,-2.166 1.196,0 2.167,0.97 2.167,2.166 0,1.197 -0.971,2.168 -2.167,2.168 C 0.971,2.168 0,1.197 0,0"
             style="fill:#484f59;fill-opacity:1;fill-rule:nonzero;stroke:none"
             id="path110"
             inkscape:connector-curvature="0" /></g><g
           id="g112"
           transform="translate(83.7695,34.5415)"><path
             d="m 0,0 -30.666,0 0,7.668 2,0 0,-5.668 L 0,2 0,0 Z"
             style="fill:#484f59;fill-opacity:1;fill-rule:nonzero;stroke:none"
             id="path114"
             inkscape:connector-curvature="0" /></g></g></g></g></svg>