<?xml version="1.0" encoding="UTF-8" standalone="no"?>
<!-- Created with Inkscape (http://www.inkscape.org/) -->

<svg
   xmlns:dc="http://purl.org/dc/elements/1.1/"
   xmlns:cc="http://creativecommons.org/ns#"
   xmlns:rdf="http://www.w3.org/1999/02/22-rdf-syntax-ns#"
   xmlns:svg="http://www.w3.org/2000/svg"
   xmlns="http://www.w3.org/2000/svg"
   xmlns:sodipodi="http://sodipodi.sourceforge.net/DTD/sodipodi-0.dtd"
   xmlns:inkscape="http://www.inkscape.org/namespaces/inkscape"
   id="svg3442"
   version="1.1"
   inkscape:version="0.91 r13725"
   xml:space="preserve"
   width="89.537376"
   height="107.25775"
   viewBox="0 0 89.537376 107.25775"
   sodipodi:docname="clear-home.svg"><metadata
     id="metadata3448"><rdf:RDF><cc:Work
         rdf:about=""><dc:format>image/svg+xml</dc:format><dc:type
           rdf:resource="http://purl.org/dc/dcmitype/StillImage" /><dc:title></dc:title></cc:Work></rdf:RDF></metadata><defs
     id="defs3446"><clipPath
       clipPathUnits="userSpaceOnUse"
       id="clipPath3516"><path
         d="m 0,85.806 71.63,0 L 71.63,0 0,0 0,85.806 Z"
         id="path3518"
         inkscape:connector-curvature="0" /></clipPath></defs><sodipodi:namedview
     pagecolor="#ffffff"
     bordercolor="#666666"
     borderopacity="1"
     objecttolerance="10"
     gridtolerance="10"
     guidetolerance="10"
     inkscape:pageopacity="0"
     inkscape:pageshadow="2"
     inkscape:window-width="640"
     inkscape:window-height="480"
     id="namedview3444"
     showgrid="false"
     inkscape:zoom="2.2003072"
     inkscape:cx="44.768688"
     inkscape:cy="53.628876"
     inkscape:window-x="0"
     inkscape:window-y="0"
     inkscape:window-maximized="0"
     inkscape:current-layer="g3450" /><g
     id="g3450"
     inkscape:groupmode="layer"
     inkscape:label="clear-home"
     transform="matrix(1.25,0,0,-1.25,0,107.25775)"><path
       d="m 14.239,0 56.891,0 0,66.541 -56.891,0 0,-66.541 z"
       style="fill:#cdd5d7;fill-opacity:1;fill-rule:nonzero;stroke:none"
       id="path3452"
       inkscape:connector-curvature="0" /><path
       d="m 53.384,0 12.12,0 0,26.59 -12.12,0 0,-26.59 z"
       style="fill:#b7bec0;fill-opacity:1;fill-rule:nonzero;stroke:none"
       id="path3454"
       inkscape:connector-curvature="0" /><path
       d="m 51.017,0 16.859,0 0,4.094 -16.859,0 0,-4.094 z"
       style="fill:#e6e6e6;fill-opacity:1;fill-rule:nonzero;stroke:none"
       id="path3456"
       inkscape:connector-curvature="0" /><path
       d="m 14.239,28.709 56.891,0 0,6.266 -56.891,0 0,-6.266 z"
       style="fill:#b7bec0;fill-opacity:1;fill-rule:nonzero;stroke:none"
       id="path3458"
       inkscape:connector-curvature="0" /><path
       d="m 14.239,34.975 56.891,0 0,1.426 -56.891,0 0,-1.426 z"
       style="fill:#e6e6e6;fill-opacity:1;fill-rule:nonzero;stroke:none"
       id="path3460"
       inkscape:connector-curvature="0" /><path
       d="m 14.239,61.265 56.891,0 0,4.781 -56.891,0 0,-4.781 z"
       style="fill:#b7bec0;fill-opacity:1;fill-rule:nonzero;stroke:none"
       id="path3462"
       inkscape:connector-curvature="0" /><path
       d="m 13.74,31.71 57.89,0 0,4.254 -57.89,0 0,-4.254 z"
       style="fill:#cdd5d7;fill-opacity:1;fill-rule:nonzero;stroke:none"
       id="path3464"
       inkscape:connector-curvature="0" /><path
       d="m 23.883,50.682 -3.553,0 0,8.291 3.553,0 0,-8.291 z"
       style="fill:#f7f8fc;fill-opacity:1;fill-rule:nonzero;stroke:none"
       id="path3466"
       inkscape:connector-curvature="0" /><path
       d="m 29.009,50.682 -3.55,0 0,8.291 3.55,0 0,-8.291 z"
       style="fill:#f7f8fc;fill-opacity:1;fill-rule:nonzero;stroke:none"
       id="path3468"
       inkscape:connector-curvature="0" /><path
       d="m 23.883,40.227 -3.553,0 0,8.285 3.553,0 0,-8.285 z"
       style="fill:#f7f8fc;fill-opacity:1;fill-rule:nonzero;stroke:none"
       id="path3470"
       inkscape:connector-curvature="0" /><path
       d="m 29.009,40.227 -3.55,0 0,8.285 3.55,0 0,-8.285 z"
       style="fill:#f7f8fc;fill-opacity:1;fill-rule:nonzero;stroke:none"
       id="path3472"
       inkscape:connector-curvature="0" /><path
       d="m 41.244,50.682 -3.551,0 0,8.291 3.551,0 0,-8.291 z"
       style="fill:#f7f8fc;fill-opacity:1;fill-rule:nonzero;stroke:none"
       id="path3474"
       inkscape:connector-curvature="0" /><path
       d="m 46.376,50.682 -3.552,0 0,8.291 3.552,0 0,-8.291 z"
       style="fill:#f7f8fc;fill-opacity:1;fill-rule:nonzero;stroke:none"
       id="path3476"
       inkscape:connector-curvature="0" /><path
       d="m 41.244,40.227 -3.551,0 0,8.285 3.551,0 0,-8.285 z"
       style="fill:#f7f8fc;fill-opacity:1;fill-rule:nonzero;stroke:none"
       id="path3478"
       inkscape:connector-curvature="0" /><path
       d="m 46.376,40.227 -3.552,0 0,8.285 3.552,0 0,-8.285 z"
       style="fill:#f7f8fc;fill-opacity:1;fill-rule:nonzero;stroke:none"
       id="path3480"
       inkscape:connector-curvature="0" /><path
       d="m 58.607,50.682 -3.553,0 0,8.291 3.553,0 0,-8.291 z"
       style="fill:#f7f8fc;fill-opacity:1;fill-rule:nonzero;stroke:none"
       id="path3482"
       inkscape:connector-curvature="0" /><path
       d="m 63.737,50.682 -3.551,0 0,8.291 3.551,0 0,-8.291 z"
       style="fill:#f7f8fc;fill-opacity:1;fill-rule:nonzero;stroke:none"
       id="path3484"
       inkscape:connector-curvature="0" /><path
       d="m 58.607,40.227 -3.553,0 0,8.285 3.553,0 0,-8.285 z"
       style="fill:#f7f8fc;fill-opacity:1;fill-rule:nonzero;stroke:none"
       id="path3486"
       inkscape:connector-curvature="0" /><path
       d="m 63.737,40.227 -3.551,0 0,8.285 3.551,0 0,-8.285 z"
       style="fill:#f7f8fc;fill-opacity:1;fill-rule:nonzero;stroke:none"
       id="path3488"
       inkscape:connector-curvature="0" /><path
       d="m 23.883,17.93 -3.553,0 0,8.288 3.553,0 0,-8.288 z"
       style="fill:#f7f8fc;fill-opacity:1;fill-rule:nonzero;stroke:none"
       id="path3490"
       inkscape:connector-curvature="0" /><path
       d="m 29.009,17.93 -3.55,0 0,8.288 3.55,0 0,-8.288 z"
       style="fill:#f7f8fc;fill-opacity:1;fill-rule:nonzero;stroke:none"
       id="path3492"
       inkscape:connector-curvature="0" /><path
       d="m 23.883,7.475 -3.553,0 0,8.283 3.553,0 0,-8.283 z"
       style="fill:#f7f8fc;fill-opacity:1;fill-rule:nonzero;stroke:none"
       id="path3494"
       inkscape:connector-curvature="0" /><path
       d="m 29.009,7.475 -3.55,0 0,8.283 3.55,0 0,-8.283 z"
       style="fill:#f7f8fc;fill-opacity:1;fill-rule:nonzero;stroke:none"
       id="path3496"
       inkscape:connector-curvature="0" /><path
       d="m 41.244,17.93 -3.551,0 0,8.288 3.551,0 0,-8.288 z"
       style="fill:#f7f8fc;fill-opacity:1;fill-rule:nonzero;stroke:none"
       id="path3498"
       inkscape:connector-curvature="0" /><path
       d="m 46.376,17.93 -3.552,0 0,8.288 3.552,0 0,-8.288 z"
       style="fill:#f7f8fc;fill-opacity:1;fill-rule:nonzero;stroke:none"
       id="path3500"
       inkscape:connector-curvature="0" /><path
       d="m 41.244,7.475 -3.551,0 0,8.283 3.551,0 0,-8.283 z"
       style="fill:#f7f8fc;fill-opacity:1;fill-rule:nonzero;stroke:none"
       id="path3502"
       inkscape:connector-curvature="0" /><path
       d="m 46.376,7.475 -3.552,0 0,8.283 3.552,0 0,-8.283 z"
       style="fill:#f7f8fc;fill-opacity:1;fill-rule:nonzero;stroke:none"
       id="path3504"
       inkscape:connector-curvature="0" /><g
       id="g3506"
       transform="translate(21.7665,85.806)"><path
         d="m 0,0 -7.001,-17.465 4.735,0 22.492,0 0.772,0 21.603,0 5.626,0 L 41.225,0 0,0 Z"
         style="fill:#ff876c;fill-opacity:1;fill-rule:nonzero;stroke:none"
         id="path3508"
         inkscape:connector-curvature="0" /></g><path
       d="m 13.74,64.266 57.89,0 0,4.257 -57.89,0 0,-4.257 z"
       style="fill:#cdd5d7;fill-opacity:1;fill-rule:nonzero;stroke:none"
       id="path3510"
       inkscape:connector-curvature="0" /><g
       id="g3512"><g
         id="g3514"
         clip-path="url(#clipPath3516)"><g
           id="g3520"
           transform="translate(3.166,17.3027)"><path
             d="m 0,0 c 4.223,-4.22 11.065,-4.22 15.291,0 4.22,4.224 4.22,11.071 0,15.289 C 11.065,19.515 4.223,19.515 0,15.292 -4.222,11.071 -4.222,4.224 0,0"
             style="fill:#82cf8f;fill-opacity:1;fill-rule:nonzero;stroke:none"
             id="path3522"
             inkscape:connector-curvature="0" /></g><g
           id="g3524"
           transform="translate(9.6943,17.1543)"><path
             d="M 0,0 C -1.922,-0.043 -3.701,1.179 -4.3,3.078 -2.381,3.12 -0.602,1.898 0,0"
             style="fill:#afd7a6;fill-opacity:1;fill-rule:nonzero;stroke:none"
             id="path3526"
             inkscape:connector-curvature="0" /></g><g
           id="g3528"
           transform="translate(12.752,24.9063)"><path
             d="M 0,0 C 2.024,1.644 4.957,1.812 7.18,0.27 5.152,-1.37 2.227,-1.538 0,0"
             style="fill:#afd7a6;fill-opacity:1;fill-rule:nonzero;stroke:none"
             id="path3530"
             inkscape:connector-curvature="0" /></g><g
           id="g3532"
           transform="translate(13.0332,27.4175)"><path
             d="M 0,0 C -1.64,2.024 -1.808,4.954 -0.268,7.176 1.369,5.153 1.537,2.223 0,0"
             style="fill:#afd7a6;fill-opacity:1;fill-rule:nonzero;stroke:none"
             id="path3534"
             inkscape:connector-curvature="0" /></g><g
           id="g3536"
           transform="translate(7.4048,24.1416)"><path
             d="M 0,0 C -1.138,1.401 -1.252,3.432 -0.189,4.975 0.949,3.572 1.064,1.541 0,0"
             style="fill:#afd7a6;fill-opacity:1;fill-rule:nonzero;stroke:none"
             id="path3538"
             inkscape:connector-curvature="0" /></g><g
           id="g3540"
           transform="translate(2.2744,28.1743)"><path
             d="M 0,0 C 0.055,-1.568 1.205,-2.551 2.743,-2.481 2.691,-0.918 1.542,0.065 0,0"
             style="fill:#afd7a6;fill-opacity:1;fill-rule:nonzero;stroke:none"
             id="path3542"
             inkscape:connector-curvature="0" /></g><g
           id="g3544"
           transform="translate(17.9951,30.9927)"><path
             d="M 0,0 C -1.566,-0.054 -2.551,-1.204 -2.482,-2.744 -0.921,-2.69 0.062,-1.543 0,0"
             style="fill:#7ac286;fill-opacity:1;fill-rule:nonzero;stroke:none"
             id="path3546"
             inkscape:connector-curvature="0" /></g><g
           id="g3548"
           transform="translate(6.0996,23.6992)"><path
             d="M 0,0 C -1.401,-1.14 -3.431,-1.258 -4.975,-0.187 -3.569,0.948 -1.537,1.064 0,0"
             style="fill:#7ac286;fill-opacity:1;fill-rule:nonzero;stroke:none"
             id="path3550"
             inkscape:connector-curvature="0" /></g><g
           id="g3552"
           transform="translate(10.9536,27.5264)"><path
             d="m 0,0 -0.299,-12.575 -0.299,-12.58 0.598,0 0.599,0.001 -0.3,12.579 L 0,0 Z"
             style="fill:#cdd5d7;fill-opacity:1;fill-rule:nonzero;stroke:none"
             id="path3554"
             inkscape:connector-curvature="0" /></g><g
           id="g3556"
           transform="translate(6.625,24.0649)"><path
             d="M 0,0 2.093,-2.207 4.186,-4.42 4.3,-4.307 4.414,-4.19 2.205,-2.095 0,0 Z"
             style="fill:#cdd5d7;fill-opacity:1;fill-rule:nonzero;stroke:none"
             id="path3558"
             inkscape:connector-curvature="0" /></g><g
           id="g3560"
           transform="translate(16.5684,22.5361)"><path
             d="m 0,0 -2.884,-2.682 -2.881,-2.68 0.2,-0.199 0.207,-0.204 2.679,2.885 L 0,0 Z"
             style="fill:#cdd5d7;fill-opacity:1;fill-rule:nonzero;stroke:none"
             id="path3562"
             inkscape:connector-curvature="0" /></g><g
           id="g3564"
           transform="translate(14.1035,26.8545)"><path
             d="m 0,0 -1.591,-1.537 -1.592,-1.537 0.055,-0.058 0.055,-0.057 1.537,1.596 L 0,0 Z"
             style="fill:#cdd5d7;fill-opacity:1;fill-rule:nonzero;stroke:none"
             id="path3566"
             inkscape:connector-curvature="0" /></g><g
           id="g3568"
           transform="translate(32.6279,0.3027)"><path
             d="m 0,0 c 0.013,0.092 0.022,0.185 0.022,0.279 0,1.074 -0.872,1.945 -1.945,1.945 -0.135,0 -0.269,-0.014 -0.395,-0.042 -0.362,0.772 -0.951,1.412 -1.683,1.838 -0.671,1.399 -2.098,2.369 -3.756,2.369 -1.469,0 -2.757,-0.758 -3.498,-1.905 -0.555,0.576 -1.334,0.933 -2.195,0.933 -1.123,0 -2.1,-0.604 -2.632,-1.506 -0.766,0.922 -1.916,1.506 -3.205,1.506 -1.549,0 -2.9,-0.846 -3.617,-2.104 -1.828,-0.184 -3.3,-1.547 -3.66,-3.313 L 0,0 Z"
             style="fill:#82cf8f;fill-opacity:1;fill-rule:nonzero;stroke:none"
             id="path3570"
             inkscape:connector-curvature="0" /></g></g></g></g></svg>