<?xml version="1.0" encoding="UTF-8" standalone="no"?>
<!-- Created with Inkscape (http://www.inkscape.org/) -->

<svg
   xmlns:dc="http://purl.org/dc/elements/1.1/"
   xmlns:cc="http://creativecommons.org/ns#"
   xmlns:rdf="http://www.w3.org/1999/02/22-rdf-syntax-ns#"
   xmlns:svg="http://www.w3.org/2000/svg"
   xmlns="http://www.w3.org/2000/svg"
   xmlns:sodipodi="http://sodipodi.sourceforge.net/DTD/sodipodi-0.dtd"
   xmlns:inkscape="http://www.inkscape.org/namespaces/inkscape"
   id="svg4414"
   version="1.1"
   inkscape:version="0.91 r13725"
   xml:space="preserve"
   width="108.38863"
   height="97.248497"
   viewBox="0 0 108.38863 97.248497"
   sodipodi:docname="clear-serch.svg"><metadata
     id="metadata4420"><rdf:RDF><cc:Work
         rdf:about=""><dc:format>image/svg+xml</dc:format><dc:type
           rdf:resource="http://purl.org/dc/dcmitype/StillImage" /><dc:title></dc:title></cc:Work></rdf:RDF></metadata><defs
     id="defs4418"><clipPath
       clipPathUnits="userSpaceOnUse"
       id="clipPath4434"><path
         d="m 0,77.799 86.711,0 L 86.711,0 0,0 0,77.799 Z"
         id="path4436"
         inkscape:connector-curvature="0" /></clipPath><clipPath
       clipPathUnits="userSpaceOnUse"
       id="clipPath4484"><path
         d="m 4.63184,67.0752 39.61716,0 0,-39.6089 -39.61716,0 0,39.6089 z"
         id="path4486"
         inkscape:connector-curvature="0" /></clipPath><clipPath
       clipPathUnits="userSpaceOnUse"
       id="clipPath4500"><path
         d="m 5.29492,66.4146 29.42288,0 0,-37.4048 -29.42288,0 0,37.4048 z"
         id="path4502"
         inkscape:connector-curvature="0" /></clipPath></defs><sodipodi:namedview
     pagecolor="#ffffff"
     bordercolor="#666666"
     borderopacity="1"
     objecttolerance="10"
     gridtolerance="10"
     guidetolerance="10"
     inkscape:pageopacity="0"
     inkscape:pageshadow="2"
     inkscape:window-width="640"
     inkscape:window-height="480"
     id="namedview4416"
     showgrid="false"
     inkscape:zoom="2.4267727"
     inkscape:cx="54.194317"
     inkscape:cy="48.624249"
     inkscape:window-x="0"
     inkscape:window-y="0"
     inkscape:window-maximized="0"
     inkscape:current-layer="g4422" /><g
     id="g4422"
     inkscape:groupmode="layer"
     inkscape:label="clear-serch"
     transform="matrix(1.25,0,0,-1.25,0,97.2485)"><path
       d="m 1.545,13.823 85.165,0 0,63.976 -85.165,0 0,-63.976 z"
       style="fill:#e5e8ec;fill-opacity:1;fill-rule:nonzero;stroke:none"
       id="path4424"
       inkscape:connector-curvature="0" /><path
       d="m 1.545,71.687 85.165,0 0,6.112 -85.165,0 0,-6.112 z"
       style="fill:#cdd5d7;fill-opacity:1;fill-rule:nonzero;stroke:none"
       id="path4426"
       inkscape:connector-curvature="0" /><path
       d="m 83.044,73.214 -50.53,0 0,3.056 50.53,0 0,-3.056 z"
       style="fill:#ffffff;fill-opacity:1;fill-rule:nonzero;stroke:none"
       id="path4428"
       inkscape:connector-curvature="0" /><g
       id="g4430"><g
         id="g4432"
         clip-path="url(#clipPath4434)"><g
           id="g4438"
           transform="translate(6.0273,74.7427)"><path
             d="m 0,0 c 0,-0.674 -0.548,-1.223 -1.223,-1.223 -0.675,0 -1.222,0.549 -1.222,1.223 0,0.677 0.547,1.222 1.222,1.222 C -0.548,1.222 0,0.677 0,0"
             style="fill:#424953;fill-opacity:1;fill-rule:nonzero;stroke:none"
             id="path4440"
             inkscape:connector-curvature="0" /></g><g
           id="g4442"
           transform="translate(9.8984,74.7427)"><path
             d="m 0,0 c 0,-0.674 -0.547,-1.223 -1.223,-1.223 -0.674,0 -1.221,0.549 -1.221,1.223 0,0.677 0.547,1.222 1.221,1.222 C -0.547,1.222 0,0.677 0,0"
             style="fill:#ff876c;fill-opacity:1;fill-rule:nonzero;stroke:none"
             id="path4444"
             inkscape:connector-curvature="0" /></g><g
           id="g4446"
           transform="translate(13.7695,74.7427)"><path
             d="m 0,0 c 0,-0.674 -0.547,-1.223 -1.223,-1.223 -0.674,0 -1.222,0.549 -1.222,1.223 0,0.677 0.548,1.222 1.222,1.222 C -0.547,1.222 0,0.677 0,0"
             style="fill:#01bacc;fill-opacity:1;fill-rule:nonzero;stroke:none"
             id="path4448"
             inkscape:connector-curvature="0" /></g><path
           d="m 79.507,14.323 -70.277,0 0,49.392 70.277,0 0,-49.392 z"
           style="fill:#f7f8fc;fill-opacity:1;fill-rule:nonzero;stroke:none"
           id="path4450"
           inkscape:connector-curvature="0" /><path
           d="m 46.799,51.395 -28.953,0 0,2.234 28.953,0 0,-2.234 z"
           style="fill:#b7bec0;fill-opacity:1;fill-rule:nonzero;stroke:none"
           id="path4452"
           inkscape:connector-curvature="0" /><path
           d="m 26.023,42.388 -8.178,0 0,0.917 8.178,0 0,-0.917 z"
           style="fill:#b7bec0;fill-opacity:1;fill-rule:nonzero;stroke:none"
           id="path4454"
           inkscape:connector-curvature="0" /><path
           d="m 69.565,38.024 -51.72,0 0,0.917 51.72,0 0,-0.917 z"
           style="fill:#b7bec0;fill-opacity:1;fill-rule:nonzero;stroke:none"
           id="path4456"
           inkscape:connector-curvature="0" /><path
           d="m 70.891,35.852 -53.045,0 0,0.918 53.045,0 0,-0.918 z"
           style="fill:#b7bec0;fill-opacity:1;fill-rule:nonzero;stroke:none"
           id="path4458"
           inkscape:connector-curvature="0" /><path
           d="m 43.484,33.681 -25.639,0 0,0.917 25.639,0 0,-0.917 z"
           style="fill:#b7bec0;fill-opacity:1;fill-rule:nonzero;stroke:none"
           id="path4460"
           inkscape:connector-curvature="0" /><path
           d="m 70.891,28.496 -53.045,0 0,0.916 53.045,0 0,-0.916 z"
           style="fill:#b7bec0;fill-opacity:1;fill-rule:nonzero;stroke:none"
           id="path4462"
           inkscape:connector-curvature="0" /><path
           d="m 70.891,26.323 -53.045,0 0,0.916 53.045,0 0,-0.916 z"
           style="fill:#b7bec0;fill-opacity:1;fill-rule:nonzero;stroke:none"
           id="path4464"
           inkscape:connector-curvature="0" /><path
           d="m 69.123,24.15 -51.277,0 0,0.917 51.277,0 0,-0.917 z"
           style="fill:#b7bec0;fill-opacity:1;fill-rule:nonzero;stroke:none"
           id="path4466"
           inkscape:connector-curvature="0" /><path
           d="m 70.449,21.978 -52.604,0 0,0.917 52.604,0 0,-0.917 z"
           style="fill:#b7bec0;fill-opacity:1;fill-rule:nonzero;stroke:none"
           id="path4468"
           inkscape:connector-curvature="0" /><path
           d="m 36.191,19.807 -18.346,0 0,0.918 18.346,0 0,-0.918 z"
           style="fill:#b7bec0;fill-opacity:1;fill-rule:nonzero;stroke:none"
           id="path4470"
           inkscape:connector-curvature="0" /><path
           d="m 70.891,46.732 -53.045,0 0,0.916 53.045,0 0,-0.916 z"
           style="fill:#b7bec0;fill-opacity:1;fill-rule:nonzero;stroke:none"
           id="path4472"
           inkscape:connector-curvature="0" /><path
           d="m 61.882,44.561 -44.036,0 0,0.917 44.036,0 0,-0.917 z"
           style="fill:#b7bec0;fill-opacity:1;fill-rule:nonzero;stroke:none"
           id="path4474"
           inkscape:connector-curvature="0" /><g
           id="g4476"
           transform="translate(38.5195,33.2607)"><path
             d="m 0,0 c -3.769,-3.784 -8.766,-5.859 -14.081,-5.865 -10.959,-0.003 -19.875,8.907 -19.873,19.867 0,5.286 2.059,10.266 5.802,14.02 3.758,3.78 8.756,5.857 14.061,5.859 5.306,0.002 10.294,-2.061 14.055,-5.825 C 3.722,24.301 5.792,19.309 5.798,14.012 5.798,8.729 3.742,3.754 0,0 m 3.188,31.284 c -4.621,4.619 -10.758,7.162 -17.279,7.158 -6.531,10e-4 -12.678,-2.552 -17.298,-7.194 -4.596,-4.622 -7.132,-10.748 -7.131,-17.246 0.005,-13.471 10.969,-24.436 24.443,-24.427 6.538,0 12.685,2.561 17.308,7.2 4.6,4.62 7.125,10.741 7.127,17.237 -0.003,6.521 -2.546,12.654 -7.17,17.272"
             style="fill:#30363d;fill-opacity:1;fill-rule:nonzero;stroke:none"
             id="path4478"
             inkscape:connector-curvature="0" /></g><g
           id="g4480"><g
             id="g4482" /><g
             id="g4488"><g
               clip-path="url(#clipPath4484)"
               id="g4490"
               style="opacity:0.19999701"><g
                 transform="translate(10.4141,61.2368)"
                 id="g4492"><path
                   d="m 0,0 c -3.728,-3.742 -5.782,-8.707 -5.782,-13.976 -0.001,-10.92 8.886,-19.802 19.808,-19.795 5.295,10e-4 10.275,2.073 14.031,5.84 3.733,3.745 5.777,8.7 5.778,13.967 -0.003,5.28 -2.068,10.252 -5.814,13.996 C 24.272,3.779 19.301,5.838 14.017,5.838 8.726,5.836 3.747,3.765 0,0"
                   style="fill:#ffffff;fill-opacity:1;fill-rule:nonzero;stroke:none"
                   id="path4494"
                   inkscape:connector-curvature="0" /></g></g></g></g><g
           id="g4496"><g
             id="g4498" /><g
             id="g4504"><g
               clip-path="url(#clipPath4500)"
               id="g4506"
               style="opacity:0.19999701"><g
                 transform="translate(15.4287,31.6172)"
                 id="g4508"><path
                   d="m 0,0 c -3.619,3.618 -5.615,8.423 -5.615,13.527 0,5.095 1.986,9.891 5.59,13.509 3.615,3.63 8.416,5.633 13.519,5.643 l 0.028,0.002 c 1.985,0 3.923,-0.302 5.767,-0.884 -3.049,1.953 -6.587,3 -10.289,3 L 8.977,34.796 c -5.108,-0.01 -9.911,-2.017 -13.526,-5.645 -3.6,-3.615 -5.587,-8.414 -5.585,-13.507 -10e-4,-5.105 1.992,-9.908 5.613,-13.526 2.213,-2.213 4.869,-3.816 7.769,-4.725 C 2.088,-1.865 0.998,-0.998 0,0"
                   style="fill:#ffffff;fill-opacity:1;fill-rule:nonzero;stroke:none"
                   id="path4510"
                   inkscape:connector-curvature="0" /></g></g></g></g><g
           id="g4512"
           transform="translate(24.4404,26.2676)"><path
             d="m 0,0 c -11.585,-0.008 -21.009,9.412 -21.007,20.991 0.001,5.592 2.178,10.855 6.131,14.823 3.974,3.991 9.255,6.188 14.865,6.191 l 10e-4,2.048 c -0.016,0.003 -0.029,0 -0.043,0 -6.15,-0.011 -11.929,-2.421 -16.275,-6.785 -4.338,-4.358 -6.729,-10.139 -6.731,-16.271 0.004,-12.71 10.346,-23.051 23.061,-23.046 L 0.003,0 0,0 Z"
             style="fill:#474f59;fill-opacity:1;fill-rule:nonzero;stroke:none"
             id="path4514"
             inkscape:connector-curvature="0" /></g><g
           id="g4516"
           transform="translate(46.8711,29.2065)"><path
             d="M 0,0 C -1.29,1.331 -2.586,2.659 -3.886,3.992 -4.491,4.598 -5.285,4.916 -6.063,4.908 -6.524,4.347 -7.016,3.803 -7.534,3.285 -8.071,2.743 -8.638,2.231 -9.224,1.754 c -0.004,-0.775 0.311,-1.572 0.912,-2.175 1.297,-1.334 2.598,-2.673 3.905,-4.016 1.257,-1.258 2.738,-0.828 3.97,0.442 l 0.01,0.004 C 0.825,-2.732 1.252,-1.243 0,0"
             style="fill:#30363d;fill-opacity:1;fill-rule:nonzero;stroke:none"
             id="path4518"
             inkscape:connector-curvature="0" /></g><g
           id="g4520"
           transform="translate(70.0146,8.749)"><path
             d="m 0,0 -7.057,-7.055 -22.024,22.023 7.059,7.057 L 0,0 Z"
             style="fill:#484f59;fill-opacity:1;fill-rule:nonzero;stroke:none"
             id="path4522"
             inkscape:connector-curvature="0" /></g><g
           id="g4524"
           transform="translate(69.4512,8.1855)"><path
             d="m 0,0 -2.915,-2.915 -22.023,22.024 2.913,2.915 L 0,0 Z"
             style="fill:#30363d;fill-opacity:1;fill-rule:nonzero;stroke:none"
             id="path4526"
             inkscape:connector-curvature="0" /></g><g
           id="g4528"
           transform="translate(49.6855,29.0811)"><path
             d="M 0,0 -7.058,-7.058 -8.752,-5.364 -1.693,1.693 0,0 Z"
             style="fill:#e5e8ec;fill-opacity:1;fill-rule:nonzero;stroke:none"
             id="path4530"
             inkscape:connector-curvature="0" /></g><g
           id="g4532"
           transform="translate(48.8877,28.5625)"><path
             d="M 0,0 -3.119,-3.117 -4.283,-1.952 -1.166,1.166 0,0 Z"
             style="fill:#cdd5d7;fill-opacity:1;fill-rule:nonzero;stroke:none"
             id="path4534"
             inkscape:connector-curvature="0" /></g><g
           id="g4536"
           transform="translate(71.71,7.0566)"><path
             d="m 0,0 c -0.001,-3.896 -3.16,-7.056 -7.058,-7.057 -0.565,0.565 -1.13,1.128 -1.694,1.694 2.354,2.354 4.705,4.706 7.057,7.055 C -1.13,1.129 -0.566,0.564 0,0"
             style="fill:#e5e8ec;fill-opacity:1;fill-rule:nonzero;stroke:none"
             id="path4538"
             inkscape:connector-curvature="0" /></g><g
           id="g4540"
           transform="translate(71.0264,6.4248)"><path
             d="M 0,0 -3.118,-3.118 -4.574,-1.662 -1.457,1.456 0,0 Z"
             style="fill:#cdd5d7;fill-opacity:1;fill-rule:nonzero;stroke:none"
             id="path4542"
             inkscape:connector-curvature="0" /></g></g></g></g></svg>