<?xml version="1.0" encoding="UTF-8" standalone="no"?>
<!-- Created with Inkscape (http://www.inkscape.org/) -->

<svg
   xmlns:dc="http://purl.org/dc/elements/1.1/"
   xmlns:cc="http://creativecommons.org/ns#"
   xmlns:rdf="http://www.w3.org/1999/02/22-rdf-syntax-ns#"
   xmlns:svg="http://www.w3.org/2000/svg"
   xmlns="http://www.w3.org/2000/svg"
   xmlns:sodipodi="http://sodipodi.sourceforge.net/DTD/sodipodi-0.dtd"
   xmlns:inkscape="http://www.inkscape.org/namespaces/inkscape"
   id="svg4674"
   version="1.1"
   inkscape:version="0.91 r13725"
   xml:space="preserve"
   width="87.912628"
   height="124.649"
   viewBox="0 0 87.912628 124.649"
   sodipodi:docname="clear-site.svg"><metadata
     id="metadata4680"><rdf:RDF><cc:Work
         rdf:about=""><dc:format>image/svg+xml</dc:format><dc:type
           rdf:resource="http://purl.org/dc/dcmitype/StillImage" /><dc:title></dc:title></cc:Work></rdf:RDF></metadata><defs
     id="defs4678"><clipPath
       clipPathUnits="userSpaceOnUse"
       id="clipPath4688"><path
         d="m 0,99.719 70.33,0 L 70.33,0 0,0 0,99.719 Z"
         id="path4690"
         inkscape:connector-curvature="0" /></clipPath></defs><sodipodi:namedview
     pagecolor="#ffffff"
     bordercolor="#666666"
     borderopacity="1"
     objecttolerance="10"
     gridtolerance="10"
     guidetolerance="10"
     inkscape:pageopacity="0"
     inkscape:pageshadow="2"
     inkscape:window-width="640"
     inkscape:window-height="480"
     id="namedview4676"
     showgrid="false"
     inkscape:zoom="1.8933164"
     inkscape:cx="43.956314"
     inkscape:cy="62.324501"
     inkscape:window-x="0"
     inkscape:window-y="0"
     inkscape:window-maximized="0"
     inkscape:current-layer="g4682" /><g
     id="g4682"
     inkscape:groupmode="layer"
     inkscape:label="clear-site"
     transform="matrix(1.25,0,0,-1.25,0,124.649)"><g
       id="g4684"><g
         id="g4686"
         clip-path="url(#clipPath4688)"><g
           id="g4692"
           transform="translate(70.3301,0.5293)"><path
             d="m 0,0 c 0,-0.291 -0.237,-0.529 -0.529,-0.529 l -69.271,0 c -0.294,0 -0.53,0.238 -0.53,0.529 l 0,98.66 c 0,0.295 0.236,0.53 0.53,0.53 l 69.271,0 C -0.237,99.19 0,98.955 0,98.66 L 0,0 Z"
             style="fill:#e5e8ec;fill-opacity:1;fill-rule:nonzero;stroke:none"
             id="path4694"
             inkscape:connector-curvature="0" /></g><g
           id="g4696"
           transform="translate(70.3301,94.0859)"><path
             d="m 0,0 0,5.104 c 0,0.294 -0.237,0.529 -0.529,0.529 l -69.271,0 c -0.294,0 -0.53,-0.235 -0.53,-0.529 L -70.33,0 0,0 Z"
             style="fill:#b7bec0;fill-opacity:1;fill-rule:nonzero;stroke:none"
             id="path4698"
             inkscape:connector-curvature="0" /></g><g
           id="g4700"
           transform="translate(0,12.2949)"><path
             d="m 0,0 0,-11.766 c 0,-0.292 0.236,-0.529 0.53,-0.529 l 69.271,0 c 0.292,0 0.529,0.237 0.529,0.529 L 70.33,0 0,0 Z"
             style="fill:#cdd5d7;fill-opacity:1;fill-rule:nonzero;stroke:none"
             id="path4702"
             inkscape:connector-curvature="0" /></g><path
           d="m 0,49.148 70.33,0 0,26.596 -70.33,0 0,-26.596 z"
           style="fill:#ff876c;fill-opacity:1;fill-rule:nonzero;stroke:none"
           id="path4704"
           inkscape:connector-curvature="0" /><path
           d="m 15.988,65.002 38.217,0 0,2.51 -38.217,0 0,-2.51 z"
           style="fill:#ffffff;fill-opacity:1;fill-rule:nonzero;stroke:none"
           id="path4706"
           inkscape:connector-curvature="0" /><path
           d="m 11.911,61.93 46.371,0 0,0.627 -46.371,0 0,-0.627 z"
           style="fill:#ffffff;fill-opacity:1;fill-rule:nonzero;stroke:none"
           id="path4708"
           inkscape:connector-curvature="0" /><path
           d="m 10.031,59.654 50.131,0 0,0.629 -50.131,0 0,-0.629 z"
           style="fill:#ffffff;fill-opacity:1;fill-rule:nonzero;stroke:none"
           id="path4710"
           inkscape:connector-curvature="0" /><path
           d="m 16.176,57.381 37.842,0 0,0.629 -37.842,0 0,-0.629 z"
           style="fill:#ffffff;fill-opacity:1;fill-rule:nonzero;stroke:none"
           id="path4712"
           inkscape:connector-curvature="0" /><path
           d="m 44.573,85.376 -13.404,0 0,1.739 13.404,0 0,-1.739 z"
           style="fill:#484f59;fill-opacity:1;fill-rule:nonzero;stroke:none"
           id="path4714"
           inkscape:connector-curvature="0" /><path
           d="m 29.839,84.022 -4.082,0 0,4.447 4.082,0 0,-4.447 z"
           style="fill:#484f59;fill-opacity:1;fill-rule:nonzero;stroke:none"
           id="path4716"
           inkscape:connector-curvature="0" /><path
           d="m 8.968,80.915 9.313,0 0,0.627 -9.313,0 0,-0.627 z"
           style="fill:#b7bec0;fill-opacity:1;fill-rule:nonzero;stroke:none"
           id="path4718"
           inkscape:connector-curvature="0" /><path
           d="m 19.74,80.915 9.31,0 0,0.627 -9.31,0 0,-0.627 z"
           style="fill:#b7bec0;fill-opacity:1;fill-rule:nonzero;stroke:none"
           id="path4720"
           inkscape:connector-curvature="0" /><path
           d="m 30.509,80.915 9.313,0 0,0.627 -9.313,0 0,-0.627 z"
           style="fill:#b7bec0;fill-opacity:1;fill-rule:nonzero;stroke:none"
           id="path4722"
           inkscape:connector-curvature="0" /><path
           d="m 41.28,80.915 9.313,0 0,0.627 -9.313,0 0,-0.627 z"
           style="fill:#b7bec0;fill-opacity:1;fill-rule:nonzero;stroke:none"
           id="path4724"
           inkscape:connector-curvature="0" /><path
           d="m 52.048,80.915 9.313,0 0,0.627 -9.313,0 0,-0.627 z"
           style="fill:#b7bec0;fill-opacity:1;fill-rule:nonzero;stroke:none"
           id="path4726"
           inkscape:connector-curvature="0" /><g
           id="g4728"
           transform="translate(66.6582,61.1416)"><path
             d="M 0,0 -0.379,0.274 0.367,1.304 -0.379,2.332 0,2.608 0.947,1.304 0,0 Z"
             style="fill:#ffffff;fill-opacity:1;fill-rule:nonzero;stroke:none"
             id="path4730"
             inkscape:connector-curvature="0" /></g><path
           d="m 67.315,62.211 -2.581,0 0,0.47 2.581,0 0,-0.47 z"
           style="fill:#ffffff;fill-opacity:1;fill-rule:nonzero;stroke:none"
           id="path4732"
           inkscape:connector-curvature="0" /><g
           id="g4734"
           transform="translate(3.6719,61.1406)"><path
             d="M 0,0 -0.949,1.305 0,2.609 0.379,2.333 -0.369,1.305 0.379,0.277 0,0 Z"
             style="fill:#ffffff;fill-opacity:1;fill-rule:nonzero;stroke:none"
             id="path4736"
             inkscape:connector-curvature="0" /></g><path
           d="m 5.598,62.211 -2.585,0 0,0.47 2.585,0 0,-0.47 z"
           style="fill:#ffffff;fill-opacity:1;fill-rule:nonzero;stroke:none"
           id="path4738"
           inkscape:connector-curvature="0" /><path
           d="m 5.856,45.555 17.133,0 0,-17.133 -17.133,0 0,17.133 z"
           style="fill:#f4da80;fill-opacity:1;fill-rule:nonzero;stroke:none"
           id="path4740"
           inkscape:connector-curvature="0" /><path
           d="m 23.224,45.79 -17.602,0 0,-17.603 17.602,0 0,17.603 z m -0.47,-17.134 -16.662,0 0,16.664 16.662,0 0,-16.664 z"
           style="fill:#f3b840;fill-opacity:1;fill-rule:nonzero;stroke:none"
           id="path4742"
           inkscape:connector-curvature="0" /><g
           id="g4744"
           transform="translate(6.1865,28.5176)"><path
             d="m 0,0 c -0.061,0 -0.12,0.022 -0.166,0.068 -0.092,0.092 -0.092,0.241 0,0.332 l 16.473,16.471 c 0.092,0.093 0.241,0.091 0.332,0 0.091,-0.092 0.091,-0.24 0,-0.332 L 0.166,0.068 C 0.12,0.022 0.06,0 0,0"
             style="fill:#f3b840;fill-opacity:1;fill-rule:nonzero;stroke:none"
             id="path4746"
             inkscape:connector-curvature="0" /></g><g
           id="g4748"
           transform="translate(22.6592,28.5176)"><path
             d="m 0,0 c -0.061,0 -0.12,0.022 -0.166,0.068 l -16.473,16.471 c -0.091,0.092 -0.091,0.24 0,0.332 0.093,0.093 0.242,0.091 0.332,0 L 0.166,0.4 C 0.258,0.309 0.258,0.16 0.166,0.068 0.12,0.022 0.06,0 0,0"
             style="fill:#f3b840;fill-opacity:1;fill-rule:nonzero;stroke:none"
             id="path4750"
             inkscape:connector-curvature="0" /></g><path
           d="m 26.599,45.555 17.134,0 0,-17.133 -17.134,0 0,17.133 z"
           style="fill:#f4da80;fill-opacity:1;fill-rule:nonzero;stroke:none"
           id="path4752"
           inkscape:connector-curvature="0" /><path
           d="m 43.967,45.79 -17.603,0 0,-17.603 17.603,0 0,17.603 z m -0.47,-17.134 -16.663,0 0,16.664 16.663,0 0,-16.664 z"
           style="fill:#f3b840;fill-opacity:1;fill-rule:nonzero;stroke:none"
           id="path4754"
           inkscape:connector-curvature="0" /><g
           id="g4756"
           transform="translate(26.9297,28.5176)"><path
             d="m 0,0 c -0.06,0 -0.12,0.022 -0.166,0.068 -0.092,0.092 -0.092,0.241 0,0.332 l 16.471,16.471 c 0.091,0.092 0.24,0.092 0.332,0 0.092,-0.092 0.092,-0.24 0,-0.332 L 0.166,0.068 C 0.12,0.022 0.06,0 0,0"
             style="fill:#f3b840;fill-opacity:1;fill-rule:nonzero;stroke:none"
             id="path4758"
             inkscape:connector-curvature="0" /></g><g
           id="g4760"
           transform="translate(43.4004,28.5176)"><path
             d="m 0,0 c -0.06,0 -0.12,0.022 -0.166,0.068 l -16.471,16.471 c -0.092,0.092 -0.092,0.24 0,0.332 0.092,0.092 0.241,0.092 0.332,0 L 0.166,0.4 C 0.258,0.309 0.258,0.16 0.166,0.068 0.12,0.022 0.06,0 0,0"
             style="fill:#f3b840;fill-opacity:1;fill-rule:nonzero;stroke:none"
             id="path4762"
             inkscape:connector-curvature="0" /></g><path
           d="m 47.339,45.555 17.135,0 0,-17.133 -17.135,0 0,17.133 z"
           style="fill:#f4da80;fill-opacity:1;fill-rule:nonzero;stroke:none"
           id="path4764"
           inkscape:connector-curvature="0" /><path
           d="m 64.708,45.79 -17.604,0 0,-17.603 17.604,0 0,17.603 z m -0.47,-17.134 -16.664,0 0,16.664 16.664,0 0,-16.664 z"
           style="fill:#f3b840;fill-opacity:1;fill-rule:nonzero;stroke:none"
           id="path4766"
           inkscape:connector-curvature="0" /><g
           id="g4768"
           transform="translate(47.6709,28.5176)"><path
             d="m 0,0 c -0.06,0 -0.12,0.022 -0.166,0.068 -0.092,0.092 -0.092,0.241 0,0.332 l 16.471,16.471 c 0.091,0.092 0.24,0.092 0.332,0 0.092,-0.092 0.092,-0.24 0,-0.332 L 0.166,0.068 C 0.12,0.022 0.06,0 0,0"
             style="fill:#f3b840;fill-opacity:1;fill-rule:nonzero;stroke:none"
             id="path4770"
             inkscape:connector-curvature="0" /></g><g
           id="g4772"
           transform="translate(64.1416,28.5176)"><path
             d="m 0,0 c -0.06,0 -0.12,0.022 -0.166,0.068 l -16.471,16.471 c -0.092,0.092 -0.092,0.24 0,0.332 0.092,0.092 0.241,0.092 0.332,0 L 0.166,0.4 C 0.258,0.309 0.258,0.16 0.166,0.068 0.12,0.022 0.06,0 0,0"
             style="fill:#f3b840;fill-opacity:1;fill-rule:nonzero;stroke:none"
             id="path4774"
             inkscape:connector-curvature="0" /></g><path
           d="m 22.862,23.972 -17.24,0 0,0.629 17.24,0 0,-0.629 z"
           style="fill:#b7bec0;fill-opacity:1;fill-rule:nonzero;stroke:none"
           id="path4776"
           inkscape:connector-curvature="0" /><path
           d="m 21.309,22.342 -15.687,0 0,0.627 15.687,0 0,-0.627 z"
           style="fill:#b7bec0;fill-opacity:1;fill-rule:nonzero;stroke:none"
           id="path4778"
           inkscape:connector-curvature="0" /><path
           d="m 22.862,20.711 -17.24,0 0,0.627 17.24,0 0,-0.627 z"
           style="fill:#b7bec0;fill-opacity:1;fill-rule:nonzero;stroke:none"
           id="path4780"
           inkscape:connector-curvature="0" /><path
           d="m 19.382,19.078 -13.76,0 0,0.628 13.76,0 0,-0.628 z"
           style="fill:#b7bec0;fill-opacity:1;fill-rule:nonzero;stroke:none"
           id="path4782"
           inkscape:connector-curvature="0" /><path
           d="m 5.622,25.524 9.312,0 0,0.628 -9.312,0 0,-0.628 z"
           style="fill:#b7bec0;fill-opacity:1;fill-rule:nonzero;stroke:none"
           id="path4784"
           inkscape:connector-curvature="0" /><path
           d="m 22.862,6.063 -17.24,0 0,0.626 17.24,0 0,-0.626 z"
           style="fill:#b7bec0;fill-opacity:1;fill-rule:nonzero;stroke:none"
           id="path4786"
           inkscape:connector-curvature="0" /><path
           d="m 21.309,4.84 -15.687,0 0,0.627 15.687,0 0,-0.627 z"
           style="fill:#b7bec0;fill-opacity:1;fill-rule:nonzero;stroke:none"
           id="path4788"
           inkscape:connector-curvature="0" /><path
           d="m 5.622,7.615 9.312,0 0,0.628 -9.312,0 0,-0.628 z"
           style="fill:#b7bec0;fill-opacity:1;fill-rule:nonzero;stroke:none"
           id="path4790"
           inkscape:connector-curvature="0" /><path
           d="m 43.607,23.972 -17.243,0 0,0.629 17.243,0 0,-0.629 z"
           style="fill:#b7bec0;fill-opacity:1;fill-rule:nonzero;stroke:none"
           id="path4792"
           inkscape:connector-curvature="0" /><path
           d="m 42.055,22.342 -15.69,0 0,0.627 15.69,0 0,-0.627 z"
           style="fill:#b7bec0;fill-opacity:1;fill-rule:nonzero;stroke:none"
           id="path4794"
           inkscape:connector-curvature="0" /><path
           d="m 43.607,20.711 -17.243,0 0,0.627 17.243,0 0,-0.627 z"
           style="fill:#b7bec0;fill-opacity:1;fill-rule:nonzero;stroke:none"
           id="path4796"
           inkscape:connector-curvature="0" /><path
           d="m 40.124,19.078 -13.76,0 0,0.628 13.76,0 0,-0.628 z"
           style="fill:#b7bec0;fill-opacity:1;fill-rule:nonzero;stroke:none"
           id="path4798"
           inkscape:connector-curvature="0" /><path
           d="m 26.364,25.524 9.313,0 0,0.628 -9.313,0 0,-0.628 z"
           style="fill:#b7bec0;fill-opacity:1;fill-rule:nonzero;stroke:none"
           id="path4800"
           inkscape:connector-curvature="0" /><path
           d="m 64.349,23.972 -17.244,0 0,0.629 17.244,0 0,-0.629 z"
           style="fill:#b7bec0;fill-opacity:1;fill-rule:nonzero;stroke:none"
           id="path4802"
           inkscape:connector-curvature="0" /><path
           d="m 62.798,22.342 -15.693,0 0,0.627 15.693,0 0,-0.627 z"
           style="fill:#b7bec0;fill-opacity:1;fill-rule:nonzero;stroke:none"
           id="path4804"
           inkscape:connector-curvature="0" /><path
           d="m 64.349,20.711 -17.244,0 0,0.627 17.244,0 0,-0.627 z"
           style="fill:#b7bec0;fill-opacity:1;fill-rule:nonzero;stroke:none"
           id="path4806"
           inkscape:connector-curvature="0" /><path
           d="m 60.867,19.078 -13.763,0 0,0.628 13.763,0 0,-0.628 z"
           style="fill:#b7bec0;fill-opacity:1;fill-rule:nonzero;stroke:none"
           id="path4808"
           inkscape:connector-curvature="0" /><path
           d="m 47.104,25.524 9.315,0 0,0.628 -9.315,0 0,-0.628 z"
           style="fill:#b7bec0;fill-opacity:1;fill-rule:nonzero;stroke:none"
           id="path4810"
           inkscape:connector-curvature="0" /><g
           id="g4812"
           transform="translate(64.71,6.54)"><path
             d="m 0,0 c 0,-0.806 -0.652,-1.457 -1.459,-1.457 -0.806,0 -1.457,0.651 -1.457,1.457 0,0.806 0.651,1.458 1.457,1.458 C -0.652,1.458 0,0.806 0,0"
             style="fill:#b7bec0;fill-opacity:1;fill-rule:nonzero;stroke:none"
             id="path4814"
             inkscape:connector-curvature="0" /></g><g
           id="g4816"
           transform="translate(60.9463,6.54)"><path
             d="m 0,0 c 0,-0.806 -0.654,-1.457 -1.46,-1.457 -0.804,0 -1.458,0.651 -1.458,1.457 0,0.806 0.654,1.458 1.458,1.458 C -0.654,1.458 0,0.806 0,0"
             style="fill:#b7bec0;fill-opacity:1;fill-rule:nonzero;stroke:none"
             id="path4818"
             inkscape:connector-curvature="0" /></g><g
           id="g4820"
           transform="translate(57.1826,6.54)"><path
             d="m 0,0 c 0,-0.806 -0.653,-1.457 -1.46,-1.457 -0.804,0 -1.457,0.651 -1.457,1.457 0,0.806 0.653,1.458 1.457,1.458 C -0.653,1.458 0,0.806 0,0"
             style="fill:#b7bec0;fill-opacity:1;fill-rule:nonzero;stroke:none"
             id="path4822"
             inkscape:connector-curvature="0" /></g><g
           id="g4824"
           transform="translate(9.0879,96.9526)"><path
             d="m 0,0 c 0,-0.499 -0.405,-0.901 -0.902,-0.901 -0.497,0 -0.903,0.402 -0.903,0.901 0,0.499 0.406,0.902 0.903,0.902 C -0.405,0.902 0,0.499 0,0"
             style="fill:#ffffff;fill-opacity:1;fill-rule:nonzero;stroke:none"
             id="path4826"
             inkscape:connector-curvature="0" /></g><g
           id="g4828"
           transform="translate(6.1406,96.9526)"><path
             d="m 0,0 c 0,-0.499 -0.401,-0.901 -0.899,-0.901 -0.499,0 -0.901,0.402 -0.901,0.901 0,0.499 0.402,0.902 0.901,0.902 C -0.401,0.902 0,0.499 0,0"
             style="fill:#ffffff;fill-opacity:1;fill-rule:nonzero;stroke:none"
             id="path4830"
             inkscape:connector-curvature="0" /></g><g
           id="g4832"
           transform="translate(3.2002,96.9526)"><path
             d="m 0,0 c 0,-0.499 -0.404,-0.901 -0.903,-0.901 -0.497,0 -0.901,0.402 -0.901,0.901 0,0.499 0.404,0.902 0.901,0.902 C -0.404,0.902 0,0.499 0,0"
             style="fill:#ffffff;fill-opacity:1;fill-rule:nonzero;stroke:none"
             id="path4834"
             inkscape:connector-curvature="0" /></g></g></g></g></svg>