<?xml version="1.0" encoding="UTF-8" standalone="no"?>
<!-- Created with Inkscape (http://www.inkscape.org/) -->

<svg
   xmlns:dc="http://purl.org/dc/elements/1.1/"
   xmlns:cc="http://creativecommons.org/ns#"
   xmlns:rdf="http://www.w3.org/1999/02/22-rdf-syntax-ns#"
   xmlns:svg="http://www.w3.org/2000/svg"
   xmlns="http://www.w3.org/2000/svg"
   xmlns:sodipodi="http://sodipodi.sourceforge.net/DTD/sodipodi-0.dtd"
   xmlns:inkscape="http://www.inkscape.org/namespaces/inkscape"
   id="svg3572"
   version="1.1"
   inkscape:version="0.91 r13725"
   xml:space="preserve"
   width="114.26875"
   height="79.970123"
   viewBox="0 0 114.26875 79.970123"
   sodipodi:docname="clear-key.svg"><metadata
     id="metadata3578"><rdf:RDF><cc:Work
         rdf:about=""><dc:format>image/svg+xml</dc:format><dc:type
           rdf:resource="http://purl.org/dc/dcmitype/StillImage" /><dc:title></dc:title></cc:Work></rdf:RDF></metadata><defs
     id="defs3576"><clipPath
       clipPathUnits="userSpaceOnUse"
       id="clipPath3592"><path
         d="m 0,63.976 91.415,0 L 91.415,0 0,0 0,63.976 Z"
         id="path3594"
         inkscape:connector-curvature="0" /></clipPath></defs><sodipodi:namedview
     pagecolor="#ffffff"
     bordercolor="#666666"
     borderopacity="1"
     objecttolerance="10"
     gridtolerance="10"
     guidetolerance="10"
     inkscape:pageopacity="0"
     inkscape:pageshadow="2"
     inkscape:window-width="640"
     inkscape:window-height="480"
     id="namedview3574"
     showgrid="false"
     inkscape:zoom="2.9511021"
     inkscape:cx="57.134377"
     inkscape:cy="39.985062"
     inkscape:window-x="0"
     inkscape:window-y="0"
     inkscape:window-maximized="0"
     inkscape:current-layer="g3580" /><g
     id="g3580"
     inkscape:groupmode="layer"
     inkscape:label="clear-key"
     transform="matrix(1.25,0,0,-1.25,0,79.970125)"><path
       d="m 0,0 85.166,0 0,63.977 L 0,63.977 0,0 Z"
       style="fill:#e5e8ec;fill-opacity:1;fill-rule:nonzero;stroke:none"
       id="path3582"
       inkscape:connector-curvature="0" /><path
       d="m 0,57.864 85.166,0 0,6.113 -85.166,0 0,-6.113 z"
       style="fill:#cdd5d7;fill-opacity:1;fill-rule:nonzero;stroke:none"
       id="path3584"
       inkscape:connector-curvature="0" /><path
       d="m 81.5,59.392 -50.529,0 0,3.056 50.529,0 0,-3.056 z"
       style="fill:#ffffff;fill-opacity:1;fill-rule:nonzero;stroke:none"
       id="path3586"
       inkscape:connector-curvature="0" /><g
       id="g3588"><g
         id="g3590"
         clip-path="url(#clipPath3592)"><g
           id="g3596"
           transform="translate(4.4824,60.9199)"><path
             d="m 0,0 c 0,-0.674 -0.547,-1.223 -1.223,-1.223 -0.675,0 -1.222,0.549 -1.222,1.223 0,0.677 0.547,1.222 1.222,1.222 C -0.547,1.222 0,0.677 0,0"
             style="fill:#424953;fill-opacity:1;fill-rule:nonzero;stroke:none"
             id="path3598"
             inkscape:connector-curvature="0" /></g><g
           id="g3600"
           transform="translate(8.3535,60.9199)"><path
             d="m 0,0 c 0,-0.674 -0.548,-1.223 -1.223,-1.223 -0.673,0 -1.22,0.549 -1.22,1.223 0,0.677 0.547,1.222 1.22,1.222 C -0.548,1.222 0,0.677 0,0"
             style="fill:#ff876c;fill-opacity:1;fill-rule:nonzero;stroke:none"
             id="path3602"
             inkscape:connector-curvature="0" /></g><g
           id="g3604"
           transform="translate(12.2246,60.9199)"><path
             d="m 0,0 c 0,-0.674 -0.547,-1.223 -1.223,-1.223 -0.673,0 -1.222,0.549 -1.222,1.223 0,0.677 0.549,1.222 1.222,1.222 C -0.547,1.222 0,0.677 0,0"
             style="fill:#01bacc;fill-opacity:1;fill-rule:nonzero;stroke:none"
             id="path3606"
             inkscape:connector-curvature="0" /></g><path
           d="m 77.963,0.5 -70.277,0 0,49.392 70.277,0 0,-49.392 z"
           style="fill:#f7f8fc;fill-opacity:1;fill-rule:nonzero;stroke:none"
           id="path3608"
           inkscape:connector-curvature="0" /><g
           id="g3610"
           transform="translate(25.6152,36)"><path
             d="m 0,0 c 0,-2.854 -2.314,-5.167 -5.168,-5.167 -2.853,0 -5.166,2.313 -5.166,5.167 0,2.854 2.313,5.166 5.166,5.166 C -2.314,5.166 0,2.854 0,0"
             style="fill:#b7bec0;fill-opacity:1;fill-rule:nonzero;stroke:none"
             id="path3612"
             inkscape:connector-curvature="0" /></g><g
           id="g3614"
           transform="translate(16.627,18.8325)"><path
             d="m 0,0 3.82,0 3.821,0 -1.505,16.333 -4.632,0 L 0,0 Z"
             style="fill:#b7bec0;fill-opacity:1;fill-rule:nonzero;stroke:none"
             id="path3616"
             inkscape:connector-curvature="0" /></g><path
           d="m 58.031,37.572 -29,0 0,2.234 29,0 0,-2.234 z"
           style="fill:#cdd5d7;fill-opacity:1;fill-rule:nonzero;stroke:none"
           id="path3618"
           inkscape:connector-curvature="0" /><path
           d="m 37.209,28.565 -8.178,0 0,0.917 8.178,0 0,-0.917 z"
           style="fill:#cdd5d7;fill-opacity:1;fill-rule:nonzero;stroke:none"
           id="path3620"
           inkscape:connector-curvature="0" /><path
           d="m 68.354,24.202 -39.322,0 0,0.917 39.322,0 0,-0.917 z"
           style="fill:#cdd5d7;fill-opacity:1;fill-rule:nonzero;stroke:none"
           id="path3622"
           inkscape:connector-curvature="0" /><path
           d="m 69.679,22.029 -40.647,0 0,0.918 40.647,0 0,-0.918 z"
           style="fill:#cdd5d7;fill-opacity:1;fill-rule:nonzero;stroke:none"
           id="path3624"
           inkscape:connector-curvature="0" /><path
           d="m 42.273,19.858 -13.242,0 0,0.917 13.242,0 0,-0.917 z"
           style="fill:#cdd5d7;fill-opacity:1;fill-rule:nonzero;stroke:none"
           id="path3626"
           inkscape:connector-curvature="0" /><path
           d="m 69.679,14.673 -53.044,0 0,0.916 53.044,0 0,-0.916 z"
           style="fill:#cdd5d7;fill-opacity:1;fill-rule:nonzero;stroke:none"
           id="path3628"
           inkscape:connector-curvature="0" /><path
           d="m 69.679,12.5 -53.044,0 0,0.916 53.044,0 0,-0.916 z"
           style="fill:#cdd5d7;fill-opacity:1;fill-rule:nonzero;stroke:none"
           id="path3630"
           inkscape:connector-curvature="0" /><path
           d="m 67.912,10.328 -51.277,0 0,0.917 51.277,0 0,-0.917 z"
           style="fill:#cdd5d7;fill-opacity:1;fill-rule:nonzero;stroke:none"
           id="path3632"
           inkscape:connector-curvature="0" /><path
           d="m 69.238,8.155 -52.604,0 0,0.917 52.604,0 0,-0.917 z"
           style="fill:#cdd5d7;fill-opacity:1;fill-rule:nonzero;stroke:none"
           id="path3634"
           inkscape:connector-curvature="0" /><path
           d="m 34.98,5.984 -18.346,0 0,0.918 18.346,0 0,-0.918 z"
           style="fill:#cdd5d7;fill-opacity:1;fill-rule:nonzero;stroke:none"
           id="path3636"
           inkscape:connector-curvature="0" /><path
           d="m 69.679,32.91 -40.647,0 0,0.916 40.647,0 0,-0.916 z"
           style="fill:#cdd5d7;fill-opacity:1;fill-rule:nonzero;stroke:none"
           id="path3638"
           inkscape:connector-curvature="0" /><path
           d="m 60.67,30.738 -31.639,0 0,0.917 31.639,0 0,-0.917 z"
           style="fill:#cdd5d7;fill-opacity:1;fill-rule:nonzero;stroke:none"
           id="path3640"
           inkscape:connector-curvature="0" /><path
           d="m 42.938,21.672 5.834,0 0,16.405 -5.834,0 0,-16.405 z"
           style="fill:#f3b840;fill-opacity:1;fill-rule:nonzero;stroke:none"
           id="path3642"
           inkscape:connector-curvature="0" /><path
           d="m 30.358,32.245 40.455,0 0,5.833 -40.455,0 0,-5.833 z"
           style="fill:#f3b840;fill-opacity:1;fill-rule:nonzero;stroke:none"
           id="path3644"
           inkscape:connector-curvature="0" /><path
           d="m 33.096,25.682 12.761,0 0,11.21 -12.761,0 0,-11.21 z"
           style="fill:#f3b840;fill-opacity:1;fill-rule:nonzero;stroke:none"
           id="path3646"
           inkscape:connector-curvature="0" /><path
           d="m 85.581,24.042 -11.301,0 0,22.237 11.301,0 0,-22.237 z m 0.729,28.071 -12.76,0 c -2.819,0 -5.104,-2.285 -5.104,-5.104 l 0,-23.697 c 0,-2.818 2.285,-5.104 5.104,-5.104 l 12.76,0 c 2.82,0 5.105,2.286 5.105,5.104 l 0,23.697 c 0,2.819 -2.285,5.104 -5.105,5.104"
           style="fill:#f3b840;fill-opacity:1;fill-rule:nonzero;stroke:none"
           id="path3648"
           inkscape:connector-curvature="0" /><path
           d="m 72.093,23.312 14.217,0 0,25.155 -14.217,0 0,-25.155 z m 0.728,-2.916 c -2.009,0 -3.644,1.636 -3.644,3.646 l 0,23.696 c 0,2.01 1.635,3.646 3.644,3.646 l 12.76,0 c 2.01,0 3.647,-1.636 3.647,-3.646 l 0,-23.696 c 0,-2.01 -1.637,-3.646 -3.647,-3.646 l -12.76,0 z"
           style="fill:#f4da80;fill-opacity:1;fill-rule:nonzero;stroke:none"
           id="path3650"
           inkscape:connector-curvature="0" /><path
           d="m 33.096,21.672 5.832,0 0,16.405 -5.832,0 0,-16.405 z"
           style="fill:#f3b840;fill-opacity:1;fill-rule:nonzero;stroke:none"
           id="path3652"
           inkscape:connector-curvature="0" /><path
           d="m 33.096,21.672 2.916,0 0,10.572 -2.916,0 0,-10.572 z"
           style="fill:#f4da80;fill-opacity:1;fill-rule:nonzero;stroke:none"
           id="path3654"
           inkscape:connector-curvature="0" /><path
           d="m 42.938,21.672 2.918,0 0,10.572 -2.918,0 0,-10.572 z"
           style="fill:#f4da80;fill-opacity:1;fill-rule:nonzero;stroke:none"
           id="path3656"
           inkscape:connector-curvature="0" /><path
           d="m 30.358,35.162 40.455,0 0,2.916 -40.455,0 0,-2.916 z"
           style="fill:#f4da80;fill-opacity:1;fill-rule:nonzero;stroke:none"
           id="path3658"
           inkscape:connector-curvature="0" /></g></g></g></svg>