<?xml version="1.0" encoding="UTF-8" standalone="no"?>
<!-- Created with Inkscape (http://www.inkscape.org/) -->

<svg
   xmlns:dc="http://purl.org/dc/elements/1.1/"
   xmlns:cc="http://creativecommons.org/ns#"
   xmlns:rdf="http://www.w3.org/1999/02/22-rdf-syntax-ns#"
   xmlns:svg="http://www.w3.org/2000/svg"
   xmlns="http://www.w3.org/2000/svg"
   xmlns:sodipodi="http://sodipodi.sourceforge.net/DTD/sodipodi-0.dtd"
   xmlns:inkscape="http://www.inkscape.org/namespaces/inkscape"
   id="svg3660"
   version="1.1"
   inkscape:version="0.91 r13725"
   xml:space="preserve"
   width="112.5"
   height="124.96462"
   viewBox="0 0 112.5 124.96462"
   sodipodi:docname="clear-lamp.svg"><metadata
     id="metadata3666"><rdf:RDF><cc:Work
         rdf:about=""><dc:format>image/svg+xml</dc:format><dc:type
           rdf:resource="http://purl.org/dc/dcmitype/StillImage" /><dc:title></dc:title></cc:Work></rdf:RDF></metadata><defs
     id="defs3664"><clipPath
       clipPathUnits="userSpaceOnUse"
       id="clipPath3706"><path
         d="m 0,99.972 90,0 L 90,0 0,0 0,99.972 Z"
         id="path3708"
         inkscape:connector-curvature="0" /></clipPath></defs><sodipodi:namedview
     pagecolor="#ffffff"
     bordercolor="#666666"
     borderopacity="1"
     objecttolerance="10"
     gridtolerance="10"
     guidetolerance="10"
     inkscape:pageopacity="0"
     inkscape:pageshadow="2"
     inkscape:window-width="640"
     inkscape:window-height="480"
     id="namedview3662"
     showgrid="false"
     inkscape:zoom="1.8885345"
     inkscape:cx="56.25"
     inkscape:cy="62.482311"
     inkscape:window-x="0"
     inkscape:window-y="0"
     inkscape:window-maximized="0"
     inkscape:current-layer="g3668" /><g
     id="g3668"
     inkscape:groupmode="layer"
     inkscape:label="clear-lamp"
     transform="matrix(1.25,0,0,-1.25,0,124.96462)"><path
       d="m 43.313,90.698 2,0 0,9.275 -2,0 0,-9.275 z"
       style="fill:#ffffff;fill-opacity:1;fill-rule:nonzero;stroke:none"
       id="path3670"
       inkscape:connector-curvature="0" /><g
       id="g3672"
       transform="translate(25.6758,85.0684)"><path
         d="m 0,0 -4.637,8.031 1.733,1 L 1.732,1 0,0 Z"
         style="fill:#ffffff;fill-opacity:1;fill-rule:nonzero;stroke:none"
         id="path3674"
         inkscape:connector-curvature="0" /></g><g
       id="g3676"
       transform="translate(13.2187,71.3721)"><path
         d="m 0,0 -8.033,4.639 1,1.731 L 1,1.733 0,0 Z"
         style="fill:#ffffff;fill-opacity:1;fill-rule:nonzero;stroke:none"
         id="path3678"
         inkscape:connector-curvature="0" /></g><path
       d="m 0,53.286 9.275,0 0,2 -9.275,0 0,-2 z"
       style="fill:#ffffff;fill-opacity:1;fill-rule:nonzero;stroke:none"
       id="path3680"
       inkscape:connector-curvature="0" /><g
       id="g3682"
       transform="translate(6.873,31.0127)"><path
         d="M 0,0 -1,1.732 7.033,6.37 8.033,4.638 0,0 Z"
         style="fill:#ffffff;fill-opacity:1;fill-rule:nonzero;stroke:none"
         id="path3684"
         inkscape:connector-curvature="0" /></g><g
       id="g3686"
       transform="translate(83.8145,32.2012)"><path
         d="m 0,0 -8.031,4.641 1,1.731 L 1,1.732 0,0 Z"
         style="fill:#ffffff;fill-opacity:1;fill-rule:nonzero;stroke:none"
         id="path3688"
         inkscape:connector-curvature="0" /></g><g
       id="g3690"
       transform="translate(80.7246,54.6624)"><path
         d="m 0,0 9.275,-0.001 0,2 L 0,2 0,0 Z"
         style="fill:#ffffff;fill-opacity:1;fill-rule:nonzero;stroke:none"
         id="path3692"
         inkscape:connector-curvature="0" /></g><g
       id="g3694"
       transform="translate(76.0938,72.5664)"><path
         d="m 0,0 -1,1.732 8.033,4.637 1,-1.732 L 0,0 Z"
         style="fill:#ffffff;fill-opacity:1;fill-rule:nonzero;stroke:none"
         id="path3696"
         inkscape:connector-curvature="0" /></g><g
       id="g3698"
       transform="translate(63.1328,85.7559)"><path
         d="m 0,0 -1.732,1 4.638,8.033 1.733,-1 L 0,0 Z"
         style="fill:#ffffff;fill-opacity:1;fill-rule:nonzero;stroke:none"
         id="path3700"
         inkscape:connector-curvature="0" /></g><g
       id="g3702"><g
         id="g3704"
         clip-path="url(#clipPath3706)"><g
           id="g3710"
           transform="translate(35.0059,0)"><path
             d="m 0,0 21.988,0 c 0.774,0 1.405,0.627 1.405,1.403 0,0.778 -0.631,1.403 -1.405,1.403 L 0,2.806 C -0.775,2.806 -1.404,2.181 -1.404,1.403 -1.404,0.627 -0.775,0 0,0"
             style="fill:#282d33;fill-opacity:1;fill-rule:nonzero;stroke:none"
             id="path3712"
             inkscape:connector-curvature="0" /></g><g
           id="g3714"
           transform="translate(18.6191,56.3359)"><path
             d="M 0,0 C 0,15.127 12.254,27.38 27.379,27.38 42.51,27.38 54.762,15.127 54.762,0 c 0,-0.893 -0.657,-13.548 -10.973,-26.831 -3.019,-4.011 -2.523,-12.065 -2.494,-12.065 l -11.979,0 -3.886,0 -12.034,0 c 0.028,0 0.583,8.054 -2.425,12.065 C 0.641,-13.536 0,-0.893 0,0"
             style="fill:#f3b840;fill-opacity:1;fill-rule:nonzero;stroke:none"
             id="path3716"
             inkscape:connector-curvature="0" /></g><g
           id="g3718"
           transform="translate(37.2148,21.0098)"><path
             d="m 0,0 c -0.186,3.447 -1.031,9.938 -3.164,12.78 -9.813,12.632 -10.252,24.584 -10.254,24.702 0,13.114 10.68,23.796 23.807,23.796 13.131,0 23.812,-10.682 23.812,-23.809 C 34.199,37.367 33.752,25.408 23.98,12.826 21.814,9.951 20.939,3.451 20.736,0 L 0,0 Z"
             style="fill:#f0ca67;fill-opacity:1;fill-rule:nonzero;stroke:none"
             id="path3720"
             inkscape:connector-curvature="0" /></g><g
           id="g3722"
           transform="translate(67.5625,54.2012)"><path
             d="m 0,0 c -1.182,0 -2.143,0.959 -2.143,2.143 0,10.707 -8.712,19.414 -19.421,19.414 -1.184,0 -2.143,0.961 -2.143,2.14 0,1.186 0.959,2.143 2.143,2.143 C -8.492,25.84 2.141,15.21 2.141,2.143 2.141,0.959 1.184,0 0,0"
             style="fill:#f4da80;fill-opacity:1;fill-rule:nonzero;stroke:none"
             id="path3724"
             inkscape:connector-curvature="0" /></g><g
           id="g3726"
           transform="translate(38.9883,15.3193)"><path
             d="m 0,0 -3.555,28.224 1.43,0.429 L 1.43,0.431 0,0 Z"
             style="fill:#484f59;fill-opacity:1;fill-rule:nonzero;stroke:none"
             id="path3728"
             inkscape:connector-curvature="0" /></g><g
           id="g3730"
           transform="translate(52.9297,15.3193)"><path
             d="M 0,0 3.555,28.224 2.125,28.653 -1.43,0.431 0,0 Z"
             style="fill:#484f59;fill-opacity:1;fill-rule:nonzero;stroke:none"
             id="path3732"
             inkscape:connector-curvature="0" /></g><g
           id="g3734"
           transform="translate(55.3164,40.0078)"><path
             d="M 0,0 C -0.982,0 -1.41,0.959 -1.719,1.66 -1.85,1.951 -2.121,2.558 -2.273,2.558 -2.426,2.558 -2.695,1.951 -2.825,1.66 -3.135,0.959 -3.563,0 -4.545,0 -5.527,0 -5.953,0.959 -6.264,1.66 -6.334,1.818 -6.447,2.072 -6.559,2.27 -7.059,1.341 -7.975,0 -9.088,0 c -0.982,0 -1.408,0.959 -1.719,1.66 -0.131,0.291 -0.4,0.898 -0.552,0.898 -0.155,0 -0.424,-0.607 -0.553,-0.898 C -12.223,0.959 -12.65,0 -13.633,0 c -0.984,0 -1.411,0.959 -1.722,1.66 -0.129,0.291 -0.401,0.898 -0.555,0.898 -0.154,0 -0.424,-0.607 -0.555,-0.898 C -16.775,0.959 -17.201,0 -18.186,0 l 0,1.28 c 0.153,0 0.424,0.605 0.555,0.899 0.311,0.701 0.738,1.656 1.721,1.656 0.984,0 1.41,-0.955 1.722,-1.656 0.131,-0.294 0.401,-0.899 0.555,-0.899 0.151,0 0.422,0.605 0.553,0.899 0.31,0.701 0.736,1.656 1.721,1.656 0.982,0 1.408,-0.955 1.72,-1.656 0.129,-0.294 0.399,-0.899 0.551,-0.899 0.377,0 1.182,1.037 1.69,2.176 0.101,0.23 0.33,0.379 0.584,0.379 0.982,0 1.408,-0.957 1.718,-1.656 0.129,-0.294 0.399,-0.899 0.551,-0.899 0.152,0 0.424,0.605 0.551,0.897 0.312,0.701 0.738,1.658 1.721,1.658 0.984,0 1.41,-0.957 1.72,-1.658 C -0.422,1.885 -0.152,1.28 0,1.28 L 0,0 Z"
             style="fill:#484f59;fill-opacity:1;fill-rule:nonzero;stroke:none"
             id="path3736"
             inkscape:connector-curvature="0" /></g><g
           id="g3738"
           transform="translate(59.9404,17.2891)"><path
             d="m 0,0 0,-14.313 c 0,-0.982 -0.792,-1.781 -1.774,-1.781 l -24.301,0 c -0.983,0 -1.778,0.799 -1.778,1.781 L -27.853,0 0,0 Z"
             style="fill:#282d33;fill-opacity:1;fill-rule:nonzero;stroke:none"
             id="path3740"
             inkscape:connector-curvature="0" /></g><g
           id="g3742"
           transform="translate(60.502,14.5049)"><path
             d="m 0,0 -29.006,0 c -0.773,0 -1.402,0.627 -1.402,1.402 0,0.775 0.629,1.404 1.402,1.404 L 0,2.806 C 0.773,2.806 1.402,2.177 1.402,1.402 1.402,0.627 0.773,0 0,0"
             style="fill:#282d33;fill-opacity:1;fill-rule:nonzero;stroke:none"
             id="path3744"
             inkscape:connector-curvature="0" /></g><g
           id="g3746"
           transform="translate(47.6758,15.2187)"><path
             d="m 0,0 -16.09,0 c -0.43,0 -0.778,0.35 -0.778,0.778 0,0.43 0.348,0.777 0.778,0.777 L 0,1.555 C 0.432,1.555 0.781,1.208 0.781,0.778 0.781,0.35 0.432,0 0,0"
             style="fill:#484f59;fill-opacity:1;fill-rule:nonzero;stroke:none"
             id="path3748"
             inkscape:connector-curvature="0" /></g><g
           id="g3750"
           transform="translate(60.502,9.8262)"><path
             d="m 0,0 -29.006,0 c -0.773,0 -1.402,0.625 -1.402,1.403 0,0.775 0.629,1.404 1.402,1.404 L 0,2.807 C 0.773,2.807 1.402,2.178 1.402,1.403 1.402,0.625 0.773,0 0,0"
             style="fill:#282d33;fill-opacity:1;fill-rule:nonzero;stroke:none"
             id="path3752"
             inkscape:connector-curvature="0" /></g><g
           id="g3754"
           transform="translate(60.502,5.1484)"><path
             d="m 0,0 -29.006,0 c -0.773,0 -1.402,0.628 -1.402,1.402 0,0.776 0.629,1.404 1.402,1.404 L 0,2.806 C 0.773,2.806 1.402,2.178 1.402,1.402 1.402,0.628 0.773,0 0,0"
             style="fill:#282d33;fill-opacity:1;fill-rule:nonzero;stroke:none"
             id="path3756"
             inkscape:connector-curvature="0" /></g><g
           id="g3758"
           transform="translate(47.6758,10.7539)"><path
             d="m 0,0 -16.09,0 c -0.43,0 -0.778,0.349 -0.778,0.777 0,0.433 0.348,0.779 0.778,0.779 L 0,1.556 C 0.432,1.556 0.781,1.21 0.781,0.777 0.781,0.349 0.432,0 0,0"
             style="fill:#484f59;fill-opacity:1;fill-rule:nonzero;stroke:none"
             id="path3760"
             inkscape:connector-curvature="0" /></g><g
           id="g3762"
           transform="translate(47.6758,6.0244)"><path
             d="m 0,0 -16.09,0 c -0.43,0 -0.778,0.348 -0.778,0.776 0,0.432 0.348,0.78 0.778,0.78 l 16.09,0 c 0.432,0 0.781,-0.348 0.781,-0.78 C 0.781,0.348 0.432,0 0,0"
             style="fill:#484f59;fill-opacity:1;fill-rule:nonzero;stroke:none"
             id="path3764"
             inkscape:connector-curvature="0" /></g><path
           d="m 49.627,13.066 -13.746,0 0,1.431 13.746,0 0,-1.431 z"
           style="fill:#30363d;fill-opacity:1;fill-rule:nonzero;stroke:none"
           id="path3766"
           inkscape:connector-curvature="0" /><path
           d="m 49.627,8.516 -13.746,0 0,1.428 13.746,0 0,-1.428 z"
           style="fill:#30363d;fill-opacity:1;fill-rule:nonzero;stroke:none"
           id="path3768"
           inkscape:connector-curvature="0" /><path
           d="m 49.627,3.964 -13.746,0 0,1.427 13.746,0 0,-1.427 z"
           style="fill:#30363d;fill-opacity:1;fill-rule:nonzero;stroke:none"
           id="path3770"
           inkscape:connector-curvature="0" /></g></g></g></svg>