<?xml version="1.0" encoding="UTF-8" standalone="no"?>
<!-- Created with Inkscape (http://www.inkscape.org/) -->

<svg
   xmlns:dc="http://purl.org/dc/elements/1.1/"
   xmlns:cc="http://creativecommons.org/ns#"
   xmlns:rdf="http://www.w3.org/1999/02/22-rdf-syntax-ns#"
   xmlns:svg="http://www.w3.org/2000/svg"
   xmlns="http://www.w3.org/2000/svg"
   xmlns:sodipodi="http://sodipodi.sourceforge.net/DTD/sodipodi-0.dtd"
   xmlns:inkscape="http://www.inkscape.org/namespaces/inkscape"
   id="svg2"
   version="1.1"
   inkscape:version="0.91 r13725"
   xml:space="preserve"
   width="77.254623"
   height="102.58237"
   viewBox="0 0 77.254623 102.58237"
   sodipodi:docname="clear-prize.svg"><metadata
     id="metadata8"><rdf:RDF><cc:Work
         rdf:about=""><dc:format>image/svg+xml</dc:format><dc:type
           rdf:resource="http://purl.org/dc/dcmitype/StillImage" /><dc:title></dc:title></cc:Work></rdf:RDF></metadata><defs
     id="defs6"><clipPath
       clipPathUnits="userSpaceOnUse"
       id="clipPath16"><path
         d="m 0,82.066 61.804,0 L 61.804,0 0,0 0,82.066 Z"
         id="path18"
         inkscape:connector-curvature="0" /></clipPath></defs><sodipodi:namedview
     pagecolor="#ffffff"
     bordercolor="#666666"
     borderopacity="1"
     objecttolerance="10"
     gridtolerance="10"
     guidetolerance="10"
     inkscape:pageopacity="0"
     inkscape:pageshadow="2"
     inkscape:window-width="640"
     inkscape:window-height="480"
     id="namedview4"
     showgrid="false"
     inkscape:zoom="2.3005903"
     inkscape:cx="38.627312"
     inkscape:cy="51.291183"
     inkscape:window-x="0"
     inkscape:window-y="0"
     inkscape:window-maximized="0"
     inkscape:current-layer="g10" /><g
     id="g10"
     inkscape:groupmode="layer"
     inkscape:label="clear-prize"
     transform="matrix(1.25,0,0,-1.25,0,102.58238)"><g
       id="g12"><g
         id="g14"
         clip-path="url(#clipPath16)"><g
           id="g20"
           transform="translate(3.7549,76.436)"><path
             d="M 0,0 C 0.102,-12.83 8.406,-23.539 19.71,-25.829 L 19.71,0 0,0 Z m 23.463,-30.104 -2.077,0.222 c -14.331,1.539 -25.141,14.485 -25.141,30.117 0,0.587 0.022,1.166 0.052,1.744 l 0.099,1.774 27.067,0 0,-33.857 z"
             style="fill:#f0ca67;fill-opacity:1;fill-rule:nonzero;stroke:none"
             id="path22"
             inkscape:connector-curvature="0" /></g><g
           id="g24"
           transform="translate(38.3389,76.438)"><path
             d="M 0,0 0,-25.831 C 11.305,-23.541 19.61,-12.832 19.709,0 L 0,0 Z m -3.753,-30.106 0,33.858 27.076,0 0.093,-1.78 c 0.029,-0.576 0.049,-1.155 0.049,-1.739 0,-15.632 -10.809,-28.579 -25.141,-30.117 l -2.077,-0.222 z"
             style="fill:#f0ca67;fill-opacity:1;fill-rule:nonzero;stroke:none"
             id="path26"
             inkscape:connector-curvature="0" /></g><path
           d="m 39.663,28.494 -17.519,0 0,-5.944 17.519,0 0,5.944 z"
           style="fill:#f0ca67;fill-opacity:1;fill-rule:nonzero;stroke:none"
           id="path28"
           inkscape:connector-curvature="0" /><g
           id="g30"
           transform="translate(12.7197,82.0659)"><path
             d="m 0,0 c -0.987,-3.229 -1.524,-6.659 -1.524,-10.218 0,-13.894 8.086,-25.848 19.708,-31.244 11.623,5.396 19.707,17.35 19.707,31.244 0,3.559 -0.538,6.989 -1.525,10.218 L 0,0 Z"
             style="fill:#f0ca67;fill-opacity:1;fill-rule:nonzero;stroke:none"
             id="path32"
             inkscape:connector-curvature="0" /></g><g
           id="g34"
           transform="translate(16.9961,81.3706)"><path
             d="M 0,0 5.627,0 C 4.396,-3.952 3.726,-8.148 3.726,-12.504 c 0,-8.844 2.732,-17.041 7.389,-23.805 -7.696,6.167 -12.639,15.636 -12.639,26.282 0,3.494 0.538,6.859 1.524,10.027"
             style="fill:#f4da80;fill-opacity:1;fill-rule:nonzero;stroke:none"
             id="path36"
             inkscape:connector-curvature="0" /></g><path
           d="m 33.719,24.351 -5.631,0 0,23.461 5.631,0 0,-23.461 z"
           style="fill:#f0ca67;fill-opacity:1;fill-rule:nonzero;stroke:none"
           id="path38"
           inkscape:connector-curvature="0" /><path
           d="m 30.896,28.601 -1.75,0 0,11.961 1.75,0 0,-11.961 z"
           style="fill:#f4da80;fill-opacity:1;fill-rule:nonzero;stroke:none"
           id="path40"
           inkscape:connector-curvature="0" /><g
           id="g42"
           transform="translate(46.1973,22.395)"><path
             d="m 0,0 0,1.882 c 0,1.245 -0.847,2.262 -1.878,2.262 l -26.834,0 c -1.031,0 -1.874,-1.017 -1.874,-2.262 L -30.586,0 0,0 Z"
             style="fill:#f0ca67;fill-opacity:1;fill-rule:nonzero;stroke:none"
             id="path44"
             inkscape:connector-curvature="0" /></g><g
           id="g46"
           transform="translate(23.1113,21.895)"><path
             d="m 0,0 0,1.882 c 0,0.996 0.544,1.837 1.287,2.137 l -5.788,0 c -1.031,0 -1.874,-1.017 -1.874,-2.261 l 0,-1.883 L 0,0 Z"
             style="fill:#f4da80;fill-opacity:1;fill-rule:nonzero;stroke:none"
             id="path48"
             inkscape:connector-curvature="0" /></g><path
           d="m 50.063,3.722 -38.319,0 0,18.894 38.319,0 0,-18.894 z"
           style="fill:#484f59;fill-opacity:1;fill-rule:nonzero;stroke:none"
           id="path50"
           inkscape:connector-curvature="0" /><path
           d="m 16.242,18.117 29.321,0 0,-9.897 -29.321,0 0,9.897 z"
           style="fill:#30363d;fill-opacity:1;fill-rule:nonzero;stroke:none"
           id="path52"
           inkscape:connector-curvature="0" /><path
           d="m 51.575,0 -41.345,0 0,4.581 41.345,0 0,-4.581 z"
           style="fill:#30363d;fill-opacity:1;fill-rule:nonzero;stroke:none"
           id="path54"
           inkscape:connector-curvature="0" /></g></g></g></svg>