<?xml version="1.0" encoding="UTF-8" standalone="no"?>
<!-- Created with Inkscape (http://www.inkscape.org/) -->

<svg
   xmlns:dc="http://purl.org/dc/elements/1.1/"
   xmlns:cc="http://creativecommons.org/ns#"
   xmlns:rdf="http://www.w3.org/1999/02/22-rdf-syntax-ns#"
   xmlns:svg="http://www.w3.org/2000/svg"
   xmlns="http://www.w3.org/2000/svg"
   xmlns:sodipodi="http://sodipodi.sourceforge.net/DTD/sodipodi-0.dtd"
   xmlns:inkscape="http://www.inkscape.org/namespaces/inkscape"
   id="svg3772"
   version="1.1"
   inkscape:version="0.91 r13725"
   xml:space="preserve"
   width="114.9475"
   height="90.460251"
   viewBox="0 0 114.9475 90.460251"
   sodipodi:docname="clear-phone.svg"><metadata
     id="metadata3778"><rdf:RDF><cc:Work
         rdf:about=""><dc:format>image/svg+xml</dc:format><dc:type
           rdf:resource="http://purl.org/dc/dcmitype/StillImage" /><dc:title></dc:title></cc:Work></rdf:RDF></metadata><defs
     id="defs3776"><clipPath
       clipPathUnits="userSpaceOnUse"
       id="clipPath3786"><path
         d="m 0,72.368 91.958,0 L 91.958,0 0,0 0,72.368 Z"
         id="path3788"
         inkscape:connector-curvature="0" /></clipPath></defs><sodipodi:namedview
     pagecolor="#ffffff"
     bordercolor="#666666"
     borderopacity="1"
     objecttolerance="10"
     gridtolerance="10"
     guidetolerance="10"
     inkscape:pageopacity="0"
     inkscape:pageshadow="2"
     inkscape:window-width="640"
     inkscape:window-height="480"
     id="namedview3774"
     showgrid="false"
     inkscape:zoom="2.6088807"
     inkscape:cx="57.473751"
     inkscape:cy="45.230125"
     inkscape:window-x="0"
     inkscape:window-y="0"
     inkscape:window-maximized="0"
     inkscape:current-layer="g3780" /><g
     id="g3780"
     inkscape:groupmode="layer"
     inkscape:label="clear-phone"
     transform="matrix(1.25,0,0,-1.25,0,90.46025)"><g
       id="g3782"><g
         id="g3784"
         clip-path="url(#clipPath3786)"><g
           id="g3790"
           transform="translate(27.4678,15.8008)"><path
             d="m 0,0 c -1.418,-0.006 -1.701,-1.604 -1.701,-1.604 -0.002,0.019 -0.004,0.04 -0.002,0.062 -0.004,-0.091 -1.001,-9.036 -14.084,-9.937 -3.297,-0.226 -5.461,0.87 -6.623,3.348 -2.527,5.399 0.168,16.199 5.653,22.665 3.028,3.57 10.093,8.053 15.099,10.987 l -0.176,4.812 C -7,27.391 -15.988,21.913 -19.83,17.386 c -3.021,-3.564 -5.475,-8.494 -6.73,-13.531 -1.352,-5.421 -1.19,-10.351 0.462,-13.875 1.835,-3.918 5.42,-5.957 10.127,-5.769 0.149,0.005 0.299,0.014 0.451,0.023 4.467,0.308 10.645,1.719 14.718,6.702 2.427,2.969 3.254,6.253 3.204,7.624 0,0 -0.445,1.449 -2.402,1.44"
             style="fill:#282d33;fill-opacity:1;fill-rule:nonzero;stroke:none"
             id="path3792"
             inkscape:connector-curvature="0" /></g><g
           id="g3794"
           transform="translate(27.4678,15.8008)"><path
             d="m 0,0 c -1.418,-0.006 -1.701,-1.604 -1.701,-1.604 -0.002,0.019 -0.004,0.04 -0.002,0.062 -0.004,-0.091 -1.001,-9.036 -14.084,-9.937 -3.297,-0.226 -5.461,0.87 -6.623,3.348 -2.527,5.399 0.168,16.199 5.653,22.665 3.028,3.57 10.093,8.053 15.099,10.987 l -0.176,4.812 C -7,27.391 -15.988,21.913 -19.83,17.386 c -3.021,-3.564 -5.475,-8.494 -6.73,-13.531 -1.352,-5.421 -1.19,-10.351 0.462,-13.875 1.835,-3.918 5.42,-5.957 10.127,-5.769 0.149,0.005 0.299,0.014 0.451,0.023 4.467,0.308 10.645,1.719 14.718,6.702 2.427,2.969 3.254,6.253 3.204,7.624 0,0 -0.445,1.449 -2.402,1.44"
             style="fill:#282d33;fill-opacity:1;fill-rule:nonzero;stroke:none"
             id="path3796"
             inkscape:connector-curvature="0" /></g><g
           id="g3798"
           transform="translate(10.0937,30.5068)"><path
             d="m 0,0 c 2.931,3.514 9.769,7.926 14.616,10.812 l -0.095,2.587 C 9.71,10.626 3.168,6.502 0.121,3.005 -2.673,-0.197 -4.943,-4.631 -6.107,-9.156 -7.31,-13.829 -7.22,-18.085 -5.874,-21.218 -7.563,-15.638 -4.966,-5.951 0,0"
             style="fill:#30363d;fill-opacity:1;fill-rule:nonzero;stroke:none"
             id="path3800"
             inkscape:connector-curvature="0" /></g><g
           id="g3802"
           transform="translate(28.4688,15.1523)"><path
             d="m 0,0 c -0.05,-1.46 -0.921,-4.474 -3.222,-7.219 -4.094,-4.878 -10.299,-6.265 -14.783,-6.57 -0.152,-0.01 -0.305,-0.02 -0.455,-0.025 -2.406,-0.095 -4.518,0.377 -6.257,1.367 1.921,-1.682 4.515,-2.514 7.607,-2.393 0.147,0.008 0.295,0.014 0.445,0.027 4.391,0.297 10.468,1.655 14.477,6.434 2.39,2.848 3.207,5.997 3.158,7.312 0,0 -0.208,0.658 -0.97,1.067"
             style="fill:#30363d;fill-opacity:1;fill-rule:nonzero;stroke:none"
             id="path3804"
             inkscape:connector-curvature="0" /></g><g
           id="g3806"
           transform="translate(24.7373,42.2646)"><path
             d="m 0,0 c -0.131,0 -0.248,0.093 -0.283,0.231 -0.291,1.194 -1.131,1.452 -1.168,1.461 -0.153,0.045 -0.248,0.212 -0.205,0.376 0.041,0.163 0.203,0.26 0.355,0.217 C -1.251,2.271 -0.094,1.94 0.285,0.382 0.326,0.22 0.229,0.054 0.073,0.011 0.049,0.004 0.025,0 0,0"
             style="fill:#484f59;fill-opacity:1;fill-rule:nonzero;stroke:none"
             id="path3808"
             inkscape:connector-curvature="0" /></g><g
           id="g3810"
           transform="translate(23.6621,41.5693)"><path
             d="m 0,0 c -0.13,0 -0.251,0.092 -0.285,0.232 -0.288,1.193 -1.13,1.45 -1.166,1.459 -0.155,0.046 -0.247,0.213 -0.205,0.377 0.04,0.163 0.202,0.259 0.356,0.218 C -1.251,2.272 -0.095,1.938 0.285,0.384 0.324,0.22 0.229,0.052 0.072,0.011 0.048,0.004 0.023,0 0,0"
             style="fill:#484f59;fill-opacity:1;fill-rule:nonzero;stroke:none"
             id="path3812"
             inkscape:connector-curvature="0" /></g><g
           id="g3814"
           transform="translate(22.5869,40.874)"><path
             d="m 0,0 c -0.131,0 -0.251,0.093 -0.285,0.23 -0.289,1.194 -1.131,1.451 -1.168,1.463 -0.153,0.044 -0.248,0.213 -0.205,0.375 0.043,0.163 0.197,0.261 0.357,0.218 C -1.253,2.272 -0.094,1.94 0.283,0.383 0.324,0.219 0.229,0.052 0.072,0.01 0.048,0.003 0.023,0 0,0"
             style="fill:#484f59;fill-opacity:1;fill-rule:nonzero;stroke:none"
             id="path3816"
             inkscape:connector-curvature="0" /></g><g
           id="g3818"
           transform="translate(21.5117,40.1787)"><path
             d="m 0,0 c -0.132,0 -0.251,0.093 -0.285,0.23 -0.29,1.195 -1.132,1.453 -1.169,1.46 -0.152,0.047 -0.245,0.214 -0.205,0.379 0.043,0.163 0.199,0.259 0.357,0.218 C -1.253,2.272 -0.097,1.938 0.282,0.384 0.323,0.219 0.229,0.054 0.07,0.01 0.048,0.003 0.022,0 0,0"
             style="fill:#484f59;fill-opacity:1;fill-rule:nonzero;stroke:none"
             id="path3820"
             inkscape:connector-curvature="0" /></g><g
           id="g3822"
           transform="translate(20.4346,39.4834)"><path
             d="m 0,0 c -0.132,0 -0.25,0.093 -0.283,0.232 -0.291,1.194 -1.132,1.45 -1.168,1.46 -0.154,0.046 -0.248,0.212 -0.205,0.376 0.04,0.163 0.199,0.259 0.355,0.218 C -1.252,2.273 -0.095,1.939 0.283,0.383 0.324,0.218 0.229,0.05 0.072,0.009 0.048,0.003 0.021,0 0,0"
             style="fill:#484f59;fill-opacity:1;fill-rule:nonzero;stroke:none"
             id="path3824"
             inkscape:connector-curvature="0" /></g><g
           id="g3826"
           transform="translate(19.3584,38.7891)"><path
             d="m 0,0 c -0.131,0 -0.25,0.093 -0.283,0.23 -0.293,1.211 -1.157,1.458 -1.166,1.461 -0.156,0.041 -0.249,0.211 -0.209,0.375 0.041,0.163 0.2,0.262 0.357,0.219 C -1.252,2.271 -0.094,1.938 0.285,0.383 0.326,0.217 0.23,0.051 0.072,0.01 0.049,0.003 0.025,0 0,0"
             style="fill:#484f59;fill-opacity:1;fill-rule:nonzero;stroke:none"
             id="path3828"
             inkscape:connector-curvature="0" /></g><g
           id="g3830"
           transform="translate(18.2188,38.4648)"><path
             d="m 0,0 c -0.112,0 -0.218,0.066 -0.269,0.18 -0.378,0.883 -1.076,1.322 -1.082,1.324 -0.138,0.087 -0.186,0.273 -0.105,0.421 0.081,0.146 0.261,0.195 0.401,0.11 C -1.021,2.014 -0.194,1.502 0.267,0.434 0.333,0.277 0.269,0.097 0.12,0.028 0.081,0.009 0.04,0 0,0"
             style="fill:#484f59;fill-opacity:1;fill-rule:nonzero;stroke:none"
             id="path3832"
             inkscape:connector-curvature="0" /></g><g
           id="g3834"
           transform="translate(17.1514,38.1328)"><path
             d="m 0,0 c -0.111,0 -0.219,0.067 -0.268,0.182 -0.357,0.83 -0.951,1.013 -0.974,1.02 -0.154,0.044 -0.248,0.213 -0.205,0.375 0.04,0.162 0.197,0.261 0.355,0.218 C -1.059,1.786 -0.211,1.544 0.268,0.433 0.334,0.279 0.268,0.097 0.12,0.027 0.081,0.008 0.041,0 0,0"
             style="fill:#484f59;fill-opacity:1;fill-rule:nonzero;stroke:none"
             id="path3836"
             inkscape:connector-curvature="0" /></g><g
           id="g3838"
           transform="translate(16.2217,37.4824)"><path
             d="m 0,0 c -0.111,0 -0.215,0.064 -0.266,0.175 -0.32,0.705 -0.994,1.043 -1.002,1.046 -0.146,0.071 -0.209,0.255 -0.14,0.407 0.068,0.153 0.244,0.22 0.389,0.147 C -0.984,1.759 -0.146,1.341 0.265,0.439 0.334,0.285 0.272,0.103 0.126,0.029 0.086,0.01 0.043,0 0,0"
             style="fill:#484f59;fill-opacity:1;fill-rule:nonzero;stroke:none"
             id="path3840"
             inkscape:connector-curvature="0" /></g><g
           id="g3842"
           transform="translate(15.1631,37.0137)"><path
             d="M 0,0 C -0.09,0 -0.178,0.043 -0.234,0.124 -0.74,0.837 -1.062,0.978 -1.064,0.979 -1.213,1.04 -1.29,1.216 -1.236,1.371 -1.182,1.526 -1.023,1.609 -0.871,1.559 -0.794,1.532 -0.377,1.354 0.235,0.49 0.334,0.354 0.305,0.16 0.174,0.06 0.123,0.02 0.061,0 0,0"
             style="fill:#484f59;fill-opacity:1;fill-rule:nonzero;stroke:none"
             id="path3844"
             inkscape:connector-curvature="0" /></g><g
           id="g3846"
           transform="translate(14.0732,36.7148)"><path
             d="m 0,0 c -0.082,0 -0.163,0.036 -0.221,0.105 -0.388,0.463 -0.593,0.608 -0.595,0.608 -0.135,0.092 -0.176,0.28 -0.091,0.422 0.085,0.141 0.262,0.186 0.399,0.098 C -0.479,1.217 -0.229,1.048 0.221,0.509 0.328,0.381 0.314,0.187 0.194,0.076 0.138,0.024 0.068,0 0,0"
             style="fill:#484f59;fill-opacity:1;fill-rule:nonzero;stroke:none"
             id="path3848"
             inkscape:connector-curvature="0" /></g><g
           id="g3850"
           transform="translate(13.1396,36.1387)"><path
             d="m 0,0 c -0.082,0 -0.162,0.036 -0.222,0.105 -0.387,0.465 -0.592,0.608 -0.592,0.608 -0.137,0.092 -0.178,0.281 -0.092,0.423 0.085,0.141 0.262,0.188 0.4,0.099 C -0.479,1.218 -0.231,1.051 0.222,0.51 0.328,0.383 0.313,0.189 0.193,0.077 0.138,0.025 0.068,0 0,0"
             style="fill:#484f59;fill-opacity:1;fill-rule:nonzero;stroke:none"
             id="path3852"
             inkscape:connector-curvature="0" /></g><g
           id="g3854"
           transform="translate(12.3096,35.4414)"><path
             d="m 0,0 c -0.082,0 -0.164,0.036 -0.221,0.106 -0.388,0.463 -0.593,0.606 -0.593,0.606 -0.139,0.091 -0.18,0.28 -0.093,0.421 0.085,0.144 0.261,0.188 0.399,0.1 C -0.48,1.215 -0.23,1.051 0.22,0.509 0.327,0.382 0.314,0.188 0.193,0.075 0.137,0.026 0.068,0 0,0"
             style="fill:#484f59;fill-opacity:1;fill-rule:nonzero;stroke:none"
             id="path3856"
             inkscape:connector-curvature="0" /></g><g
           id="g3858"
           transform="translate(11.4307,34.7158)"><path
             d="m 0,0 c -0.082,0 -0.164,0.036 -0.223,0.106 -0.386,0.463 -0.593,0.605 -0.595,0.607 -0.135,0.092 -0.174,0.28 -0.088,0.423 0.086,0.14 0.263,0.184 0.4,0.097 C -0.48,1.216 -0.23,1.048 0.221,0.511 0.328,0.383 0.316,0.188 0.193,0.076 0.139,0.026 0.068,0 0,0"
             style="fill:#484f59;fill-opacity:1;fill-rule:nonzero;stroke:none"
             id="path3860"
             inkscape:connector-curvature="0" /></g><g
           id="g3862"
           transform="translate(10.6475,34.0205)"><path
             d="M 0,0 C -0.08,0 -0.162,0.034 -0.221,0.104 -0.609,0.568 -0.813,0.711 -0.815,0.712 -0.951,0.803 -0.992,0.991 -0.907,1.134 -0.821,1.275 -0.645,1.32 -0.506,1.232 -0.479,1.215 -0.23,1.048 0.222,0.508 0.328,0.379 0.316,0.187 0.193,0.076 0.139,0.024 0.068,0 0,0"
             style="fill:#484f59;fill-opacity:1;fill-rule:nonzero;stroke:none"
             id="path3864"
             inkscape:connector-curvature="0" /></g><g
           id="g3866"
           transform="translate(9.9268,33.2744)"><path
             d="M 0,0 C -0.084,-0.003 -0.17,0.032 -0.23,0.104 -0.619,0.569 -0.825,0.71 -0.825,0.71 -0.964,0.803 -1.004,0.992 -0.918,1.134 -0.832,1.278 -0.654,1.32 -0.517,1.233 -0.492,1.216 -0.24,1.048 0.209,0.509 0.316,0.382 0.305,0.187 0.182,0.073 0.129,0.027 0.066,0.002 0,0"
             style="fill:#484f59;fill-opacity:1;fill-rule:nonzero;stroke:none"
             id="path3868"
             inkscape:connector-curvature="0" /></g><g
           id="g3870"
           transform="translate(8.7959,32.7695)"><path
             d="m 0,0 c -0.1,-0.005 -0.198,0.045 -0.258,0.138 -0.025,0.038 -0.143,0.138 -0.241,0.204 -0.138,0.092 -0.177,0.283 -0.087,0.425 0.087,0.142 0.268,0.182 0.405,0.091 C -0.109,0.811 0.129,0.64 0.234,0.475 0.322,0.332 0.285,0.143 0.148,0.049 0.102,0.019 0.053,0.001 0,0"
             style="fill:#484f59;fill-opacity:1;fill-rule:nonzero;stroke:none"
             id="path3872"
             inkscape:connector-curvature="0" /></g><g
           id="g3874"
           transform="translate(8.0889,31.999)"><path
             d="M 0,0 C -0.1,-0.004 -0.197,0.045 -0.256,0.139 -0.281,0.175 -0.4,0.277 -0.498,0.343 -0.635,0.433 -0.674,0.624 -0.586,0.769 -0.498,0.908 -0.316,0.952 -0.18,0.858 -0.109,0.81 0.132,0.641 0.234,0.474 0.323,0.332 0.285,0.142 0.148,0.049 0.104,0.019 0.053,0.001 0,0"
             style="fill:#484f59;fill-opacity:1;fill-rule:nonzero;stroke:none"
             id="path3876"
             inkscape:connector-curvature="0" /></g><g
           id="g3878"
           transform="translate(7.4365,31.127)"><path
             d="M 0,0 C -0.1,-0.004 -0.199,0.045 -0.257,0.141 -0.281,0.178 -0.4,0.278 -0.5,0.345 -0.635,0.436 -0.676,0.625 -0.586,0.769 -0.5,0.912 -0.316,0.953 -0.182,0.86 -0.109,0.812 0.13,0.643 0.234,0.475 0.323,0.334 0.285,0.144 0.149,0.05 0.102,0.021 0.051,0.002 0,0"
             style="fill:#484f59;fill-opacity:1;fill-rule:nonzero;stroke:none"
             id="path3880"
             inkscape:connector-curvature="0" /></g><g
           id="g3882"
           transform="translate(6.8486,30.291)"><path
             d="M 0,0 C -0.1,-0.002 -0.199,0.045 -0.256,0.141 -0.283,0.178 -0.4,0.277 -0.5,0.345 -0.637,0.437 -0.674,0.626 -0.586,0.768 -0.498,0.91 -0.316,0.952 -0.182,0.858 -0.109,0.812 0.131,0.642 0.234,0.477 0.322,0.333 0.285,0.144 0.15,0.052 0.104,0.019 0.053,0.003 0,0"
             style="fill:#484f59;fill-opacity:1;fill-rule:nonzero;stroke:none"
             id="path3884"
             inkscape:connector-curvature="0" /></g><g
           id="g3886"
           transform="translate(6.2197,29.4756)"><path
             d="M 0,0 C -0.085,-0.005 -0.17,0.029 -0.232,0.102 -0.263,0.137 -0.393,0.215 -0.5,0.267 -0.647,0.337 -0.713,0.518 -0.646,0.673 -0.58,0.827 -0.404,0.895 -0.257,0.827 -0.18,0.788 0.082,0.657 0.207,0.51 0.316,0.383 0.304,0.188 0.183,0.075 0.13,0.026 0.064,0.003 0,0"
             style="fill:#484f59;fill-opacity:1;fill-rule:nonzero;stroke:none"
             id="path3888"
             inkscape:connector-curvature="0" /></g><g
           id="g3890"
           transform="translate(5.7529,28.6328)"><path
             d="M 0,0 C -0.086,-0.002 -0.174,0.033 -0.234,0.108 -0.262,0.141 -0.393,0.224 -0.499,0.275 -0.646,0.348 -0.708,0.532 -0.641,0.684 -0.572,0.838 -0.397,0.903 -0.25,0.83 -0.174,0.793 0.086,0.658 0.21,0.509 0.317,0.381 0.303,0.186 0.18,0.074 0.127,0.028 0.064,0.003 0,0"
             style="fill:#484f59;fill-opacity:1;fill-rule:nonzero;stroke:none"
             id="path3892"
             inkscape:connector-curvature="0" /></g><g
           id="g3894"
           transform="translate(5.2324,27.8086)"><path
             d="M 0,0 C -0.101,-0.004 -0.198,0.045 -0.258,0.14 -0.282,0.178 -0.4,0.277 -0.501,0.345 -0.636,0.436 -0.675,0.626 -0.587,0.768 -0.499,0.91 -0.318,0.951 -0.181,0.859 -0.11,0.811 0.13,0.641 0.234,0.476 0.323,0.333 0.284,0.144 0.149,0.049 0.103,0.021 0.052,0.003 0,0"
             style="fill:#484f59;fill-opacity:1;fill-rule:nonzero;stroke:none"
             id="path3896"
             inkscape:connector-curvature="0" /></g><g
           id="g3898"
           transform="translate(4.8115,26.9678)"><path
             d="M 0,0 C -0.085,-0.004 -0.172,0.032 -0.231,0.104 -0.261,0.137 -0.39,0.216 -0.5,0.268 -0.646,0.34 -0.711,0.521 -0.645,0.675 -0.578,0.828 -0.401,0.896 -0.256,0.825 -0.178,0.789 0.084,0.658 0.207,0.51 0.316,0.382 0.305,0.187 0.184,0.076 0.129,0.027 0.064,0.002 0,0"
             style="fill:#484f59;fill-opacity:1;fill-rule:nonzero;stroke:none"
             id="path3900"
             inkscape:connector-curvature="0" /></g><g
           id="g3902"
           transform="translate(4.4717,26.2207)"><path
             d="m 0,0 c -0.076,-0.004 -0.154,0.024 -0.215,0.088 -0.033,0.033 -0.166,0.103 -0.278,0.147 -0.15,0.061 -0.227,0.24 -0.171,0.397 0.06,0.158 0.228,0.239 0.381,0.178 C -0.205,0.779 0.064,0.664 0.199,0.525 0.312,0.404 0.314,0.211 0.201,0.091 0.146,0.033 0.075,0.002 0,0"
             style="fill:#484f59;fill-opacity:1;fill-rule:nonzero;stroke:none"
             id="path3904"
             inkscape:connector-curvature="0" /></g><g
           id="g3906"
           transform="translate(4.1211,25.4131)"><path
             d="m 0,0 c -0.091,-0.007 -0.183,0.03 -0.247,0.108 -0.029,0.037 -0.156,0.121 -0.261,0.176 -0.147,0.074 -0.206,0.26 -0.134,0.411 0.073,0.153 0.248,0.213 0.394,0.137 C -0.172,0.795 0.083,0.655 0.206,0.499 0.308,0.37 0.292,0.178 0.167,0.068 0.118,0.027 0.06,0.004 0,0"
             style="fill:#484f59;fill-opacity:1;fill-rule:nonzero;stroke:none"
             id="path3908"
             inkscape:connector-curvature="0" /></g><g
           id="g3910"
           transform="translate(3.7588,24.6338)"><path
             d="M 0,0 C -0.066,-0.002 -0.135,0.02 -0.191,0.065 -0.23,0.093 -0.38,0.147 -0.484,0.174 -0.641,0.216 -0.736,0.381 -0.698,0.546 -0.659,0.71 -0.5,0.81 -0.344,0.771 -0.262,0.751 0.018,0.671 0.169,0.55 0.297,0.445 0.32,0.251 0.22,0.118 0.166,0.042 0.084,0.003 0,0"
             style="fill:#484f59;fill-opacity:1;fill-rule:nonzero;stroke:none"
             id="path3912"
             inkscape:connector-curvature="0" /></g><g
           id="g3914"
           transform="translate(3.3311,23.6641)"><path
             d="M 0,0 C -0.064,-0.003 -0.133,0.02 -0.191,0.064 -0.229,0.093 -0.365,0.144 -0.483,0.175 -0.641,0.217 -0.736,0.383 -0.697,0.546 -0.659,0.712 -0.5,0.811 -0.344,0.771 -0.26,0.748 0.019,0.672 0.17,0.55 0.298,0.445 0.32,0.253 0.221,0.12 0.166,0.045 0.084,0.004 0,0"
             style="fill:#484f59;fill-opacity:1;fill-rule:nonzero;stroke:none"
             id="path3916"
             inkscape:connector-curvature="0" /></g><g
           id="g3918"
           transform="translate(2.9053,22.6943)"><path
             d="M 0,0 C -0.066,-0.001 -0.135,0.02 -0.191,0.064 -0.228,0.093 -0.37,0.146 -0.484,0.176 -0.642,0.216 -0.736,0.383 -0.697,0.547 -0.66,0.711 -0.502,0.813 -0.344,0.771 -0.262,0.75 0.02,0.671 0.168,0.55 0.296,0.445 0.32,0.254 0.219,0.119 0.166,0.045 0.082,0.004 0,0"
             style="fill:#484f59;fill-opacity:1;fill-rule:nonzero;stroke:none"
             id="path3920"
             inkscape:connector-curvature="0" /></g><g
           id="g3922"
           transform="translate(2.5791,21.6533)"><path
             d="m 0,0 c -0.068,-0.002 -0.135,0.02 -0.191,0.064 -0.038,0.027 -0.178,0.082 -0.293,0.11 -0.159,0.042 -0.254,0.207 -0.215,0.372 0.039,0.165 0.198,0.266 0.353,0.225 C -0.263,0.749 0.018,0.67 0.169,0.55 0.295,0.445 0.32,0.252 0.221,0.119 0.162,0.044 0.084,0.005 0,0"
             style="fill:#484f59;fill-opacity:1;fill-rule:nonzero;stroke:none"
             id="path3924"
             inkscape:connector-curvature="0" /></g><g
           id="g3926"
           transform="translate(2.4092,20.6318)"><path
             d="M 0,0 C -0.066,-0.005 -0.135,0.013 -0.192,0.056 -0.229,0.082 -0.374,0.13 -0.488,0.154 -0.648,0.188 -0.75,0.351 -0.719,0.517 -0.686,0.684 -0.53,0.791 -0.372,0.756 -0.289,0.738 -0.006,0.671 0.148,0.557 0.279,0.459 0.311,0.267 0.217,0.128 0.164,0.052 0.084,0.008 0,0"
             style="fill:#484f59;fill-opacity:1;fill-rule:nonzero;stroke:none"
             id="path3928"
             inkscape:connector-curvature="0" /></g><g
           id="g3930"
           transform="translate(2.208,19.4473)"><path
             d="M 0,0 C -0.066,-0.006 -0.136,0.013 -0.193,0.057 -0.23,0.08 -0.375,0.129 -0.489,0.154 -0.648,0.188 -0.751,0.351 -0.719,0.516 -0.687,0.683 -0.531,0.789 -0.373,0.755 -0.289,0.738 -0.006,0.67 0.148,0.557 0.279,0.457 0.311,0.268 0.217,0.127 0.164,0.051 0.084,0.007 0,0"
             style="fill:#484f59;fill-opacity:1;fill-rule:nonzero;stroke:none"
             id="path3932"
             inkscape:connector-curvature="0" /></g><g
           id="g3934"
           transform="translate(2.0068,18.2617)"><path
             d="M 0,0 C -0.066,-0.005 -0.135,0.015 -0.193,0.056 -0.229,0.082 -0.375,0.13 -0.49,0.155 -0.648,0.188 -0.752,0.352 -0.719,0.517 -0.687,0.683 -0.53,0.791 -0.374,0.757 -0.29,0.738 -0.008,0.671 0.146,0.555 0.28,0.458 0.31,0.267 0.217,0.128 0.164,0.053 0.083,0.006 0,0"
             style="fill:#484f59;fill-opacity:1;fill-rule:nonzero;stroke:none"
             id="path3936"
             inkscape:connector-curvature="0" /></g><g
           id="g3938"
           transform="translate(1.8057,17.0762)"><path
             d="M 0,0 C -0.066,-0.005 -0.135,0.013 -0.194,0.058 -0.23,0.081 -0.375,0.13 -0.49,0.155 -0.649,0.187 -0.752,0.35 -0.72,0.517 -0.687,0.682 -0.531,0.792 -0.373,0.756 -0.291,0.739 -0.008,0.672 0.146,0.557 0.279,0.459 0.309,0.267 0.215,0.129 0.163,0.052 0.082,0.008 0,0"
             style="fill:#484f59;fill-opacity:1;fill-rule:nonzero;stroke:none"
             id="path3940"
             inkscape:connector-curvature="0" /></g><g
           id="g3942"
           transform="translate(1.6328,15.9141)"><path
             d="m 0,0 c -0.065,-0.011 -0.136,0 -0.197,0.038 -0.038,0.022 -0.187,0.056 -0.302,0.072 -0.162,0.018 -0.277,0.172 -0.26,0.34 0.02,0.168 0.166,0.288 0.326,0.268 C -0.349,0.708 -0.062,0.667 0.101,0.566 0.241,0.48 0.288,0.293 0.204,0.146 0.159,0.065 0.083,0.013 0,0"
             style="fill:#484f59;fill-opacity:1;fill-rule:nonzero;stroke:none"
             id="path3944"
             inkscape:connector-curvature="0" /></g><g
           id="g3946"
           transform="translate(1.4404,14.7363)"><path
             d="M 0,0 C -0.066,-0.015 -0.137,-0.004 -0.199,0.031 -0.238,0.054 -0.387,0.085 -0.502,0.096 -0.664,0.111 -0.784,0.259 -0.77,0.43 -0.754,0.598 -0.611,0.722 -0.449,0.706 -0.365,0.699 -0.078,0.666 0.088,0.569 0.23,0.486 0.28,0.299 0.201,0.15 0.157,0.069 0.082,0.016 0,0"
             style="fill:#484f59;fill-opacity:1;fill-rule:nonzero;stroke:none"
             id="path3948"
             inkscape:connector-curvature="0" /></g><g
           id="g3950"
           transform="translate(1.376,13.54)"><path
             d="M 0,0 C -0.061,-0.021 -0.131,-0.021 -0.197,0.007 -0.24,0.024 -0.391,0.034 -0.508,0.029 -0.672,0.024 -0.807,0.156 -0.812,0.326 -0.818,0.495 -0.691,0.64 -0.529,0.644 -0.443,0.647 -0.154,0.651 0.021,0.577 0.172,0.515 0.244,0.336 0.184,0.179 0.148,0.09 0.081,0.028 0,0"
             style="fill:#484f59;fill-opacity:1;fill-rule:nonzero;stroke:none"
             id="path3952"
             inkscape:connector-curvature="0" /></g><g
           id="g3954"
           transform="translate(1.4639,12.4736)"><path
             d="m 0,0 c -0.059,-0.03 -0.128,-0.042 -0.199,-0.025 -0.042,0.005 -0.194,-0.008 -0.307,-0.035 -0.16,-0.033 -0.314,0.073 -0.348,0.238 -0.033,0.167 0.071,0.33 0.228,0.364 0.083,0.018 0.367,0.073 0.554,0.031 C 0.086,0.538 0.187,0.373 0.151,0.208 0.133,0.115 0.074,0.041 0,0"
             style="fill:#484f59;fill-opacity:1;fill-rule:nonzero;stroke:none"
             id="path3956"
             inkscape:connector-curvature="0" /></g><g
           id="g3958"
           transform="translate(1.6045,11.3291)"><path
             d="m 0,0 c -0.059,-0.032 -0.128,-0.045 -0.199,-0.028 -0.043,0.007 -0.194,-0.009 -0.309,-0.034 -0.158,-0.034 -0.314,0.074 -0.347,0.239 -0.034,0.167 0.07,0.33 0.227,0.364 0.083,0.016 0.368,0.072 0.554,0.03 C 0.083,0.536 0.185,0.372 0.151,0.205 0.131,0.112 0.072,0.04 0,0"
             style="fill:#484f59;fill-opacity:1;fill-rule:nonzero;stroke:none"
             id="path3960"
             inkscape:connector-curvature="0" /></g><g
           id="g3962"
           transform="translate(1.7432,10.1836)"><path
             d="m 0,0 c -0.059,-0.033 -0.128,-0.045 -0.197,-0.029 -0.045,0.008 -0.196,-0.007 -0.311,-0.032 -0.158,-0.034 -0.313,0.071 -0.347,0.239 -0.032,0.164 0.07,0.328 0.227,0.361 0.083,0.018 0.37,0.073 0.554,0.031 C 0.085,0.535 0.186,0.371 0.151,0.206 0.131,0.113 0.074,0.039 0,0"
             style="fill:#484f59;fill-opacity:1;fill-rule:nonzero;stroke:none"
             id="path3964"
             inkscape:connector-curvature="0" /></g><g
           id="g3966"
           transform="translate(1.8838,9.0352)"><path
             d="m 0,0 c -0.06,-0.031 -0.128,-0.043 -0.199,-0.028 -0.043,0.009 -0.196,-0.006 -0.311,-0.033 -0.158,-0.034 -0.314,0.075 -0.345,0.241 -0.032,0.166 0.069,0.328 0.228,0.362 0.082,0.016 0.365,0.073 0.553,0.031 C 0.083,0.537 0.186,0.373 0.151,0.207 0.131,0.115 0.072,0.042 0,0"
             style="fill:#484f59;fill-opacity:1;fill-rule:nonzero;stroke:none"
             id="path3968"
             inkscape:connector-curvature="0" /></g><g
           id="g3970"
           transform="translate(2.0303,7.9014)"><path
             d="m 0,0 c -0.06,-0.033 -0.127,-0.048 -0.199,-0.036 -0.044,0.008 -0.194,-0.012 -0.307,-0.04 -0.158,-0.039 -0.316,0.062 -0.354,0.227 -0.038,0.165 0.059,0.33 0.216,0.37 0.082,0.02 0.368,0.084 0.552,0.048 C 0.068,0.538 0.176,0.377 0.145,0.212 0.127,0.118 0.072,0.042 0,0"
             style="fill:#484f59;fill-opacity:1;fill-rule:nonzero;stroke:none"
             id="path3972"
             inkscape:connector-curvature="0" /></g><g
           id="g3974"
           transform="translate(2.3975,6.8525)"><path
             d="m 0,0 c -0.053,-0.043 -0.119,-0.068 -0.189,-0.067 -0.045,0 -0.192,-0.046 -0.298,-0.095 -0.151,-0.065 -0.322,0.009 -0.386,0.165 -0.063,0.157 0.01,0.338 0.158,0.403 0.077,0.033 0.348,0.144 0.537,0.14 C -0.016,0.542 0.113,0.401 0.109,0.234 0.105,0.139 0.065,0.055 0,0"
             style="fill:#484f59;fill-opacity:1;fill-rule:nonzero;stroke:none"
             id="path3976"
             inkscape:connector-curvature="0" /></g><g
           id="g3978"
           transform="translate(2.7861,5.7305)"><path
             d="m 0,0 c -0.031,-0.029 -0.076,-0.046 -0.121,-0.047 -0.028,-0.001 -0.123,-0.031 -0.193,-0.065 -0.098,-0.044 -0.209,0.002 -0.247,0.1 -0.039,0.099 0.008,0.217 0.106,0.26 0.053,0.023 0.226,0.097 0.348,0.097 0.105,0 0.185,-0.086 0.183,-0.196 C 0.072,0.09 0.045,0.033 0,0"
             style="fill:#484f59;fill-opacity:1;fill-rule:nonzero;stroke:none"
             id="path3980"
             inkscape:connector-curvature="0" /></g><g
           id="g3982"
           transform="translate(3.6572,5.0752)"><path
             d="m 0,0 c -0.016,-0.035 -0.042,-0.063 -0.082,-0.079 -0.022,-0.012 -0.086,-0.067 -0.129,-0.116 -0.061,-0.066 -0.175,-0.07 -0.254,-0.004 -0.079,0.065 -0.096,0.174 -0.033,0.241 0.029,0.033 0.141,0.153 0.242,0.192 C -0.169,0.271 -0.059,0.229 -0.01,0.143 0.016,0.095 0.018,0.042 0,0"
             style="fill:#484f59;fill-opacity:1;fill-rule:nonzero;stroke:none"
             id="path3984"
             inkscape:connector-curvature="0" /></g><g
           id="g3986"
           transform="translate(4.6846,4.377)"><path
             d="M 0,0 C -0.01,-0.036 -0.035,-0.066 -0.072,-0.086 -0.094,-0.1 -0.15,-0.163 -0.189,-0.217 -0.244,-0.29 -0.355,-0.305 -0.44,-0.248 c -0.087,0.055 -0.113,0.16 -0.06,0.233 0.027,0.038 0.125,0.169 0.221,0.222 0.084,0.044 0.198,0.014 0.254,-0.065 C 0.006,0.096 0.014,0.045 0,0"
             style="fill:#484f59;fill-opacity:1;fill-rule:nonzero;stroke:none"
             id="path3988"
             inkscape:connector-curvature="0" /></g><g
           id="g3990"
           transform="translate(28.1592,13.666)"><path
             d="m 0,0 c -0.074,0 -0.149,0.028 -0.206,0.088 -0.53,0.546 -1.287,0.395 -1.296,0.393 -0.154,-0.032 -0.312,0.075 -0.346,0.241 -0.03,0.166 0.072,0.327 0.231,0.361 0.045,0.009 1.072,0.214 1.821,-0.558 C 0.32,0.408 0.322,0.214 0.209,0.093 0.151,0.031 0.074,0 0,0"
             style="fill:#484f59;fill-opacity:1;fill-rule:nonzero;stroke:none"
             id="path3992"
             inkscape:connector-curvature="0" /></g><g
           id="g3994"
           transform="translate(27.792,12.6533)"><path
             d="m 0,0 c -0.074,0 -0.148,0.029 -0.206,0.089 -0.524,0.537 -1.29,0.393 -1.29,0.393 -0.17,-0.031 -0.319,0.078 -0.352,0.243 -0.029,0.166 0.074,0.327 0.231,0.358 0.045,0.009 1.072,0.214 1.822,-0.556 C 0.321,0.408 0.323,0.212 0.209,0.093 0.151,0.03 0.075,0 0,0"
             style="fill:#484f59;fill-opacity:1;fill-rule:nonzero;stroke:none"
             id="path3996"
             inkscape:connector-curvature="0" /></g><g
           id="g3998"
           transform="translate(27.4229,11.6406)"><path
             d="m 0,0 c -0.072,0 -0.146,0.03 -0.203,0.087 -0.526,0.54 -1.291,0.396 -1.297,0.392 -0.154,-0.03 -0.312,0.08 -0.344,0.244 -0.031,0.167 0.071,0.326 0.231,0.36 0.042,0.009 1.071,0.212 1.82,-0.558 C 0.322,0.407 0.324,0.212 0.211,0.092 0.154,0.031 0.077,0 0,0"
             style="fill:#484f59;fill-opacity:1;fill-rule:nonzero;stroke:none"
             id="path4000"
             inkscape:connector-curvature="0" /></g><g
           id="g4002"
           transform="translate(27.0557,10.627)"><path
             d="M 0,0 C -0.073,0 -0.146,0.03 -0.203,0.089 -0.736,0.634 -1.492,0.483 -1.5,0.482 -1.657,0.451 -1.812,0.559 -1.844,0.725 -1.877,0.891 -1.773,1.052 -1.615,1.084 -1.571,1.095 -0.543,1.297 0.207,0.526 0.322,0.408 0.324,0.214 0.212,0.093 0.154,0.031 0.078,0 0,0"
             style="fill:#484f59;fill-opacity:1;fill-rule:nonzero;stroke:none"
             id="path4004"
             inkscape:connector-curvature="0" /></g><g
           id="g4006"
           transform="translate(26.6572,9.5156)"><path
             d="m 0,0 c -0.088,0 -0.174,0.041 -0.23,0.117 -0.464,0.611 -1.229,0.558 -1.241,0.558 -0.16,-0.012 -0.3,0.116 -0.314,0.284 -0.012,0.17 0.109,0.316 0.272,0.33 0.043,0.002 1.089,0.07 1.742,-0.791 C 0.329,0.365 0.308,0.173 0.182,0.067 0.129,0.022 0.062,0 0,0"
             style="fill:#484f59;fill-opacity:1;fill-rule:nonzero;stroke:none"
             id="path4008"
             inkscape:connector-curvature="0" /></g><g
           id="g4010"
           transform="translate(25.9072,8.4551)"><path
             d="m 0,0 c -0.091,0 -0.18,0.045 -0.236,0.129 -0.436,0.624 -1.215,0.612 -1.215,0.612 l -0.006,0 c -0.162,0 -0.293,0.131 -0.297,0.299 -0.004,0.168 0.121,0.31 0.283,0.315 0.035,0.004 1.09,0.024 1.709,-0.868 C 0.332,0.351 0.304,0.159 0.172,0.06 0.12,0.02 0.061,0 0,0"
             style="fill:#484f59;fill-opacity:1;fill-rule:nonzero;stroke:none"
             id="path4012"
             inkscape:connector-curvature="0" /></g><g
           id="g4014"
           transform="translate(25.0479,7.4707)"><path
             d="M 0,0 C -0.09,0 -0.178,0.042 -0.236,0.123 -0.674,0.741 -1.451,0.725 -1.459,0.723 -1.607,0.73 -1.754,0.85 -1.762,1.02 -1.768,1.187 -1.641,1.33 -1.48,1.335 -1.441,1.337 -0.392,1.373 0.236,0.49 0.334,0.354 0.305,0.161 0.175,0.061 0.123,0.02 0.061,0 0,0"
             style="fill:#484f59;fill-opacity:1;fill-rule:nonzero;stroke:none"
             id="path4016"
             inkscape:connector-curvature="0" /></g><g
           id="g4018"
           transform="translate(23.8115,6.5449)"><path
             d="m 0,0 c -0.08,0 -0.16,0.034 -0.217,0.101 -0.445,0.51 -1.144,0.678 -1.144,0.678 -0.165,0.036 -0.266,0.2 -0.231,0.365 0.035,0.167 0.19,0.272 0.349,0.235 C -1.207,1.371 -0.357,1.174 0.217,0.514 0.326,0.389 0.316,0.195 0.197,0.081 0.141,0.027 0.07,0 0,0"
             style="fill:#484f59;fill-opacity:1;fill-rule:nonzero;stroke:none"
             id="path4020"
             inkscape:connector-curvature="0" /></g><g
           id="g4022"
           transform="translate(22.5371,5.7656)"><path
             d="M 0,0 C -0.094,0 -0.184,0.045 -0.241,0.128 -0.587,0.642 -1.139,0.79 -1.144,0.793 -1.302,0.831 -1.397,0.997 -1.36,1.162 -1.323,1.324 -1.168,1.428 -1.008,1.389 -0.978,1.381 -0.239,1.191 0.239,0.484 0.333,0.345 0.3,0.154 0.167,0.056 0.116,0.019 0.058,0 0,0"
             style="fill:#484f59;fill-opacity:1;fill-rule:nonzero;stroke:none"
             id="path4024"
             inkscape:connector-curvature="0" /></g><g
           id="g4026"
           transform="translate(20.9697,4.9551)"><path
             d="M 0,0 C -0.1,0 -0.193,0.05 -0.248,0.142 -0.605,0.725 -0.838,0.83 -0.838,0.83 -0.996,0.875 -1.08,1.041 -1.039,1.204 -0.996,1.368 -0.824,1.462 -0.668,1.418 -0.574,1.39 -0.227,1.243 0.246,0.474 0.334,0.329 0.295,0.14 0.158,0.049 0.109,0.016 0.053,0 0,0"
             style="fill:#484f59;fill-opacity:1;fill-rule:nonzero;stroke:none"
             id="path4028"
             inkscape:connector-curvature="0" /></g><g
           id="g4030"
           transform="translate(19.4502,4.3184)"><path
             d="m 0,0 c -0.105,0 -0.209,0.062 -0.262,0.166 -0.213,0.436 -0.427,0.545 -0.429,0.547 -0.143,0.07 -0.211,0.249 -0.148,0.4 0.064,0.153 0.227,0.227 0.372,0.167 C -0.4,1.252 -0.051,1.082 0.262,0.448 0.334,0.297 0.278,0.111 0.135,0.035 0.092,0.012 0.046,0 0,0"
             style="fill:#484f59;fill-opacity:1;fill-rule:nonzero;stroke:none"
             id="path4032"
             inkscape:connector-curvature="0" /></g><g
           id="g4034"
           transform="translate(18.0117,4.0322)"><path
             d="m 0,0 c -0.118,0 -0.23,0.075 -0.274,0.199 -0.081,0.224 -0.328,0.377 -0.332,0.379 -0.139,0.081 -0.189,0.27 -0.11,0.417 0.078,0.146 0.257,0.201 0.4,0.116 C -0.272,1.087 0.118,0.847 0.274,0.416 0.332,0.258 0.253,0.08 0.104,0.021 0.068,0.006 0.033,0 0,0"
             style="fill:#484f59;fill-opacity:1;fill-rule:nonzero;stroke:none"
             id="path4036"
             inkscape:connector-curvature="0" /></g><g
           id="g4038"
           transform="translate(91.958,19.6064)"><path
             d="m 0,0 c 0,-0.846 -0.687,-1.608 -1.531,-1.7 -22.75,-2.403 -45.69,-2.403 -68.442,0 -0.843,0.092 -1.529,0.854 -1.529,1.7 l 0,45.11 c 0,0.848 0.688,1.534 1.535,1.536 l 68.432,0 c 0.846,0 1.533,-0.688 1.535,-1.536 L 0,0 Z"
             style="fill:#282d33;fill-opacity:1;fill-rule:nonzero;stroke:none"
             id="path4040"
             inkscape:connector-curvature="0" /></g><g
           id="g4042"
           transform="translate(21.6729,20.1963)"><path
             d="m 0,0 c -0.332,0.034 -0.605,0.333 -0.605,0.668 0,14.824 0.001,29.649 0.001,44.474 0,0.334 0.274,0.604 0.61,0.603 22.605,-0.045 45.217,-0.045 67.824,0 0.336,0.001 0.608,-0.269 0.608,-0.603 C 68.439,30.317 68.439,15.492 68.441,0.668 68.441,0.333 68.17,0.034 67.834,0 45.285,-2.319 22.551,-2.319 0,0"
             style="fill:#484f59;fill-opacity:1;fill-rule:nonzero;stroke:none"
             id="path4044"
             inkscape:connector-curvature="0" /></g><g
           id="g4046"
           transform="translate(41.4443,65.3105)"><path
             d="m 0,0 c 0,0.349 -0.187,0.632 -0.42,0.631 l -0.213,0 0,-47.847 c 0.074,0.009 0.145,0.022 0.217,0.031 0.23,0.037 0.418,0.35 0.418,0.699 C 0,-30.991 0,-15.495 0,0"
             style="fill:#30363d;fill-opacity:1;fill-rule:nonzero;stroke:none"
             id="path4048"
             inkscape:connector-curvature="0" /></g><g
           id="g4050"
           transform="translate(37.9443,25.5781)"><path
             d="m 0,0 c -0.059,-0.646 -0.641,-1.296 -1.295,-1.423 -3.727,-0.716 -7.396,-0.716 -11.123,0 -0.656,0.127 -1.238,0.777 -1.296,1.423 -1.242,14.348 -1.242,28.777 0,43.125 0.06,0.645 0.642,1.296 1.296,1.422 3.727,0.717 7.394,0.717 11.121,0 C -0.641,44.422 -0.059,43.77 0,43.125 1.242,28.777 1.242,14.348 0,0"
             style="fill:#30363d;fill-opacity:1;fill-rule:nonzero;stroke:none"
             id="path4052"
             inkscape:connector-curvature="0" /></g><g
           id="g4054"
           transform="translate(37.9365,25.5137)"><path
             d="m 0,0 c -0.055,-0.623 -0.634,-1.254 -1.289,-1.377 -3.726,-0.691 -7.395,-0.691 -11.119,0 -0.656,0.123 -1.235,0.754 -1.293,1.377 -1.204,13.885 -1.247,27.843 -0.127,41.732 0.054,0.625 0.64,1.254 1.307,1.377 3.795,0.694 7.548,0.694 11.343,0 C -0.51,42.986 0.077,42.357 0.129,41.732 1.25,27.843 1.208,13.885 0,0"
             style="fill:#282d33;fill-opacity:1;fill-rule:nonzero;stroke:none"
             id="path4056"
             inkscape:connector-curvature="0" /></g><g
           id="g4058"
           transform="translate(37.1133,27.4297)"><path
             d="m 0,0 c -0.042,-0.587 -0.544,-1.181 -1.122,-1.296 -3.277,-0.65 -6.528,-0.65 -9.809,0 -0.578,0.115 -1.08,0.71 -1.121,1.296 -0.889,13.068 -0.892,26.198 -0.01,39.266 0.04,0.587 0.545,1.18 1.124,1.297 3.282,0.649 6.541,0.649 9.826,0 0.578,-0.117 1.082,-0.71 1.121,-1.297 C 0.892,26.197 0.89,13.068 0,0"
             style="fill:#30363d;fill-opacity:1;fill-rule:nonzero;stroke:none"
             id="path4060"
             inkscape:connector-curvature="0" /></g><g
           id="g4062"
           transform="translate(24.5576,68.1191)"><path
             d="M 0,0 C 0.058,0.645 0.643,1.293 1.303,1.417 5.057,2.109 8.76,2.088 12.52,1.351 12.813,1.293 13.084,1.131 13.31,0.912 13.123,1.436 12.635,1.901 12.09,2.006 8.364,2.723 4.695,2.723 0.969,2.006 0.314,1.88 -0.268,1.229 -0.327,0.584 -1.305,-13.779 -0.957,-14.338 0,0"
             style="fill:#484f59;fill-opacity:1;fill-rule:nonzero;stroke:none"
             id="path4064"
             inkscape:connector-curvature="0" /></g><g
           id="g4066"
           transform="translate(33.7783,67.9922)"><path
             d="M 0,0 C 0.367,0.074 0.733,0.138 1.102,0.194 -1.805,0.643 -4.693,0.576 -7.604,0 c -0.58,-0.116 -1.084,-0.71 -1.123,-1.297 -0.502,-7.455 -0.718,-14.932 -0.646,-22.405 2.438,-0.138 4.889,0.008 7.295,0.436 0.644,0.118 1.162,0.711 1.162,1.3 0.002,0.656 0.033,1.313 0.092,1.965 -0.004,6.24 -0.067,12.48 -0.184,18.704 C -1.018,-0.71 -0.568,-0.116 0,0"
             style="fill:#484f59;fill-opacity:1;fill-rule:nonzero;stroke:none"
             id="path4068"
             inkscape:connector-curvature="0" /></g><g
           id="g4070"
           transform="translate(24.5811,27.1367)"><path
             d="m 0,0 c 0.006,-0.085 -0.061,-0.155 -0.15,-0.155 -0.09,0 -0.169,0.071 -0.176,0.155 -0.414,5.15 -0.666,10.309 -0.76,15.468 -0.004,0.087 0.076,0.156 0.178,0.156 0.099,0 0.181,-0.069 0.183,-0.156 C -0.636,10.309 -0.393,5.15 0,0"
             style="fill:#484f59;fill-opacity:1;fill-rule:nonzero;stroke:none"
             id="path4072"
             inkscape:connector-curvature="0" /></g><g
           id="g4074"
           transform="translate(41.4395,65.6133)"><path
             d="m 0,0 c 0,0.352 -0.095,0.637 -0.209,0.636 l -0.108,0 0,-48.155 c 0.037,0.009 0.074,0.022 0.109,0.032 0.115,0.036 0.208,0.352 0.208,0.703 L 0,0 Z"
             style="fill:#282d33;fill-opacity:1;fill-rule:nonzero;stroke:none"
             id="path4076"
             inkscape:connector-curvature="0" /></g><g
           id="g4078"
           transform="translate(86.9189,41.7031)"><path
             d="m 0,0 c 0,-0.848 -0.687,-1.533 -1.535,-1.536 l -38.973,0 c -0.846,0.003 -1.533,0.688 -1.533,1.536 l 0,27.312 c 10e-4,0.844 0.68,1.651 1.524,1.789 12.914,2.086 26.079,2.086 38.993,0 C -0.682,28.964 0,28.155 0,27.312 L 0,0 Z"
             style="fill:#cdd5d7;fill-opacity:1;fill-rule:nonzero;stroke:none"
             id="path4080"
             inkscape:connector-curvature="0" /></g><g
           id="g4082"
           transform="translate(86.1631,42.1934)"><path
             d="m 0,0 c 0,-0.818 -0.661,-1.48 -1.479,-1.48 l -37.572,0 c -0.816,0 -1.478,0.662 -1.478,1.48 l 0,26.33 c 0,0.816 0.662,1.479 1.478,1.479 l 37.572,0 C -0.661,27.809 0,27.146 0,26.33 L 0,0 Z"
             style="fill:#e5e8ec;fill-opacity:1;fill-rule:nonzero;stroke:none"
             id="path4084"
             inkscape:connector-curvature="0" /></g><g
           id="g4086"
           transform="translate(47.335,70.6387)"><path
             d="m 0,0 37.128,0 c 0.049,0.021 0.079,0.04 0.079,0.059 0,0.359 -8.348,0.652 -18.645,0.652 C 8.268,0.711 -0.08,0.418 -0.08,0.059 -0.08,0.04 -0.049,0.021 0,0"
             style="fill:#b7bec0;fill-opacity:1;fill-rule:nonzero;stroke:none"
             id="path4088"
             inkscape:connector-curvature="0" /></g><path
           d="m 82.341,47.43 -33.552,0 0,19.642 33.552,0 0,-19.642 z"
           style="fill:#b7bec0;fill-opacity:1;fill-rule:nonzero;stroke:none"
           id="path4090"
           inkscape:connector-curvature="0" /><path
           d="m 81.728,47.789 -32.324,0 0,18.718 32.324,0 0,-18.718 z"
           style="fill:#01bacc;fill-opacity:1;fill-rule:nonzero;stroke:none"
           id="path4092"
           inkscape:connector-curvature="0" /><g
           id="g4094"
           transform="translate(65.1533,66.5068)"><path
             d="m 0,0 -12.098,0 -3.652,-9.246 0,-9.472 8.357,0 L 0,0 Z"
             style="fill:#00c6da;fill-opacity:1;fill-rule:nonzero;stroke:none"
             id="path4096"
             inkscape:connector-curvature="0" /></g><g
           id="g4098"
           transform="translate(64.5801,47.7891)"><path
             d="m 0,0 7.392,18.718 -4.619,0 L -4.62,0 0,0 Z"
             style="fill:#00c6da;fill-opacity:1;fill-rule:nonzero;stroke:none"
             id="path4100"
             inkscape:connector-curvature="0" /></g><g
           id="g4102"
           transform="translate(53.6494,44.7734)"><path
             d="m 0,0 c 0,-0.321 -0.237,-0.581 -0.529,-0.581 l -3.7,0 c -0.291,0 -0.529,0.26 -0.529,0.581 0,0.321 0.238,0.582 0.529,0.582 l 3.7,0 C -0.237,0.582 0,0.321 0,0"
             style="fill:#282d33;fill-opacity:1;fill-rule:nonzero;stroke:none"
             id="path4104"
             inkscape:connector-curvature="0" /></g><g
           id="g4106"
           transform="translate(53.6494,45.0234)"><path
             d="m 0,0 c 0,-0.321 -0.237,-0.581 -0.529,-0.581 l -3.7,0 c -0.291,0 -0.529,0.26 -0.529,0.581 0,0.321 0.238,0.581 0.529,0.581 l 3.7,0 C -0.237,0.581 0,0.321 0,0"
             style="fill:#484f59;fill-opacity:1;fill-rule:nonzero;stroke:none"
             id="path4108"
             inkscape:connector-curvature="0" /></g><g
           id="g4110"
           transform="translate(60.6689,44.7734)"><path
             d="m 0,0 c 0,-0.321 -0.238,-0.581 -0.529,-0.581 l -3.7,0 c -0.291,0 -0.527,0.26 -0.527,0.581 0,0.321 0.236,0.582 0.527,0.582 l 3.7,0 C -0.238,0.582 0,0.321 0,0"
             style="fill:#282d33;fill-opacity:1;fill-rule:nonzero;stroke:none"
             id="path4112"
             inkscape:connector-curvature="0" /></g><g
           id="g4114"
           transform="translate(60.6689,45.0234)"><path
             d="m 0,0 c 0,-0.321 -0.238,-0.581 -0.529,-0.581 l -3.7,0 c -0.291,0 -0.527,0.26 -0.527,0.581 0,0.321 0.236,0.581 0.527,0.581 l 3.7,0 C -0.238,0.581 0,0.321 0,0"
             style="fill:#484f59;fill-opacity:1;fill-rule:nonzero;stroke:none"
             id="path4116"
             inkscape:connector-curvature="0" /></g><g
           id="g4118"
           transform="translate(67.6885,44.7734)"><path
             d="m 0,0 c 0,-0.321 -0.238,-0.581 -0.528,-0.581 l -3.701,0 c -0.292,0 -0.527,0.26 -0.527,0.581 0,0.321 0.235,0.582 0.527,0.582 l 3.701,0 C -0.238,0.582 0,0.321 0,0"
             style="fill:#282d33;fill-opacity:1;fill-rule:nonzero;stroke:none"
             id="path4120"
             inkscape:connector-curvature="0" /></g><g
           id="g4122"
           transform="translate(67.6885,45.0234)"><path
             d="m 0,0 c 0,-0.321 -0.238,-0.581 -0.528,-0.581 l -3.701,0 c -0.292,0 -0.527,0.26 -0.527,0.581 0,0.321 0.235,0.581 0.527,0.581 l 3.701,0 C -0.238,0.581 0,0.321 0,0"
             style="fill:#484f59;fill-opacity:1;fill-rule:nonzero;stroke:none"
             id="path4124"
             inkscape:connector-curvature="0" /></g><g
           id="g4126"
           transform="translate(74.708,44.7734)"><path
             d="m 0,0 c 0,-0.321 -0.236,-0.581 -0.527,-0.581 l -3.702,0 c -0.291,0 -0.528,0.26 -0.528,0.581 0,0.321 0.237,0.582 0.528,0.582 l 3.702,0 C -0.236,0.582 0,0.321 0,0"
             style="fill:#282d33;fill-opacity:1;fill-rule:nonzero;stroke:none"
             id="path4128"
             inkscape:connector-curvature="0" /></g><g
           id="g4130"
           transform="translate(74.708,45.0234)"><path
             d="m 0,0 c 0,-0.321 -0.236,-0.581 -0.527,-0.581 l -3.702,0 c -0.291,0 -0.528,0.26 -0.528,0.581 0,0.321 0.237,0.581 0.528,0.581 l 3.702,0 C -0.236,0.581 0,0.321 0,0"
             style="fill:#484f59;fill-opacity:1;fill-rule:nonzero;stroke:none"
             id="path4132"
             inkscape:connector-curvature="0" /></g><g
           id="g4134"
           transform="translate(81.7275,44.7734)"><path
             d="m 0,0 c 0,-0.321 -0.238,-0.581 -0.527,-0.581 l -3.7,0 c -0.293,0 -0.529,0.26 -0.529,0.581 0,0.321 0.236,0.582 0.529,0.582 l 3.7,0 C -0.238,0.582 0,0.321 0,0"
             style="fill:#282d33;fill-opacity:1;fill-rule:nonzero;stroke:none"
             id="path4136"
             inkscape:connector-curvature="0" /></g><g
           id="g4138"
           transform="translate(81.7275,45.0234)"><path
             d="m 0,0 c 0,-0.321 -0.238,-0.581 -0.527,-0.581 l -3.7,0 c -0.293,0 -0.529,0.26 -0.529,0.581 0,0.321 0.236,0.581 0.529,0.581 l 3.7,0 C -0.238,0.581 0,0.321 0,0"
             style="fill:#484f59;fill-opacity:1;fill-rule:nonzero;stroke:none"
             id="path4140"
             inkscape:connector-curvature="0" /></g><g
           id="g4142"
           transform="translate(49.1982,34.7979)"><path
             d="m 0,0 c 0,-0.515 -0.324,-0.931 -0.721,-0.931 l -2.444,0 c -0.398,0 -0.72,0.416 -0.72,0.931 l 0,1.677 c 0,0.513 0.322,0.932 0.72,0.932 l 2.444,0 C -0.324,2.609 0,2.19 0,1.677 L 0,0 Z"
             style="fill:#282d33;fill-opacity:1;fill-rule:nonzero;stroke:none"
             id="path4144"
             inkscape:connector-curvature="0" /></g><g
           id="g4146"
           transform="translate(49.0068,34.8809)"><path
             d="m 0,0 c 0,-0.465 -0.292,-0.84 -0.648,-0.84 l -2.207,0 c -0.358,0 -0.648,0.375 -0.648,0.84 l 0,1.51 c 0,0.465 0.29,0.84 0.648,0.84 l 2.207,0 C -0.292,2.35 0,1.975 0,1.51 L 0,0 Z"
             style="fill:#30363d;fill-opacity:1;fill-rule:nonzero;stroke:none"
             id="path4148"
             inkscape:connector-curvature="0" /></g><g
           id="g4150"
           transform="translate(48.5371,35.2383)"><path
             d="m 0,0 c 0,-0.395 -0.253,-0.716 -0.567,-0.716 l -1.934,0 c -0.312,0 -0.567,0.321 -0.567,0.716 l 0,1.289 c 0,0.398 0.255,0.719 0.567,0.719 l 1.934,0 C -0.253,2.008 0,1.687 0,1.289 L 0,0 Z"
             style="fill:#484f59;fill-opacity:1;fill-rule:nonzero;stroke:none"
             id="path4152"
             inkscape:connector-curvature="0" /></g><g
           id="g4154"
           transform="translate(54.292,34.7979)"><path
             d="m 0,0 c 0,-0.515 -0.322,-0.931 -0.719,-0.931 l -2.449,0 c -0.395,0 -0.717,0.416 -0.717,0.931 l 0,1.677 c 0,0.513 0.322,0.932 0.717,0.932 l 2.449,0 C -0.322,2.609 0,2.19 0,1.677 L 0,0 Z"
             style="fill:#282d33;fill-opacity:1;fill-rule:nonzero;stroke:none"
             id="path4156"
             inkscape:connector-curvature="0" /></g><g
           id="g4158"
           transform="translate(54.1006,34.8809)"><path
             d="m 0,0 c 0,-0.465 -0.291,-0.84 -0.65,-0.84 l -2.204,0 c -0.359,0 -0.648,0.375 -0.648,0.84 l 0,1.51 c 0,0.465 0.289,0.84 0.648,0.84 l 2.204,0 C -0.291,2.35 0,1.975 0,1.51 L 0,0 Z"
             style="fill:#30363d;fill-opacity:1;fill-rule:nonzero;stroke:none"
             id="path4160"
             inkscape:connector-curvature="0" /></g><g
           id="g4162"
           transform="translate(53.6318,35.2383)"><path
             d="m 0,0 c 0,-0.395 -0.255,-0.716 -0.567,-0.716 l -1.935,0 c -0.312,0 -0.568,0.321 -0.568,0.716 l 0,1.289 c 0,0.398 0.256,0.719 0.568,0.719 l 1.935,0 C -0.255,2.008 0,1.687 0,1.289 L 0,0 Z"
             style="fill:#484f59;fill-opacity:1;fill-rule:nonzero;stroke:none"
             id="path4164"
             inkscape:connector-curvature="0" /></g><g
           id="g4166"
           transform="translate(59.3848,34.7979)"><path
             d="m 0,0 c 0,-0.515 -0.321,-0.931 -0.718,-0.931 l -2.447,0 c -0.398,0 -0.72,0.416 -0.72,0.931 l 0,1.677 c 0,0.513 0.322,0.932 0.72,0.932 l 2.447,0 C -0.321,2.609 0,2.19 0,1.677 L 0,0 Z"
             style="fill:#282d33;fill-opacity:1;fill-rule:nonzero;stroke:none"
             id="path4168"
             inkscape:connector-curvature="0" /></g><g
           id="g4170"
           transform="translate(59.1943,34.8809)"><path
             d="m 0,0 c 0,-0.465 -0.291,-0.84 -0.648,-0.84 l -2.206,0 c -0.357,0 -0.648,0.375 -0.648,0.84 l 0,1.51 c 0,0.465 0.291,0.84 0.648,0.84 l 2.206,0 C -0.291,2.35 0,1.975 0,1.51 L 0,0 Z"
             style="fill:#30363d;fill-opacity:1;fill-rule:nonzero;stroke:none"
             id="path4172"
             inkscape:connector-curvature="0" /></g><g
           id="g4174"
           transform="translate(58.7256,35.2383)"><path
             d="m 0,0 c 0,-0.395 -0.254,-0.716 -0.568,-0.716 l -1.932,0 c -0.314,0 -0.569,0.321 -0.569,0.716 l 0,1.289 c 0,0.398 0.255,0.719 0.569,0.719 l 1.932,0 C -0.254,2.008 0,1.687 0,1.289 L 0,0 Z"
             style="fill:#484f59;fill-opacity:1;fill-rule:nonzero;stroke:none"
             id="path4176"
             inkscape:connector-curvature="0" /></g><g
           id="g4178"
           transform="translate(49.1982,30.5234)"><path
             d="m 0,0 c 0,-0.516 -0.324,-0.931 -0.721,-0.931 l -2.444,0 c -0.398,0 -0.72,0.415 -0.72,0.931 l 0,1.678 c 0,0.514 0.322,0.931 0.72,0.931 l 2.444,0 C -0.324,2.609 0,2.192 0,1.678 L 0,0 Z"
             style="fill:#282d33;fill-opacity:1;fill-rule:nonzero;stroke:none"
             id="path4180"
             inkscape:connector-curvature="0" /></g><g
           id="g4182"
           transform="translate(49.0068,30.6064)"><path
             d="m 0,0 c 0,-0.463 -0.292,-0.839 -0.648,-0.839 l -2.207,0 c -0.358,0 -0.648,0.376 -0.648,0.839 l 0,1.512 c 0,0.464 0.29,0.84 0.648,0.84 l 2.207,0 C -0.292,2.352 0,1.976 0,1.512 L 0,0 Z"
             style="fill:#30363d;fill-opacity:1;fill-rule:nonzero;stroke:none"
             id="path4184"
             inkscape:connector-curvature="0" /></g><g
           id="g4186"
           transform="translate(48.5371,30.9648)"><path
             d="m 0,0 c 0,-0.396 -0.253,-0.717 -0.567,-0.717 l -1.934,0 c -0.312,0 -0.567,0.321 -0.567,0.717 l 0,1.29 c 0,0.397 0.255,0.717 0.567,0.717 l 1.934,0 C -0.253,2.007 0,1.687 0,1.29 L 0,0 Z"
             style="fill:#484f59;fill-opacity:1;fill-rule:nonzero;stroke:none"
             id="path4188"
             inkscape:connector-curvature="0" /></g><g
           id="g4190"
           transform="translate(54.292,30.5234)"><path
             d="m 0,0 c 0,-0.516 -0.322,-0.931 -0.719,-0.931 l -2.449,0 c -0.395,0 -0.717,0.415 -0.717,0.931 l 0,1.678 c 0,0.514 0.322,0.931 0.717,0.931 l 2.449,0 C -0.322,2.609 0,2.192 0,1.678 L 0,0 Z"
             style="fill:#282d33;fill-opacity:1;fill-rule:nonzero;stroke:none"
             id="path4192"
             inkscape:connector-curvature="0" /></g><g
           id="g4194"
           transform="translate(54.1006,30.6064)"><path
             d="m 0,0 c 0,-0.463 -0.291,-0.839 -0.65,-0.839 l -2.204,0 c -0.359,0 -0.648,0.376 -0.648,0.839 l 0,1.512 c 0,0.464 0.289,0.84 0.648,0.84 l 2.204,0 C -0.291,2.352 0,1.976 0,1.512 L 0,0 Z"
             style="fill:#30363d;fill-opacity:1;fill-rule:nonzero;stroke:none"
             id="path4196"
             inkscape:connector-curvature="0" /></g><g
           id="g4198"
           transform="translate(53.6318,30.9648)"><path
             d="m 0,0 c 0,-0.396 -0.255,-0.717 -0.567,-0.717 l -1.935,0 c -0.312,0 -0.568,0.321 -0.568,0.717 l 0,1.29 c 0,0.397 0.256,0.717 0.568,0.717 l 1.935,0 C -0.255,2.007 0,1.687 0,1.29 L 0,0 Z"
             style="fill:#484f59;fill-opacity:1;fill-rule:nonzero;stroke:none"
             id="path4200"
             inkscape:connector-curvature="0" /></g><g
           id="g4202"
           transform="translate(59.3848,30.5234)"><path
             d="m 0,0 c 0,-0.516 -0.321,-0.931 -0.718,-0.931 l -2.447,0 c -0.398,0 -0.72,0.415 -0.72,0.931 l 0,1.678 c 0,0.514 0.322,0.931 0.72,0.931 l 2.447,0 C -0.321,2.609 0,2.192 0,1.678 L 0,0 Z"
             style="fill:#282d33;fill-opacity:1;fill-rule:nonzero;stroke:none"
             id="path4204"
             inkscape:connector-curvature="0" /></g><g
           id="g4206"
           transform="translate(59.1943,30.6064)"><path
             d="m 0,0 c 0,-0.463 -0.291,-0.839 -0.648,-0.839 l -2.206,0 c -0.357,0 -0.648,0.376 -0.648,0.839 l 0,1.512 c 0,0.464 0.291,0.84 0.648,0.84 l 2.206,0 C -0.291,2.352 0,1.976 0,1.512 L 0,0 Z"
             style="fill:#30363d;fill-opacity:1;fill-rule:nonzero;stroke:none"
             id="path4208"
             inkscape:connector-curvature="0" /></g><g
           id="g4210"
           transform="translate(58.7256,30.9648)"><path
             d="m 0,0 c 0,-0.396 -0.254,-0.717 -0.568,-0.717 l -1.932,0 c -0.314,0 -0.569,0.321 -0.569,0.717 l 0,1.29 c 0,0.397 0.255,0.717 0.569,0.717 l 1.932,0 C -0.254,2.007 0,1.687 0,1.29 L 0,0 Z"
             style="fill:#484f59;fill-opacity:1;fill-rule:nonzero;stroke:none"
             id="path4212"
             inkscape:connector-curvature="0" /></g><g
           id="g4214"
           transform="translate(49.1982,26.249)"><path
             d="m 0,0 c 0,-0.514 -0.324,-0.931 -0.721,-0.931 l -2.444,0 c -0.398,0 -0.72,0.417 -0.72,0.931 l 0,1.677 c 0,0.515 0.322,0.932 0.72,0.932 l 2.444,0 C -0.324,2.609 0,2.192 0,1.677 L 0,0 Z"
             style="fill:#282d33;fill-opacity:1;fill-rule:nonzero;stroke:none"
             id="path4216"
             inkscape:connector-curvature="0" /></g><g
           id="g4218"
           transform="translate(49.0068,26.333)"><path
             d="m 0,0 c 0,-0.464 -0.292,-0.84 -0.648,-0.84 l -2.207,0 c -0.358,0 -0.648,0.376 -0.648,0.84 l 0,1.511 c 0,0.465 0.29,0.84 0.648,0.84 l 2.207,0 C -0.292,2.351 0,1.976 0,1.511 L 0,0 Z"
             style="fill:#30363d;fill-opacity:1;fill-rule:nonzero;stroke:none"
             id="path4220"
             inkscape:connector-curvature="0" /></g><g
           id="g4222"
           transform="translate(48.5371,26.6914)"><path
             d="m 0,0 c 0,-0.396 -0.253,-0.717 -0.567,-0.717 l -1.934,0 c -0.312,0 -0.567,0.321 -0.567,0.717 l 0,1.29 c 0,0.396 0.255,0.716 0.567,0.716 l 1.934,0 C -0.253,2.006 0,1.686 0,1.29 L 0,0 Z"
             style="fill:#484f59;fill-opacity:1;fill-rule:nonzero;stroke:none"
             id="path4224"
             inkscape:connector-curvature="0" /></g><g
           id="g4226"
           transform="translate(54.292,26.249)"><path
             d="m 0,0 c 0,-0.514 -0.322,-0.931 -0.719,-0.931 l -2.449,0 c -0.395,0 -0.717,0.417 -0.717,0.931 l 0,1.677 c 0,0.515 0.322,0.932 0.717,0.932 l 2.449,0 C -0.322,2.609 0,2.192 0,1.677 L 0,0 Z"
             style="fill:#282d33;fill-opacity:1;fill-rule:nonzero;stroke:none"
             id="path4228"
             inkscape:connector-curvature="0" /></g><g
           id="g4230"
           transform="translate(54.1006,26.333)"><path
             d="m 0,0 c 0,-0.464 -0.291,-0.84 -0.65,-0.84 l -2.204,0 c -0.359,0 -0.648,0.376 -0.648,0.84 l 0,1.511 c 0,0.465 0.289,0.84 0.648,0.84 l 2.204,0 C -0.291,2.351 0,1.976 0,1.511 L 0,0 Z"
             style="fill:#30363d;fill-opacity:1;fill-rule:nonzero;stroke:none"
             id="path4232"
             inkscape:connector-curvature="0" /></g><g
           id="g4234"
           transform="translate(53.6318,26.6914)"><path
             d="m 0,0 c 0,-0.396 -0.255,-0.717 -0.567,-0.717 l -1.935,0 c -0.312,0 -0.568,0.321 -0.568,0.717 l 0,1.29 c 0,0.396 0.256,0.716 0.568,0.716 l 1.935,0 C -0.255,2.006 0,1.686 0,1.29 L 0,0 Z"
             style="fill:#484f59;fill-opacity:1;fill-rule:nonzero;stroke:none"
             id="path4236"
             inkscape:connector-curvature="0" /></g><g
           id="g4238"
           transform="translate(59.3848,26.249)"><path
             d="m 0,0 c 0,-0.514 -0.321,-0.931 -0.718,-0.931 l -2.447,0 c -0.398,0 -0.72,0.417 -0.72,0.931 l 0,1.677 c 0,0.515 0.322,0.932 0.72,0.932 l 2.447,0 C -0.321,2.609 0,2.192 0,1.677 L 0,0 Z"
             style="fill:#282d33;fill-opacity:1;fill-rule:nonzero;stroke:none"
             id="path4240"
             inkscape:connector-curvature="0" /></g><g
           id="g4242"
           transform="translate(59.1943,26.333)"><path
             d="m 0,0 c 0,-0.464 -0.291,-0.84 -0.648,-0.84 l -2.206,0 c -0.357,0 -0.648,0.376 -0.648,0.84 l 0,1.511 c 0,0.465 0.291,0.84 0.648,0.84 l 2.206,0 C -0.291,2.351 0,1.976 0,1.511 L 0,0 Z"
             style="fill:#30363d;fill-opacity:1;fill-rule:nonzero;stroke:none"
             id="path4244"
             inkscape:connector-curvature="0" /></g><g
           id="g4246"
           transform="translate(58.7256,26.6914)"><path
             d="m 0,0 c 0,-0.396 -0.254,-0.717 -0.568,-0.717 l -1.932,0 c -0.314,0 -0.569,0.321 -0.569,0.717 l 0,1.29 c 0,0.396 0.255,0.716 0.569,0.716 l 1.932,0 C -0.254,2.006 0,1.686 0,1.29 L 0,0 Z"
             style="fill:#484f59;fill-opacity:1;fill-rule:nonzero;stroke:none"
             id="path4248"
             inkscape:connector-curvature="0" /></g><g
           id="g4250"
           transform="translate(49.1982,21.9766)"><path
             d="m 0,0 c 0,-0.516 -0.324,-0.933 -0.721,-0.933 l -2.444,0 c -0.398,0 -0.72,0.417 -0.72,0.933 l 0,1.677 c 0,0.513 0.322,0.93 0.72,0.93 l 2.444,0 C -0.324,2.607 0,2.19 0,1.677 L 0,0 Z"
             style="fill:#282d33;fill-opacity:1;fill-rule:nonzero;stroke:none"
             id="path4252"
             inkscape:connector-curvature="0" /></g><g
           id="g4254"
           transform="translate(49.0068,22.0586)"><path
             d="m 0,0 c 0,-0.463 -0.292,-0.84 -0.648,-0.84 l -2.207,0 c -0.358,0 -0.648,0.377 -0.648,0.84 l 0,1.512 c 0,0.464 0.29,0.84 0.648,0.84 l 2.207,0 C -0.292,2.352 0,1.976 0,1.512 L 0,0 Z"
             style="fill:#30363d;fill-opacity:1;fill-rule:nonzero;stroke:none"
             id="path4256"
             inkscape:connector-curvature="0" /></g><g
           id="g4258"
           transform="translate(48.5371,22.417)"><path
             d="m 0,0 c 0,-0.395 -0.253,-0.717 -0.567,-0.717 l -1.934,0 c -0.312,0 -0.567,0.322 -0.567,0.717 l 0,1.288 c 0,0.398 0.255,0.72 0.567,0.72 l 1.934,0 C -0.253,2.008 0,1.686 0,1.288 L 0,0 Z"
             style="fill:#484f59;fill-opacity:1;fill-rule:nonzero;stroke:none"
             id="path4260"
             inkscape:connector-curvature="0" /></g><g
           id="g4262"
           transform="translate(54.292,21.9766)"><path
             d="m 0,0 c 0,-0.516 -0.322,-0.933 -0.719,-0.933 l -2.449,0 c -0.395,0 -0.717,0.417 -0.717,0.933 l 0,1.677 c 0,0.513 0.322,0.93 0.717,0.93 l 2.449,0 C -0.322,2.607 0,2.19 0,1.677 L 0,0 Z"
             style="fill:#282d33;fill-opacity:1;fill-rule:nonzero;stroke:none"
             id="path4264"
             inkscape:connector-curvature="0" /></g><g
           id="g4266"
           transform="translate(54.1006,22.0586)"><path
             d="m 0,0 c 0,-0.463 -0.291,-0.84 -0.65,-0.84 l -2.204,0 c -0.359,0 -0.648,0.377 -0.648,0.84 l 0,1.512 c 0,0.464 0.289,0.84 0.648,0.84 l 2.204,0 C -0.291,2.352 0,1.976 0,1.512 L 0,0 Z"
             style="fill:#30363d;fill-opacity:1;fill-rule:nonzero;stroke:none"
             id="path4268"
             inkscape:connector-curvature="0" /></g><g
           id="g4270"
           transform="translate(53.6318,22.417)"><path
             d="m 0,0 c 0,-0.395 -0.255,-0.717 -0.567,-0.717 l -1.935,0 c -0.312,0 -0.568,0.322 -0.568,0.717 l 0,1.288 c 0,0.398 0.256,0.72 0.568,0.72 l 1.935,0 C -0.255,2.008 0,1.686 0,1.288 L 0,0 Z"
             style="fill:#484f59;fill-opacity:1;fill-rule:nonzero;stroke:none"
             id="path4272"
             inkscape:connector-curvature="0" /></g><g
           id="g4274"
           transform="translate(59.3848,21.9766)"><path
             d="m 0,0 c 0,-0.516 -0.321,-0.933 -0.718,-0.933 l -2.447,0 c -0.398,0 -0.72,0.417 -0.72,0.933 l 0,1.677 c 0,0.513 0.322,0.93 0.72,0.93 l 2.447,0 C -0.321,2.607 0,2.19 0,1.677 L 0,0 Z"
             style="fill:#282d33;fill-opacity:1;fill-rule:nonzero;stroke:none"
             id="path4276"
             inkscape:connector-curvature="0" /></g><g
           id="g4278"
           transform="translate(59.1943,22.0586)"><path
             d="m 0,0 c 0,-0.463 -0.291,-0.84 -0.648,-0.84 l -2.206,0 c -0.357,0 -0.648,0.377 -0.648,0.84 l 0,1.512 c 0,0.464 0.291,0.84 0.648,0.84 l 2.206,0 C -0.291,2.352 0,1.976 0,1.512 L 0,0 Z"
             style="fill:#30363d;fill-opacity:1;fill-rule:nonzero;stroke:none"
             id="path4280"
             inkscape:connector-curvature="0" /></g><g
           id="g4282"
           transform="translate(58.7256,22.417)"><path
             d="m 0,0 c 0,-0.395 -0.254,-0.717 -0.568,-0.717 l -1.932,0 c -0.314,0 -0.569,0.322 -0.569,0.717 l 0,1.288 c 0,0.398 0.255,0.72 0.569,0.72 l 1.932,0 C -0.254,2.008 0,1.686 0,1.288 L 0,0 Z"
             style="fill:#484f59;fill-opacity:1;fill-rule:nonzero;stroke:none"
             id="path4284"
             inkscape:connector-curvature="0" /></g><g
           id="g4286"
           transform="translate(85.7686,34.7979)"><path
             d="m 0,0 c 0,-0.515 -0.322,-0.931 -0.721,-0.931 l -7.464,0 c -0.395,0 -0.718,0.416 -0.718,0.931 l 0,1.677 c 0,0.513 0.323,0.932 0.718,0.932 l 7.464,0 C -0.322,2.609 0,2.19 0,1.677 L 0,0 Z"
             style="fill:#282d33;fill-opacity:1;fill-rule:nonzero;stroke:none"
             id="path4288"
             inkscape:connector-curvature="0" /></g><g
           id="g4290"
           transform="translate(85.5771,34.8809)"><path
             d="m 0,0 c 0,-0.465 -0.291,-0.84 -0.65,-0.84 l -7.221,0 C -8.23,-0.84 -8.52,-0.465 -8.52,0 l 0,1.51 c 0,0.465 0.29,0.84 0.649,0.84 l 7.221,0 C -0.291,2.35 0,1.975 0,1.51 L 0,0 Z"
             style="fill:#30363d;fill-opacity:1;fill-rule:nonzero;stroke:none"
             id="path4292"
             inkscape:connector-curvature="0" /></g><g
           id="g4294"
           transform="translate(85.1084,35.2383)"><path
             d="m 0,0 c 0,-0.395 -0.254,-0.716 -0.566,-0.716 l -6.953,0 c -0.313,0 -0.569,0.321 -0.569,0.716 l 0,1.289 c 0,0.398 0.256,0.719 0.569,0.719 l 6.953,0 C -0.254,2.008 0,1.687 0,1.289 L 0,0 Z"
             style="fill:#484f59;fill-opacity:1;fill-rule:nonzero;stroke:none"
             id="path4296"
             inkscape:connector-curvature="0" /></g><g
           id="g4298"
           transform="translate(85.7686,22.0098)"><path
             d="m 0,0 c 0,-0.514 -0.322,-0.93 -0.721,-0.93 l -7.464,0 c -0.395,0 -0.718,0.416 -0.718,0.93 l 0,1.678 c 0,0.514 0.323,0.931 0.718,0.931 l 7.464,0 C -0.322,2.609 0,2.192 0,1.678 L 0,0 Z"
             style="fill:#282d33;fill-opacity:1;fill-rule:nonzero;stroke:none"
             id="path4300"
             inkscape:connector-curvature="0" /></g><g
           id="g4302"
           transform="translate(85.5771,22.0938)"><path
             d="m 0,0 c 0,-0.464 -0.291,-0.841 -0.65,-0.841 l -7.221,0 C -8.23,-0.841 -8.52,-0.464 -8.52,0 l 0,1.512 c 0,0.463 0.29,0.839 0.649,0.839 l 7.221,0 C -0.291,2.351 0,1.975 0,1.512 L 0,0 Z"
             style="fill:#30363d;fill-opacity:1;fill-rule:nonzero;stroke:none"
             id="path4304"
             inkscape:connector-curvature="0" /></g><g
           id="g4306"
           transform="translate(85.1084,22.4521)"><path
             d="m 0,0 c 0,-0.396 -0.254,-0.716 -0.566,-0.716 l -6.953,0 c -0.313,0 -0.569,0.32 -0.569,0.716 l 0,1.291 c 0,0.396 0.256,0.716 0.569,0.716 l 6.953,0 C -0.254,2.007 0,1.687 0,1.291 L 0,0 Z"
             style="fill:#484f59;fill-opacity:1;fill-rule:nonzero;stroke:none"
             id="path4308"
             inkscape:connector-curvature="0" /></g><g
           id="g4310"
           transform="translate(80.75,26.3184)"><path
             d="m 0,0 c 0,-0.515 -0.321,-0.934 -0.72,-0.934 l -2.446,0 c -0.396,0 -0.719,0.419 -0.719,0.934 l 0,5.883 c 0,0.514 0.323,0.931 0.719,0.931 l 2.446,0 C -0.321,6.814 0,6.397 0,5.883 L 0,0 Z"
             style="fill:#282d33;fill-opacity:1;fill-rule:nonzero;stroke:none"
             id="path4312"
             inkscape:connector-curvature="0" /></g><g
           id="g4314"
           transform="translate(80.5576,26.4014)"><path
             d="m 0,0 c 0,-0.465 -0.29,-0.841 -0.646,-0.841 l -2.206,0 C -3.211,-0.841 -3.5,-0.465 -3.5,0 l 0,5.717 c 0,0.464 0.289,0.84 0.648,0.84 l 2.206,0 C -0.29,6.557 0,6.181 0,5.717 L 0,0 Z"
             style="fill:#30363d;fill-opacity:1;fill-rule:nonzero;stroke:none"
             id="path4316"
             inkscape:connector-curvature="0" /></g><g
           id="g4318"
           transform="translate(80.0908,26.7598)"><path
             d="m 0,0 c 0,-0.396 -0.254,-0.717 -0.568,-0.717 l -1.933,0 c -0.313,0 -0.569,0.321 -0.569,0.717 l 0,5.495 c 0,0.397 0.256,0.717 0.569,0.717 l 1.933,0 C -0.254,6.212 0,5.892 0,5.495 L 0,0 Z"
             style="fill:#484f59;fill-opacity:1;fill-rule:nonzero;stroke:none"
             id="path4320"
             inkscape:connector-curvature="0" /></g><g
           id="g4322"
           transform="translate(85.8447,30.5234)"><path
             d="m 0,0 c 0,-0.516 -0.322,-0.931 -0.721,-0.931 l -2.445,0 c -0.397,0 -0.719,0.415 -0.719,0.931 l 0,1.678 c 0,0.514 0.322,0.931 0.719,0.931 l 2.445,0 C -0.322,2.609 0,2.192 0,1.678 L 0,0 Z"
             style="fill:#282d33;fill-opacity:1;fill-rule:nonzero;stroke:none"
             id="path4324"
             inkscape:connector-curvature="0" /></g><g
           id="g4326"
           transform="translate(85.6533,30.6064)"><path
             d="m 0,0 c 0,-0.463 -0.29,-0.839 -0.649,-0.839 l -2.205,0 c -0.357,0 -0.65,0.376 -0.65,0.839 l 0,1.512 c 0,0.464 0.293,0.84 0.65,0.84 l 2.205,0 C -0.29,2.352 0,1.976 0,1.512 L 0,0 Z"
             style="fill:#30363d;fill-opacity:1;fill-rule:nonzero;stroke:none"
             id="path4328"
             inkscape:connector-curvature="0" /></g><g
           id="g4330"
           transform="translate(85.1855,30.9648)"><path
             d="m 0,0 c 0,-0.396 -0.255,-0.717 -0.569,-0.717 l -1.932,0 c -0.314,0 -0.57,0.321 -0.57,0.717 l 0,1.29 c 0,0.397 0.256,0.717 0.57,0.717 l 1.932,0 C -0.255,2.007 0,1.687 0,1.29 L 0,0 Z"
             style="fill:#484f59;fill-opacity:1;fill-rule:nonzero;stroke:none"
             id="path4332"
             inkscape:connector-curvature="0" /></g><g
           id="g4334"
           transform="translate(85.8447,26.249)"><path
             d="m 0,0 c 0,-0.514 -0.322,-0.931 -0.721,-0.931 l -2.445,0 c -0.397,0 -0.719,0.417 -0.719,0.931 l 0,1.677 c 0,0.515 0.322,0.932 0.719,0.932 l 2.445,0 C -0.322,2.609 0,2.192 0,1.677 L 0,0 Z"
             style="fill:#282d33;fill-opacity:1;fill-rule:nonzero;stroke:none"
             id="path4336"
             inkscape:connector-curvature="0" /></g><g
           id="g4338"
           transform="translate(85.6533,26.333)"><path
             d="m 0,0 c 0,-0.464 -0.29,-0.84 -0.649,-0.84 l -2.205,0 c -0.357,0 -0.65,0.376 -0.65,0.84 l 0,1.511 c 0,0.465 0.293,0.84 0.65,0.84 l 2.205,0 C -0.29,2.351 0,1.976 0,1.511 L 0,0 Z"
             style="fill:#30363d;fill-opacity:1;fill-rule:nonzero;stroke:none"
             id="path4340"
             inkscape:connector-curvature="0" /></g><g
           id="g4342"
           transform="translate(85.1855,26.6914)"><path
             d="m 0,0 c 0,-0.396 -0.255,-0.717 -0.569,-0.717 l -1.932,0 c -0.314,0 -0.57,0.321 -0.57,0.717 l 0,1.29 c 0,0.396 0.256,0.716 0.57,0.716 l 1.932,0 C -0.255,2.006 0,1.686 0,1.29 L 0,0 Z"
             style="fill:#484f59;fill-opacity:1;fill-rule:nonzero;stroke:none"
             id="path4344"
             inkscape:connector-curvature="0" /></g><g
           id="g4346"
           transform="translate(61.9092,21.2637)"><path
             d="m 0,0 c 0,-0.195 -0.057,-0.354 -0.129,-0.354 -0.07,0 -0.127,0.159 -0.127,0.354 l 0,15.688 c 0,0.195 0.057,0.352 0.127,0.352 C -0.057,16.04 0,15.883 0,15.688 L 0,0 Z"
             style="fill:#30363d;fill-opacity:1;fill-rule:nonzero;stroke:none"
             id="path4348"
             inkscape:connector-curvature="0" /></g><g
           id="g4350"
           transform="translate(74.3369,21.2637)"><path
             d="m 0,0 c 0,-0.195 -0.057,-0.354 -0.127,-0.354 -0.07,0 -0.129,0.159 -0.129,0.354 l 0,15.688 c 0,0.195 0.059,0.352 0.129,0.352 C -0.057,16.04 0,15.883 0,15.688 L 0,0 Z"
             style="fill:#30363d;fill-opacity:1;fill-rule:nonzero;stroke:none"
             id="path4352"
             inkscape:connector-curvature="0" /></g><g
           id="g4354"
           transform="translate(72.7588,32.252)"><path
             d="m 0,0 c 0,-2.597 -2.107,-4.705 -4.707,-4.705 -2.598,0 -4.704,2.108 -4.704,4.705 0,2.6 2.106,4.706 4.704,4.706 C -2.107,4.706 0,2.6 0,0"
             style="fill:#282d33;fill-opacity:1;fill-rule:nonzero;stroke:none"
             id="path4356"
             inkscape:connector-curvature="0" /></g><g
           id="g4358"
           transform="translate(72.7588,32.4961)"><path
             d="m 0,0 c 0,-2.599 -2.107,-4.705 -4.707,-4.705 -2.598,0 -4.704,2.106 -4.704,4.705 0,2.598 2.106,4.705 4.704,4.705 C -2.107,4.705 0,2.598 0,0"
             style="fill:#30363d;fill-opacity:1;fill-rule:nonzero;stroke:none"
             id="path4360"
             inkscape:connector-curvature="0" /></g><g
           id="g4362"
           transform="translate(72.7588,32.4961)"><path
             d="m 0,0 c 0,-2.599 -2.107,-4.705 -4.707,-4.705 -2.598,0 -4.704,2.106 -4.704,4.705 0,2.598 2.106,4.705 4.704,4.705 C -2.107,4.705 0,2.598 0,0"
             style="fill:#30363d;fill-opacity:1;fill-rule:nonzero;stroke:none"
             id="path4364"
             inkscape:connector-curvature="0" /></g><g
           id="g4366"
           transform="translate(64.6826,29.2969)"><path
             d="M 0,0 0.135,-0.137 6.539,6.267 6.403,6.403 0,0 Z"
             style="fill:#282d33;fill-opacity:1;fill-rule:nonzero;stroke:none"
             id="path4368"
             inkscape:connector-curvature="0" /></g><g
           id="g4370"
           transform="translate(64.8174,35.6992)"><path
             d="M 0,0 -0.135,-0.136 6.269,-6.539 6.404,-6.402 0,0 Z"
             style="fill:#282d33;fill-opacity:1;fill-rule:nonzero;stroke:none"
             id="path4372"
             inkscape:connector-curvature="0" /></g><g
           id="g4374"
           transform="translate(63.6465,32.4463)"><path
             d="m 0,0 c 0,2.517 2.04,4.553 4.555,4.553 0.571,0 1.115,-0.108 1.618,-0.3 -0.551,0.248 -1.16,0.388 -1.805,0.388 -2.443,0 -4.424,-1.982 -4.424,-4.426 0,-0.384 0.054,-0.757 0.147,-1.112 C 0.032,-0.607 0,-0.308 0,0"
             style="fill:#484f59;fill-opacity:1;fill-rule:nonzero;stroke:none"
             id="path4376"
             inkscape:connector-curvature="0" /></g><g
           id="g4378"
           transform="translate(70.4268,32.4961)"><path
             d="m 0,0 c 0,-1.311 -1.064,-2.373 -2.375,-2.373 -1.311,0 -2.372,1.062 -2.372,2.373 0,1.31 1.061,2.373 2.372,2.373 C -1.064,2.373 0,1.31 0,0"
             style="fill:#484f59;fill-opacity:1;fill-rule:nonzero;stroke:none"
             id="path4380"
             inkscape:connector-curvature="0" /></g><g
           id="g4382"
           transform="translate(70.2939,32.4961)"><path
             d="m 0,0 c 0,-1.237 -1.004,-2.241 -2.242,-2.241 -1.237,0 -2.24,1.004 -2.24,2.241 0,1.237 1.003,2.241 2.24,2.241 C -1.004,2.241 0,1.237 0,0"
             style="fill:#282d33;fill-opacity:1;fill-rule:nonzero;stroke:none"
             id="path4384"
             inkscape:connector-curvature="0" /></g><g
           id="g4386"
           transform="translate(67.4404,23.7012)"><path
             d="m 0,0 c 0,-0.319 -0.238,-0.58 -0.529,-0.58 l -2.472,0 c -0.294,0 -0.53,0.261 -0.53,0.58 0,0.322 0.236,0.584 0.53,0.584 l 2.472,0 C -0.238,0.584 0,0.322 0,0"
             style="fill:#282d33;fill-opacity:1;fill-rule:nonzero;stroke:none"
             id="path4388"
             inkscape:connector-curvature="0" /></g><g
           id="g4390"
           transform="translate(67.4404,23.9512)"><path
             d="m 0,0 c 0,-0.32 -0.238,-0.582 -0.529,-0.582 l -2.472,0 c -0.294,0 -0.53,0.262 -0.53,0.582 0,0.321 0.236,0.582 0.53,0.582 l 2.472,0 C -0.238,0.582 0,0.321 0,0"
             style="fill:#30363d;fill-opacity:1;fill-rule:nonzero;stroke:none"
             id="path4392"
             inkscape:connector-curvature="0" /></g><g
           id="g4394"
           transform="translate(72.1953,23.7012)"><path
             d="m 0,0 c 0,-0.319 -0.237,-0.58 -0.528,-0.58 l -2.472,0 c -0.292,0 -0.528,0.261 -0.528,0.58 0,0.322 0.236,0.584 0.528,0.584 l 2.472,0 C -0.237,0.584 0,0.322 0,0"
             style="fill:#282d33;fill-opacity:1;fill-rule:nonzero;stroke:none"
             id="path4396"
             inkscape:connector-curvature="0" /></g><g
           id="g4398"
           transform="translate(72.1953,23.9512)"><path
             d="m 0,0 c 0,-0.32 -0.237,-0.582 -0.528,-0.582 l -2.472,0 c -0.292,0 -0.528,0.262 -0.528,0.582 0,0.321 0.236,0.582 0.528,0.582 l 2.472,0 C -0.237,0.582 0,0.321 0,0"
             style="fill:#30363d;fill-opacity:1;fill-rule:nonzero;stroke:none"
             id="path4400"
             inkscape:connector-curvature="0" /></g><g
           id="g4402"
           transform="translate(28.9092,15.249)"><path
             d="M 0,0 C 1.492,4.073 1.854,8.299 1.875,8.605 L 0.652,8.702 C 0.646,8.628 0.262,4.094 -1.314,0 L 0,0 Z"
             style="fill:#282d33;fill-opacity:1;fill-rule:nonzero;stroke:none"
             id="path4404"
             inkscape:connector-curvature="0" /></g><g
           id="g4406"
           transform="translate(28.585,15.5928)"><path
             d="M 0,0 C 1.309,3.39 1.759,6.932 1.866,7.983 L 1.254,8.029 C 1.139,6.989 0.662,3.369 -0.674,0 L 0,0 Z"
             style="fill:#30363d;fill-opacity:1;fill-rule:nonzero;stroke:none"
             id="path4408"
             inkscape:connector-curvature="0" /></g><g
           id="g4410"
           transform="translate(28.084,15.6621)"><path
             d="M 0,0 C 1.265,3.034 1.794,6.153 1.979,7.55 1.646,5.6 1.009,2.728 -0.12,0 L 0,0 Z"
             style="fill:#484f59;fill-opacity:1;fill-rule:nonzero;stroke:none"
             id="path4412"
             inkscape:connector-curvature="0" /></g></g></g></g></svg>