<?xml version="1.0" encoding="UTF-8" standalone="no"?>
<!-- Created with Inkscape (http://www.inkscape.org/) -->

<svg
   xmlns:dc="http://purl.org/dc/elements/1.1/"
   xmlns:cc="http://creativecommons.org/ns#"
   xmlns:rdf="http://www.w3.org/1999/02/22-rdf-syntax-ns#"
   xmlns:svg="http://www.w3.org/2000/svg"
   xmlns="http://www.w3.org/2000/svg"
   xmlns:sodipodi="http://sodipodi.sourceforge.net/DTD/sodipodi-0.dtd"
   xmlns:inkscape="http://www.inkscape.org/namespaces/inkscape"
   id="svg3925"
   version="1.1"
   inkscape:version="0.91 r13725"
   xml:space="preserve"
   width="142.23375"
   height="130.4375"
   viewBox="0 0 142.23375 130.4375"
   sodipodi:docname="good-proj-ban.svg"><metadata
     id="metadata3931"><rdf:RDF><cc:Work
         rdf:about=""><dc:format>image/svg+xml</dc:format><dc:type
           rdf:resource="http://purl.org/dc/dcmitype/StillImage" /><dc:title></dc:title></cc:Work></rdf:RDF></metadata><defs
     id="defs3929"><clipPath
       clipPathUnits="userSpaceOnUse"
       id="clipPath3939"><path
         d="m 0,104.35 113.787,0 L 113.787,0 0,0 0,104.35 Z"
         id="path3941"
         inkscape:connector-curvature="0" /></clipPath><clipPath
       clipPathUnits="userSpaceOnUse"
       id="clipPath3973"><path
         d="m 60.787,104.35 c -29.225,0 -53,-23.405 -53,-52.174 l 0,0 C 7.787,23.406 31.562,0 60.787,0 l 0,0 c 29.225,0 53,23.406 53,52.176 l 0,0 c 0,28.769 -23.775,52.174 -53,52.174 z"
         id="path3975"
         inkscape:connector-curvature="0" /></clipPath></defs><sodipodi:namedview
     pagecolor="#ffffff"
     bordercolor="#666666"
     borderopacity="1"
     objecttolerance="10"
     gridtolerance="10"
     guidetolerance="10"
     inkscape:pageopacity="0"
     inkscape:pageshadow="2"
     inkscape:window-width="640"
     inkscape:window-height="480"
     id="namedview3927"
     showgrid="false"
     inkscape:zoom="1.8092956"
     inkscape:cx="71.116875"
     inkscape:cy="65.21875"
     inkscape:window-x="0"
     inkscape:window-y="0"
     inkscape:window-maximized="0"
     inkscape:current-layer="g3933" /><g
     id="g3933"
     inkscape:groupmode="layer"
     inkscape:label="good-proj-ban"
     transform="matrix(1.25,0,0,-1.25,0,130.4375)"><g
       id="g3935"><g
         id="g3937"
         clip-path="url(#clipPath3939)"><g
           id="g3943"
           transform="translate(60.7871,0)"><path
             d="m 0,0 c -29.225,0 -53,23.406 -53,52.176 0,28.769 23.775,52.174 53,52.174 29.225,0 53,-23.405 53,-52.174 C 53,23.406 29.225,0 0,0"
             style="fill:#00c6da;fill-opacity:1;fill-rule:nonzero;stroke:none"
             id="path3945"
             inkscape:connector-curvature="0" /></g><path
           d="m 59.763,54.917 37.846,0 0,26.876 -37.846,0 0,-26.876 z"
           style="fill:#484f59;fill-opacity:1;fill-rule:nonzero;stroke:none"
           id="path3947"
           inkscape:connector-curvature="0" /><g
           id="g3949"
           transform="translate(83.4111,47.7871)"><path
             d="m 0,0 0,12.068 12.067,0 L 0,0 Z"
             style="fill:#484f59;fill-opacity:1;fill-rule:nonzero;stroke:none"
             id="path3951"
             inkscape:connector-curvature="0" /></g><path
           d="m 89.755,70.621 -23.636,0 0,2.298 23.636,0 0,-2.298 z"
           style="fill:#b7bec0;fill-opacity:1;fill-rule:nonzero;stroke:none"
           id="path3953"
           inkscape:connector-curvature="0" /><path
           d="m 89.755,64.49 -23.636,0 0,2.299 23.636,0 0,-2.299 z"
           style="fill:#b7bec0;fill-opacity:1;fill-rule:nonzero;stroke:none"
           id="path3955"
           inkscape:connector-curvature="0" /><path
           d="m 73.108,61.396 -51,0 0,36.217 51,0 0,-36.217 z"
           style="fill:#e5e8ec;fill-opacity:1;fill-rule:nonzero;stroke:none"
           id="path3957"
           inkscape:connector-curvature="0" /><g
           id="g3959"
           transform="translate(41.2393,51.7871)"><path
             d="m 0,0 0,16.261 -16.26,0 L 0,0 Z"
             style="fill:#e5e8ec;fill-opacity:1;fill-rule:nonzero;stroke:none"
             id="path3961"
             inkscape:connector-curvature="0" /></g><path
           d="m 64.978,84.309 -34.739,0 0,2.217 34.739,0 0,-2.217 z"
           style="fill:#b7bec0;fill-opacity:1;fill-rule:nonzero;stroke:none"
           id="path3963"
           inkscape:connector-curvature="0" /><path
           d="m 64.978,78.396 -34.739,0 0,2.217 34.739,0 0,-2.217 z"
           style="fill:#b7bec0;fill-opacity:1;fill-rule:nonzero;stroke:none"
           id="path3965"
           inkscape:connector-curvature="0" /><path
           d="m 64.978,72.482 -34.739,0 0,2.217 34.739,0 0,-2.217 z"
           style="fill:#b7bec0;fill-opacity:1;fill-rule:nonzero;stroke:none"
           id="path3967"
           inkscape:connector-curvature="0" /></g></g><g
       id="g3969"><g
         id="g3971"
         clip-path="url(#clipPath3973)"><g
           id="g3977"
           transform="translate(59.0322,36.3193)"><path
             d="m 0,0 0.594,7.137 c 0.676,0.676 -2.108,4.873 -1.979,5.75 L -5.738,6.753 -12.117,0 0,0 Z"
             style="fill:#f4da80;fill-opacity:1;fill-rule:nonzero;stroke:none"
             id="path3979"
             inkscape:connector-curvature="0" /></g><g
           id="g3981"
           transform="translate(59.0322,36.6719)"><path
             d="m 0,0 1.754,6.203 0,4.783 c 0,2.349 -1.902,4.252 -4.252,4.252 l -1.416,0 c -0.059,0 -0.115,-0.006 -0.176,-0.009 l 0,-9.383 L 0,0 Z"
             style="fill:#f4da80;fill-opacity:1;fill-rule:nonzero;stroke:none"
             id="path3983"
             inkscape:connector-curvature="0" /></g><g
           id="g3985"
           transform="translate(0,14.5527)"><path
             d="m 0,0 54.794,0 c 2.803,0 5.076,2.268 5.076,5.073 l 0,8.245 c 0,2.802 -2.273,5.076 -5.076,5.076 L 0,18.394 0,0 Z"
             style="fill:#f4da80;fill-opacity:1;fill-rule:nonzero;stroke:none"
             id="path3987"
             inkscape:connector-curvature="0" /></g><path
           d="m 2.136,35.998 42.514,0 0,-25.021 -42.514,0 0,25.021 z"
           style="fill:#e5e8ec;fill-opacity:1;fill-rule:nonzero;stroke:none"
           id="path3989"
           inkscape:connector-curvature="0" /><path
           d="m 44.649,23.474 -43.282,0 0,-12.497 43.282,0 0,12.497 z"
           style="fill:#cdd5d7;fill-opacity:1;fill-rule:nonzero;stroke:none"
           id="path3991"
           inkscape:connector-curvature="0" /><path
           d="m 41.136,23.474 -41,0 0,-13.441 41,0 0,13.441 z"
           style="fill:#30363d;fill-opacity:1;fill-rule:nonzero;stroke:none"
           id="path3993"
           inkscape:connector-curvature="0" /><path
           d="m 41.136,36.941 -41,0 0,-13.46 41,0 0,13.46 z"
           style="fill:#484f59;fill-opacity:1;fill-rule:nonzero;stroke:none"
           id="path3995"
           inkscape:connector-curvature="0" /><g
           id="g3997"
           transform="translate(38.6279,14.4795)"><path
             d="m 0,0 c 0,-0.86 -0.697,-1.558 -1.559,-1.558 -0.861,0 -1.558,0.698 -1.558,1.558 0,0.86 0.697,1.56 1.558,1.56 C -0.697,1.56 0,0.86 0,0"
             style="fill:#cdd5d7;fill-opacity:1;fill-rule:nonzero;stroke:none"
             id="path3999"
             inkscape:connector-curvature="0" /></g><g
           id="g4001"
           transform="translate(76.7451,31.4922)"><path
             d="m 0,0 -4.591,0 c -0.018,0.476 -0.083,0.94 -0.184,1.389 l 4.871,0 c 1.59,0 2.881,1.287 2.881,2.879 0,1.588 -1.291,2.878 -2.881,2.878 l -11.825,0 c -0.109,0.006 -0.216,0.017 -0.324,0.017 l -12.156,0 c -4.131,0 -7.482,-3.349 -7.48,-7.478 l 0,-12.158 c -0.002,-4.13 3.349,-7.481 7.48,-7.481 l 5,0 7.156,0 6.424,0 c 1.59,0 2.879,1.292 2.879,2.883 0,1.303 -0.875,2.393 -2.066,2.746 0.119,0.458 0.191,0.932 0.22,1.419 l 1.975,0 c 1.589,0 2.88,1.29 2.88,2.882 0,1.588 -1.291,2.878 -2.88,2.878 l -1.953,0 0,1.386 4.574,0 c 1.59,0 2.879,1.292 2.879,2.88 C 2.879,-1.29 1.59,0 0,0"
             style="fill:#f4da80;fill-opacity:1;fill-rule:nonzero;stroke:none"
             id="path4003"
             inkscape:connector-curvature="0" /></g></g></g></g></svg>