<?xml version="1.0" encoding="UTF-8" standalone="no"?>
<!-- Created with Inkscape (http://www.inkscape.org/) -->

<svg
   xmlns:dc="http://purl.org/dc/elements/1.1/"
   xmlns:cc="http://creativecommons.org/ns#"
   xmlns:rdf="http://www.w3.org/1999/02/22-rdf-syntax-ns#"
   xmlns:svg="http://www.w3.org/2000/svg"
   xmlns="http://www.w3.org/2000/svg"
   xmlns:sodipodi="http://sodipodi.sourceforge.net/DTD/sodipodi-0.dtd"
   xmlns:inkscape="http://www.inkscape.org/namespaces/inkscape"
   id="svg3462"
   version="1.1"
   inkscape:version="0.91 r13725"
   xml:space="preserve"
   width="132.5"
   height="130.48"
   viewBox="0 0 132.5 130.48"
   sodipodi:docname="home.svg"><metadata
     id="metadata3468"><rdf:RDF><cc:Work
         rdf:about=""><dc:format>image/svg+xml</dc:format><dc:type
           rdf:resource="http://purl.org/dc/dcmitype/StillImage" /><dc:title></dc:title></cc:Work></rdf:RDF></metadata><defs
     id="defs3466"><clipPath
       clipPathUnits="userSpaceOnUse"
       id="clipPath3476"><path
         d="m 0,104.384 106,0 L 106,0 0,0 0,104.384 Z"
         id="path3478"
         inkscape:connector-curvature="0" /></clipPath></defs><sodipodi:namedview
     pagecolor="#ffffff"
     bordercolor="#666666"
     borderopacity="1"
     objecttolerance="10"
     gridtolerance="10"
     guidetolerance="10"
     inkscape:pageopacity="0"
     inkscape:pageshadow="2"
     inkscape:window-width="640"
     inkscape:window-height="480"
     id="namedview3464"
     showgrid="false"
     inkscape:zoom="1.8087064"
     inkscape:cx="66.25"
     inkscape:cy="65.239998"
     inkscape:window-x="0"
     inkscape:window-y="0"
     inkscape:window-maximized="0"
     inkscape:current-layer="g3470" /><g
     id="g3470"
     inkscape:groupmode="layer"
     inkscape:label="home"
     transform="matrix(1.25,0,0,-1.25,0,130.48)"><g
       id="g3472"><g
         id="g3474"
         clip-path="url(#clipPath3476)"><g
           id="g3480"
           transform="translate(53,0.0342)"><path
             d="m 0,0 c -29.224,0 -53,23.406 -53,52.175 0,28.77 23.776,52.175 53,52.175 29.226,0 53,-23.405 53,-52.175 C 53,23.406 29.226,0 0,0"
             style="fill:#01bacc;fill-opacity:1;fill-rule:nonzero;stroke:none"
             id="path3482"
             inkscape:connector-curvature="0" /></g><path
           d="M 81.991,0 25.1,0 l 0,66.541 56.891,0 0,-66.541 z"
           style="fill:#cdd5d7;fill-opacity:1;fill-rule:nonzero;stroke:none"
           id="path3484"
           inkscape:connector-curvature="0" /><path
           d="m 76.366,0 -12.12,0 0,26.589 12.12,0 0,-26.589 z"
           style="fill:#b7bec0;fill-opacity:1;fill-rule:nonzero;stroke:none"
           id="path3486"
           inkscape:connector-curvature="0" /><path
           d="m 78.737,0 -16.858,0 0,4.094 16.858,0 0,-4.094 z"
           style="fill:#e6e6e6;fill-opacity:1;fill-rule:nonzero;stroke:none"
           id="path3488"
           inkscape:connector-curvature="0" /><path
           d="m 81.991,28.709 -56.891,0 0,6.266 56.891,0 0,-6.266 z"
           style="fill:#b7bec0;fill-opacity:1;fill-rule:nonzero;stroke:none"
           id="path3490"
           inkscape:connector-curvature="0" /><path
           d="m 81.991,36.401 -56.891,0 0,-1.426 56.891,0 0,1.426 z"
           style="fill:#e6e6e6;fill-opacity:1;fill-rule:nonzero;stroke:none"
           id="path3492"
           inkscape:connector-curvature="0" /><path
           d="m 81.991,61.265 -56.891,0 0,4.781 56.891,0 0,-4.781 z"
           style="fill:#b7bec0;fill-opacity:1;fill-rule:nonzero;stroke:none"
           id="path3494"
           inkscape:connector-curvature="0" /><path
           d="m 82.491,31.709 -57.89,0 0,4.254 57.89,0 0,-4.254 z"
           style="fill:#cdd5d7;fill-opacity:1;fill-rule:nonzero;stroke:none"
           id="path3496"
           inkscape:connector-curvature="0" /><path
           d="m 34.744,50.682 -3.553,0 0,8.291 3.553,0 0,-8.291 z"
           style="fill:#f7f8fc;fill-opacity:1;fill-rule:nonzero;stroke:none"
           id="path3498"
           inkscape:connector-curvature="0" /><path
           d="m 39.87,50.682 -3.55,0 0,8.291 3.55,0 0,-8.291 z"
           style="fill:#f7f8fc;fill-opacity:1;fill-rule:nonzero;stroke:none"
           id="path3500"
           inkscape:connector-curvature="0" /><path
           d="m 34.744,40.227 -3.553,0 0,8.285 3.553,0 0,-8.285 z"
           style="fill:#f7f8fc;fill-opacity:1;fill-rule:nonzero;stroke:none"
           id="path3502"
           inkscape:connector-curvature="0" /><path
           d="m 39.87,40.227 -3.55,0 0,8.285 3.55,0 0,-8.285 z"
           style="fill:#f7f8fc;fill-opacity:1;fill-rule:nonzero;stroke:none"
           id="path3504"
           inkscape:connector-curvature="0" /><path
           d="m 52.105,50.682 -3.551,0 0,8.291 3.551,0 0,-8.291 z"
           style="fill:#f7f8fc;fill-opacity:1;fill-rule:nonzero;stroke:none"
           id="path3506"
           inkscape:connector-curvature="0" /><path
           d="m 57.237,50.682 -3.552,0 0,8.291 3.552,0 0,-8.291 z"
           style="fill:#f7f8fc;fill-opacity:1;fill-rule:nonzero;stroke:none"
           id="path3508"
           inkscape:connector-curvature="0" /><path
           d="m 52.105,40.227 -3.551,0 0,8.285 3.551,0 0,-8.285 z"
           style="fill:#f7f8fc;fill-opacity:1;fill-rule:nonzero;stroke:none"
           id="path3510"
           inkscape:connector-curvature="0" /><path
           d="m 57.237,40.227 -3.552,0 0,8.285 3.552,0 0,-8.285 z"
           style="fill:#f7f8fc;fill-opacity:1;fill-rule:nonzero;stroke:none"
           id="path3512"
           inkscape:connector-curvature="0" /><path
           d="m 69.469,50.682 -3.553,0 0,8.291 3.553,0 0,-8.291 z"
           style="fill:#f7f8fc;fill-opacity:1;fill-rule:nonzero;stroke:none"
           id="path3514"
           inkscape:connector-curvature="0" /><path
           d="m 74.598,50.682 -3.551,0 0,8.291 3.551,0 0,-8.291 z"
           style="fill:#f7f8fc;fill-opacity:1;fill-rule:nonzero;stroke:none"
           id="path3516"
           inkscape:connector-curvature="0" /><path
           d="m 69.469,40.227 -3.553,0 0,8.285 3.553,0 0,-8.285 z"
           style="fill:#f7f8fc;fill-opacity:1;fill-rule:nonzero;stroke:none"
           id="path3518"
           inkscape:connector-curvature="0" /><path
           d="m 74.598,40.227 -3.551,0 0,8.285 3.551,0 0,-8.285 z"
           style="fill:#f7f8fc;fill-opacity:1;fill-rule:nonzero;stroke:none"
           id="path3520"
           inkscape:connector-curvature="0" /><path
           d="m 34.744,17.93 -3.553,0 0,8.288 3.553,0 0,-8.288 z"
           style="fill:#f7f8fc;fill-opacity:1;fill-rule:nonzero;stroke:none"
           id="path3522"
           inkscape:connector-curvature="0" /><path
           d="m 39.87,17.93 -3.55,0 0,8.288 3.55,0 0,-8.288 z"
           style="fill:#f7f8fc;fill-opacity:1;fill-rule:nonzero;stroke:none"
           id="path3524"
           inkscape:connector-curvature="0" /><path
           d="m 34.744,7.475 -3.553,0 0,8.283 3.553,0 0,-8.283 z"
           style="fill:#f7f8fc;fill-opacity:1;fill-rule:nonzero;stroke:none"
           id="path3526"
           inkscape:connector-curvature="0" /><path
           d="m 39.87,7.475 -3.55,0 0,8.283 3.55,0 0,-8.283 z"
           style="fill:#f7f8fc;fill-opacity:1;fill-rule:nonzero;stroke:none"
           id="path3528"
           inkscape:connector-curvature="0" /><path
           d="m 52.105,17.93 -3.551,0 0,8.288 3.551,0 0,-8.288 z"
           style="fill:#f7f8fc;fill-opacity:1;fill-rule:nonzero;stroke:none"
           id="path3530"
           inkscape:connector-curvature="0" /><path
           d="m 57.237,17.93 -3.552,0 0,8.288 3.552,0 0,-8.288 z"
           style="fill:#f7f8fc;fill-opacity:1;fill-rule:nonzero;stroke:none"
           id="path3532"
           inkscape:connector-curvature="0" /><path
           d="m 52.105,7.475 -3.551,0 0,8.283 3.551,0 0,-8.283 z"
           style="fill:#f7f8fc;fill-opacity:1;fill-rule:nonzero;stroke:none"
           id="path3534"
           inkscape:connector-curvature="0" /><path
           d="m 57.237,7.475 -3.552,0 0,8.283 3.552,0 0,-8.283 z"
           style="fill:#f7f8fc;fill-opacity:1;fill-rule:nonzero;stroke:none"
           id="path3536"
           inkscape:connector-curvature="0" /><g
           id="g3538"
           transform="translate(73.8525,85.8062)"><path
             d="m 0,0 -9.837,0 -4.161,0 -13.228,0 -5.049,0 -8.95,0 -7.001,-17.466 4.735,0 22.492,0 0.772,0 21.603,0 5.626,0 L 0,0 Z"
             style="fill:#ff876c;fill-opacity:1;fill-rule:nonzero;stroke:none"
             id="path3540"
             inkscape:connector-curvature="0" /></g><path
           d="m 82.491,64.267 -57.89,0 0,4.256 57.89,0 0,-4.256 z"
           style="fill:#cdd5d7;fill-opacity:1;fill-rule:nonzero;stroke:none"
           id="path3542"
           inkscape:connector-curvature="0" /><g
           id="g3544"
           transform="translate(14.0273,17.3027)"><path
             d="m 0,0 c 4.223,-4.22 11.065,-4.22 15.291,0 4.22,4.224 4.22,11.071 0,15.289 C 11.065,19.515 4.223,19.515 0,15.292 -4.222,11.071 -4.222,4.224 0,0"
             style="fill:#82cf8f;fill-opacity:1;fill-rule:nonzero;stroke:none"
             id="path3546"
             inkscape:connector-curvature="0" /></g><g
           id="g3548"
           transform="translate(20.5557,17.1543)"><path
             d="M 0,0 C -1.922,-0.043 -3.701,1.179 -4.3,3.078 -2.381,3.12 -0.602,1.898 0,0"
             style="fill:#afd7a6;fill-opacity:1;fill-rule:nonzero;stroke:none"
             id="path3550"
             inkscape:connector-curvature="0" /></g><g
           id="g3552"
           transform="translate(23.6133,24.9063)"><path
             d="M 0,0 C 2.024,1.644 4.957,1.812 7.18,0.27 5.152,-1.37 2.227,-1.538 0,0"
             style="fill:#afd7a6;fill-opacity:1;fill-rule:nonzero;stroke:none"
             id="path3554"
             inkscape:connector-curvature="0" /></g><g
           id="g3556"
           transform="translate(23.8945,27.4175)"><path
             d="M 0,0 C -1.64,2.024 -1.808,4.954 -0.268,7.176 1.369,5.153 1.537,2.223 0,0"
             style="fill:#afd7a6;fill-opacity:1;fill-rule:nonzero;stroke:none"
             id="path3558"
             inkscape:connector-curvature="0" /></g><g
           id="g3560"
           transform="translate(18.2661,24.1416)"><path
             d="M 0,0 C -1.138,1.401 -1.252,3.432 -0.189,4.975 0.949,3.572 1.064,1.541 0,0"
             style="fill:#afd7a6;fill-opacity:1;fill-rule:nonzero;stroke:none"
             id="path3562"
             inkscape:connector-curvature="0" /></g><g
           id="g3564"
           transform="translate(13.1357,28.1743)"><path
             d="M 0,0 C 0.055,-1.568 1.205,-2.551 2.743,-2.481 2.691,-0.918 1.542,0.065 0,0"
             style="fill:#afd7a6;fill-opacity:1;fill-rule:nonzero;stroke:none"
             id="path3566"
             inkscape:connector-curvature="0" /></g><g
           id="g3568"
           transform="translate(28.8564,30.9927)"><path
             d="M 0,0 C -1.566,-0.054 -2.551,-1.204 -2.482,-2.744 -0.921,-2.69 0.062,-1.543 0,0"
             style="fill:#7ac286;fill-opacity:1;fill-rule:nonzero;stroke:none"
             id="path3570"
             inkscape:connector-curvature="0" /></g><g
           id="g3572"
           transform="translate(16.9609,23.6992)"><path
             d="M 0,0 C -1.401,-1.14 -3.431,-1.258 -4.975,-0.187 -3.569,0.948 -1.537,1.064 0,0"
             style="fill:#7ac286;fill-opacity:1;fill-rule:nonzero;stroke:none"
             id="path3574"
             inkscape:connector-curvature="0" /></g><g
           id="g3576"
           transform="translate(21.8149,27.5264)"><path
             d="m 0,0 -0.299,-12.575 -0.299,-12.58 0.598,0 0.599,0.001 -0.3,12.579 L 0,0 Z"
             style="fill:#cdd5d7;fill-opacity:1;fill-rule:nonzero;stroke:none"
             id="path3578"
             inkscape:connector-curvature="0" /></g><g
           id="g3580"
           transform="translate(17.4863,24.0649)"><path
             d="M 0,0 2.093,-2.207 4.186,-4.42 4.3,-4.307 4.414,-4.19 2.205,-2.095 0,0 Z"
             style="fill:#cdd5d7;fill-opacity:1;fill-rule:nonzero;stroke:none"
             id="path3582"
             inkscape:connector-curvature="0" /></g><g
           id="g3584"
           transform="translate(27.4297,22.5361)"><path
             d="m 0,0 -2.884,-2.682 -2.881,-2.68 0.2,-0.199 0.207,-0.204 2.679,2.885 L 0,0 Z"
             style="fill:#cdd5d7;fill-opacity:1;fill-rule:nonzero;stroke:none"
             id="path3586"
             inkscape:connector-curvature="0" /></g><g
           id="g3588"
           transform="translate(24.9648,26.8545)"><path
             d="m 0,0 -1.591,-1.537 -1.592,-1.537 0.055,-0.058 0.055,-0.057 1.537,1.596 L 0,0 Z"
             style="fill:#cdd5d7;fill-opacity:1;fill-rule:nonzero;stroke:none"
             id="path3590"
             inkscape:connector-curvature="0" /></g><g
           id="g3592"
           transform="translate(43.4893,0.3027)"><path
             d="m 0,0 c 0.013,0.092 0.022,0.185 0.022,0.279 0,1.074 -0.872,1.945 -1.945,1.945 -0.135,0 -0.269,-0.014 -0.395,-0.042 -0.362,0.772 -0.951,1.412 -1.683,1.838 -0.671,1.399 -2.098,2.369 -3.756,2.369 -1.469,0 -2.757,-0.758 -3.498,-1.905 -0.555,0.576 -1.334,0.933 -2.195,0.933 -1.123,0 -2.1,-0.604 -2.632,-1.506 -0.766,0.922 -1.916,1.506 -3.205,1.506 -1.549,0 -2.9,-0.846 -3.617,-2.104 -1.828,-0.184 -3.3,-1.547 -3.66,-3.313 L 0,0 Z"
             style="fill:#82cf8f;fill-opacity:1;fill-rule:nonzero;stroke:none"
             id="path3594"
             inkscape:connector-curvature="0" /></g></g></g></g></svg>