<?xml version="1.0" encoding="UTF-8" standalone="no"?>
<!-- Created with Inkscape (http://www.inkscape.org/) -->

<svg
   xmlns:dc="http://purl.org/dc/elements/1.1/"
   xmlns:cc="http://creativecommons.org/ns#"
   xmlns:rdf="http://www.w3.org/1999/02/22-rdf-syntax-ns#"
   xmlns:svg="http://www.w3.org/2000/svg"
   xmlns="http://www.w3.org/2000/svg"
   xmlns:sodipodi="http://sodipodi.sourceforge.net/DTD/sodipodi-0.dtd"
   xmlns:inkscape="http://www.inkscape.org/namespaces/inkscape"
   id="svg3596"
   version="1.1"
   inkscape:version="0.91 r13725"
   xml:space="preserve"
   width="167.57001"
   height="130.4375"
   viewBox="0 0 167.57001 130.4375"
   sodipodi:docname="key.svg"><metadata
     id="metadata3602"><rdf:RDF><cc:Work
         rdf:about=""><dc:format>image/svg+xml</dc:format><dc:type
           rdf:resource="http://purl.org/dc/dcmitype/StillImage" /><dc:title></dc:title></cc:Work></rdf:RDF></metadata><defs
     id="defs3600"><clipPath
       clipPathUnits="userSpaceOnUse"
       id="clipPath3610"><path
         d="m 0,104.35 134.056,0 L 134.056,0 0,0 0,104.35 Z"
         id="path3612"
         inkscape:connector-curvature="0" /></clipPath><clipPath
       clipPathUnits="userSpaceOnUse"
       id="clipPath3622"><path
         d="M 62.856,104.35 C 33.632,104.35 9.857,80.944 9.857,52.175 l 0,0 C 9.857,23.405 33.632,0 62.856,0 l 0,0 c 29.225,0 53,23.405 53,52.175 l 0,0 c 0,28.769 -23.775,52.175 -53,52.175 z"
         id="path3624"
         inkscape:connector-curvature="0" /></clipPath><clipPath
       clipPathUnits="userSpaceOnUse"
       id="clipPath3682"><path
         d="m 0,104.35 134.056,0 L 134.056,0 0,0 0,104.35 Z"
         id="path3684"
         inkscape:connector-curvature="0" /></clipPath></defs><sodipodi:namedview
     pagecolor="#ffffff"
     bordercolor="#666666"
     borderopacity="1"
     objecttolerance="10"
     gridtolerance="10"
     guidetolerance="10"
     inkscape:pageopacity="0"
     inkscape:pageshadow="2"
     inkscape:window-width="640"
     inkscape:window-height="480"
     id="namedview3598"
     showgrid="false"
     inkscape:zoom="1.8092956"
     inkscape:cx="83.785004"
     inkscape:cy="65.21875"
     inkscape:window-x="0"
     inkscape:window-y="0"
     inkscape:window-maximized="0"
     inkscape:current-layer="g3604" /><g
     id="g3604"
     inkscape:groupmode="layer"
     inkscape:label="key"
     transform="matrix(1.25,0,0,-1.25,0,130.4375)"><g
       id="g3606"><g
         id="g3608"
         clip-path="url(#clipPath3610)"><g
           id="g3614"
           transform="translate(62.8564,0)"><path
             d="m 0,0 c -29.225,0 -53,23.405 -53,52.175 0,28.769 23.775,52.175 53,52.175 29.225,0 53,-23.406 53,-52.175 C 53,23.405 29.225,0 0,0"
             style="fill:#ee434b;fill-opacity:1;fill-rule:nonzero;stroke:none"
             id="path3616"
             inkscape:connector-curvature="0" /></g></g></g><g
       id="g3618"><g
         id="g3620"
         clip-path="url(#clipPath3622)"><path
           d="m 134.056,20.303 -85.166,0 0,63.976 85.166,0 0,-63.976 z"
           style="fill:#e5e8ec;fill-opacity:1;fill-rule:nonzero;stroke:none"
           id="path3626"
           inkscape:connector-curvature="0" /><path
           d="m 134.056,78.167 -85.166,0 0,6.112 85.166,0 0,-6.112 z"
           style="fill:#cdd5d7;fill-opacity:1;fill-rule:nonzero;stroke:none"
           id="path3628"
           inkscape:connector-curvature="0" /><path
           d="m 130.39,79.694 -50.529,0 0,3.056 50.529,0 0,-3.056 z"
           style="fill:#ffffff;fill-opacity:1;fill-rule:nonzero;stroke:none"
           id="path3630"
           inkscape:connector-curvature="0" /><g
           id="g3632"
           transform="translate(53.3721,81.2227)"><path
             d="m 0,0 c 0,-0.674 -0.547,-1.223 -1.223,-1.223 -0.675,0 -1.222,0.549 -1.222,1.223 0,0.677 0.547,1.222 1.222,1.222 C -0.547,1.222 0,0.677 0,0"
             style="fill:#424953;fill-opacity:1;fill-rule:nonzero;stroke:none"
             id="path3634"
             inkscape:connector-curvature="0" /></g><g
           id="g3636"
           transform="translate(57.2432,81.2227)"><path
             d="m 0,0 c 0,-0.674 -0.548,-1.223 -1.223,-1.223 -0.673,0 -1.22,0.549 -1.22,1.223 0,0.677 0.547,1.222 1.22,1.222 C -0.548,1.222 0,0.677 0,0"
             style="fill:#ff876c;fill-opacity:1;fill-rule:nonzero;stroke:none"
             id="path3638"
             inkscape:connector-curvature="0" /></g><g
           id="g3640"
           transform="translate(61.1143,81.2227)"><path
             d="m 0,0 c 0,-0.674 -0.547,-1.223 -1.223,-1.223 -0.673,0 -1.222,0.549 -1.222,1.223 0,0.677 0.549,1.222 1.222,1.222 C -0.547,1.222 0,0.677 0,0"
             style="fill:#01bacc;fill-opacity:1;fill-rule:nonzero;stroke:none"
             id="path3642"
             inkscape:connector-curvature="0" /></g><path
           d="m 126.853,20.803 -70.277,0 0,49.392 70.277,0 0,-49.392 z"
           style="fill:#f7f8fc;fill-opacity:1;fill-rule:nonzero;stroke:none"
           id="path3644"
           inkscape:connector-curvature="0" /><g
           id="g3646"
           transform="translate(74.5049,56.3027)"><path
             d="m 0,0 c 0,-2.854 -2.314,-5.167 -5.168,-5.167 -2.853,0 -5.166,2.313 -5.166,5.167 0,2.854 2.313,5.166 5.166,5.166 C -2.314,5.166 0,2.854 0,0"
             style="fill:#b7bec0;fill-opacity:1;fill-rule:nonzero;stroke:none"
             id="path3648"
             inkscape:connector-curvature="0" /></g><g
           id="g3650"
           transform="translate(65.5166,39.1353)"><path
             d="m 0,0 3.82,0 3.821,0 -1.505,16.333 -4.632,0 L 0,0 Z"
             style="fill:#b7bec0;fill-opacity:1;fill-rule:nonzero;stroke:none"
             id="path3652"
             inkscape:connector-curvature="0" /></g><path
           d="m 106.921,57.875 -29,0 0,2.234 29,0 0,-2.234 z"
           style="fill:#cdd5d7;fill-opacity:1;fill-rule:nonzero;stroke:none"
           id="path3654"
           inkscape:connector-curvature="0" /><path
           d="m 86.099,48.868 -8.178,0 0,0.917 8.178,0 0,-0.917 z"
           style="fill:#cdd5d7;fill-opacity:1;fill-rule:nonzero;stroke:none"
           id="path3656"
           inkscape:connector-curvature="0" /><path
           d="m 117.243,44.504 -39.322,0 0,0.917 39.322,0 0,-0.917 z"
           style="fill:#cdd5d7;fill-opacity:1;fill-rule:nonzero;stroke:none"
           id="path3658"
           inkscape:connector-curvature="0" /><path
           d="m 118.568,42.332 -40.647,0 0,0.918 40.647,0 0,-0.918 z"
           style="fill:#cdd5d7;fill-opacity:1;fill-rule:nonzero;stroke:none"
           id="path3660"
           inkscape:connector-curvature="0" /><path
           d="m 91.163,40.161 -13.242,0 0,0.917 13.242,0 0,-0.917 z"
           style="fill:#cdd5d7;fill-opacity:1;fill-rule:nonzero;stroke:none"
           id="path3662"
           inkscape:connector-curvature="0" /><path
           d="m 118.568,34.976 -53.044,0 0,0.916 53.044,0 0,-0.916 z"
           style="fill:#cdd5d7;fill-opacity:1;fill-rule:nonzero;stroke:none"
           id="path3664"
           inkscape:connector-curvature="0" /><path
           d="m 118.568,32.803 -53.044,0 0,0.916 53.044,0 0,-0.916 z"
           style="fill:#cdd5d7;fill-opacity:1;fill-rule:nonzero;stroke:none"
           id="path3666"
           inkscape:connector-curvature="0" /><path
           d="m 116.802,30.63 -51.277,0 0,0.917 51.277,0 0,-0.917 z"
           style="fill:#cdd5d7;fill-opacity:1;fill-rule:nonzero;stroke:none"
           id="path3668"
           inkscape:connector-curvature="0" /><path
           d="m 118.128,28.458 -52.604,0 0,0.917 52.604,0 0,-0.917 z"
           style="fill:#cdd5d7;fill-opacity:1;fill-rule:nonzero;stroke:none"
           id="path3670"
           inkscape:connector-curvature="0" /><path
           d="m 83.87,26.287 -18.346,0 0,0.918 18.346,0 0,-0.918 z"
           style="fill:#cdd5d7;fill-opacity:1;fill-rule:nonzero;stroke:none"
           id="path3672"
           inkscape:connector-curvature="0" /><path
           d="m 118.568,53.212 -40.647,0 0,0.916 40.647,0 0,-0.916 z"
           style="fill:#cdd5d7;fill-opacity:1;fill-rule:nonzero;stroke:none"
           id="path3674"
           inkscape:connector-curvature="0" /><path
           d="m 109.56,51.041 -31.639,0 0,0.917 31.639,0 0,-0.917 z"
           style="fill:#cdd5d7;fill-opacity:1;fill-rule:nonzero;stroke:none"
           id="path3676"
           inkscape:connector-curvature="0" /></g></g><g
       id="g3678"><g
         id="g3680"
         clip-path="url(#clipPath3682)"><path
           d="m 48.477,41.975 -5.834,0 0,16.405 5.834,0 0,-16.405 z"
           style="fill:#f3b840;fill-opacity:1;fill-rule:nonzero;stroke:none"
           id="path3686"
           inkscape:connector-curvature="0" /><path
           d="m 61.057,52.547 -40.455,0 0,5.833 40.455,0 0,-5.833 z"
           style="fill:#f3b840;fill-opacity:1;fill-rule:nonzero;stroke:none"
           id="path3688"
           inkscape:connector-curvature="0" /><path
           d="m 58.319,45.984 -12.761,0 0,11.21 12.761,0 0,-11.21 z"
           style="fill:#f3b840;fill-opacity:1;fill-rule:nonzero;stroke:none"
           id="path3690"
           inkscape:connector-curvature="0" /><path
           d="m 5.834,44.344 11.301,0 0,22.237 -11.301,0 0,-22.237 z m -0.729,28.072 12.76,0 c 2.819,0 5.104,-2.286 5.104,-5.104 l 0,-23.697 c 0,-2.819 -2.285,-5.104 -5.104,-5.104 l -12.76,0 C 2.285,38.511 0,40.796 0,43.615 l 0,23.697 c 0,2.818 2.285,5.104 5.105,5.104"
           style="fill:#f3b840;fill-opacity:1;fill-rule:nonzero;stroke:none"
           id="path3692"
           inkscape:connector-curvature="0" /><path
           d="m 19.322,43.615 -14.217,0 0,25.155 14.217,0 0,-25.155 z m -0.728,-2.916 c 2.01,0 3.644,1.635 3.644,3.645 l 0,23.697 c 0,2.01 -1.634,3.646 -3.644,3.646 l -12.76,0 c -2.01,0 -3.646,-1.636 -3.646,-3.646 l 0,-23.697 c 0,-2.01 1.636,-3.645 3.646,-3.645 l 12.76,0 z"
           style="fill:#f4da80;fill-opacity:1;fill-rule:nonzero;stroke:none"
           id="path3694"
           inkscape:connector-curvature="0" /><path
           d="m 58.319,41.975 -5.832,0 0,16.405 5.832,0 0,-16.405 z"
           style="fill:#f3b840;fill-opacity:1;fill-rule:nonzero;stroke:none"
           id="path3696"
           inkscape:connector-curvature="0" /><path
           d="m 58.319,41.975 -2.916,0 0,10.572 2.916,0 0,-10.572 z"
           style="fill:#f4da80;fill-opacity:1;fill-rule:nonzero;stroke:none"
           id="path3698"
           inkscape:connector-curvature="0" /><path
           d="m 48.477,41.975 -2.918,0 0,10.572 2.918,0 0,-10.572 z"
           style="fill:#f4da80;fill-opacity:1;fill-rule:nonzero;stroke:none"
           id="path3700"
           inkscape:connector-curvature="0" /><path
           d="m 61.057,55.464 -40.455,0 0,2.916 40.455,0 0,-2.916 z"
           style="fill:#f4da80;fill-opacity:1;fill-rule:nonzero;stroke:none"
           id="path3702"
           inkscape:connector-curvature="0" /></g></g></g></svg>