<?xml version="1.0" encoding="UTF-8" standalone="no"?>
<!-- Created with Inkscape (http://www.inkscape.org/) -->

<svg
   xmlns:dc="http://purl.org/dc/elements/1.1/"
   xmlns:cc="http://creativecommons.org/ns#"
   xmlns:rdf="http://www.w3.org/1999/02/22-rdf-syntax-ns#"
   xmlns:svg="http://www.w3.org/2000/svg"
   xmlns="http://www.w3.org/2000/svg"
   xmlns:sodipodi="http://sodipodi.sourceforge.net/DTD/sodipodi-0.dtd"
   xmlns:inkscape="http://www.inkscape.org/namespaces/inkscape"
   id="svg3704"
   version="1.1"
   inkscape:version="0.91 r13725"
   xml:space="preserve"
   width="132.5"
   height="134.57249"
   viewBox="0 0 132.5 134.57249"
   sodipodi:docname="lamp.svg"><metadata
     id="metadata3710"><rdf:RDF><cc:Work
         rdf:about=""><dc:format>image/svg+xml</dc:format><dc:type
           rdf:resource="http://purl.org/dc/dcmitype/StillImage" /><dc:title></dc:title></cc:Work></rdf:RDF></metadata><defs
     id="defs3708"><clipPath
       clipPathUnits="userSpaceOnUse"
       id="clipPath3718"><path
         d="m 0,107.658 106,0 L 106,0 0,0 0,107.658 Z"
         id="path3720"
         inkscape:connector-curvature="0" /></clipPath><clipPath
       clipPathUnits="userSpaceOnUse"
       id="clipPath3770"><path
         d="M 53,107.658 C 23.775,107.658 0,84.253 0,55.484 l 0,0 C 0,26.715 23.775,3.308 53,3.308 l 0,0 c 29.225,0 53,23.407 53,52.176 l 0,0 c 0,28.769 -23.775,52.174 -53,52.174 z"
         id="path3772"
         inkscape:connector-curvature="0" /></clipPath></defs><sodipodi:namedview
     pagecolor="#ffffff"
     bordercolor="#666666"
     borderopacity="1"
     objecttolerance="10"
     gridtolerance="10"
     guidetolerance="10"
     inkscape:pageopacity="0"
     inkscape:pageshadow="2"
     inkscape:window-width="640"
     inkscape:window-height="480"
     id="namedview3706"
     showgrid="false"
     inkscape:zoom="1.7537016"
     inkscape:cx="66.25"
     inkscape:cy="67.286247"
     inkscape:window-x="0"
     inkscape:window-y="0"
     inkscape:window-maximized="0"
     inkscape:current-layer="g3712" /><g
     id="g3712"
     inkscape:groupmode="layer"
     inkscape:label="lamp"
     transform="matrix(1.25,0,0,-1.25,0,134.5725)"><g
       id="g3714"><g
         id="g3716"
         clip-path="url(#clipPath3718)"><g
           id="g3722"
           transform="translate(53,3.3086)"><path
             d="m 0,0 c -29.225,0 -53,23.406 -53,52.176 0,28.768 23.775,52.174 53,52.174 29.225,0 53,-23.406 53,-52.174 C 53,23.406 29.225,0 0,0"
             style="fill:#e5e8ec;fill-opacity:1;fill-rule:nonzero;stroke:none"
             id="path3724"
             inkscape:connector-curvature="0" /></g><g
           id="g3726"
           transform="translate(53,13.6445)"><path
             d="m 0,0 c -23.435,0 -42.5,18.77 -42.5,41.84 0,23.068 19.065,41.838 42.5,41.838 23.434,0 42.5,-18.77 42.5,-41.838 C 42.5,18.77 23.434,0 0,0"
             style="fill:#e5e8ec;fill-opacity:1;fill-rule:nonzero;stroke:none"
             id="path3728"
             inkscape:connector-curvature="0" /></g><g
           id="g3730"
           transform="translate(53,20.0439)"><path
             d="m 0,0 c -19.851,0 -36,15.898 -36,35.44 0,19.541 16.149,35.439 36,35.439 19.851,0 36,-15.898 36,-35.439 C 36,15.898 19.851,0 0,0"
             style="fill:#f7f8fc;fill-opacity:1;fill-rule:nonzero;stroke:none"
             id="path3732"
             inkscape:connector-curvature="0" /></g><path
           d="m 52.505,90.697 -2,0 0,9.274 2,0 0,-9.274 z"
           style="fill:#ffffff;fill-opacity:1;fill-rule:nonzero;stroke:none"
           id="path3734"
           inkscape:connector-curvature="0" /><g
           id="g3736"
           transform="translate(32.8691,85.0684)"><path
             d="m 0,0 -4.637,8.031 1.732,1 L 1.732,1 0,0 Z"
             style="fill:#ffffff;fill-opacity:1;fill-rule:nonzero;stroke:none"
             id="path3738"
             inkscape:connector-curvature="0" /></g><g
           id="g3740"
           transform="translate(20.4111,71.3721)"><path
             d="m 0,0 -8.032,4.639 1,1.731 L 1,1.733 0,0 Z"
             style="fill:#ffffff;fill-opacity:1;fill-rule:nonzero;stroke:none"
             id="path3742"
             inkscape:connector-curvature="0" /></g><path
           d="m 16.469,53.286 -9.275,0 0,2 9.275,0 0,-2 z"
           style="fill:#ffffff;fill-opacity:1;fill-rule:nonzero;stroke:none"
           id="path3744"
           inkscape:connector-curvature="0" /><g
           id="g3746"
           transform="translate(14.0664,31.0127)"><path
             d="M 0,0 -1,1.732 7.032,6.37 8.032,4.638 0,0 Z"
             style="fill:#ffffff;fill-opacity:1;fill-rule:nonzero;stroke:none"
             id="path3748"
             inkscape:connector-curvature="0" /></g><g
           id="g3750"
           transform="translate(91.0078,32.2012)"><path
             d="m 0,0 -8.032,4.641 1,1.731 L 1,1.732 0,0 Z"
             style="fill:#ffffff;fill-opacity:1;fill-rule:nonzero;stroke:none"
             id="path3752"
             inkscape:connector-curvature="0" /></g><g
           id="g3754"
           transform="translate(97.1934,54.6611)"><path
             d="m 0,0 -9.275,0.001 0,2 L 0,2 0,0 Z"
             style="fill:#ffffff;fill-opacity:1;fill-rule:nonzero;stroke:none"
             id="path3756"
             inkscape:connector-curvature="0" /></g><g
           id="g3758"
           transform="translate(83.2871,72.5664)"><path
             d="m 0,0 -1,1.732 8.033,4.637 1,-1.732 L 0,0 Z"
             style="fill:#ffffff;fill-opacity:1;fill-rule:nonzero;stroke:none"
             id="path3760"
             inkscape:connector-curvature="0" /></g><g
           id="g3762"
           transform="translate(70.3257,85.7559)"><path
             d="m 0,0 -1.732,1 4.639,8.033 1.731,-1 L 0,0 Z"
             style="fill:#ffffff;fill-opacity:1;fill-rule:nonzero;stroke:none"
             id="path3764"
             inkscape:connector-curvature="0" /></g></g></g><g
       id="g3766"><g
         id="g3768"
         clip-path="url(#clipPath3770)"><g
           id="g3774"
           transform="translate(25.8125,56.3359)"><path
             d="m 0,0 c 0,15.127 12.254,27.38 27.378,27.38 15.131,0 27.383,-12.253 27.383,-27.38 0,-0.893 -0.656,-13.548 -10.972,-26.831 -3.019,-4.011 -2.523,-12.065 -2.495,-12.065 l -11.978,0 -3.887,0 -12.033,0 c 0.028,0 0.582,8.054 -2.425,12.065 C 0.641,-13.536 0,-0.893 0,0"
             style="fill:#f3b840;fill-opacity:1;fill-rule:nonzero;stroke:none"
             id="path3776"
             inkscape:connector-curvature="0" /></g><g
           id="g3778"
           transform="translate(44.4077,21.0098)"><path
             d="m 0,0 c -0.185,3.447 -1.032,9.938 -3.164,12.78 -9.812,12.632 -10.253,24.584 -10.254,24.702 0,13.114 10.68,23.796 23.807,23.796 13.131,0 23.812,-10.682 23.812,-23.809 C 34.199,37.367 33.751,25.408 23.981,12.826 21.814,9.951 20.94,3.451 20.737,0 L 0,0 Z"
             style="fill:#f0ca67;fill-opacity:1;fill-rule:nonzero;stroke:none"
             id="path3780"
             inkscape:connector-curvature="0" /></g><g
           id="g3782"
           transform="translate(74.7559,54.2012)"><path
             d="m 0,0 c -1.183,0 -2.143,0.959 -2.143,2.143 0,10.707 -8.712,19.414 -19.422,19.414 -1.183,0 -2.142,0.961 -2.142,2.14 0,1.186 0.959,2.143 2.142,2.143 C -8.493,25.84 2.141,15.21 2.141,2.143 2.141,0.959 1.183,0 0,0"
             style="fill:#f4da80;fill-opacity:1;fill-rule:nonzero;stroke:none"
             id="path3784"
             inkscape:connector-curvature="0" /></g><g
           id="g3786"
           transform="translate(46.1816,15.3193)"><path
             d="M 0,0 -3.555,28.224 -2.126,28.653 1.429,0.431 0,0 Z"
             style="fill:#484f59;fill-opacity:1;fill-rule:nonzero;stroke:none"
             id="path3788"
             inkscape:connector-curvature="0" /></g><g
           id="g3790"
           transform="translate(60.123,15.3193)"><path
             d="M 0,0 3.554,28.224 2.125,28.653 -1.43,0.431 0,0 Z"
             style="fill:#484f59;fill-opacity:1;fill-rule:nonzero;stroke:none"
             id="path3792"
             inkscape:connector-curvature="0" /></g><g
           id="g3794"
           transform="translate(62.5098,40.0078)"><path
             d="M 0,0 C -0.983,0 -1.41,0.959 -1.719,1.66 -1.85,1.951 -2.121,2.558 -2.273,2.558 -2.427,2.558 -2.696,1.951 -2.826,1.66 -3.135,0.959 -3.563,0 -4.545,0 -5.527,0 -5.953,0.959 -6.264,1.66 -6.335,1.818 -6.447,2.072 -6.56,2.27 -7.06,1.341 -7.975,0 -9.088,0 c -0.983,0 -1.408,0.959 -1.72,1.66 -0.13,0.291 -0.399,0.898 -0.552,0.898 -0.154,0 -0.424,-0.607 -0.553,-0.898 C -12.224,0.959 -12.651,0 -13.633,0 c -0.985,0 -1.411,0.959 -1.722,1.66 -0.13,0.291 -0.401,0.898 -0.555,0.898 -0.154,0 -0.424,-0.607 -0.555,-0.898 C -16.775,0.959 -17.202,0 -18.187,0 l 0,1.28 c 0.154,0 0.425,0.605 0.555,0.899 0.312,0.701 0.739,1.656 1.722,1.656 0.984,0 1.41,-0.955 1.722,-1.656 0.13,-0.294 0.401,-0.899 0.555,-0.899 0.151,0 0.422,0.605 0.552,0.899 0.311,0.701 0.737,1.656 1.721,1.656 0.982,0 1.409,-0.955 1.72,-1.656 0.13,-0.294 0.399,-0.899 0.552,-0.899 0.377,0 1.182,1.037 1.689,2.176 0.102,0.23 0.331,0.379 0.585,0.379 0.981,0 1.407,-0.957 1.718,-1.656 0.129,-0.294 0.399,-0.899 0.551,-0.899 0.152,0 0.423,0.605 0.551,0.897 0.311,0.701 0.738,1.658 1.721,1.658 0.984,0 1.41,-0.957 1.72,-1.658 C -0.423,1.885 -0.153,1.28 0,1.28 L 0,0 Z"
             style="fill:#484f59;fill-opacity:1;fill-rule:nonzero;stroke:none"
             id="path3796"
             inkscape:connector-curvature="0" /></g><g
           id="g3798"
           transform="translate(67.1333,17.2891)"><path
             d="m 0,0 0,-14.313 c 0,-0.982 -0.792,-1.781 -1.774,-1.781 l -24.302,0 c -0.982,0 -1.776,0.799 -1.776,1.781 L -27.852,0 0,0 Z"
             style="fill:#282d33;fill-opacity:1;fill-rule:nonzero;stroke:none"
             id="path3800"
             inkscape:connector-curvature="0" /></g><g
           id="g3802"
           transform="translate(67.6953,14.5049)"><path
             d="m 0,0 -29.006,0 c -0.773,0 -1.402,0.627 -1.402,1.402 0,0.775 0.629,1.404 1.402,1.404 L 0,2.806 C 0.773,2.806 1.401,2.177 1.401,1.402 1.401,0.627 0.773,0 0,0"
             style="fill:#282d33;fill-opacity:1;fill-rule:nonzero;stroke:none"
             id="path3804"
             inkscape:connector-curvature="0" /></g><g
           id="g3806"
           transform="translate(54.8691,15.2187)"><path
             d="m 0,0 -16.09,0 c -0.431,0 -0.779,0.35 -0.779,0.778 0,0.43 0.348,0.777 0.779,0.777 L 0,1.555 C 0.431,1.555 0.78,1.208 0.78,0.778 0.78,0.35 0.431,0 0,0"
             style="fill:#484f59;fill-opacity:1;fill-rule:nonzero;stroke:none"
             id="path3808"
             inkscape:connector-curvature="0" /></g><g
           id="g3810"
           transform="translate(67.6953,9.8262)"><path
             d="m 0,0 -29.006,0 c -0.773,0 -1.402,0.625 -1.402,1.403 0,0.775 0.629,1.404 1.402,1.404 L 0,2.807 C 0.773,2.807 1.401,2.178 1.401,1.403 1.401,0.625 0.773,0 0,0"
             style="fill:#282d33;fill-opacity:1;fill-rule:nonzero;stroke:none"
             id="path3812"
             inkscape:connector-curvature="0" /></g><g
           id="g3814"
           transform="translate(67.6953,5.1484)"><path
             d="m 0,0 -29.006,0 c -0.773,0 -1.402,0.628 -1.402,1.402 0,0.776 0.629,1.404 1.402,1.404 L 0,2.806 C 0.773,2.806 1.401,2.178 1.401,1.402 1.401,0.628 0.773,0 0,0"
             style="fill:#282d33;fill-opacity:1;fill-rule:nonzero;stroke:none"
             id="path3816"
             inkscape:connector-curvature="0" /></g><g
           id="g3818"
           transform="translate(54.8691,10.7539)"><path
             d="m 0,0 -16.09,0 c -0.431,0 -0.779,0.349 -0.779,0.777 0,0.433 0.348,0.779 0.779,0.779 L 0,1.556 C 0.431,1.556 0.78,1.21 0.78,0.777 0.78,0.349 0.431,0 0,0"
             style="fill:#484f59;fill-opacity:1;fill-rule:nonzero;stroke:none"
             id="path3820"
             inkscape:connector-curvature="0" /></g><g
           id="g3822"
           transform="translate(54.8691,6.0244)"><path
             d="m 0,0 -16.09,0 c -0.431,0 -0.779,0.348 -0.779,0.776 0,0.432 0.348,0.78 0.779,0.78 l 16.09,0 c 0.431,0 0.78,-0.348 0.78,-0.78 C 0.78,0.348 0.431,0 0,0"
             style="fill:#484f59;fill-opacity:1;fill-rule:nonzero;stroke:none"
             id="path3824"
             inkscape:connector-curvature="0" /></g><path
           d="m 56.82,13.066 -13.746,0 0,1.431 13.746,0 0,-1.431 z"
           style="fill:#30363d;fill-opacity:1;fill-rule:nonzero;stroke:none"
           id="path3826"
           inkscape:connector-curvature="0" /><path
           d="m 56.82,8.516 -13.746,0 0,1.428 13.746,0 0,-1.428 z"
           style="fill:#30363d;fill-opacity:1;fill-rule:nonzero;stroke:none"
           id="path3828"
           inkscape:connector-curvature="0" /><path
           d="m 56.82,3.964 -13.746,0 0,1.427 13.746,0 0,-1.427 z"
           style="fill:#30363d;fill-opacity:1;fill-rule:nonzero;stroke:none"
           id="path3830"
           inkscape:connector-curvature="0" /></g></g></g></svg>