<?xml version="1.0" encoding="UTF-8" standalone="no"?>
<!-- Created with Inkscape (http://www.inkscape.org/) -->

<svg
   xmlns:dc="http://purl.org/dc/elements/1.1/"
   xmlns:cc="http://creativecommons.org/ns#"
   xmlns:rdf="http://www.w3.org/1999/02/22-rdf-syntax-ns#"
   xmlns:svg="http://www.w3.org/2000/svg"
   xmlns="http://www.w3.org/2000/svg"
   xmlns:sodipodi="http://sodipodi.sourceforge.net/DTD/sodipodi-0.dtd"
   xmlns:inkscape="http://www.inkscape.org/namespaces/inkscape"
   id="svg4005"
   version="1.1"
   inkscape:version="0.91 r13725"
   xml:space="preserve"
   width="132.5"
   height="130.4375"
   viewBox="0 0 132.5 130.4375"
   sodipodi:docname="maps-ban.svg"><metadata
     id="metadata4011"><rdf:RDF><cc:Work
         rdf:about=""><dc:format>image/svg+xml</dc:format><dc:type
           rdf:resource="http://purl.org/dc/dcmitype/StillImage" /><dc:title></dc:title></cc:Work></rdf:RDF></metadata><defs
     id="defs4009"><clipPath
       clipPathUnits="userSpaceOnUse"
       id="clipPath4019"><path
         d="m 0,104.35 106,0 L 106,0 0,0 0,104.35 Z"
         id="path4021"
         inkscape:connector-curvature="0" /></clipPath></defs><sodipodi:namedview
     pagecolor="#ffffff"
     bordercolor="#666666"
     borderopacity="1"
     objecttolerance="10"
     gridtolerance="10"
     guidetolerance="10"
     inkscape:pageopacity="0"
     inkscape:pageshadow="2"
     inkscape:window-width="640"
     inkscape:window-height="480"
     id="namedview4007"
     showgrid="false"
     inkscape:zoom="1.8092956"
     inkscape:cx="66.25"
     inkscape:cy="65.21875"
     inkscape:window-x="0"
     inkscape:window-y="0"
     inkscape:window-maximized="0"
     inkscape:current-layer="g4013" /><g
     id="g4013"
     inkscape:groupmode="layer"
     inkscape:label="maps-ban"
     transform="matrix(1.25,0,0,-1.25,0,130.4375)"><g
       id="g4015"><g
         id="g4017"
         clip-path="url(#clipPath4019)"><g
           id="g4023"
           transform="translate(53,0)"><path
             d="m 0,0 c -29.225,0 -53,23.406 -53,52.176 0,28.769 23.775,52.174 53,52.174 29.225,0 53,-23.405 53,-52.174 C 53,23.406 29.225,0 0,0"
             style="fill:#00c6da;fill-opacity:1;fill-rule:nonzero;stroke:none"
             id="path4025"
             inkscape:connector-curvature="0" /></g><g
           id="g4027"
           transform="translate(45.3408,67.3896)"><path
             d="m 0,0 c -0.007,-0.293 -0.257,-0.367 -0.455,-0.492 -0.35,0.191 -0.868,0.235 -1.488,0.198 C -1.556,0.111 -0.484,-0.062 0,0 m -0.798,-4.738 c -0.306,0.176 0,0.652 0.343,0.591 -0.058,-0.244 -0.306,-0.327 -0.343,-0.591 m -1.145,-0.394 c 0.226,0 0.142,0.268 0.46,0.198 0.421,-0.129 0.667,-0.416 1.255,-0.396 0.387,0.235 -0.548,0.437 -0.227,0.592 0.17,-0.051 0.289,-0.147 0.455,-0.196 0.092,0.34 -0.126,0.417 -0.228,0.592 0.943,0.042 0.633,1.037 0.462,1.578 0.28,0.08 0.611,0.128 1.025,0.099 -0.03,0.436 -0.615,0.39 -0.913,0.593 0.358,-0.047 0.257,0.301 0.683,0.197 0.082,0.301 -0.194,0.287 -0.112,0.594 0.407,-0.056 0.281,0.348 0.687,0.295 0.286,0.081 0.984,-0.195 0.915,0.196 0.105,0.359 -0.496,0.101 -0.571,0.298 -0.271,0.028 -0.217,0.341 -0.574,0.294 -0.494,0.059 -1.028,-0.355 -1.257,-0.198 0.07,0.499 1.008,0.251 1.142,0.691 -0.238,0.286 -0.741,0.345 -1.375,0.296 -0.368,0.114 -0.822,0.262 -1.028,0 -0.095,0.145 -0.363,0.143 -0.57,0.201 -0.459,-0.263 -1.582,0.047 -2.053,-0.201 -0.528,-0.01 -1.162,0.08 -1.377,-0.198 -0.011,-0.215 0.313,-0.639 0.112,-0.687 -0.825,0.112 -1.291,-0.069 -2.052,0.096 -1.147,-0.136 -1.683,-0.783 -2.86,-0.89 -0.11,-0.355 0.512,-0.078 0.452,-0.395 -0.328,-0.239 -0.943,-0.234 -1.252,-0.494 -0.282,0.128 -0.653,0.109 -0.802,-0.294 0.365,0.085 0.354,-0.156 0.57,-0.194 -0.003,0.261 0.574,0.261 0.574,0 0.276,0.058 0.776,0.437 0.797,-0.102 -0.487,-0.039 -1.174,0.095 -1.486,-0.098 0.105,-0.37 0.538,-0.455 0.918,-0.59 0.353,-0.074 0.215,0.271 0.568,0.195 0.349,-0.195 0.703,-0.383 1.374,-0.297 -0.092,-0.437 0.079,-0.656 0.229,-0.886 -0.037,-0.231 -0.181,-0.373 -0.113,-0.691 0.456,-0.194 0.527,0.455 0.802,0.097 0.062,-0.352 -0.346,-0.301 -0.689,-0.295 0.098,-0.441 0.87,-0.305 1.028,-0.691 -0.259,-0.17 -0.575,-0.289 -0.799,-0.494 0.32,-0.128 -0.356,-0.203 -0.229,-0.493 0.815,-0.476 0.185,-1.604 0.797,-2.27 l 0.803,0 c 0.332,-0.013 0.201,-0.419 0.57,-0.394 0.115,0.198 0.197,0.421 0.459,0.495 -0.138,0.745 0.571,0.754 0.46,1.478 0.29,0.01 0.16,0.386 0.454,0.396 0.436,-0.201 0.436,0.234 0.917,0 0.18,0.135 0.358,0.28 0.573,0.391 0.552,0.12 0.796,0.501 1.369,0.593 0.046,0.356 1.009,0.442 0.686,0.791 -0.23,-0.227 -0.71,0.17 -1.029,0.198"
             style="fill:#f7f8fc;fill-opacity:1;fill-rule:nonzero;stroke:none"
             id="path4029"
             inkscape:connector-curvature="0" /></g><g
           id="g4031"
           transform="translate(31.6206,64.1348)"><path
             d="M 0,0 C 0.059,-0.052 -0.084,-0.132 -0.114,-0.103 -0.175,-0.05 -0.033,0.026 0,0 m -2.398,1.771 0,-0.588 c 0.347,0.068 0.414,-0.103 0.68,-0.101 0.052,0.451 0.743,0.872 1.145,0.689 C -0.398,1.357 -1.165,1.759 -1.143,1.478 -0.797,1.329 -1.537,1.3 -1.487,1.082 -1.19,1.144 -1.08,1.043 -1.143,0.79 -1.412,0.785 -1.48,0.959 -1.83,0.885 -1.814,0.605 -2.215,0.691 -2.058,0.293 -1.376,0.37 -0.883,0.431 -0.573,0 -1.48,-0.171 -2.065,0.39 -2.631,0.195 -2.722,-0.279 -1.937,0.003 -1.941,-0.4 -1.08,-0.293 0.077,-0.838 0.342,-0.103 0.641,-0.132 0.833,-0.064 0.8,0.195 0.886,0.463 0.265,0.123 0.342,0.393 l 0.803,0 c -0.005,0.526 0.696,0.451 0.57,1.085 0.594,0.014 0.648,0.493 1.38,0.397 0.139,0.236 0.363,0.398 0.793,0.394 0.147,0.245 -0.252,0.477 0,0.494 C 4.37,2.95 5.07,2.664 5.261,3.255 5.261,3.416 4.942,3.308 4.922,3.452 3.049,3.232 0.497,3.739 -1.487,3.057 -1.642,2.461 -0.994,2.562 -0.915,2.167 -1.66,2.117 -1.434,2.908 -2.283,2.763 -2.32,2.626 -2.451,2.573 -2.398,2.365 -2.584,2.358 -2.797,2.38 -2.744,2.167 -2.843,1.852 -2.446,1.963 -2.398,1.771"
             style="fill:#f7f8fc;fill-opacity:1;fill-rule:nonzero;stroke:none"
             id="path4033"
             inkscape:connector-curvature="0" /></g><g
           id="g4035"
           transform="translate(57.3462,66.1084)"><path
             d="M 0,0 C 0.061,0.275 0.601,0.142 0.46,0.59 -0.584,0.734 -1.584,0.767 -2.514,0.789 -2.522,0.613 -2.487,0.479 -2.401,0.392 -1.68,0.191 -1.087,-0.12 0,0"
             style="fill:#f7f8fc;fill-opacity:1;fill-rule:nonzero;stroke:none"
             id="path4037"
             inkscape:connector-curvature="0" /></g><g
           id="g4039"
           transform="translate(52.8906,65.6123)"><path
             d="m 0,0 c -0.013,-0.244 -0.214,-0.306 0,-0.494 0.472,0.022 0.486,0.438 1.026,0.396 C 1,-0.537 0.467,-0.535 0.458,-0.986 0.649,-1.119 0.842,-1.245 1.261,-1.185 1.206,-1.493 1.501,-1.5 1.83,-1.478 c 0.099,0.371 0.199,0.743 0.342,1.082 0.303,-0.261 0.477,-0.64 1.26,-0.492 C 3.533,-0.137 2.828,-0.091 2.519,0.294 2.483,0.064 2.21,0.41 2.055,0.397 1.775,0.379 1.585,0.448 1.491,0.592 1.759,0.854 1.394,1.172 0.916,1.086 0.58,0.926 1.097,0.573 0.801,0.496 0.556,0.963 -0.534,1.426 -0.576,0.496 -0.52,0.209 -0.082,0.262 0,0"
             style="fill:#f7f8fc;fill-opacity:1;fill-rule:nonzero;stroke:none"
             id="path4041"
             inkscape:connector-curvature="0" /></g><g
           id="g4043"
           transform="translate(64.4365,66.3018)"><path
             d="M 0,0 C -0.01,0.624 -1.062,0.411 -1.026,-0.098 -0.637,-0.404 -0.424,0.04 0,0"
             style="fill:#f7f8fc;fill-opacity:1;fill-rule:nonzero;stroke:none"
             id="path4045"
             inkscape:connector-curvature="0" /></g><g
           id="g4047"
           transform="translate(70.8477,65.7129)"><path
             d="M 0,0 C 0.898,0.131 1.839,-0.345 2.053,0.297 1.785,0.677 0.738,0.838 0.113,0.589 -0.145,0.577 0.058,0.175 0,0"
             style="fill:#f7f8fc;fill-opacity:1;fill-rule:nonzero;stroke:none"
             id="path4049"
             inkscape:connector-curvature="0" /></g><g
           id="g4051"
           transform="translate(81.249,51.1064)"><path
             d="M 0,0 C 0.161,0.187 0.255,0.437 0.688,0.391 0.692,0.239 0.632,0.017 0.798,0 0.627,-0.297 0.298,0.081 0,0 m -5.148,12.436 c -0.059,0.049 0.084,0.127 0.116,0.1 0.058,-0.056 -0.086,-0.128 -0.116,-0.1 M -5.49,12.237 c -0.059,0.051 0.082,0.124 0.114,0.096 0.057,-0.046 -0.08,-0.124 -0.114,-0.096 m -0.349,-0.101 c -0.055,0.05 0.089,0.131 0.122,0.101 0.061,-0.052 -0.087,-0.128 -0.122,-0.101 m -7.084,-1.775 c -0.219,0.041 -0.492,0.034 -0.458,0.297 -0.342,0.019 0.108,0.41 0,0 0.082,-0.158 0.558,0.022 0.458,-0.297 m -8.461,-1.579 c -0.059,0.052 0.08,0.127 0.113,0.098 0.058,-0.051 -0.083,-0.124 -0.113,-0.098 m -0.112,-12.24 c -0.059,0.052 0.082,0.129 0.112,0.101 0.062,-0.049 -0.082,-0.128 -0.112,-0.101 m -2.059,14.213 c -0.06,0.054 0.082,0.127 0.112,0.099 0.057,-0.052 -0.08,-0.127 -0.112,-0.099 M -24.47,6.908 c -0.008,0.298 0.404,0.243 0.684,0.295 0.01,-0.306 -0.344,-0.294 -0.684,-0.295 m -1.256,0.689 c 0.215,-0.205 0.518,-0.337 0.909,-0.394 l 0,-0.987 c -0.256,0.041 0.063,0.58 -0.454,0.393 -0.253,-0.34 -0.093,-1.034 -0.455,-1.283 -0.38,-0.031 -0.662,0.047 -0.92,0 -0.319,-0.054 -0.386,-0.286 -0.686,-0.296 0.037,0.121 -0.328,0.342 -0.339,0.101 -0.269,0.028 -0.269,0.267 0,0.296 -0.262,0.236 -0.44,0.544 -0.459,0.987 0.572,-0.043 0.351,-1.39 1.371,-0.987 0.257,0.402 0.435,0.875 0.684,1.285 -0.038,0.226 -0.137,0.405 -0.229,0.593 0.069,0.926 0.883,1.212 1.257,1.873 0.137,0.012 0.208,-0.022 0.23,-0.1 -0.093,-0.679 -1.014,-0.634 -0.909,-1.481 m 38.418,1.087 c 0.27,0.032 0.215,0.34 0.569,0.294 0.596,-0.01 0.515,-0.608 1.257,-0.489 0.151,0.174 -0.101,0.494 0.117,0.785 -0.305,0.121 -0.749,0.65 -1.026,0.2 0.036,0.227 -0.022,0.377 -0.116,0.492 -0.622,0.193 -0.952,0.632 -1.942,0.494 -0.133,0.184 -0.443,0.209 -0.573,0.394 -0.747,-0.085 -0.908,0.338 -1.717,0.2 -0.159,-0.29 0.313,-0.506 0,-0.594 C 8.931,10.504 8.989,10.888 8.69,10.953 8.354,10.647 7.736,10.925 7.079,10.755 6.671,10.987 6.702,11.608 5.831,11.446 5.665,11.424 5.792,11.151 5.599,11.151 5.123,11.329 4.657,11.523 4.229,11.739 4.178,11.652 4.129,11.567 4.002,11.545 4.144,11.933 3.729,11.84 3.429,11.84 3.708,12.073 3.304,12.063 3.204,12.237 2.652,12.063 2.69,12.293 2.173,12.333 2.134,12.202 1.883,12.252 1.715,12.237 c -0.114,-0.185 0.341,-0.332 0,-0.397 -0.983,0.135 -2.232,-0.175 -3.091,0 -0.289,0.062 -0.399,0.364 -0.683,0.296 -0.53,-0.106 -0.881,0.102 -1.26,0.197 -0.134,0.04 -0.315,-0.022 -0.452,0 -0.288,0.048 -0.505,0.315 -1.144,0.203 0.043,0.251 0.337,0.295 0.34,0.589 -0.16,0.289 -0.528,0.397 -0.686,0.693 -0.343,-0.132 -0.875,-0.105 -1.373,-0.102 -0.283,0.082 -0.239,0.448 -0.685,0.394 -0.268,-0.098 -0.366,-0.339 -0.344,-0.689 -0.567,0.159 -0.364,-0.346 -0.799,-0.296 -0.22,0.04 -0.093,0.384 -0.458,0.296 -0.295,-0.272 -0.709,-0.442 -1.368,-0.393 -0.204,-0.127 -0.303,-0.336 -0.688,-0.299 -0.162,-0.125 -0.051,-0.482 -0.348,-0.492 -0.235,-0.062 -0.791,0.159 -0.677,-0.197 0,-0.362 0.662,-0.145 0.566,-0.594 -0.42,0.106 -0.533,0.459 -1.146,0.394 0,-0.258 0.065,-0.58 -0.229,-0.591 -0.131,0.117 -0.131,0.352 -0.113,0.591 -0.446,0.087 -0.184,-0.43 -0.684,-0.295 -0.179,0.176 -0.156,0.526 -0.686,0.396 -0.323,-0.415 -0.759,-0.73 -1.148,-1.087 -0.74,-0.045 -0.684,0.186 -1.484,0.2 -0.184,-0.489 0.592,-0.151 0.457,-0.594 -0.477,0.096 -0.99,-0.051 -1.716,0 -0.514,-0.18 -0.795,-0.564 -1.372,-0.689 l 0,0.59 c -0.283,-0.014 -0.548,-0.016 -0.683,0.099 0.027,-0.552 0.004,-1.055 -0.688,-0.986 0.039,-0.366 -0.419,-0.296 -0.685,-0.396 -0.284,-0.131 0.202,-0.296 -0.118,-0.394 -0.668,-0.116 -0.708,0.713 -0.681,0.885 0.529,-0.003 1.114,0.044 1.484,-0.095 0.306,0.618 -0.641,0.935 -1.374,0.986 -0.178,0.239 -0.484,0.367 -0.911,0.394 -0.157,0.231 -0.323,0.443 -0.574,0.592 l -1.031,0 c -0.311,-0.187 -0.602,-0.401 -0.909,-0.592 -0.053,0.145 -0.149,-0.04 -0.349,0 -0.408,-0.373 -0.92,-0.65 -1.368,-0.989 -0.13,-0.45 -0.36,-0.81 -0.687,-1.083 -0.021,0.115 -0.209,0.082 -0.342,0.098 l 0,-0.391 c -0.727,-0.04 -0.802,-0.626 -1.033,-1.089 0.231,-0.232 0.264,-0.63 0.231,-1.084 0.11,-0.266 0.722,-0.106 0.916,-0.297 -0.249,-0.291 -0.457,-0.4 -0.457,-0.693 0.243,0.047 0.214,-0.137 0.226,-0.296 -0.406,-0.006 -0.662,-0.152 -1.028,-0.192 -0.104,-0.179 -0.321,-0.254 -0.23,-0.595 -0.65,0.166 -0.256,-0.569 -0.8,-0.493 0.017,-0.117 -0.023,-0.175 -0.12,-0.197 -0.502,0.043 -0.601,-0.268 -0.914,-0.398 -0.274,-0.052 -0.583,-0.085 -0.562,-0.393 0.145,-0.135 0.492,-0.096 0.794,-0.1 -0.056,-0.445 0.53,-0.333 0.461,-0.79 -0.118,-0.132 -0.116,-0.367 -0.347,-0.393 -0.533,0.235 -1.006,-0.089 -1.712,0 -0.115,-0.327 0.255,-1.075 -0.233,-1.088 0.084,-0.288 0.349,-0.425 0.233,-0.887 0.531,0.099 0.691,-0.129 1.029,-0.195 0.428,0.187 0.485,0.187 0.914,0 0.26,0.399 0.652,0.687 0.57,1.381 0.502,0.124 0.418,0.756 1.029,0.789 0.484,-0.248 0.68,0.069 1.147,0.098 -0.324,-0.384 -0.161,-1 0,-1.48 0.724,0.056 0.273,0.558 0.34,1.088 -0.116,0 -0.142,0.171 0,0.196 l 0,-0.196 c 0.237,-0.031 0.228,-0.266 0.347,-0.398 0.554,-0.011 0.899,-0.2 1.025,-0.592 -0.019,-0.215 -0.285,-0.21 -0.574,-0.195 -0.015,-0.347 0.405,-0.311 0.574,-0.496 -0.054,0.446 0.308,0.523 0.571,0.691 0.064,0.222 -0.216,0.141 -0.229,0.298 0.211,0.31 0.387,-0.334 0.578,0 -0.313,0.523 -1.737,0.609 -1.372,1.379 0.339,-0.451 0.985,-0.664 1.372,-1.085 0.064,-0.076 0.161,-0.308 0.223,-0.396 0.091,-0.121 0.278,-0.236 0.232,-0.391 l 0,-0.592 c 0.149,-0.134 0.498,-0.097 0.801,-0.099 0.191,0.337 -0.207,0.825 0.112,1.184 l 0.341,0 c -0.129,-0.389 -0.019,-0.368 -0.11,-0.786 0.255,0.034 0.153,-0.287 0.341,-0.398 0.417,-0.251 1.18,-0.175 1.485,0 0.344,-0.144 -0.297,-0.513 0.228,-0.496 0.47,-0.073 0.025,0.638 0.577,0.496 l 0,-0.591 c -0.337,-0.173 -0.107,-0.836 -0.577,-0.889 -0.831,0.263 -1.87,0.357 -2.974,0.393 -0.33,-0.075 -0.272,-0.487 -0.57,-0.595 -0.525,0.468 -1.566,0.495 -2.054,0.988 0.088,0.342 -0.132,0.42 -0.229,0.595 0.266,0.026 0.259,0.265 0.11,0.394 -0.691,0.006 -1.242,-0.112 -1.715,-0.295 -0.929,0.046 -1.732,-0.016 -2.176,-0.398 -0.098,0.207 -0.33,0.303 -0.682,0.299 -0.095,-0.349 -0.506,-0.418 -0.798,-0.595 -0.312,-0.464 -0.195,-1.067 -0.455,-1.477 -0.172,-0.262 -0.785,-0.529 -1.033,-0.792 -0.019,-0.577 -0.282,-0.943 -0.574,-1.284 l 0,-2.563 c 0.396,-0.385 0.742,-0.812 0.919,-1.382 0.527,-0.269 0.88,-0.69 1.598,-0.79 0.463,0.098 1.009,0.119 1.602,0.098 0.235,0.16 0.22,0.532 0.689,0.494 0.205,-0.016 0.065,-0.334 0.231,-0.394 0.527,0.064 0.73,-0.157 1.14,-0.198 0.196,0.087 0.291,0.277 0.686,0.198 0.116,-0.761 -0.243,-1.112 -0.231,-1.779 0.326,-0.505 0.883,-0.888 0.689,-1.577 0.301,-0.333 0.322,-0.906 0.457,-1.381 -0.283,-0.449 -0.217,-1.19 -0.457,-1.677 0.489,-0.402 0.843,-0.917 1.033,-1.581 l 0,-0.888 c 0.506,-0.514 0.494,-1.475 1.027,-1.975 1.098,0.069 1.65,0.61 2.628,0.789 0.175,0.543 0.524,0.931 1.026,1.186 -0.056,0.382 0.207,0.481 0.113,0.888 0.205,0.09 0.293,0.277 0.689,0.199 0.012,1.137 0.48,1.883 1.374,2.269 0.168,0.804 0.168,1.96 0,2.762 0.241,0.383 0.439,0.804 0.567,1.283 0.274,0.159 0.505,0.355 0.801,0.495 0.547,0.682 1.038,1.407 1.605,2.069 0.087,0.371 0.238,0.873 -0.119,1.087 -0.488,0.062 -0.461,-0.322 -0.908,-0.296 l -1.032,0 c -0.055,0.676 -0.625,0.91 -1.032,1.284 0.1,0.647 -0.68,0.531 -0.457,1.284 -0.194,0.224 -0.551,0.313 -0.686,0.592 0.11,0.296 -0.164,0.767 0,0.788 0.274,-0.169 0.581,-0.687 0.457,-0.888 0.479,-0.413 0.796,-0.955 1.258,-1.381 0.274,-0.412 0.231,-1.027 0.805,-1.383 0.795,0.23 1.356,0.669 2.283,0.792 0.16,0.059 0.021,0.38 0.227,0.393 0.496,0.069 0.704,0.383 1.145,0.496 -0.081,0.431 0.335,0.438 0.345,0.788 -0.197,0.356 -0.786,0.376 -0.69,0.985 -0.433,0.049 -0.728,-0.028 -0.913,-0.193 -0.093,0.373 -0.516,0.473 -0.458,0.985 -0.371,-0.026 -0.331,0.303 -0.569,0.395 0.169,0.052 0.286,0.143 0.456,0.198 0.632,-0.342 0.443,-1.392 1.601,-1.284 0.049,-0.19 0.325,-0.182 0.228,-0.495 0.553,-0.048 0.636,0.307 1.147,0.296 0.116,-0.063 0.119,-0.225 0.342,-0.199 0.794,0.103 0.994,-0.324 1.48,-0.49 -0.189,0.035 -0.213,-0.077 -0.223,-0.198 0.119,-0.19 0.525,-0.135 0.689,-0.297 -0.061,-0.31 0.203,-0.348 0.107,-0.69 0.348,-0.328 0.494,-0.826 0.688,-1.284 0.241,-0.188 0.477,-0.378 0.578,-0.688 l 0,-0.597 c 0.142,-0.136 0.494,-0.094 0.797,-0.096 0.15,0.63 0.559,1.029 0.454,1.875 l 0.459,0 0,0.396 c 0.432,-0.145 0.224,0.268 0.57,0.195 -0.032,0.454 0.419,0.497 0.575,0.792 0.278,0.187 0.602,0.334 1.028,0.394 0.259,-0.271 0.259,-0.764 0.688,-0.892 0.04,-0.233 -0.209,-0.21 -0.122,-0.489 0.127,-0.322 0.91,-0.073 1.151,-0.296 -0.153,-0.209 0.058,-0.293 -0.118,-0.594 0.298,-0.104 0.509,-0.285 0.571,-0.591 -0.041,-0.187 -0.325,-0.178 -0.226,-0.495 0.035,-0.298 0.354,-0.35 0.226,-0.789 0.552,-0.412 1.072,-0.854 1.715,-1.185 0.031,0.65 -0.538,0.781 -0.569,1.385 -0.317,0.186 -0.623,0.384 -0.801,0.689 0.053,0.321 -0.152,0.851 0.227,0.888 0.252,-0.28 0.432,-0.621 0.922,-0.69 0.086,-0.091 0.121,-0.222 0.107,-0.394 1.112,0.126 1.382,0.979 1.258,2.169 -0.146,0.1 -0.421,0.098 -0.571,0.198 0.147,0.433 -0.547,0.404 -0.228,0.692 0.334,0.274 0.299,-0.326 0.799,-0.201 0.084,0.424 0.664,0.42 1.261,0.398 0.36,0.474 0.847,0.841 1.025,1.481 0.187,-0.028 0.196,0.093 0.344,0.095 0.192,0.4 -0.025,1.142 0.346,1.38 -0.246,0.092 -0.346,0.293 -0.346,0.599 -0.194,0.123 -0.444,0.203 -0.456,0.491 -0.05,0.236 0.211,0.217 0.112,0.492 0.236,-0.029 0.36,0.02 0.344,0.203 C 1.581,-0.169 0.739,0.295 1.485,0.295 1.614,-0.02 2.01,-0.104 2.173,-0.396 2.061,-0.918 2.388,-1.066 2.748,-1.187 3.432,-0.756 2.723,0.328 3.088,1.082 3.327,1.27 3.673,1.367 4.002,1.479 4.267,1.94 4.501,2.427 4.911,2.762 5.069,3.557 4.652,4.377 4.911,4.933 4.756,4.37 5.175,4.303 5.257,3.946 5.28,3.335 5.314,2.743 5.831,2.564 c 0.213,0.177 -0.093,0.251 0,0.591 0.313,0.011 0.231,-0.164 0.455,0 C 6.309,3.469 5.983,3.49 6.062,3.849 5.647,3.917 5.54,4.252 5.373,4.538 5.329,4.894 5.413,5.363 5.032,5.427 4.795,5.402 5.004,4.988 4.69,5.03 4.498,5.758 3.721,4.577 3.429,5.326 3.507,5.556 3.718,5.666 3.888,5.819 4.021,6.135 3.973,6.598 4.347,6.712 4.608,6.468 4.555,6.856 4.911,6.81 5.452,6.743 5.948,6.551 6.632,6.609 6.593,6.44 6.721,6.423 6.856,6.414 7.007,6.551 7.357,6.509 7.659,6.513 7.718,6.824 7.457,6.86 7.547,7.203 7.778,7.23 7.769,7.469 8.003,7.499 8.237,7.469 8.229,7.23 8.461,7.203 8.407,7.419 8.802,7.747 8.915,7.499 8.55,6.864 8.012,6.373 7.888,5.526 7.961,5.26 8.214,5.15 8.347,4.933 8.397,4.556 8.481,4.194 8.802,4.046 9.086,4.295 9.255,4.642 9.603,4.838 9.499,5.325 9.969,5.254 9.724,5.624 c 0.028,0.2 0.3,0.195 0.338,0.395 -0.168,0.117 -0.511,0.087 -0.459,0.395 0.114,0.866 0.863,0.679 1.716,0.593 0.166,0.152 0.15,0.459 0.344,0.59 0.667,0.044 1.17,0.314 1.598,0.299 0,0.422 -0.567,0.361 -0.569,0.788"
             style="fill:#f7f8fc;fill-opacity:1;fill-rule:nonzero;stroke:none"
             id="path4053"
             inkscape:connector-curvature="0" /></g><g
           id="g4055"
           transform="translate(20.2988,48.4414)"><path
             d="M 0,0 C 0.271,-0.033 0.26,-0.308 0.458,-0.395 0.313,-0.644 -0.098,-0.289 0,0 M -0.112,0.198 C -0.089,0.309 0,0.25 0,0.198 -0.019,0.083 -0.112,0.141 -0.112,0.198 M 2.291,14.404 C 2.229,14.459 2.365,14.535 2.4,14.505 2.461,14.454 2.321,14.381 2.291,14.404 m 3.543,0.202 c 0.361,0.046 0.404,-0.182 0.799,-0.101 0,-0.392 -0.447,-0.405 -0.799,-0.49 l 0,0.591 z m 0.455,0.495 c 0.353,-0.097 -0.125,-0.268 -0.118,-0.396 -0.344,0.094 0.057,0.333 0.118,0.396 m 8.809,-7.702 c 0.054,-0.05 -0.084,-0.123 -0.117,-0.096 -0.058,0.051 0.082,0.128 0.117,0.096 m 5.258,-16.382 c -0.203,0.184 -0.335,-0.042 -0.571,-0.097 -0.181,0.338 -0.624,0.449 -1.028,0.595 l -0.799,0 c -0.205,0.285 -0.972,0.085 -1.031,0.489 -0.304,0.002 -0.676,-0.053 -0.683,0.199 0.328,0.46 -0.34,1.719 -1.375,1.28 -0.362,0.185 -0.625,0.449 -0.685,0.892 -0.598,0.145 -1.025,0.434 -1.606,0.591 -0.147,-0.036 -0.176,-0.173 -0.341,-0.196 -0.154,0.354 -0.711,0.372 -0.805,0.787 -0.365,0.089 -0.234,-0.254 -0.453,-0.297 -0.268,0.07 -0.304,0.329 -0.572,0.396 C 10.303,-4.516 10.197,-4.686 9.835,-4.641 9.661,-5.051 9.203,-5.21 8.923,-5.529 8.948,-5.203 8.784,-5.053 8.462,-5.034 8.169,-5.139 8.038,-5.389 7.658,-5.429 c -0.268,0.482 0.118,0.939 0,1.58 -0.209,0.343 -0.967,0.212 -1.369,0.393 0.114,0.43 0.445,0.666 0.344,1.284 -0.553,-0.06 -0.583,-0.06 -1.141,0 C 5.28,-2.386 5.381,-2.867 5.034,-2.96 3.503,-3.031 4.461,-1.268 4.119,-0.493 c 0.403,0.082 0.645,0.296 1.03,0.391 0.624,0.047 0.772,-0.316 1.367,-0.293 -0.009,0.138 -0.022,0.277 0.117,0.293 0.552,-0.022 1.286,0.126 1.372,-0.293 -0.051,-0.572 0.252,-0.839 0.801,-0.89 -0.139,0.509 -0.077,0.663 0,0.99 -0.13,0.146 -0.327,0.24 -0.344,0.493 0.191,0.654 0.698,1.043 1.483,1.185 0.108,0.287 0.108,0.302 0,0.591 0.269,-0.03 0.44,0.014 0.579,0.099 -0.283,0.542 0.372,0.421 0.225,1.085 0.38,0.133 0.744,0.276 1.141,0.395 0.061,0.309 -0.345,0.223 -0.226,0.591 0.419,0.298 1.053,0.409 1.607,0.592 0.077,-0.266 -0.234,-0.199 -0.234,-0.394 0.459,0.164 0.945,0.304 1.261,0.591 -0.282,0.154 -0.851,0.061 -0.802,0.494 0.065,0.274 0.438,0.275 0.688,0.393 0.045,0.24 -0.212,0.213 -0.118,0.494 0.557,-0.325 1.201,0.479 1.6,0.297 -0.264,-0.528 -0.807,-0.813 -1.026,-1.382 0.423,-0.069 0.491,0.17 0.91,0.098 0.011,-0.152 -0.048,-0.375 0.116,-0.394 0.115,0.243 0.439,-0.135 0.801,0 -0.054,0.227 -0.223,0.504 0,0.692 -0.416,0.033 -0.522,0.337 -0.686,0.593 0.039,0.611 0.039,0.664 0,1.285 -0.22,0.183 -0.285,0.006 -0.571,0 0.013,0.467 -0.528,0.464 -0.57,0.885 0.087,0.086 0.121,0.224 0.112,0.395 C 14.313,9 14.472,9.729 13.835,9.771 13.778,9.626 13.972,9.261 13.723,9.274 13.486,9.334 12.971,9.152 12.922,9.377 l 0,0.984 c -0.612,-0.237 -0.5,0.23 -1.032,0.296 -0.3,-0.272 -0.245,0.115 -0.568,0.098 -0.276,0.039 -0.246,-0.179 -0.573,-0.098 0.173,-0.983 -0.311,-1.536 -0.116,-2.269 -0.195,-0.029 -0.569,0.28 -0.688,0 C 10.061,8.106 10.328,8.324 10.407,8.191 10.006,7.976 9.998,7.426 9.835,7.004 9.574,7.307 9.521,7.79 9.381,8.191 9.146,8.388 9.154,8.146 8.923,8.092 8.822,8.378 8.752,8.198 8.462,8.191 8.122,8.489 7.734,8.747 7.208,8.881 7.39,9.372 6.806,9.195 6.857,9.573 c 0.248,-0.048 0.222,0.14 0.234,0.295 0.379,0.168 0.54,0.52 0.914,0.693 0.252,0.345 0.427,0.75 1.034,0.788 0.007,0.175 -0.143,0.208 -0.116,0.394 0.771,0.132 1.202,0.214 1.71,0.396 -0.024,0.382 0,0.727 0.116,0.986 -0.134,0.145 -0.433,0.155 -0.57,0.295 0.454,0.033 0.846,0.004 1.029,-0.195 0.213,0.298 0.547,-0.116 0.914,0 -0.159,-0.503 0.522,-0.275 0.456,-0.695 -0.111,-0.723 -1.354,-0.47 -1.485,-1.181 0.189,-0.235 0.664,-0.216 1.144,-0.195 0.709,-0.278 0.992,-0.925 1.947,-0.99 -0.256,0.511 0.191,0.497 0.114,1.085 -0.05,0.257 -0.346,0.297 -0.347,0.594 0.436,-0.022 0.556,-0.314 0.918,-0.396 -0.033,0.258 -0.043,0.492 0.341,0.396 -0.079,0.303 0.117,0.358 0.112,0.593 -0.308,-0.07 -0.217,0.202 -0.341,0.294 -0.391,0.056 -0.688,0.193 -1.03,0.296 0.033,0.203 0.312,0.192 0.347,0.394 -0.146,0.237 -0.503,0.293 -0.463,0.691 l -1.026,0 c 0.055,0.313 -0.307,0.26 -0.342,0.495 -0.488,0.058 -0.756,-0.071 -1.145,-0.101 0.068,0.611 -0.903,0.417 -1.031,0.101 0.044,0.369 -0.09,0.579 -0.456,0.595 C 9.245,14.886 8.558,13.876 9.264,13.323 9.432,13.268 9.851,13.434 9.835,13.225 9.713,12.936 9.472,12.749 9.264,12.53 8.972,12.774 9.503,12.744 9.381,13.125 8.99,13.346 8.616,13.589 8.462,14.015 8.026,13.968 8.1,14.354 7.552,14.21 7.592,13.975 7.336,13.997 7.432,13.719 7.823,13.585 7.68,12.801 7.432,12.631 7.266,12.717 7.187,12.878 7.208,13.125 6.633,13.195 6.633,12.76 6.171,12.73 5.748,12.888 5.28,13.01 5.034,13.323 c 0.51,0.074 0.688,-0.132 1.137,-0.098 0.255,0.204 -0.051,0.283 0,0.591 0.635,0.112 0.888,0.552 1.487,0.689 -0.209,0.309 -0.166,0.543 -0.226,0.788 l -1.71,0 C 5.469,15.018 4.898,15.018 4.803,14.606 c -0.059,0.147 -0.17,0.245 -0.229,0.392 -0.301,0.006 -0.713,-0.091 -0.568,0.295 0.846,-0.15 1.854,0.359 2.627,0.596 0,-0.454 0.979,-0.342 1.143,-0.099 C 7.697,16.016 7.674,16.291 7.552,16.483 6.878,16.405 6.546,16.026 5.834,15.986 l 0,0.592 C 5.209,16.76 5.096,16.112 5.492,15.986 4.836,15.917 4.465,16.095 3.895,16.086 4.063,15.574 3.366,15.813 3.32,15.492 3.605,15.367 3.673,15.543 3.777,15.394 3.703,15.263 3.53,15.21 3.32,15.201 3.138,15.764 2.231,15.708 1.375,15.693 1.315,15.215 1.022,14.943 0.687,14.705 c -0.02,-0.31 0.3,-0.334 0.231,-0.69 0.565,-0.031 0.849,0.186 1.253,0.295 -0.234,-0.535 0.627,-0.119 0.69,-0.396 0.08,-0.268 -0.54,0.07 -0.461,-0.195 -0.002,-0.533 1.251,0.023 1.034,-0.693 0.427,0.221 0.559,0.158 1.027,0 l 0.113,0 c -0.033,0.12 0.329,0.341 0.345,0.099 C 4.898,13.01 4.737,13.016 4.574,13.026 4.606,12.778 5.066,12.467 4.574,12.335 4.44,12.354 4.482,12.516 4.461,12.631 3.445,12.71 2.93,13.218 1.717,13.125 1.367,13.217 1.357,13.603 0.918,13.618 0.865,13.339 0.561,13.27 0.231,13.225 0.268,13.453 0.213,13.601 0.119,13.719 -0.322,13.697 -0.322,13.3 -0.795,13.323 c -0.434,-0.076 -0.547,0.12 -0.917,0.097 -0.127,-0.024 -0.075,-0.195 -0.229,-0.195 -0.111,0.002 -0.091,0.12 -0.111,0.195 -0.275,-0.033 -0.434,-0.153 -0.806,-0.097 -0.913,0.492 -2.672,0.256 -3.654,0.692 -0.854,-0.324 -1.965,-0.414 -2.517,-0.495 -0.26,-0.383 0.208,-0.389 0.339,-0.693 0.437,0.048 0.715,-0.039 0.804,-0.297 -0.465,0.138 -0.411,-0.176 -0.573,-0.296 -0.21,0.087 -0.312,0.257 -0.57,0.296 -0.434,-0.382 -1.479,-0.239 -1.831,-0.687 0.631,0.016 0.853,-0.316 0.916,-0.794 0.606,0.188 1.061,-0.028 1.602,0.105 -0.562,-0.871 -2.94,-0.169 -2.75,-1.679 0.381,-0.239 0.471,-0.271 0.346,-0.791 0.206,-0.013 0.238,0.121 0.455,0.099 0.01,-0.159 -0.055,-0.377 0.113,-0.395 0.163,0.315 0.052,-0.405 0.348,-0.296 0.141,0.386 0.65,0.473 1.025,0.197 -0.494,-0.332 -0.674,-0.931 -1.254,-1.184 -0.525,-0.142 -0.704,-0.577 -1.372,-0.591 0.093,-0.317 -0.181,-0.304 -0.23,-0.494 0.522,-0.057 0.714,0.174 1.257,0.097 0.129,0.286 0.487,0.367 0.918,0.397 0.428,0.679 1.173,1.09 1.828,1.578 l 0.231,0 c 0.119,0.093 0.034,0.361 0.341,0.296 0.008,0.059 0.018,0.116 0.112,0.096 C -6.98,8.426 -6.988,8.367 -7.086,8.388 -7.037,7.945 -7.393,7.865 -7.544,7.598 c 0.94,-0.089 1.169,0.433 1.944,0.494 0.053,0.442 -0.061,0.742 -0.113,1.086 0.525,-0.091 0.555,0.246 1.023,0.199 0.321,-0.19 0.583,-0.419 0.804,-0.693 0.728,-0.2 1.349,-0.486 1.257,-1.381 0.552,0.064 0.027,0.546 0.463,0.592 0.025,-0.834 -0.037,-1.735 0.337,-2.27 -0.346,-0.258 -0.117,-0.366 0,-0.692 0,-0.195 -0.31,-0.123 -0.223,-0.396 -0.055,-1.082 -0.131,-1.807 0,-2.86 0.303,-0.163 0.504,-0.419 0.796,-0.593 0.316,-0.382 0.293,-1.06 0.686,-1.379 -0.133,-0.019 -0.097,-0.182 -0.116,-0.298 0.48,-0.149 0.588,-0.611 0.805,-0.988 0.349,0.077 0.33,-0.171 0.679,-0.095 0.016,0.419 -0.222,0.328 -0.225,0.883 -0.063,0 -0.128,0.084 0,0.101 l 0,-0.101 c 0.243,0.051 0.215,-0.139 0.225,-0.293 0.358,-0.223 0.667,-0.483 0.919,-0.791 -0.082,-0.695 0.22,-1.059 0.454,-1.481 0.945,-0.203 1.5,-0.707 2.632,-0.491 0.131,-0.255 0.283,-0.48 0.459,-0.692 0.431,0.077 0.549,-0.121 0.909,-0.1 0.11,-0.237 0.336,-0.368 0.575,-0.49 l 0,-0.298 c 0.66,-0.058 0.794,-0.567 1.376,-0.689 0.115,0.13 0.108,0.365 0.34,0.39 0.041,-0.354 0.233,-0.589 0.344,-0.881 0,-0.201 -0.31,-0.132 -0.228,-0.399 0.052,-0.508 -0.367,-0.605 -0.456,-0.988 -0.224,-0.689 0.459,-1.064 0,-1.38 0.198,-0.188 0.564,-0.233 0.801,-0.397 -0.094,-0.142 -0.368,-0.139 -0.571,-0.196 -0.084,-0.794 0.419,-1.085 1.029,-1.286 0.044,-0.234 -0.211,-0.212 -0.117,-0.491 0.428,-0.288 0.58,-0.814 1.26,-0.889 0.21,-0.441 0.57,-0.754 0.569,-1.38 -0.116,-0.131 -0.108,-0.363 -0.224,-0.493 0.152,-0.066 0.21,-0.212 0.224,-0.395 -0.309,-0.446 0.137,-0.962 0,-1.58 -0.619,-0.319 -0.334,-1.423 -0.569,-2.073 0.169,-0.272 0.468,0.173 0.569,-0.1 0.103,-0.483 -0.391,-0.452 -0.569,-0.688 -0.145,-0.32 0.364,-0.077 0.225,-0.397 -0.218,-0.238 0.126,-0.478 -0.116,-0.787 0.113,-0.671 0.496,-1.017 0.236,-1.581 0.339,-0.231 0.301,-0.787 0.685,-0.989 -0.017,-0.175 0.134,-0.205 0.11,-0.391 0.29,-0.052 0.475,-0.187 0.686,-0.294 0.429,0.058 1.178,-0.164 1.254,0.198 -0.305,0.057 -0.53,0.19 -0.682,0.395 0.085,0.332 -0.463,0.124 -0.344,0.49 -0.039,0.432 0.332,0.508 0.344,0.889 0.297,0.012 0.443,0.144 0.461,0.393 0.056,0.351 -0.404,0.241 -0.346,0.594 0.309,0.304 0.777,1.279 0,1.381 0.766,-0.168 0.741,0.344 0.914,0.688 0.616,-0.034 0.826,0.279 1.259,0.397 0.077,0.461 -0.183,0.634 -0.229,0.985 l 0.915,0 c 0.006,0.099 0.14,0.079 0.231,0.101 0.063,0.241 0.097,0.506 0.456,0.492 -0.04,0.559 0.433,0.679 0.686,0.989 l 0,0.689 c 0.215,0.175 0.355,0.417 0.568,0.594 0.546,0.139 0.546,0.139 1.03,0.295 0.052,0.632 0.605,1.183 0.231,1.876 0.172,0.082 0.246,0.249 0.227,0.493 0.185,-0.031 0.2,0.092 0.344,0.098 0.044,0.326 0.338,0.435 0.46,0.689 0.305,0.256 -0.016,0.477 0.336,0.592 -0.077,0.305 0.118,0.363 0.118,0.595 0.004,0.367 -0.118,0.626 -0.227,0.887"
             style="fill:#f7f8fc;fill-opacity:1;fill-rule:nonzero;stroke:none"
             id="path4057"
             inkscape:connector-curvature="0" /></g><g
           id="g4059"
           transform="translate(63.9854,62.0596)"><path
             d="m 0,0 c -0.166,0.453 -0.702,0.581 -0.575,1.284 0.808,0.06 1.11,0.555 1.714,0.791 0.722,-0.064 1.088,0.175 1.149,0.688 l -0.574,0 C 1.685,2.685 1.71,2.566 1.595,2.566 0.737,2.484 0.099,2.212 -0.575,1.973 -0.518,1.467 -1.128,1.527 -1.034,0.988 -1.175,0.777 -1.46,0.698 -1.487,0.396 -1.125,0.189 -0.768,-0.033 -0.351,-0.198 -0.298,-0.073 -0.199,0.006 0,0"
             style="fill:#f7f8fc;fill-opacity:1;fill-rule:nonzero;stroke:none"
             id="path4061"
             inkscape:connector-curvature="0" /></g><g
           id="g4063"
           transform="translate(83.0781,63.835)"><path
             d="M 0,0 C 0.273,0.159 0.407,0.437 0.689,0.593 0.252,0.642 0.161,1.047 -0.229,0.987 -0.281,0.982 -0.337,0.755 -0.459,0.791 l -0.682,0 C -1.293,0.071 -0.325,0.314 0,0"
             style="fill:#f7f8fc;fill-opacity:1;fill-rule:nonzero;stroke:none"
             id="path4065"
             inkscape:connector-curvature="0" /></g><g
           id="g4067"
           transform="translate(46.5996,59.3965)"><path
             d="M 0,0 C 0.012,0.251 0.428,0.154 0.573,0.294 0.694,0.795 0.312,0.86 0.346,1.279 -0.152,1.148 -0.329,1.343 -0.8,1.184 -1.109,1.245 -1.085,1.596 -1.486,1.575 -1.346,1.098 -1.941,1.246 -1.941,0.888 -1.623,0.805 -1.645,1.025 -1.375,0.984 -1.436,0.746 -1.813,0.773 -1.713,0.394 -1.142,0.524 -1.266,0.054 -0.913,0 -0.816,0.203 -0.117,0.102 0,0"
             style="fill:#f7f8fc;fill-opacity:1;fill-rule:nonzero;stroke:none"
             id="path4069"
             inkscape:connector-curvature="0" /></g><g
           id="g4071"
           transform="translate(30.9316,59.3965)"><path
             d="M 0,0 C -0.453,0.104 -0.154,0.248 -0.454,0.492 -0.799,0.421 -0.791,0.662 -1.141,0.59 -1.303,0.4 -1.201,-0.013 -1.709,0.094 -1.703,-0.252 -1.334,-0.3 -0.913,-0.298 -0.953,0.474 -0.134,-0.62 0,0"
             style="fill:#f7f8fc;fill-opacity:1;fill-rule:nonzero;stroke:none"
             id="path4073"
             inkscape:connector-curvature="0" /></g><g
           id="g4075"
           transform="translate(51.0654,55.8408)"><path
             d="M 0,0 C -0.16,0.104 -0.351,0.162 -0.464,0.296 -0.321,0.881 -1.222,0.975 -0.805,1.481 -0.959,1.582 -1.151,1.644 -1.266,1.778 -1.1,1.863 -0.903,1.925 -0.92,2.174 -1.339,2.204 -1.559,2.062 -1.834,1.978 -1.748,1.438 -2.013,1.21 -1.948,0.692 -1.671,0.551 -1.53,0.538 -1.38,0.495 -1.331,0.146 -1.765,-0.047 -1.948,0.104 c -0.088,-0.446 0.078,-0.663 0.23,-0.892 -0.201,-0.091 -0.614,0.006 -0.577,-0.297 0.568,0.072 1.144,0.137 1.831,0.101 C -0.368,-0.562 -0.433,-0.283 0,0"
             style="fill:#f7f8fc;fill-opacity:1;fill-rule:nonzero;stroke:none"
             id="path4077"
             inkscape:connector-curvature="0" /></g><g
           id="g4079"
           transform="translate(47.9688,55.4453)"><path
             d="m 0,0 c 0.264,0.105 0.694,0.066 0.917,0.199 -0.12,0.413 -0.026,0.437 0,0.889 l -0.567,0 C 0.341,0.647 0.09,0.963 -0.109,0.792 -0.095,0.507 -0.172,0.148 0,0"
             style="fill:#f7f8fc;fill-opacity:1;fill-rule:nonzero;stroke:none"
             id="path4081"
             inkscape:connector-curvature="0" /></g><g
           id="g4083"
           transform="translate(87.1904,52.585)"><path
             d="M 0,0 C 0.222,-0.013 0.084,-0.324 0.345,-0.294 0.598,-0.053 0.56,0.439 1.03,0.492 0.432,0.566 0.056,0.836 -0.568,0.888 -0.486,0.419 -0.697,0.211 -0.684,-0.201 -0.371,-0.464 -0.402,0.056 0,0"
             style="fill:#f7f8fc;fill-opacity:1;fill-rule:nonzero;stroke:none"
             id="path4085"
             inkscape:connector-curvature="0" /></g><g
           id="g4087"
           transform="translate(84.5645,49.5254)"><path
             d="m 0,0 c -0.021,-0.348 0.269,-0.425 0.457,-0.59 0.08,0.36 0.356,0.546 0.689,0.692 C 1.297,0.102 1.392,0.053 1.486,0 1.846,0.38 2.604,0.416 2.971,0.791 2.953,1.495 2.718,2.022 2.746,2.766 l -0.463,0 C 2.425,2.302 2.224,2.076 2.401,1.581 2.313,1.557 2.271,1.497 2.283,1.38 1.875,1.228 1.671,1.113 1.254,0.791 0.854,0.609 0.126,0.715 0.113,0.196 0.061,-0.075 0.734,0.273 0.687,0 L 0,0 Z"
             style="fill:#f7f8fc;fill-opacity:1;fill-rule:nonzero;stroke:none"
             id="path4089"
             inkscape:connector-curvature="0" /></g><g
           id="g4091"
           transform="translate(56.6631,50.3164)"><path
             d="M 0,0 C 0.033,-0.276 0.379,-0.08 0.683,-0.299 0.767,0.069 0.51,0.139 0.116,0.099 0.134,0.015 0.068,0.004 0,0"
             style="fill:#f7f8fc;fill-opacity:1;fill-rule:nonzero;stroke:none"
             id="path4093"
             inkscape:connector-curvature="0" /></g><g
           id="g4095"
           transform="translate(82.1592,46.957)"><path
             d="M 0,0 C 0.187,-0.137 0.295,-0.336 0.344,-0.589 0.82,-0.566 0.781,-0.106 0.805,0.298 0.521,0.518 0.122,0.228 0,0"
             style="fill:#f7f8fc;fill-opacity:1;fill-rule:nonzero;stroke:none"
             id="path4097"
             inkscape:connector-curvature="0" /></g><g
           id="g4099"
           transform="translate(29.2222,47.2549)"><path
             d="m 0,0 0,-0.395 0.458,0 C 0.442,-0.146 0.292,-0.011 0,0"
             style="fill:#f7f8fc;fill-opacity:1;fill-rule:nonzero;stroke:none"
             id="path4101"
             inkscape:connector-curvature="0" /></g><g
           id="g4103"
           transform="translate(30.4775,46.7656)"><path
             d="m 0,0 c 0.035,0.226 -0.017,0.376 -0.114,0.489 l -0.345,0 C -0.501,0.152 -0.424,-0.074 0,0"
             style="fill:#f7f8fc;fill-opacity:1;fill-rule:nonzero;stroke:none"
             id="path4105"
             inkscape:connector-curvature="0" /></g><g
           id="g4107"
           transform="translate(30.5894,46.8604)"><path
             d="M 0,0 0,-0.492 C 0.241,-0.534 0.306,-0.426 0.458,-0.393 0.447,-0.143 0.295,-0.01 0,0"
             style="fill:#f7f8fc;fill-opacity:1;fill-rule:nonzero;stroke:none"
             id="path4109"
             inkscape:connector-curvature="0" /></g><g
           id="g4111"
           transform="translate(30.3633,45.2822)"><path
             d="M 0,0 C 0.409,0.057 0.554,-0.115 0.805,-0.199 0.813,0.086 1.277,-0.018 1.6,0 1.436,0.653 0.805,0.563 0.114,0.593 0.2,0.862 -0.119,0.792 -0.119,0.987 -0.367,1.098 -0.747,1.104 -0.801,1.382 l -1.712,0 c -0.05,-0.189 -0.248,-0.248 -0.231,-0.496 0.467,-0.037 0.463,0.326 1.031,0.2 0.482,-0.082 0.533,-0.528 1.029,-0.593 0.272,-0.061 0.829,0.125 0.91,-0.1 C -0.19,0.384 -0.059,0.252 0,0"
             style="fill:#f7f8fc;fill-opacity:1;fill-rule:nonzero;stroke:none"
             id="path4113"
             inkscape:connector-curvature="0" /></g><g
           id="g4115"
           transform="translate(31.5063,46.3682)"><path
             d="M 0,0 C -0.038,0.135 -0.286,0.081 -0.459,0.1 -0.699,-0.266 0.125,-0.348 0,0"
             style="fill:#f7f8fc;fill-opacity:1;fill-rule:nonzero;stroke:none"
             id="path4117"
             inkscape:connector-curvature="0" /></g><g
           id="g4119"
           transform="translate(82.6191,45.2822)"><path
             d="M 0,0 C 0.178,-0.239 0.408,-0.439 0.686,-0.592 0.831,-0.287 1.219,-0.197 1.148,0.297 0.836,0.653 -0.016,0.492 0,0"
             style="fill:#f7f8fc;fill-opacity:1;fill-rule:nonzero;stroke:none"
             id="path4121"
             inkscape:connector-curvature="0" /></g><g
           id="g4123"
           transform="translate(79.8726,44.9854)"><path
             d="M 0,0 C 0.322,0.057 0.322,0.385 0.459,0.594 0.357,0.671 0.202,0.699 0,0.689 -0.21,0.307 -0.149,0.609 0,0"
             style="fill:#f7f8fc;fill-opacity:1;fill-rule:nonzero;stroke:none"
             id="path4125"
             inkscape:connector-curvature="0" /></g><g
           id="g4127"
           transform="translate(29.1045,45.4814)"><path
             d="m 0,0 0,-0.398 c 0.383,0.106 0.392,-0.032 0.798,0.1 C 0.875,0.097 0.367,-0.017 0,0"
             style="fill:#f7f8fc;fill-opacity:1;fill-rule:nonzero;stroke:none"
             id="path4129"
             inkscape:connector-curvature="0" /></g><g
           id="g4131"
           transform="translate(32.189,45.083)"><path
             d="M 0,0 C 0.414,-0.024 0.793,-0.021 0.688,0.398 L 0,0.398 0,0 Z"
             style="fill:#f7f8fc;fill-opacity:1;fill-rule:nonzero;stroke:none"
             id="path4133"
             inkscape:connector-curvature="0" /></g><g
           id="g4135"
           transform="translate(44.1973,45.083)"><path
             d="m 0,0 c 0,-0.191 -0.311,-0.124 -0.225,-0.393 l 0.454,0 C 0.265,-0.167 0.199,-0.021 0,0"
             style="fill:#f7f8fc;fill-opacity:1;fill-rule:nonzero;stroke:none"
             id="path4137"
             inkscape:connector-curvature="0" /></g><g
           id="g4139"
           transform="translate(83.5366,43.5049)"><path
             d="M 0,0 C 0.236,-0.213 0.323,0.052 0.685,0 0.646,-0.229 0.438,-0.427 0.8,-0.492 0.961,-0.203 1.282,-0.054 1.827,-0.098 1.934,0.357 1.462,0.31 1.256,0.493 1.285,0.816 1.121,0.972 0.8,0.987 0.639,0.86 0.686,0.561 0.685,0.296 0.301,0.467 0.188,0.237 0,0"
             style="fill:#f7f8fc;fill-opacity:1;fill-rule:nonzero;stroke:none"
             id="path4141"
             inkscape:connector-curvature="0" /></g><g
           id="g4143"
           transform="translate(72.2119,43.2109)"><path
             d="M 0,0 C 0.164,-0.585 -0.435,-0.705 0,-0.987 0.362,-1.035 0.305,-0.723 0.575,-0.691 0.479,-0.379 0.243,-0.187 0,0"
             style="fill:#f7f8fc;fill-opacity:1;fill-rule:nonzero;stroke:none"
             id="path4145"
             inkscape:connector-curvature="0" /></g><g
           id="g4147"
           transform="translate(79.7607,40.543)"><path
             d="M 0,0 C 0.112,-0.397 0.61,-0.459 0.571,-0.985 1.312,-0.837 1.2,-1.428 1.942,-1.28 1.912,-1.054 2.271,-1.17 2.287,-0.985 2.201,-0.962 2.062,-0.982 2.059,-0.884 2.435,-0.748 2.248,-0.132 2.634,0 2.374,0.321 2.73,0.657 2.518,0.891 2.717,0.979 2.912,1.072 2.858,1.382 2.583,1.569 2.36,1.805 1.83,1.78 1.724,0.75 0.204,0.947 0,0"
             style="fill:#f7f8fc;fill-opacity:1;fill-rule:nonzero;stroke:none"
             id="path4149"
             inkscape:connector-curvature="0" /></g><g
           id="g4151"
           transform="translate(77.5859,41.2363)"><path
             d="m 0,0 c -0.172,0.23 -0.534,0.389 -0.452,0.688 -0.312,-0.068 -0.232,0.199 -0.46,0.199 0.015,-0.435 -0.279,0.011 -0.573,-0.098 0,-1.152 1.606,-0.917 1.377,-2.268 0.563,-0.054 0.72,-0.706 1.252,-0.495 0.262,0.379 -0.235,0.809 -0.222,1.281 C 0.572,-0.49 0.161,-0.209 0,0"
             style="fill:#f7f8fc;fill-opacity:1;fill-rule:nonzero;stroke:none"
             id="path4153"
             inkscape:connector-curvature="0" /></g><g
           id="g4155"
           transform="translate(83.9966,40.4453)"><path
             d="m 0,0 c -0.025,0.439 -0.722,0.301 -0.918,0.593 -0.587,-0.406 -0.995,-1.504 -0.114,-1.873 -0.024,0.284 0.027,0.502 0.228,0.592 0.251,-0.191 0.266,-0.504 0.685,-0.299 C -0.177,-0.575 -0.562,-0.443 -0.574,0 -0.426,-0.127 -0.159,-0.127 0,0"
             style="fill:#f7f8fc;fill-opacity:1;fill-rule:nonzero;stroke:none"
             id="path4157"
             inkscape:connector-curvature="0" /></g><g
           id="g4159"
           transform="translate(86.5063,40.8418)"><path
             d="M 0,0 C -0.373,0.202 -1.286,0.162 -1.255,-0.299 -0.865,-0.509 -0.03,-0.411 0,0"
             style="fill:#f7f8fc;fill-opacity:1;fill-rule:nonzero;stroke:none"
             id="path4161"
             inkscape:connector-curvature="0" /></g><g
           id="g4163"
           transform="translate(87.7666,40.4453)"><path
             d="m 0,0 -0.801,0 c -0.102,-0.143 -0.171,-0.313 -0.459,-0.296 -0.355,-0.074 -0.215,0.275 -0.568,0.2 0.034,-0.259 -0.451,-0.08 -0.343,-0.393 0.016,-0.223 0.286,0.123 0.565,0 0.512,-0.357 1.179,-0.569 1.606,-0.99 l 0,-0.592 c 0.612,0.32 0.795,-0.202 1.258,-0.295 0.4,0.013 0.274,0.486 0.8,0.393 0.267,-0.132 0.57,-0.752 1.027,-0.393 -0.238,0.087 -0.348,0.291 -0.342,0.589 -0.301,0.236 -0.721,0.365 -0.914,0.693 l 0,0.298 C 0.948,-0.76 0.708,-0.179 0,0"
             style="fill:#f7f8fc;fill-opacity:1;fill-rule:nonzero;stroke:none"
             id="path4165"
             inkscape:connector-curvature="0" /></g><g
           id="g4167"
           transform="translate(81.7031,38.1758)"><path
             d="M 0,0 C 0.064,0.351 -0.401,0.244 -0.34,0.593 -1.273,0.572 -1.936,0.798 -2.629,0.989 -2.729,0.813 -2.948,0.735 -2.854,0.396 -1.765,0.386 -1.245,-0.123 0,0"
             style="fill:#f7f8fc;fill-opacity:1;fill-rule:nonzero;stroke:none"
             id="path4169"
             inkscape:connector-curvature="0" /></g><g
           id="g4171"
           transform="translate(90.1641,34.3271)"><path
             d="M 0,0 C 0.045,0.466 -0.199,0.681 -0.113,1.187 -0.339,1.252 -0.375,1.483 -0.568,1.578 -0.608,2.335 -1.387,2.454 -1.256,3.355 -1.469,3.335 -1.506,3.466 -1.71,3.456 -2.005,3.05 -1.588,2.03 -2.059,1.777 c -0.449,-0.129 -0.231,0.327 -0.685,0.2 -0.017,0.276 -0.54,0.12 -0.454,0.492 -0.059,0.311 0.563,0.036 0.454,0.39 -0.398,0.384 -1.569,0.1 -2.169,0.298 -0.2,-0.059 0.007,-0.467 -0.23,-0.49 C -5.567,2.603 -5.947,2.508 -6.286,2.368 -6.431,2.069 -6.326,1.546 -6.742,1.479 -7.014,1.713 -7.308,1.465 -7.661,1.479 -7.884,1.411 -7.635,0.928 -7.886,0.891 -8.122,0.944 -8.108,1.187 -8.344,0.987 -8.629,0.74 -8.492,0.131 -8.915,0 -9.172,-0.141 -9.68,-0.065 -9.832,-0.296 c 0.121,-0.439 0.4,-0.986 0.115,-1.48 0.224,-0.07 0.301,-0.266 0.343,-0.493 0.063,-0.45 -0.203,-0.615 -0.118,-1.085 0.341,0.025 0.357,-0.223 0.691,-0.2 0.476,0.18 0.758,0.53 1.601,0.396 0.404,0.44 1.206,0.54 2.173,0.492 0.327,-0.205 0.536,-0.521 0.681,-0.888 0.449,0.186 0.311,-0.227 0.804,0 -0.005,-0.259 0.04,-0.559 -0.116,-0.69 0.731,-0.366 1.164,-0.388 2.29,-0.397 0.288,0.179 0.5,0.427 0.914,0.499 -0.056,0.505 0.546,0.445 0.454,0.984 0.399,0.023 0.299,0.47 0.687,0.492 -0.129,0.352 0.196,0.56 0.229,0.89 C 0.979,-1.173 0.694,-0.557 0.575,0 0.287,0.131 0.1,-0.291 0,0"
             style="fill:#f7f8fc;fill-opacity:1;fill-rule:nonzero;stroke:none"
             id="path4173"
             inkscape:connector-curvature="0" /></g><g
           id="g4175"
           transform="translate(63.5244,37.4844)"><path
             d="m 0,0 c -0.201,-0.288 -0.377,-0.596 -0.459,-0.987 -0.496,-0.099 -0.748,-0.4 -1.026,-0.691 -0.092,-0.342 0.168,-0.382 0.114,-0.689 -0.105,-0.207 -0.183,-0.439 -0.347,-0.594 0.249,-0.445 -0.08,-0.839 0.347,-1.184 0.37,-0.019 0.481,0.175 0.912,0.1 0.249,0.441 0.152,0.637 0.459,1.084 l 0,0.494 c 0.026,0.112 0.126,0.154 0.228,0.2 -0.207,0.432 0.209,0.841 0.233,1.579 C 0.034,-0.694 0.472,0.044 0,0"
             style="fill:#f7f8fc;fill-opacity:1;fill-rule:nonzero;stroke:none"
             id="path4177"
             inkscape:connector-curvature="0" /></g><g
           id="g4179"
           transform="translate(96.4561,30.7734)"><path
             d="m 0,0 c 0.021,0.281 0.014,0.54 -0.343,0.492 l 0,-0.785 c -0.092,-0.291 -0.545,-0.259 -0.457,-0.695 0.77,0.098 0.262,-0.293 0.228,-0.59 0.722,0.029 0.749,0.674 1.03,1.085 0.17,0.148 0.479,0.177 0.569,0.398 C 0.753,0.209 0.541,-0.036 0,0"
             style="fill:#f7f8fc;fill-opacity:1;fill-rule:nonzero;stroke:none"
             id="path4181"
             inkscape:connector-curvature="0" /></g><g
           id="g4183"
           transform="translate(95.1973,29.5889)"><path
             d="m 0,0 c -0.1,-0.208 -0.344,-0.292 -0.339,-0.591 -0.203,0.009 -0.355,-0.023 -0.463,-0.097 -0.192,-0.198 -0.264,-0.497 -0.568,-0.591 -0.473,-0.155 -0.612,-0.591 -0.805,-0.989 0.374,0.161 0.622,0.048 1.028,0 0.109,0.236 0.462,0.261 0.345,0.693 l 0.463,0 c 0.03,0.561 0.899,0.402 0.908,0.984 C 0.531,-0.263 0.232,-0.165 0,0"
             style="fill:#f7f8fc;fill-opacity:1;fill-rule:nonzero;stroke:none"
             id="path4185"
             inkscape:connector-curvature="0" /></g><g
           id="g4187"
           transform="translate(87.4199,29.2959)"><path
             d="M 0,0 C -0.127,-0.151 0.382,-0.596 0.461,-0.892 1.018,-0.844 1.376,-0.63 1.261,0 0.763,-0.079 0.203,0.122 0,0"
             style="fill:#f7f8fc;fill-opacity:1;fill-rule:nonzero;stroke:none"
             id="path4189"
             inkscape:connector-curvature="0" /></g><g
           id="g4191"
           transform="translate(35.6206,26.2373)"><path
             d="M 0,0 0.459,0 C 0.539,0.388 -0.018,0.32 0,0"
             style="fill:#f7f8fc;fill-opacity:1;fill-rule:nonzero;stroke:none"
             id="path4193"
             inkscape:connector-curvature="0" /></g><g
           id="g4195"
           transform="translate(50.1836,69.293)"><path
             d="m 0,0 c -3.029,0 -5.486,2.455 -5.486,5.487 0,3.031 2.457,5.488 5.486,5.488 3.035,0 5.488,-2.457 5.488,-5.488 C 5.488,2.455 3.035,0 0,0 m 0,16.543 c -6.107,0 -11.057,-4.949 -11.057,-11.056 0,-6.108 11.057,-15.535 11.057,-15.535 0,0 11.059,9.427 11.059,15.535 0,6.107 -4.95,11.056 -11.059,11.056"
             style="fill:#ffa38f;fill-opacity:1;fill-rule:nonzero;stroke:none"
             id="path4197"
             inkscape:connector-curvature="0" /></g><g
           id="g4199"
           transform="translate(50.1836,85.8359)"><path
             d="m 0,0 c -0.066,0 -0.137,-0.011 -0.201,-0.011 l 0,-5.037 c 0.064,0.003 0.135,0.013 0.201,0.013 3.328,0 6.021,-2.695 6.021,-6.021 0,-3.327 -2.693,-6.021 -6.021,-6.021 -0.066,0 -0.137,0.007 -0.201,0.007 l 0,-9.34 C -0.076,-26.524 0,-26.591 0,-26.591 c 0,0 11.059,9.427 11.059,15.535 C 11.059,-4.949 6.109,0 0,0"
             style="fill:#ff876c;fill-opacity:1;fill-rule:nonzero;stroke:none"
             id="path4201"
             inkscape:connector-curvature="0" /></g><g
           id="g4203"
           transform="translate(50.1836,69.293)"><path
             d="m 0,0 c -3.029,0 -5.486,2.455 -5.486,5.487 0,3.031 2.457,5.488 5.486,5.488 3.035,0 5.488,-2.457 5.488,-5.488 C 5.488,2.455 3.035,0 0,0"
             style="fill:#ffffff;fill-opacity:1;fill-rule:nonzero;stroke:none"
             id="path4205"
             inkscape:connector-curvature="0" /></g><g
           id="g4207"
           transform="translate(50.1836,80.2676)"><path
             d="M 0,0 C 3.035,0 5.488,-2.457 5.488,-5.487 5.488,-8.52 3.035,-10.975 0,-10.975"
             style="fill:#e5e8ec;fill-opacity:1;fill-rule:nonzero;stroke:none"
             id="path4209"
             inkscape:connector-curvature="0" /></g></g></g></g></svg>