<?xml version="1.0" encoding="UTF-8" standalone="no"?>
<!-- Created with Inkscape (http://www.inkscape.org/) -->

<svg
   xmlns:dc="http://purl.org/dc/elements/1.1/"
   xmlns:cc="http://creativecommons.org/ns#"
   xmlns:rdf="http://www.w3.org/1999/02/22-rdf-syntax-ns#"
   xmlns:svg="http://www.w3.org/2000/svg"
   xmlns="http://www.w3.org/2000/svg"
   xmlns:sodipodi="http://sodipodi.sourceforge.net/DTD/sodipodi-0.dtd"
   xmlns:inkscape="http://www.inkscape.org/namespaces/inkscape"
   id="svg4211"
   version="1.1"
   inkscape:version="0.91 r13725"
   xml:space="preserve"
   width="132.5"
   height="130.4375"
   viewBox="0 0 132.5 130.4375"
   sodipodi:docname="my-site-ban.svg"><metadata
     id="metadata4217"><rdf:RDF><cc:Work
         rdf:about=""><dc:format>image/svg+xml</dc:format><dc:type
           rdf:resource="http://purl.org/dc/dcmitype/StillImage" /><dc:title></dc:title></cc:Work></rdf:RDF></metadata><defs
     id="defs4215"><clipPath
       clipPathUnits="userSpaceOnUse"
       id="clipPath4225"><path
         d="m 0,104.35 106,0 L 106,0 0,0 0,104.35 Z"
         id="path4227"
         inkscape:connector-curvature="0" /></clipPath></defs><sodipodi:namedview
     pagecolor="#ffffff"
     bordercolor="#666666"
     borderopacity="1"
     objecttolerance="10"
     gridtolerance="10"
     guidetolerance="10"
     inkscape:pageopacity="0"
     inkscape:pageshadow="2"
     inkscape:window-width="640"
     inkscape:window-height="480"
     id="namedview4213"
     showgrid="false"
     inkscape:zoom="1.8092956"
     inkscape:cx="66.25"
     inkscape:cy="65.21875"
     inkscape:window-x="0"
     inkscape:window-y="0"
     inkscape:window-maximized="0"
     inkscape:current-layer="g4219" /><g
     id="g4219"
     inkscape:groupmode="layer"
     inkscape:label="my-site-ban"
     transform="matrix(1.25,0,0,-1.25,0,130.4375)"><g
       id="g4221"><g
         id="g4223"
         clip-path="url(#clipPath4225)"><g
           id="g4229"
           transform="translate(53,0)"><path
             d="m 0,0 c -29.225,0 -53,23.404 -53,52.174 0,28.769 23.775,52.176 53,52.176 29.225,0 53,-23.407 53,-52.176 C 53,23.404 29.225,0 0,0"
             style="fill:#82cf8f;fill-opacity:1;fill-rule:nonzero;stroke:none"
             id="path4231"
             inkscape:connector-curvature="0" /></g><g
           id="g4233"
           transform="translate(17.9014,18.5371)"><path
             d="m 0,0 c -1.41,0 -2.56,1.147 -2.56,2.56 l 0,47.513 c 0,1.412 1.15,2.561 2.56,2.561 l 69.428,0 c 1.414,0 2.56,-1.149 2.56,-2.561 l 0,-47.513 C 71.988,1.147 70.842,0 69.428,0 L 0,0 Z"
             style="fill:#cdd5d7;fill-opacity:1;fill-rule:nonzero;stroke:none"
             id="path4235"
             inkscape:connector-curvature="0" /></g><g
           id="g4237"
           transform="translate(89.6494,21.0967)"><path
             d="m 0,0 c 0,-1.281 -1.039,-2.321 -2.32,-2.321 l -69.428,0 c -1.281,0 -2.318,1.04 -2.318,2.321 l 0,47.514 c 0,1.281 1.037,2.32 2.318,2.32 l 69.428,0 c 1.281,0 2.32,-1.039 2.32,-2.32 L 0,0 Z"
             style="fill:#30363d;fill-opacity:1;fill-rule:nonzero;stroke:none"
             id="path4239"
             inkscape:connector-curvature="0" /></g><path
           d="m 86.017,24.961 -66.803,0 0,42.641 66.803,0 0,-42.641 z"
           style="fill:#01bacc;fill-opacity:1;fill-rule:nonzero;stroke:none"
           id="path4241"
           inkscape:connector-curvature="0" /><g
           id="g4243"
           transform="translate(52.5342,69.3154)"><path
             d="m 0,0 c 0,-0.17 -0.141,-0.311 -0.312,-0.311 -0.174,0 -0.311,0.141 -0.311,0.311 0,0.174 0.137,0.312 0.311,0.312 C -0.141,0.312 0,0.174 0,0"
             style="fill:#e5e8ec;fill-opacity:1;fill-rule:nonzero;stroke:none"
             id="path4245"
             inkscape:connector-curvature="0" /></g><g
           id="g4247"
           transform="translate(22.7471,24.9609)"><path
             d="m 0,0 10.629,0 16.527,42.641 -10.629,0 L 0,0 Z"
             style="fill:#00c6da;fill-opacity:1;fill-rule:nonzero;stroke:none"
             id="path4249"
             inkscape:connector-curvature="0" /></g><g
           id="g4251"
           transform="translate(40.2119,24.9609)"><path
             d="m 0,0 16.525,42.641 -3.416,0 L -3.418,0 0,0 Z"
             style="fill:#00c6da;fill-opacity:1;fill-rule:nonzero;stroke:none"
             id="path4253"
             inkscape:connector-curvature="0" /></g><g
           id="g4255"
           transform="translate(49.9033,67.6016)"><path
             d="m 0,0 1.291,3.329 -10.629,0 L -10.629,0 0,0 Z"
             style="fill:#484f59;fill-opacity:1;fill-rule:nonzero;stroke:none"
             id="path4257"
             inkscape:connector-curvature="0" /></g><g
           id="g4259"
           transform="translate(22.7471,24.9609)"><path
             d="m 0,0 -2.396,-6.186 10.628,0 L 10.629,0 0,0 Z"
             style="fill:#484f59;fill-opacity:1;fill-rule:nonzero;stroke:none"
             id="path4261"
             inkscape:connector-curvature="0" /></g><g
           id="g4263"
           transform="translate(56.7373,67.6016)"><path
             d="m 0,0 1.291,3.329 -3.416,0 L -3.416,0 0,0 Z"
             style="fill:#484f59;fill-opacity:1;fill-rule:nonzero;stroke:none"
             id="path4265"
             inkscape:connector-curvature="0" /></g><g
           id="g4267"
           transform="translate(36.7939,24.9609)"><path
             d="m 0,0 -2.396,-6.186 3.416,0 L 3.418,0 0,0 Z"
             style="fill:#484f59;fill-opacity:1;fill-rule:nonzero;stroke:none"
             id="path4269"
             inkscape:connector-curvature="0" /></g><path
           d="m 102.374,18.492 -99.516,0 0,2.913 99.516,0 0,-2.913 z"
           style="fill:#e5e8ec;fill-opacity:1;fill-rule:nonzero;stroke:none"
           id="path4271"
           inkscape:connector-curvature="0" /><g
           id="g4273"
           transform="translate(3.0029,18.4922)"><path
             d="m 0,0 c 1.178,-1.244 3.34,-1.732 4.832,-1.732 l 89.561,0 c 1.492,0 3.658,0.488 4.832,1.732 L 0,0 Z"
             style="fill:#cdd5d7;fill-opacity:1;fill-rule:nonzero;stroke:none"
             id="path4275"
             inkscape:connector-curvature="0" /></g><g
           id="g4277"
           transform="translate(45.8564,21.4053)"><path
             d="m 0,0 0,-0.312 c 0,-0.576 0.465,-1.042 1.039,-1.042 l 11.441,0 c 0.573,0 1.04,0.466 1.04,1.042 L 13.52,0 0,0 Z"
             style="fill:#cdd5d7;fill-opacity:1;fill-rule:nonzero;stroke:none"
             id="path4279"
             inkscape:connector-curvature="0" /></g><g
           id="g4281"
           transform="translate(52.6143,30.7012)"><path
             d="m 0,0 -10.716,11.96 -10.719,11.958 21.435,0 21.437,0 L 10.718,11.96 0,0 Z"
             style="fill:#e5e8ec;fill-opacity:1;fill-rule:nonzero;stroke:none"
             id="path4283"
             inkscape:connector-curvature="0" /></g><g
           id="g4285"
           transform="translate(52.6143,30.7012)"><path
             d="m 0,0 -4.724,11.96 -4.723,11.958 9.447,0 9.452,0 L 4.726,11.96 0,0 Z"
             style="fill:#cdd5d7;fill-opacity:1;fill-rule:nonzero;stroke:none"
             id="path4287"
             inkscape:connector-curvature="0" /></g><g
           id="g4289"
           transform="translate(31.1797,54.5625)"><path
             d="M 0,0 21.435,0 42.871,0 36.972,7.602 5.897,7.602 0,0 Z"
             style="fill:#b7bec0;fill-opacity:1;fill-rule:nonzero;stroke:none"
             id="path4291"
             inkscape:connector-curvature="0" /></g><g
           id="g4293"
           transform="translate(52.6143,62.2402)"><path
             d="m 0,0 -9.447,-7.678 9.447,0 9.452,0 L 0,0 Z"
             style="fill:#e5e8ec;fill-opacity:1;fill-rule:nonzero;stroke:none"
             id="path4295"
             inkscape:connector-curvature="0" /></g><g
           id="g4297"
           transform="translate(43.0898,54.5625)"><path
             d="m 0,0 -5.996,7.602 -0.017,0 L -11.91,0 0,0 Z"
             style="fill:#cdd5d7;fill-opacity:1;fill-rule:nonzero;stroke:none"
             id="path4299"
             inkscape:connector-curvature="0" /></g><g
           id="g4301"
           transform="translate(62.1436,54.5625)"><path
             d="m 0,0 5.994,7.602 0.014,0 L 11.907,0 0,0 Z"
             style="fill:#cdd5d7;fill-opacity:1;fill-rule:nonzero;stroke:none"
             id="path4303"
             inkscape:connector-curvature="0" /></g><g
           id="g4305"
           transform="translate(81.8438,80.1777)"><path
             d="M 0,0 0.41,-1.845 2.254,-2.254 0.41,-2.662 0,-4.507 -0.408,-2.662 -2.254,-2.254 -0.408,-1.845 0,0 Z"
             style="fill:#f7f8fc;fill-opacity:1;fill-rule:nonzero;stroke:none"
             id="path4307"
             inkscape:connector-curvature="0" /></g><g
           id="g4309"
           transform="translate(74.5645,94.9492)"><path
             d="M 0,0 0.371,-4.377 4.748,-4.746 0.371,-5.116 0,-9.494 l -0.369,4.378 -4.377,0.37 4.377,0.369 L 0,0 Z"
             style="fill:#f7f8fc;fill-opacity:1;fill-rule:nonzero;stroke:none"
             id="path4311"
             inkscape:connector-curvature="0" /></g><g
           id="g4313"
           transform="translate(63.1328,83.8691)"><path
             d="M 0,0 0.699,-4.139 4.838,-4.837 0.699,-5.536 0,-9.674 -0.697,-5.536 -4.836,-4.837 -0.697,-4.139 0,0 Z"
             style="fill:#f7f8fc;fill-opacity:1;fill-rule:nonzero;stroke:none"
             id="path4315"
             inkscape:connector-curvature="0" /></g></g></g></g></svg>