<?xml version="1.0" encoding="UTF-8" standalone="no"?>
<!-- Created with Inkscape (http://www.inkscape.org/) -->

<svg
   xmlns:dc="http://purl.org/dc/elements/1.1/"
   xmlns:cc="http://creativecommons.org/ns#"
   xmlns:rdf="http://www.w3.org/1999/02/22-rdf-syntax-ns#"
   xmlns:svg="http://www.w3.org/2000/svg"
   xmlns="http://www.w3.org/2000/svg"
   xmlns:sodipodi="http://sodipodi.sourceforge.net/DTD/sodipodi-0.dtd"
   xmlns:inkscape="http://www.inkscape.org/namespaces/inkscape"
   id="svg2"
   version="1.1"
   inkscape:version="0.91 r13725"
   xml:space="preserve"
   width="139.33624"
   height="134.8875"
   viewBox="0 0 139.33624 134.8875"
   sodipodi:docname="offer-ban.svg"><metadata
     id="metadata8"><rdf:RDF><cc:Work
         rdf:about=""><dc:format>image/svg+xml</dc:format><dc:type
           rdf:resource="http://purl.org/dc/dcmitype/StillImage" /><dc:title></dc:title></cc:Work></rdf:RDF></metadata><defs
     id="defs6"><clipPath
       clipPathUnits="userSpaceOnUse"
       id="clipPath16"><path
         d="m 0,107.91 111.469,0 L 111.469,0 0,0 0,107.91 Z"
         id="path18"
         inkscape:connector-curvature="0" /></clipPath><clipPath
       clipPathUnits="userSpaceOnUse"
       id="clipPath124"><path
         d="M 53,107.91 C 23.775,107.91 0,84.506 0,55.736 l 0,0 C 0,26.967 23.775,3.56 53,3.56 l 0,0 c 29.225,0 53,23.407 53,52.176 l 0,0 c 0,28.77 -23.775,52.174 -53,52.174 z"
         id="path126"
         inkscape:connector-curvature="0" /></clipPath></defs><sodipodi:namedview
     pagecolor="#ffffff"
     bordercolor="#666666"
     borderopacity="1"
     objecttolerance="10"
     gridtolerance="10"
     guidetolerance="10"
     inkscape:pageopacity="0"
     inkscape:pageshadow="2"
     inkscape:window-width="640"
     inkscape:window-height="480"
     id="namedview4"
     showgrid="false"
     inkscape:zoom="1.7496062"
     inkscape:cx="69.668121"
     inkscape:cy="67.443748"
     inkscape:window-x="0"
     inkscape:window-y="0"
     inkscape:window-maximized="0"
     inkscape:current-layer="g10" /><g
     id="g10"
     inkscape:groupmode="layer"
     inkscape:label="offer-ban"
     transform="matrix(1.25,0,0,-1.25,0,134.8875)"><g
       id="g12"><g
         id="g14"
         clip-path="url(#clipPath16)"><g
           id="g20"
           transform="translate(53,3.5605)"><path
             d="m 0,0 c -29.225,0 -53,23.406 -53,52.176 0,28.769 23.775,52.174 53,52.174 29.225,0 53,-23.405 53,-52.174 C 53,23.406 29.225,0 0,0"
             style="fill:#82cf8f;fill-opacity:1;fill-rule:nonzero;stroke:none"
             id="path22"
             inkscape:connector-curvature="0" /></g><g
           id="g24"
           transform="translate(110.8164,86.4004)"><path
             d="m 0,0 -3.43,0 0,-6.07 3.43,0 c 0.361,0.001 0.652,0.299 0.652,0.665 l 0,4.74 C 0.652,-0.298 0.361,0 0,0"
             style="fill:#ff876c;fill-opacity:1;fill-rule:nonzero;stroke:none"
             id="path26"
             inkscape:connector-curvature="0" /></g><g
           id="g28"
           transform="translate(110.751,85.5732)"><path
             d="m 0,0 -3.364,0.001 0,-2.578 3.365,-10e-4 c 0.178,10e-4 0.321,0.147 0.321,0.329 l 0.001,1.923 C 0.321,-0.146 0.179,0.001 0,0"
             style="fill:#ffa38f;fill-opacity:1;fill-rule:nonzero;stroke:none"
             id="path30"
             inkscape:connector-curvature="0" /></g><g
           id="g32"
           transform="translate(107.3867,81.749)"><path
             d="m 0,0 0,-1.419 3.43,0 c 0.361,0.001 0.652,0.299 0.652,0.665 L 4.082,0 0,0 Z"
             style="fill:#e36e54;fill-opacity:1;fill-rule:nonzero;stroke:none"
             id="path34"
             inkscape:connector-curvature="0" /></g><g
           id="g36"
           transform="translate(95.7861,86.4805)"><path
             d="m 0,0 -61.038,0 c 0.111,-0.747 0.672,-1.33 1.38,-1.422 L -0.001,-1.423 0,0 Z"
             style="fill:#30363d;fill-opacity:1;fill-rule:nonzero;stroke:none"
             id="path38"
             inkscape:connector-curvature="0" /></g><g
           id="g40"
           transform="translate(95.7871,81.6768)"><path
             d="m 0,0 -0.002,3.381 -59.657,0.001 c -0.005,0 -0.013,-0.004 -0.018,-0.004 0.004,0 0.013,-0.003 0.019,-0.002 -0.789,-0.102 -1.399,-0.817 -1.401,-1.685 0,-0.867 0.612,-1.581 1.4,-1.683 -0.005,-0.001 -0.013,-0.001 -0.017,-0.004 0.004,0 0.011,-0.003 0.016,-0.004 L -59.659,0 0,0 Z"
             style="fill:#484f59;fill-opacity:1;fill-rule:nonzero;stroke:none"
             id="path42"
             inkscape:connector-curvature="0" /></g><g
           id="g44"
           transform="translate(36.1279,81.6768)"><path
             d="m 0,0 c -0.708,-0.094 -1.271,-0.676 -1.38,-1.419 l 61.038,0 L 59.659,0 0,0 Z"
             style="fill:#30363d;fill-opacity:1;fill-rule:nonzero;stroke:none"
             id="path46"
             inkscape:connector-curvature="0" /></g><g
           id="g48"
           transform="translate(34.748,80.2539)"><path
             d="m 0,0 c 0.107,0.744 0.672,1.329 1.38,1.423 l -10e-4,0 C 1.374,1.424 1.367,1.427 1.363,1.427 1.367,1.43 1.375,1.43 1.38,1.431 0.592,1.533 -0.02,2.247 -0.02,3.114 -0.018,3.981 0.592,4.697 1.381,4.799 1.375,4.798 1.366,4.801 1.362,4.801 1.367,4.801 1.375,4.805 1.38,4.805 0.67,4.898 0.108,5.482 -0.001,6.229 L -12.773,3.113 0,0 Z"
             style="fill:#e5e8ec;fill-opacity:1;fill-rule:nonzero;stroke:none"
             id="path50"
             inkscape:connector-curvature="0" /></g><g
           id="g52"
           transform="translate(34.748,80.2539)"><path
             d="m 0,0 c 0.107,0.744 0.672,1.329 1.38,1.423 l -10e-4,0 C 1.374,1.424 1.367,1.427 1.363,1.427 1.367,1.43 1.375,1.43 1.38,1.431 0.592,1.533 -12.773,3.113 -12.773,3.113 L 0,0 Z"
             style="fill:#cdd5d7;fill-opacity:1;fill-rule:nonzero;stroke:none"
             id="path54"
             inkscape:connector-curvature="0" /></g><path
           d="m 95.786,80.292 11.723,0 0,6.158 -11.723,0 0,-6.158 z"
           style="fill:#f0ca67;fill-opacity:1;fill-rule:nonzero;stroke:none"
           id="path56"
           inkscape:connector-curvature="0" /><g
           id="g58"
           transform="translate(95.7852,84.4082)"><path
             d="M 0,0 0.001,-1.257 11.722,-1.258 11.722,0 0,0 Z"
             style="fill:#f4da80;fill-opacity:1;fill-rule:nonzero;stroke:none"
             id="path60"
             inkscape:connector-curvature="0" /></g><g
           id="g62"
           transform="translate(25.8242,82.4287)"><path
             d="m 0,0 c 0.041,0.289 0.07,0.582 0.069,0.883 0,0.337 -0.034,0.667 -0.086,0.991 L -3.85,0.938 0,0 Z"
             style="fill:#30363d;fill-opacity:1;fill-rule:nonzero;stroke:none"
             id="path64"
             inkscape:connector-curvature="0" /></g><g
           id="g66"
           transform="translate(98.7012,85.8936)"><path
             d="m 0,0 -1.688,-0.001 0,0.397 L 0,0.396 0,0 Z"
             style="fill:#f4da80;fill-opacity:1;fill-rule:nonzero;stroke:none"
             id="path68"
             inkscape:connector-curvature="0" /></g><g
           id="g70"
           transform="translate(98.7012,84.9873)"><path
             d="M 0,0 -1.687,0 -1.689,0.396 0,0.396 0,0 Z"
             style="fill:#f4da80;fill-opacity:1;fill-rule:nonzero;stroke:none"
             id="path72"
             inkscape:connector-curvature="0" /></g><g
           id="g74"
           transform="translate(98.7012,84.083)"><path
             d="M 0,0 -1.688,-0.002 -1.687,0.396 0,0.396 0,0 Z"
             style="fill:#f0ca67;fill-opacity:1;fill-rule:nonzero;stroke:none"
             id="path76"
             inkscape:connector-curvature="0" /></g><g
           id="g78"
           transform="translate(98.7012,83.1768)"><path
             d="M 0,0 -1.687,0 -1.688,0.397 0,0.397 0,0 Z"
             style="fill:#f0ca67;fill-opacity:1;fill-rule:nonzero;stroke:none"
             id="path80"
             inkscape:connector-curvature="0" /></g><g
           id="g82"
           transform="translate(98.7012,82.2725)"><path
             d="M 0,0 -1.688,0 -1.687,0.396 0,0.396 0,0 Z"
             style="fill:#f4da80;fill-opacity:1;fill-rule:nonzero;stroke:none"
             id="path84"
             inkscape:connector-curvature="0" /></g><g
           id="g86"
           transform="translate(98.7012,81.3672)"><path
             d="M 0,0 -1.687,0.001 -1.688,0.396 0,0.396 0,0 Z"
             style="fill:#f4da80;fill-opacity:1;fill-rule:nonzero;stroke:none"
             id="path88"
             inkscape:connector-curvature="0" /></g><g
           id="g90"
           transform="translate(98.7012,80.4619)"><path
             d="M 0,0 -1.688,0 -1.687,0.396 0,0.396 0,0 Z"
             style="fill:#f4da80;fill-opacity:1;fill-rule:nonzero;stroke:none"
             id="path92"
             inkscape:connector-curvature="0" /></g><g
           id="g94"
           transform="translate(105.8857,85.8926)"><path
             d="m 0,0 -1.687,0 0,0.396 1.688,0 L 0,0 Z"
             style="fill:#f4da80;fill-opacity:1;fill-rule:nonzero;stroke:none"
             id="path96"
             inkscape:connector-curvature="0" /></g><g
           id="g98"
           transform="translate(105.8867,84.9873)"><path
             d="m 0,0 -1.688,0 0,0.396 1.687,0 L 0,0 Z"
             style="fill:#f4da80;fill-opacity:1;fill-rule:nonzero;stroke:none"
             id="path100"
             inkscape:connector-curvature="0" /></g><g
           id="g102"
           transform="translate(105.8857,84.082)"><path
             d="m 0,0 -1.687,0 0,0.396 1.688,0 L 0,0 Z"
             style="fill:#f0ca67;fill-opacity:1;fill-rule:nonzero;stroke:none"
             id="path104"
             inkscape:connector-curvature="0" /></g><g
           id="g106"
           transform="translate(105.8867,83.1768)"><path
             d="M 0,0 -1.687,0 -1.688,0.397 0,0.397 0,0 Z"
             style="fill:#f0ca67;fill-opacity:1;fill-rule:nonzero;stroke:none"
             id="path108"
             inkscape:connector-curvature="0" /></g><path
           d="m 105.887,82.272 -1.688,0 0,0.396 1.688,0 0,-0.396 z"
           style="fill:#f4da80;fill-opacity:1;fill-rule:nonzero;stroke:none"
           id="path110"
           inkscape:connector-curvature="0" /><g
           id="g112"
           transform="translate(105.8867,81.3672)"><path
             d="M 0,0 -1.688,0 -1.687,0.396 0,0.396 0,0 Z"
             style="fill:#f4da80;fill-opacity:1;fill-rule:nonzero;stroke:none"
             id="path114"
             inkscape:connector-curvature="0" /></g><g
           id="g116"
           transform="translate(105.8867,80.4619)"><path
             d="M 0,0 -1.688,0 -1.687,0.396 0,0.396 0,0 Z"
             style="fill:#f4da80;fill-opacity:1;fill-rule:nonzero;stroke:none"
             id="path118"
             inkscape:connector-curvature="0" /></g></g></g><g
       id="g120"><g
         id="g122"
         clip-path="url(#clipPath124)"><path
           d="m 95.914,0 -85.166,0 0,67.478 85.166,0 0,-67.478 z"
           style="fill:#e5e8ec;fill-opacity:1;fill-rule:nonzero;stroke:none"
           id="path128"
           inkscape:connector-curvature="0" /><path
           d="m 95.914,61.365 -85.166,0 0,6.112 85.166,0 0,-6.112 z"
           style="fill:#cdd5d7;fill-opacity:1;fill-rule:nonzero;stroke:none"
           id="path130"
           inkscape:connector-curvature="0" /><path
           d="m 92.248,62.893 -50.53,0 0,3.057 50.53,0 0,-3.057 z"
           style="fill:#ffffff;fill-opacity:1;fill-rule:nonzero;stroke:none"
           id="path132"
           inkscape:connector-curvature="0" /><g
           id="g134"
           transform="translate(15.2305,64.4199)"><path
             d="m 0,0 c 0,-0.673 -0.547,-1.222 -1.223,-1.222 -0.675,0 -1.222,0.549 -1.222,1.222 0,0.677 0.547,1.224 1.222,1.224 C -0.547,1.224 0,0.677 0,0"
             style="fill:#424953;fill-opacity:1;fill-rule:nonzero;stroke:none"
             id="path136"
             inkscape:connector-curvature="0" /></g><g
           id="g138"
           transform="translate(19.1016,64.4199)"><path
             d="m 0,0 c 0,-0.673 -0.547,-1.222 -1.223,-1.222 -0.673,0 -1.22,0.549 -1.22,1.222 0,0.677 0.547,1.224 1.22,1.224 C -0.547,1.224 0,0.677 0,0"
             style="fill:#ff876c;fill-opacity:1;fill-rule:nonzero;stroke:none"
             id="path140"
             inkscape:connector-curvature="0" /></g><g
           id="g142"
           transform="translate(22.9727,64.4199)"><path
             d="m 0,0 c 0,-0.673 -0.547,-1.222 -1.223,-1.222 -0.673,0 -1.222,0.549 -1.222,1.222 0,0.677 0.549,1.224 1.222,1.224 C -0.547,1.224 0,0.677 0,0"
             style="fill:#01bacc;fill-opacity:1;fill-rule:nonzero;stroke:none"
             id="path144"
             inkscape:connector-curvature="0" /></g><g
           id="g146"
           transform="translate(19.2539,52.6963)"><path
             d="m 0,0 23.122,0 0.218,-6.948 -0.978,0 c -0.478,2.182 -1.087,3.603 -1.827,4.261 -0.739,0.659 -2.293,0.99 -4.662,0.99 l -2.277,0 0,-20.925 c 0,-1.575 0.246,-2.552 0.74,-2.929 0.492,-0.376 1.57,-0.624 3.234,-0.744 l 0,-0.76 -11.92,0 0,0.76 c 1.732,0.132 2.809,0.416 3.236,0.854 0.425,0.437 0.638,1.537 0.638,3.299 l 0,20.445 -2.295,0 c -2.264,0 -3.805,-0.326 -4.623,-0.98 C 1.788,-3.326 1.173,-4.752 0.76,-6.948 l -0.998,0 L 0,0 Z"
             style="fill:#ff876c;fill-opacity:1;fill-rule:nonzero;stroke:none"
             id="path148"
             inkscape:connector-curvature="0" /></g><path
           d="m 83.035,18.132 -64.682,0 0,1.72 64.682,0 0,-1.72 z"
           style="fill:#b7bec0;fill-opacity:1;fill-rule:nonzero;stroke:none"
           id="path150"
           inkscape:connector-curvature="0" /><path
           d="m 85.521,14.988 -67.168,0 0,1.719 67.168,0 0,-1.719 z"
           style="fill:#b7bec0;fill-opacity:1;fill-rule:nonzero;stroke:none"
           id="path152"
           inkscape:connector-curvature="0" /><path
           d="m 66.421,11.841 -48.067,0 0,1.721 48.067,0 0,-1.721 z"
           style="fill:#b7bec0;fill-opacity:1;fill-rule:nonzero;stroke:none"
           id="path154"
           inkscape:connector-curvature="0" /><path
           d="m 84.279,51.231 -37.111,0 0,1.719 37.111,0 0,-1.719 z"
           style="fill:#b7bec0;fill-opacity:1;fill-rule:nonzero;stroke:none"
           id="path156"
           inkscape:connector-curvature="0" /><path
           d="m 85.521,48.087 -38.354,0 0,1.718 38.354,0 0,-1.718 z"
           style="fill:#b7bec0;fill-opacity:1;fill-rule:nonzero;stroke:none"
           id="path158"
           inkscape:connector-curvature="0" /><path
           d="m 85.521,44.94 -38.354,0 0,1.72 38.354,0 0,-1.72 z"
           style="fill:#b7bec0;fill-opacity:1;fill-rule:nonzero;stroke:none"
           id="path160"
           inkscape:connector-curvature="0" /><path
           d="m 83.863,41.796 -36.695,0 0,1.72 36.695,0 0,-1.72 z"
           style="fill:#b7bec0;fill-opacity:1;fill-rule:nonzero;stroke:none"
           id="path162"
           inkscape:connector-curvature="0" /><path
           d="m 85.521,38.65 -38.354,0 0,1.72 38.354,0 0,-1.72 z"
           style="fill:#b7bec0;fill-opacity:1;fill-rule:nonzero;stroke:none"
           id="path164"
           inkscape:connector-curvature="0" /><path
           d="m 83.035,35.505 -35.867,0 0,1.719 35.867,0 0,-1.719 z"
           style="fill:#b7bec0;fill-opacity:1;fill-rule:nonzero;stroke:none"
           id="path166"
           inkscape:connector-curvature="0" /><path
           d="m 85.521,32.358 -38.354,0 0,1.722 38.354,0 0,-1.722 z"
           style="fill:#b7bec0;fill-opacity:1;fill-rule:nonzero;stroke:none"
           id="path168"
           inkscape:connector-curvature="0" /><path
           d="m 83.449,29.216 -36.281,0 0,1.719 36.281,0 0,-1.719 z"
           style="fill:#b7bec0;fill-opacity:1;fill-rule:nonzero;stroke:none"
           id="path170"
           inkscape:connector-curvature="0" /><path
           d="m 63.516,26.069 -16.348,0 0,1.72 16.348,0 0,-1.72 z"
           style="fill:#b7bec0;fill-opacity:1;fill-rule:nonzero;stroke:none"
           id="path172"
           inkscape:connector-curvature="0" /></g></g></g></svg>