<?xml version="1.0" encoding="UTF-8" standalone="no"?>
<!-- Created with Inkscape (http://www.inkscape.org/) -->

<svg
   xmlns:dc="http://purl.org/dc/elements/1.1/"
   xmlns:cc="http://creativecommons.org/ns#"
   xmlns:rdf="http://www.w3.org/1999/02/22-rdf-syntax-ns#"
   xmlns:svg="http://www.w3.org/2000/svg"
   xmlns="http://www.w3.org/2000/svg"
   xmlns:sodipodi="http://sodipodi.sourceforge.net/DTD/sodipodi-0.dtd"
   xmlns:inkscape="http://www.inkscape.org/namespaces/inkscape"
   id="svg3832"
   version="1.1"
   inkscape:version="0.91 r13725"
   xml:space="preserve"
   width="132.5"
   height="132.11874"
   viewBox="0 0 132.5 132.11874"
   sodipodi:docname="prize.svg"><metadata
     id="metadata3838"><rdf:RDF><cc:Work
         rdf:about=""><dc:format>image/svg+xml</dc:format><dc:type
           rdf:resource="http://purl.org/dc/dcmitype/StillImage" /><dc:title></dc:title></cc:Work></rdf:RDF></metadata><defs
     id="defs3836"><clipPath
       clipPathUnits="userSpaceOnUse"
       id="clipPath3846"><path
         d="m 0,105.695 106,0 L 106,0 0,0 0,105.695 Z"
         id="path3848"
         inkscape:connector-curvature="0" /></clipPath></defs><sodipodi:namedview
     pagecolor="#ffffff"
     bordercolor="#666666"
     borderopacity="1"
     objecttolerance="10"
     gridtolerance="10"
     guidetolerance="10"
     inkscape:pageopacity="0"
     inkscape:pageshadow="2"
     inkscape:window-width="640"
     inkscape:window-height="480"
     id="namedview3834"
     showgrid="false"
     inkscape:zoom="1.7862719"
     inkscape:cx="66.25"
     inkscape:cy="66.059372"
     inkscape:window-x="0"
     inkscape:window-y="0"
     inkscape:window-maximized="0"
     inkscape:current-layer="g3840" /><g
     id="g3840"
     inkscape:groupmode="layer"
     inkscape:label="prize"
     transform="matrix(1.25,0,0,-1.25,0,132.11875)"><g
       id="g3842"><g
         id="g3844"
         clip-path="url(#clipPath3846)"><g
           id="g3850"
           transform="translate(53,1.3452)"><path
             d="m 0,0 c -29.225,0 -53,23.405 -53,52.175 0,28.769 23.775,52.175 53,52.175 29.225,0 53,-23.406 53,-52.175 C 53,23.405 29.225,0 0,0"
             style="fill:#da7841;fill-opacity:1;fill-rule:nonzero;stroke:none"
             id="path3852"
             inkscape:connector-curvature="0" /></g><g
           id="g3854"
           transform="translate(25.4238,76.436)"><path
             d="M 0,0 C 0.102,-12.83 8.406,-23.539 19.71,-25.829 L 19.71,0 0,0 Z m 23.463,-30.104 -2.077,0.222 c -14.331,1.539 -25.141,14.485 -25.141,30.117 0,0.587 0.022,1.166 0.052,1.744 l 0.099,1.774 27.067,0 0,-33.857 z"
             style="fill:#f0ca67;fill-opacity:1;fill-rule:nonzero;stroke:none"
             id="path3856"
             inkscape:connector-curvature="0" /></g><g
           id="g3858"
           transform="translate(60.0078,76.438)"><path
             d="M 0,0 0,-25.831 C 11.305,-23.541 19.61,-12.832 19.709,0 L 0,0 Z m -3.753,-30.106 0,33.858 27.076,0 0.093,-1.78 c 0.029,-0.576 0.049,-1.155 0.049,-1.739 0,-15.632 -10.809,-28.579 -25.141,-30.117 l -2.077,-0.222 z"
             style="fill:#f0ca67;fill-opacity:1;fill-rule:nonzero;stroke:none"
             id="path3860"
             inkscape:connector-curvature="0" /></g><path
           d="m 61.332,28.494 -17.519,0 0,-5.944 17.519,0 0,5.944 z"
           style="fill:#f0ca67;fill-opacity:1;fill-rule:nonzero;stroke:none"
           id="path3862"
           inkscape:connector-curvature="0" /><g
           id="g3864"
           transform="translate(34.3887,82.0659)"><path
             d="m 0,0 c -0.987,-3.229 -1.524,-6.659 -1.524,-10.218 0,-13.894 8.086,-25.848 19.708,-31.244 11.623,5.396 19.707,17.35 19.707,31.244 0,3.559 -0.538,6.989 -1.525,10.218 L 0,0 Z"
             style="fill:#f0ca67;fill-opacity:1;fill-rule:nonzero;stroke:none"
             id="path3866"
             inkscape:connector-curvature="0" /></g><g
           id="g3868"
           transform="translate(38.665,81.3706)"><path
             d="M 0,0 5.627,0 C 4.396,-3.952 3.726,-8.148 3.726,-12.504 c 0,-8.844 2.732,-17.041 7.389,-23.805 -7.696,6.167 -12.639,15.636 -12.639,26.282 0,3.494 0.538,6.859 1.524,10.027"
             style="fill:#f4da80;fill-opacity:1;fill-rule:nonzero;stroke:none"
             id="path3870"
             inkscape:connector-curvature="0" /></g><path
           d="m 55.388,24.351 -5.631,0 0,23.461 5.631,0 0,-23.461 z"
           style="fill:#f0ca67;fill-opacity:1;fill-rule:nonzero;stroke:none"
           id="path3872"
           inkscape:connector-curvature="0" /><path
           d="m 52.565,28.601 -1.75,0 0,11.961 1.75,0 0,-11.961 z"
           style="fill:#f4da80;fill-opacity:1;fill-rule:nonzero;stroke:none"
           id="path3874"
           inkscape:connector-curvature="0" /><g
           id="g3876"
           transform="translate(67.8662,22.395)"><path
             d="m 0,0 0,1.882 c 0,1.245 -0.847,2.262 -1.878,2.262 l -26.834,0 c -1.031,0 -1.874,-1.017 -1.874,-2.262 L -30.586,0 0,0 Z"
             style="fill:#f0ca67;fill-opacity:1;fill-rule:nonzero;stroke:none"
             id="path3878"
             inkscape:connector-curvature="0" /></g><g
           id="g3880"
           transform="translate(44.7803,21.895)"><path
             d="m 0,0 0,1.882 c 0,0.996 0.544,1.837 1.287,2.137 l -5.788,0 c -1.031,0 -1.874,-1.017 -1.874,-2.261 l 0,-1.883 L 0,0 Z"
             style="fill:#f4da80;fill-opacity:1;fill-rule:nonzero;stroke:none"
             id="path3882"
             inkscape:connector-curvature="0" /></g><path
           d="m 71.731,3.722 -38.319,0 0,18.894 38.319,0 0,-18.894 z"
           style="fill:#484f59;fill-opacity:1;fill-rule:nonzero;stroke:none"
           id="path3884"
           inkscape:connector-curvature="0" /><path
           d="m 37.911,18.117 29.321,0 0,-9.897 -29.321,0 0,9.897 z"
           style="fill:#30363d;fill-opacity:1;fill-rule:nonzero;stroke:none"
           id="path3886"
           inkscape:connector-curvature="0" /><path
           d="m 73.244,0 -41.345,0 0,4.581 41.345,0 0,-4.581 z"
           style="fill:#30363d;fill-opacity:1;fill-rule:nonzero;stroke:none"
           id="path3888"
           inkscape:connector-curvature="0" /></g></g></g></svg>