<?xml version="1.0" encoding="UTF-8" standalone="no"?>
<!-- Created with Inkscape (http://www.inkscape.org/) -->

<svg
   xmlns:dc="http://purl.org/dc/elements/1.1/"
   xmlns:cc="http://creativecommons.org/ns#"
   xmlns:rdf="http://www.w3.org/1999/02/22-rdf-syntax-ns#"
   xmlns:svg="http://www.w3.org/2000/svg"
   xmlns="http://www.w3.org/2000/svg"
   xmlns:sodipodi="http://sodipodi.sourceforge.net/DTD/sodipodi-0.dtd"
   xmlns:inkscape="http://www.inkscape.org/namespaces/inkscape"
   id="svg4459"
   version="1.1"
   inkscape:version="0.91 r13725"
   xml:space="preserve"
   width="132.5"
   height="130.4375"
   viewBox="0 0 132.5 130.4375"
   sodipodi:docname="settle-ban.svg"><metadata
     id="metadata4465"><rdf:RDF><cc:Work
         rdf:about=""><dc:format>image/svg+xml</dc:format><dc:type
           rdf:resource="http://purl.org/dc/dcmitype/StillImage" /><dc:title></dc:title></cc:Work></rdf:RDF></metadata><defs
     id="defs4463"><clipPath
       clipPathUnits="userSpaceOnUse"
       id="clipPath4473"><path
         d="m 0,104.35 106,0 L 106,0 0,0 0,104.35 Z"
         id="path4475"
         inkscape:connector-curvature="0" /></clipPath><clipPath
       clipPathUnits="userSpaceOnUse"
       id="clipPath4521"><path
         d="m 33.7432,82.502 37.1933,0 0,-37.1851 -37.1933,0 0,37.1851 z"
         id="path4523"
         inkscape:connector-curvature="0" /></clipPath><clipPath
       clipPathUnits="userSpaceOnUse"
       id="clipPath4537"><path
         d="m 34.3662,81.8818 27.6211,0 0,-35.1176 -27.6211,0 0,35.1176 z"
         id="path4539"
         inkscape:connector-curvature="0" /></clipPath></defs><sodipodi:namedview
     pagecolor="#ffffff"
     bordercolor="#666666"
     borderopacity="1"
     objecttolerance="10"
     gridtolerance="10"
     guidetolerance="10"
     inkscape:pageopacity="0"
     inkscape:pageshadow="2"
     inkscape:window-width="640"
     inkscape:window-height="480"
     id="namedview4461"
     showgrid="false"
     inkscape:zoom="1.8092956"
     inkscape:cx="66.25"
     inkscape:cy="65.21875"
     inkscape:window-x="0"
     inkscape:window-y="0"
     inkscape:window-maximized="0"
     inkscape:current-layer="g4467" /><g
     id="g4467"
     inkscape:groupmode="layer"
     inkscape:label="settle-ban"
     transform="matrix(1.25,0,0,-1.25,0,130.4375)"><g
       id="g4469"><g
         id="g4471"
         clip-path="url(#clipPath4473)"><g
           id="g4477"
           transform="translate(53,0)"><path
             d="m 0,0 c -29.224,0 -53,23.406 -53,52.175 0,28.77 23.776,52.175 53,52.175 29.226,0 53,-23.405 53,-52.175 C 53,23.406 29.226,0 0,0"
             style="fill:#e5e8ec;fill-opacity:1;fill-rule:nonzero;stroke:none"
             id="path4479"
             inkscape:connector-curvature="0" /></g><path
           d="m 68.381,8.226 -56.891,0 0,35.964 56.891,0 0,-35.964 z"
           style="fill:#f0ca67;fill-opacity:1;fill-rule:nonzero;stroke:none"
           id="path4481"
           inkscape:connector-curvature="0" /><path
           d="m 62.756,8.226 -12.12,0 0,26.589 12.12,0 0,-26.589 z"
           style="fill:#e5e8ec;fill-opacity:1;fill-rule:nonzero;stroke:none"
           id="path4483"
           inkscape:connector-curvature="0" /><path
           d="m 65.127,8.226 -16.858,0 0,4.094 16.858,0 0,-4.094 z"
           style="fill:#b7bec0;fill-opacity:1;fill-rule:nonzero;stroke:none"
           id="path4485"
           inkscape:connector-curvature="0" /><path
           d="m 68.381,36.935 -56.891,0 0,6.266 56.891,0 0,-6.266 z"
           style="fill:#b7bec0;fill-opacity:1;fill-rule:nonzero;stroke:none"
           id="path4487"
           inkscape:connector-curvature="0" /><path
           d="m 68.381,44.627 -56.891,0 0,-1.426 56.891,0 0,1.426 z"
           style="fill:#e6e6e6;fill-opacity:1;fill-rule:nonzero;stroke:none"
           id="path4489"
           inkscape:connector-curvature="0" /><path
           d="m 68.881,39.936 -57.89,0 0,4.254 57.89,0 0,-4.254 z"
           style="fill:#cdd5d7;fill-opacity:1;fill-rule:nonzero;stroke:none"
           id="path4491"
           inkscape:connector-curvature="0" /><path
           d="m 21.134,26.156 -3.554,0 0,8.288 3.554,0 0,-8.288 z"
           style="fill:#f7f8fc;fill-opacity:1;fill-rule:nonzero;stroke:none"
           id="path4493"
           inkscape:connector-curvature="0" /><path
           d="m 26.26,26.156 -3.55,0 0,8.288 3.55,0 0,-8.288 z"
           style="fill:#f7f8fc;fill-opacity:1;fill-rule:nonzero;stroke:none"
           id="path4495"
           inkscape:connector-curvature="0" /><path
           d="m 21.134,15.701 -3.554,0 0,8.283 3.554,0 0,-8.283 z"
           style="fill:#f7f8fc;fill-opacity:1;fill-rule:nonzero;stroke:none"
           id="path4497"
           inkscape:connector-curvature="0" /><path
           d="m 26.26,15.701 -3.55,0 0,8.283 3.55,0 0,-8.283 z"
           style="fill:#f7f8fc;fill-opacity:1;fill-rule:nonzero;stroke:none"
           id="path4499"
           inkscape:connector-curvature="0" /><path
           d="m 38.495,26.156 -3.551,0 0,8.288 3.551,0 0,-8.288 z"
           style="fill:#f7f8fc;fill-opacity:1;fill-rule:nonzero;stroke:none"
           id="path4501"
           inkscape:connector-curvature="0" /><path
           d="m 43.627,26.156 -3.552,0 0,8.288 3.552,0 0,-8.288 z"
           style="fill:#f7f8fc;fill-opacity:1;fill-rule:nonzero;stroke:none"
           id="path4503"
           inkscape:connector-curvature="0" /><path
           d="m 38.495,15.701 -3.551,0 0,8.283 3.551,0 0,-8.283 z"
           style="fill:#f7f8fc;fill-opacity:1;fill-rule:nonzero;stroke:none"
           id="path4505"
           inkscape:connector-curvature="0" /><path
           d="m 43.627,15.701 -3.552,0 0,8.283 3.552,0 0,-8.283 z"
           style="fill:#f7f8fc;fill-opacity:1;fill-rule:nonzero;stroke:none"
           id="path4507"
           inkscape:connector-curvature="0" /><g
           id="g4509"
           transform="translate(60.2422,61.6558)"><path
             d="m 0,0 -9.837,0 -4.161,0 -13.228,0 -5.049,0 -8.95,0 -7.001,-17.466 4.735,0 22.492,0 0.772,0 21.603,0 5.626,0 L 0,0 Z"
             style="fill:#01bacc;fill-opacity:1;fill-rule:nonzero;stroke:none"
             id="path4511"
             inkscape:connector-curvature="0" /></g><g
           id="g4513"
           transform="translate(65.5557,50.7549)"><path
             d="m 0,0 c -3.535,-3.55 -8.227,-5.5 -13.216,-5.502 -10.29,-0.007 -18.661,8.359 -18.659,18.65 0,4.963 1.934,9.637 5.447,13.164 3.528,3.546 8.221,5.497 13.203,5.499 4.981,0.001 9.662,-1.937 13.192,-5.471 C 3.496,22.816 5.439,18.129 5.445,13.156 5.445,8.197 3.516,3.525 0,0 m 2.996,29.372 c -4.34,4.336 -10.1,6.723 -16.221,6.721 -6.133,10e-4 -11.904,-2.398 -16.244,-6.754 C -33.783,25 -36.162,19.246 -36.162,13.148 -36.156,0.5 -25.861,-9.794 -13.215,-9.787 c 6.14,0 11.908,2.405 16.251,6.761 4.318,4.337 6.691,10.083 6.691,16.184 -0.003,6.119 -2.39,11.877 -6.731,16.214"
             style="fill:#30363d;fill-opacity:1;fill-rule:nonzero;stroke:none"
             id="path4515"
             inkscape:connector-curvature="0" /></g><g
           id="g4517"><g
             id="g4519" /><g
             id="g4525"><g
               clip-path="url(#clipPath4521)"
               id="g4527"
               style="opacity:0.19999701"><g
                 transform="translate(39.1709,77.0215)"
                 id="g4529"><path
                   d="m 0,0 c -3.499,-3.513 -5.428,-8.173 -5.428,-13.122 0,-10.25 8.342,-18.589 18.597,-18.583 4.972,0 9.646,1.945 13.172,5.482 3.503,3.515 5.423,8.168 5.425,13.113 -0.002,4.957 -1.942,9.626 -5.459,13.14 C 22.789,3.549 18.121,5.482 13.16,5.48 8.193,5.479 3.518,3.535 0,0"
                   style="fill:#ffffff;fill-opacity:1;fill-rule:nonzero;stroke:none"
                   id="path4531"
                   inkscape:connector-curvature="0" /></g></g></g></g><g
           id="g4533"><g
             id="g4535" /><g
             id="g4541"><g
               clip-path="url(#clipPath4537)"
               id="g4543"
               style="opacity:0.19999701"><g
                 transform="translate(43.8799,49.2129)"
                 id="g4545"><path
                   d="m 0,0 c -3.397,3.398 -5.272,7.908 -5.271,12.699 0,4.782 1.863,9.288 5.246,12.684 3.394,3.408 7.902,5.287 12.692,5.299 l 0.027,0.001 c 1.865,0 3.684,-0.284 5.413,-0.83 -2.861,1.833 -6.183,2.816 -9.658,2.816 L 8.426,32.667 c -4.795,-0.008 -9.303,-1.892 -12.697,-5.298 -3.38,-3.396 -5.245,-7.9 -5.243,-12.683 -0.002,-4.792 1.869,-9.3 5.27,-12.698 2.076,-2.078 4.57,-3.58 7.292,-4.437 C 1.961,-1.751 0.936,-0.936 0,0"
                   style="fill:#ffffff;fill-opacity:1;fill-rule:nonzero;stroke:none"
                   id="path4547"
                   inkscape:connector-curvature="0" /></g></g></g></g><g
           id="g4549"
           transform="translate(52.3398,44.1899)"><path
             d="m 0,0 c -10.875,-0.006 -19.724,8.835 -19.722,19.709 0,5.249 2.045,10.192 5.756,13.916 3.733,3.747 8.69,5.809 13.957,5.813 l 0,1.921 c -0.015,0.002 -0.027,0 -0.04,0.002 -5.775,-0.011 -11.198,-2.276 -15.28,-6.372 -4.072,-4.091 -6.317,-9.518 -6.318,-15.276 10e-4,-11.932 9.711,-21.64 21.648,-21.635 L 0.003,0.001 0,0 Z"
             style="fill:#474f59;fill-opacity:1;fill-rule:nonzero;stroke:none"
             id="path4551"
             inkscape:connector-curvature="0" /></g><g
           id="g4553"
           transform="translate(73.3975,46.9517)"><path
             d="M 0,0 C -1.211,1.247 -2.426,2.495 -3.647,3.747 -4.215,4.315 -4.961,4.613 -5.692,4.607 -6.124,4.078 -6.583,3.57 -7.073,3.081 -7.579,2.573 -8.107,2.094 -8.656,1.645 c -0.007,-0.728 0.289,-1.476 0.852,-2.041 1.22,-1.255 2.442,-2.51 3.667,-3.771 1.18,-1.182 2.571,-0.779 3.729,0.415 L -0.4,-3.748 C 0.775,-2.566 1.177,-1.167 0,0"
             style="fill:#30363d;fill-opacity:1;fill-rule:nonzero;stroke:none"
             id="path4555"
             inkscape:connector-curvature="0" /></g><g
           id="g4557"
           transform="translate(95.1279,27.7456)"><path
             d="m 0,0 -6.625,-6.625 -20.678,20.676 6.625,6.625 L 0,0 Z"
             style="fill:#484f59;fill-opacity:1;fill-rule:nonzero;stroke:none"
             id="path4559"
             inkscape:connector-curvature="0" /></g><g
           id="g4561"
           transform="translate(94.5967,27.2158)"><path
             d="m 0,0 -2.736,-2.738 -20.677,20.677 2.737,2.737 L 0,0 Z"
             style="fill:#30363d;fill-opacity:1;fill-rule:nonzero;stroke:none"
             id="path4563"
             inkscape:connector-curvature="0" /></g><g
           id="g4565"
           transform="translate(76.041,46.832)"><path
             d="M 0,0 -6.626,-6.625 -8.216,-5.036 -1.591,1.59 0,0 Z"
             style="fill:#e5e8ec;fill-opacity:1;fill-rule:nonzero;stroke:none"
             id="path4567"
             inkscape:connector-curvature="0" /></g><g
           id="g4569"
           transform="translate(75.292,46.3472)"><path
             d="M 0,0 -2.928,-2.927 -4.021,-1.835 -1.095,1.092 0,0 Z"
             style="fill:#cdd5d7;fill-opacity:1;fill-rule:nonzero;stroke:none"
             id="path4571"
             inkscape:connector-curvature="0" /></g><g
           id="g4573"
           transform="translate(96.7178,26.1533)"><path
             d="m 0,0 c 0,-3.656 -2.966,-6.622 -6.627,-6.624 -0.53,0.53 -1.059,1.06 -1.588,1.591 2.209,2.209 4.416,4.416 6.625,6.625 C -1.062,1.062 -0.531,0.532 0,0"
             style="fill:#e5e8ec;fill-opacity:1;fill-rule:nonzero;stroke:none"
             id="path4575"
             inkscape:connector-curvature="0" /></g><g
           id="g4577"
           transform="translate(96.0771,25.5625)"><path
             d="M 0,0 -2.929,-2.928 -4.295,-1.562 -1.367,1.365 0,0 Z"
             style="fill:#cdd5d7;fill-opacity:1;fill-rule:nonzero;stroke:none"
             id="path4579"
             inkscape:connector-curvature="0" /></g></g></g></g></svg>