<?xml version="1.0" encoding="UTF-8" standalone="no"?>
<!-- Created with Inkscape (http://www.inkscape.org/) -->

<svg
   xmlns:dc="http://purl.org/dc/elements/1.1/"
   xmlns:cc="http://creativecommons.org/ns#"
   xmlns:rdf="http://www.w3.org/1999/02/22-rdf-syntax-ns#"
   xmlns:svg="http://www.w3.org/2000/svg"
   xmlns="http://www.w3.org/2000/svg"
   xmlns:sodipodi="http://sodipodi.sourceforge.net/DTD/sodipodi-0.dtd"
   xmlns:inkscape="http://www.inkscape.org/namespaces/inkscape"
   id="svg4178"
   version="1.1"
   inkscape:version="0.91 r13725"
   xml:space="preserve"
   width="132.5"
   height="146.40625"
   viewBox="0 0 132.5 146.40625"
   sodipodi:docname="site.svg"><metadata
     id="metadata4184"><rdf:RDF><cc:Work
         rdf:about=""><dc:format>image/svg+xml</dc:format><dc:type
           rdf:resource="http://purl.org/dc/dcmitype/StillImage" /><dc:title></dc:title></cc:Work></rdf:RDF></metadata><defs
     id="defs4182"><clipPath
       clipPathUnits="userSpaceOnUse"
       id="clipPath4192"><path
         d="m 0,117.125 106,0 L 106,0 0,0 0,117.125 Z"
         id="path4194"
         inkscape:connector-curvature="0" /></clipPath><clipPath
       clipPathUnits="userSpaceOnUse"
       id="clipPath4204"><path
         d="M 53,117.124 C 23.775,117.124 0,93.719 0,64.95 l 0,0 C 0,36.181 23.775,12.775 53,12.775 l 0,0 c 29.225,0 53,23.406 53,52.175 l 0,0 c 0,28.769 -23.775,52.174 -53,52.174 z"
         id="path4206"
         inkscape:connector-curvature="0" /></clipPath></defs><sodipodi:namedview
     pagecolor="#ffffff"
     bordercolor="#666666"
     borderopacity="1"
     objecttolerance="10"
     gridtolerance="10"
     guidetolerance="10"
     inkscape:pageopacity="0"
     inkscape:pageshadow="2"
     inkscape:window-width="640"
     inkscape:window-height="480"
     id="namedview4180"
     showgrid="false"
     inkscape:zoom="1.611953"
     inkscape:cx="66.25"
     inkscape:cy="73.203125"
     inkscape:window-x="0"
     inkscape:window-y="0"
     inkscape:window-maximized="0"
     inkscape:current-layer="g4186" /><g
     id="g4186"
     inkscape:groupmode="layer"
     inkscape:label="site"
     transform="matrix(1.25,0,0,-1.25,0,146.40625)"><g
       id="g4188"><g
         id="g4190"
         clip-path="url(#clipPath4192)"><g
           id="g4196"
           transform="translate(53,12.7754)"><path
             d="m 0,0 c -29.225,0 -53,23.405 -53,52.175 0,28.769 23.775,52.174 53,52.174 29.225,0 53,-23.405 53,-52.174 C 53,23.405 29.225,0 0,0"
             style="fill:#619d45;fill-opacity:1;fill-rule:nonzero;stroke:none"
             id="path4198"
             inkscape:connector-curvature="0" /></g></g></g><g
       id="g4200"><g
         id="g4202"
         clip-path="url(#clipPath4204)"><g
           id="g4208"
           transform="translate(87.2891,0.5293)"><path
             d="m 0,0 c 0,-0.291 -0.237,-0.529 -0.529,-0.529 l -69.271,0 c -0.294,0 -0.53,0.238 -0.53,0.529 l 0,98.66 c 0,0.295 0.236,0.53 0.53,0.53 l 69.271,0 C -0.237,99.19 0,98.955 0,98.66 L 0,0 Z"
             style="fill:#e5e8ec;fill-opacity:1;fill-rule:nonzero;stroke:none"
             id="path4210"
             inkscape:connector-curvature="0" /></g><g
           id="g4212"
           transform="translate(87.2891,94.0859)"><path
             d="m 0,0 0,5.104 c 0,0.294 -0.237,0.529 -0.529,0.529 l -69.271,0 c -0.294,0 -0.53,-0.235 -0.53,-0.529 L -70.33,0 0,0 Z"
             style="fill:#b7bec0;fill-opacity:1;fill-rule:nonzero;stroke:none"
             id="path4214"
             inkscape:connector-curvature="0" /></g><path
           d="m 16.959,49.148 70.33,0 0,26.596 -70.33,0 0,-26.596 z"
           style="fill:#ff876c;fill-opacity:1;fill-rule:nonzero;stroke:none"
           id="path4216"
           inkscape:connector-curvature="0" /><path
           d="m 32.947,65.002 38.217,0 0,2.51 -38.217,0 0,-2.51 z"
           style="fill:#ffffff;fill-opacity:1;fill-rule:nonzero;stroke:none"
           id="path4218"
           inkscape:connector-curvature="0" /><path
           d="m 28.87,61.93 46.371,0 0,0.627 -46.371,0 0,-0.627 z"
           style="fill:#ffffff;fill-opacity:1;fill-rule:nonzero;stroke:none"
           id="path4220"
           inkscape:connector-curvature="0" /><path
           d="m 26.99,59.654 50.131,0 0,0.629 -50.131,0 0,-0.629 z"
           style="fill:#ffffff;fill-opacity:1;fill-rule:nonzero;stroke:none"
           id="path4222"
           inkscape:connector-curvature="0" /><path
           d="m 33.135,57.381 37.842,0 0,0.629 -37.842,0 0,-0.629 z"
           style="fill:#ffffff;fill-opacity:1;fill-rule:nonzero;stroke:none"
           id="path4224"
           inkscape:connector-curvature="0" /><path
           d="m 61.532,85.376 -13.404,0 0,1.739 13.404,0 0,-1.739 z"
           style="fill:#484f59;fill-opacity:1;fill-rule:nonzero;stroke:none"
           id="path4226"
           inkscape:connector-curvature="0" /><path
           d="m 46.798,84.022 -4.082,0 0,4.447 4.082,0 0,-4.447 z"
           style="fill:#484f59;fill-opacity:1;fill-rule:nonzero;stroke:none"
           id="path4228"
           inkscape:connector-curvature="0" /><path
           d="m 25.927,80.915 9.313,0 0,0.627 -9.313,0 0,-0.627 z"
           style="fill:#b7bec0;fill-opacity:1;fill-rule:nonzero;stroke:none"
           id="path4230"
           inkscape:connector-curvature="0" /><path
           d="m 36.699,80.915 9.31,0 0,0.627 -9.31,0 0,-0.627 z"
           style="fill:#b7bec0;fill-opacity:1;fill-rule:nonzero;stroke:none"
           id="path4232"
           inkscape:connector-curvature="0" /><path
           d="m 47.468,80.915 9.313,0 0,0.627 -9.313,0 0,-0.627 z"
           style="fill:#b7bec0;fill-opacity:1;fill-rule:nonzero;stroke:none"
           id="path4234"
           inkscape:connector-curvature="0" /><path
           d="m 58.239,80.915 9.313,0 0,0.627 -9.313,0 0,-0.627 z"
           style="fill:#b7bec0;fill-opacity:1;fill-rule:nonzero;stroke:none"
           id="path4236"
           inkscape:connector-curvature="0" /><path
           d="m 69.007,80.915 9.313,0 0,0.627 -9.313,0 0,-0.627 z"
           style="fill:#b7bec0;fill-opacity:1;fill-rule:nonzero;stroke:none"
           id="path4238"
           inkscape:connector-curvature="0" /><g
           id="g4240"
           transform="translate(83.6172,61.1416)"><path
             d="M 0,0 -0.379,0.274 0.367,1.304 -0.379,2.332 0,2.608 0.947,1.304 0,0 Z"
             style="fill:#ffffff;fill-opacity:1;fill-rule:nonzero;stroke:none"
             id="path4242"
             inkscape:connector-curvature="0" /></g><path
           d="m 84.274,62.211 -2.581,0 0,0.47 2.581,0 0,-0.47 z"
           style="fill:#ffffff;fill-opacity:1;fill-rule:nonzero;stroke:none"
           id="path4244"
           inkscape:connector-curvature="0" /><g
           id="g4246"
           transform="translate(20.6309,61.1406)"><path
             d="M 0,0 -0.949,1.305 0,2.609 0.379,2.333 -0.369,1.305 0.379,0.277 0,0 Z"
             style="fill:#ffffff;fill-opacity:1;fill-rule:nonzero;stroke:none"
             id="path4248"
             inkscape:connector-curvature="0" /></g><path
           d="m 22.557,62.211 -2.585,0 0,0.47 2.585,0 0,-0.47 z"
           style="fill:#ffffff;fill-opacity:1;fill-rule:nonzero;stroke:none"
           id="path4250"
           inkscape:connector-curvature="0" /><path
           d="m 22.815,45.555 17.133,0 0,-17.133 -17.133,0 0,17.133 z"
           style="fill:#f4da80;fill-opacity:1;fill-rule:nonzero;stroke:none"
           id="path4252"
           inkscape:connector-curvature="0" /><path
           d="m 40.183,45.79 -17.602,0 0,-17.603 17.602,0 0,17.603 z m -0.47,-17.134 -16.662,0 0,16.664 16.662,0 0,-16.664 z"
           style="fill:#f3b840;fill-opacity:1;fill-rule:nonzero;stroke:none"
           id="path4254"
           inkscape:connector-curvature="0" /><g
           id="g4256"
           transform="translate(23.1455,28.5176)"><path
             d="m 0,0 c -0.061,0 -0.12,0.022 -0.166,0.068 -0.092,0.092 -0.092,0.241 0,0.332 l 16.473,16.471 c 0.092,0.093 0.241,0.091 0.332,0 0.091,-0.092 0.091,-0.24 0,-0.332 L 0.166,0.068 C 0.12,0.022 0.06,0 0,0"
             style="fill:#f3b840;fill-opacity:1;fill-rule:nonzero;stroke:none"
             id="path4258"
             inkscape:connector-curvature="0" /></g><g
           id="g4260"
           transform="translate(39.6182,28.5176)"><path
             d="m 0,0 c -0.061,0 -0.12,0.022 -0.166,0.068 l -16.473,16.471 c -0.091,0.092 -0.091,0.24 0,0.332 0.093,0.093 0.242,0.091 0.332,0 L 0.166,0.4 C 0.258,0.309 0.258,0.16 0.166,0.068 0.12,0.022 0.06,0 0,0"
             style="fill:#f3b840;fill-opacity:1;fill-rule:nonzero;stroke:none"
             id="path4262"
             inkscape:connector-curvature="0" /></g><path
           d="m 43.558,45.555 17.134,0 0,-17.133 -17.134,0 0,17.133 z"
           style="fill:#f4da80;fill-opacity:1;fill-rule:nonzero;stroke:none"
           id="path4264"
           inkscape:connector-curvature="0" /><path
           d="m 60.926,45.79 -17.603,0 0,-17.603 17.603,0 0,17.603 z m -0.47,-17.134 -16.663,0 0,16.664 16.663,0 0,-16.664 z"
           style="fill:#f3b840;fill-opacity:1;fill-rule:nonzero;stroke:none"
           id="path4266"
           inkscape:connector-curvature="0" /><g
           id="g4268"
           transform="translate(43.8887,28.5176)"><path
             d="m 0,0 c -0.06,0 -0.12,0.022 -0.166,0.068 -0.092,0.092 -0.092,0.241 0,0.332 l 16.471,16.471 c 0.091,0.092 0.24,0.092 0.332,0 0.092,-0.092 0.092,-0.24 0,-0.332 L 0.166,0.068 C 0.12,0.022 0.06,0 0,0"
             style="fill:#f3b840;fill-opacity:1;fill-rule:nonzero;stroke:none"
             id="path4270"
             inkscape:connector-curvature="0" /></g><g
           id="g4272"
           transform="translate(60.3594,28.5176)"><path
             d="m 0,0 c -0.06,0 -0.12,0.022 -0.166,0.068 l -16.471,16.471 c -0.092,0.092 -0.092,0.24 0,0.332 0.092,0.092 0.241,0.092 0.332,0 L 0.166,0.4 C 0.258,0.309 0.258,0.16 0.166,0.068 0.12,0.022 0.06,0 0,0"
             style="fill:#f3b840;fill-opacity:1;fill-rule:nonzero;stroke:none"
             id="path4274"
             inkscape:connector-curvature="0" /></g><path
           d="m 64.298,45.555 17.135,0 0,-17.133 -17.135,0 0,17.133 z"
           style="fill:#f4da80;fill-opacity:1;fill-rule:nonzero;stroke:none"
           id="path4276"
           inkscape:connector-curvature="0" /><path
           d="m 81.667,45.79 -17.604,0 0,-17.603 17.604,0 0,17.603 z m -0.47,-17.134 -16.664,0 0,16.664 16.664,0 0,-16.664 z"
           style="fill:#f3b840;fill-opacity:1;fill-rule:nonzero;stroke:none"
           id="path4278"
           inkscape:connector-curvature="0" /><g
           id="g4280"
           transform="translate(64.6299,28.5176)"><path
             d="m 0,0 c -0.06,0 -0.12,0.022 -0.166,0.068 -0.092,0.092 -0.092,0.241 0,0.332 l 16.471,16.471 c 0.091,0.092 0.24,0.092 0.332,0 0.092,-0.092 0.092,-0.24 0,-0.332 L 0.166,0.068 C 0.12,0.022 0.06,0 0,0"
             style="fill:#f3b840;fill-opacity:1;fill-rule:nonzero;stroke:none"
             id="path4282"
             inkscape:connector-curvature="0" /></g><g
           id="g4284"
           transform="translate(81.1006,28.5176)"><path
             d="m 0,0 c -0.06,0 -0.12,0.022 -0.166,0.068 l -16.471,16.471 c -0.092,0.092 -0.092,0.24 0,0.332 0.092,0.092 0.241,0.092 0.332,0 L 0.166,0.4 C 0.258,0.309 0.258,0.16 0.166,0.068 0.12,0.022 0.06,0 0,0"
             style="fill:#f3b840;fill-opacity:1;fill-rule:nonzero;stroke:none"
             id="path4286"
             inkscape:connector-curvature="0" /></g><path
           d="m 39.821,23.972 -17.24,0 0,0.629 17.24,0 0,-0.629 z"
           style="fill:#b7bec0;fill-opacity:1;fill-rule:nonzero;stroke:none"
           id="path4288"
           inkscape:connector-curvature="0" /><path
           d="m 38.268,22.342 -15.687,0 0,0.627 15.687,0 0,-0.627 z"
           style="fill:#b7bec0;fill-opacity:1;fill-rule:nonzero;stroke:none"
           id="path4290"
           inkscape:connector-curvature="0" /><path
           d="m 39.821,20.711 -17.24,0 0,0.627 17.24,0 0,-0.627 z"
           style="fill:#b7bec0;fill-opacity:1;fill-rule:nonzero;stroke:none"
           id="path4292"
           inkscape:connector-curvature="0" /><path
           d="m 36.341,19.078 -13.76,0 0,0.628 13.76,0 0,-0.628 z"
           style="fill:#b7bec0;fill-opacity:1;fill-rule:nonzero;stroke:none"
           id="path4294"
           inkscape:connector-curvature="0" /><path
           d="m 22.581,25.524 9.312,0 0,0.628 -9.312,0 0,-0.628 z"
           style="fill:#b7bec0;fill-opacity:1;fill-rule:nonzero;stroke:none"
           id="path4296"
           inkscape:connector-curvature="0" /><path
           d="m 60.566,23.972 -17.243,0 0,0.629 17.243,0 0,-0.629 z"
           style="fill:#b7bec0;fill-opacity:1;fill-rule:nonzero;stroke:none"
           id="path4298"
           inkscape:connector-curvature="0" /><path
           d="m 59.014,22.342 -15.69,0 0,0.627 15.69,0 0,-0.627 z"
           style="fill:#b7bec0;fill-opacity:1;fill-rule:nonzero;stroke:none"
           id="path4300"
           inkscape:connector-curvature="0" /><path
           d="m 60.566,20.711 -17.243,0 0,0.627 17.243,0 0,-0.627 z"
           style="fill:#b7bec0;fill-opacity:1;fill-rule:nonzero;stroke:none"
           id="path4302"
           inkscape:connector-curvature="0" /><path
           d="m 57.083,19.078 -13.76,0 0,0.628 13.76,0 0,-0.628 z"
           style="fill:#b7bec0;fill-opacity:1;fill-rule:nonzero;stroke:none"
           id="path4304"
           inkscape:connector-curvature="0" /><path
           d="m 43.323,25.524 9.313,0 0,0.628 -9.313,0 0,-0.628 z"
           style="fill:#b7bec0;fill-opacity:1;fill-rule:nonzero;stroke:none"
           id="path4306"
           inkscape:connector-curvature="0" /><path
           d="m 81.308,23.972 -17.244,0 0,0.629 17.244,0 0,-0.629 z"
           style="fill:#b7bec0;fill-opacity:1;fill-rule:nonzero;stroke:none"
           id="path4308"
           inkscape:connector-curvature="0" /><path
           d="m 79.757,22.342 -15.693,0 0,0.627 15.693,0 0,-0.627 z"
           style="fill:#b7bec0;fill-opacity:1;fill-rule:nonzero;stroke:none"
           id="path4310"
           inkscape:connector-curvature="0" /><path
           d="m 81.308,20.711 -17.244,0 0,0.627 17.244,0 0,-0.627 z"
           style="fill:#b7bec0;fill-opacity:1;fill-rule:nonzero;stroke:none"
           id="path4312"
           inkscape:connector-curvature="0" /><path
           d="m 77.826,19.078 -13.763,0 0,0.628 13.763,0 0,-0.628 z"
           style="fill:#b7bec0;fill-opacity:1;fill-rule:nonzero;stroke:none"
           id="path4314"
           inkscape:connector-curvature="0" /><path
           d="m 64.063,25.524 9.315,0 0,0.628 -9.315,0 0,-0.628 z"
           style="fill:#b7bec0;fill-opacity:1;fill-rule:nonzero;stroke:none"
           id="path4316"
           inkscape:connector-curvature="0" /><g
           id="g4318"
           transform="translate(26.0469,96.9526)"><path
             d="m 0,0 c 0,-0.499 -0.405,-0.901 -0.902,-0.901 -0.497,0 -0.903,0.402 -0.903,0.901 0,0.499 0.406,0.902 0.903,0.902 C -0.405,0.902 0,0.499 0,0"
             style="fill:#ffffff;fill-opacity:1;fill-rule:nonzero;stroke:none"
             id="path4320"
             inkscape:connector-curvature="0" /></g><g
           id="g4322"
           transform="translate(23.0996,96.9526)"><path
             d="m 0,0 c 0,-0.499 -0.401,-0.901 -0.899,-0.901 -0.499,0 -0.901,0.402 -0.901,0.901 0,0.499 0.402,0.902 0.901,0.902 C -0.401,0.902 0,0.499 0,0"
             style="fill:#ffffff;fill-opacity:1;fill-rule:nonzero;stroke:none"
             id="path4324"
             inkscape:connector-curvature="0" /></g><g
           id="g4326"
           transform="translate(20.1592,96.9526)"><path
             d="m 0,0 c 0,-0.499 -0.404,-0.901 -0.903,-0.901 -0.497,0 -0.901,0.402 -0.901,0.901 0,0.499 0.404,0.902 0.901,0.902 C -0.404,0.902 0,0.499 0,0"
             style="fill:#ffffff;fill-opacity:1;fill-rule:nonzero;stroke:none"
             id="path4328"
             inkscape:connector-curvature="0" /></g></g></g></g></svg>