<?xml version="1.0" encoding="UTF-8" standalone="no"?>
<!-- Created with Inkscape (http://www.inkscape.org/) -->

<svg
   xmlns:dc="http://purl.org/dc/elements/1.1/"
   xmlns:cc="http://creativecommons.org/ns#"
   xmlns:rdf="http://www.w3.org/1999/02/22-rdf-syntax-ns#"
   xmlns:svg="http://www.w3.org/2000/svg"
   xmlns="http://www.w3.org/2000/svg"
   xmlns:sodipodi="http://sodipodi.sourceforge.net/DTD/sodipodi-0.dtd"
   xmlns:inkscape="http://www.inkscape.org/namespaces/inkscape"
   id="svg4581"
   version="1.1"
   inkscape:version="0.91 r13725"
   xml:space="preserve"
   width="144.24875"
   height="137.00626"
   viewBox="0 0 144.24875 137.00626"
   sodipodi:docname="special-offer-ban.svg"><metadata
     id="metadata4587"><rdf:RDF><cc:Work
         rdf:about=""><dc:format>image/svg+xml</dc:format><dc:type
           rdf:resource="http://purl.org/dc/dcmitype/StillImage" /><dc:title></dc:title></cc:Work></rdf:RDF></metadata><defs
     id="defs4585"><clipPath
       clipPathUnits="userSpaceOnUse"
       id="clipPath4595"><path
         d="m 0,109.605 115.399,0 L 115.399,0 0,0 0,109.605 Z"
         id="path4597"
         inkscape:connector-curvature="0" /></clipPath><clipPath
       clipPathUnits="userSpaceOnUse"
       id="clipPath4607"><path
         d="M 56.886,109.606 C 27.662,109.606 3.887,86.2 3.887,57.431 l 0,0 c 0,-28.77 23.775,-52.175 52.999,-52.175 l 0,0 c 29.225,0 53,23.405 53,52.175 l 0,0 c 0,28.769 -23.775,52.175 -53,52.175 z"
         id="path4609"
         inkscape:connector-curvature="0" /></clipPath><clipPath
       clipPathUnits="userSpaceOnUse"
       id="clipPath4681"><path
         d="m 0,109.605 115.399,0 L 115.399,0 0,0 0,109.605 Z"
         id="path4683"
         inkscape:connector-curvature="0" /></clipPath></defs><sodipodi:namedview
     pagecolor="#ffffff"
     bordercolor="#666666"
     borderopacity="1"
     objecttolerance="10"
     gridtolerance="10"
     guidetolerance="10"
     inkscape:pageopacity="0"
     inkscape:pageshadow="2"
     inkscape:window-width="640"
     inkscape:window-height="480"
     id="namedview4583"
     showgrid="false"
     inkscape:zoom="1.7225491"
     inkscape:cx="72.124374"
     inkscape:cy="68.503128"
     inkscape:window-x="0"
     inkscape:window-y="0"
     inkscape:window-maximized="0"
     inkscape:current-layer="g4589" /><g
     id="g4589"
     inkscape:groupmode="layer"
     inkscape:label="special-offer-ban"
     transform="matrix(1.25,0,0,-1.25,0,137.00625)"><g
       id="g4591"><g
         id="g4593"
         clip-path="url(#clipPath4595)"><g
           id="g4599"
           transform="translate(56.8867,5.2559)"><path
             d="m 0,0 c -29.225,0 -53,23.405 -53,52.175 0,28.769 23.775,52.175 53,52.175 29.225,0 53,-23.406 53,-52.175 C 53,23.405 29.225,0 0,0"
             style="fill:#f47d71;fill-opacity:1;fill-rule:nonzero;stroke:none"
             id="path4601"
             inkscape:connector-curvature="0" /></g></g></g><g
       id="g4603"><g
         id="g4605"
         clip-path="url(#clipPath4607)"><path
           d="m 115.036,23.973 -85.167,0 0,63.977 85.167,0 0,-63.977 z"
           style="fill:#f7f8fc;fill-opacity:1;fill-rule:nonzero;stroke:none"
           id="path4611"
           inkscape:connector-curvature="0" /><path
           d="m 115.036,81.838 -85.167,0 0,6.111 85.167,0 0,-6.111 z"
           style="fill:#cdd5d7;fill-opacity:1;fill-rule:nonzero;stroke:none"
           id="path4613"
           inkscape:connector-curvature="0" /><path
           d="m 111.368,83.365 -50.529,0 0,3.057 50.529,0 0,-3.057 z"
           style="fill:#ffffff;fill-opacity:1;fill-rule:nonzero;stroke:none"
           id="path4615"
           inkscape:connector-curvature="0" /><g
           id="g4617"
           transform="translate(34.3525,84.8926)"><path
             d="m 0,0 c 0,-0.674 -0.549,-1.223 -1.222,-1.223 -0.677,0 -1.223,0.549 -1.223,1.223 0,0.678 0.546,1.223 1.223,1.223 C -0.549,1.223 0,0.678 0,0"
             style="fill:#424953;fill-opacity:1;fill-rule:nonzero;stroke:none"
             id="path4619"
             inkscape:connector-curvature="0" /></g><g
           id="g4621"
           transform="translate(38.2236,84.8926)"><path
             d="m 0,0 c 0,-0.674 -0.548,-1.223 -1.223,-1.223 -0.675,0 -1.223,0.549 -1.223,1.223 0,0.678 0.548,1.223 1.223,1.223 C -0.548,1.223 0,0.678 0,0"
             style="fill:#ff876c;fill-opacity:1;fill-rule:nonzero;stroke:none"
             id="path4623"
             inkscape:connector-curvature="0" /></g><g
           id="g4625"
           transform="translate(42.0947,84.8926)"><path
             d="m 0,0 c 0,-0.674 -0.548,-1.223 -1.223,-1.223 -0.675,0 -1.222,0.549 -1.222,1.223 0,0.678 0.547,1.223 1.222,1.223 C -0.548,1.223 0,0.678 0,0"
             style="fill:#01bacc;fill-opacity:1;fill-rule:nonzero;stroke:none"
             id="path4627"
             inkscape:connector-curvature="0" /></g><path
           d="m 31.96,58.592 81.648,0 0,16.951 -81.648,0 0,-16.951 z"
           style="fill:#cdd5d7;fill-opacity:1;fill-rule:nonzero;stroke:none"
           id="path4629"
           inkscape:connector-curvature="0" /><path
           d="m 30.169,77.57 85.23,0 0,3.913 -85.23,0 0,-3.913 z"
           style="fill:#ff876c;fill-opacity:1;fill-rule:nonzero;stroke:none"
           id="path4631"
           inkscape:connector-curvature="0" /><path
           d="m 31.96,41.49 23.643,0 0,12.24 -23.643,0 0,-12.24 z"
           style="fill:#cdd5d7;fill-opacity:1;fill-rule:nonzero;stroke:none"
           id="path4633"
           inkscape:connector-curvature="0" /><path
           d="m 47.005,37.408 -15.045,0 0,0.973 15.045,0 0,-0.973 z"
           style="fill:#cdd5d7;fill-opacity:1;fill-rule:nonzero;stroke:none"
           id="path4635"
           inkscape:connector-curvature="0" /><path
           d="m 53.841,35.164 -21.881,0 0,0.483 21.881,0 0,-0.483 z"
           style="fill:#cdd5d7;fill-opacity:1;fill-rule:nonzero;stroke:none"
           id="path4637"
           inkscape:connector-curvature="0" /><path
           d="m 53.841,30.187 -21.881,0 0,0.486 21.881,0 0,-0.486 z"
           style="fill:#cdd5d7;fill-opacity:1;fill-rule:nonzero;stroke:none"
           id="path4639"
           inkscape:connector-curvature="0" /><path
           d="m 55.786,32.676 -23.826,0 0,0.485 23.826,0 0,-0.485 z"
           style="fill:#cdd5d7;fill-opacity:1;fill-rule:nonzero;stroke:none"
           id="path4641"
           inkscape:connector-curvature="0" /><path
           d="m 60.872,41.49 23.642,0 0,12.24 -23.642,0 0,-12.24 z"
           style="fill:#cdd5d7;fill-opacity:1;fill-rule:nonzero;stroke:none"
           id="path4643"
           inkscape:connector-curvature="0" /><path
           d="m 75.915,37.408 -15.043,0 0,0.973 15.043,0 0,-0.973 z"
           style="fill:#cdd5d7;fill-opacity:1;fill-rule:nonzero;stroke:none"
           id="path4645"
           inkscape:connector-curvature="0" /><path
           d="m 82.751,35.164 -21.879,0 0,0.483 21.879,0 0,-0.483 z"
           style="fill:#cdd5d7;fill-opacity:1;fill-rule:nonzero;stroke:none"
           id="path4647"
           inkscape:connector-curvature="0" /><path
           d="m 82.751,30.187 -21.879,0 0,0.486 21.879,0 0,-0.486 z"
           style="fill:#cdd5d7;fill-opacity:1;fill-rule:nonzero;stroke:none"
           id="path4649"
           inkscape:connector-curvature="0" /><path
           d="m 84.696,32.676 -23.824,0 0,0.485 23.824,0 0,-0.485 z"
           style="fill:#cdd5d7;fill-opacity:1;fill-rule:nonzero;stroke:none"
           id="path4651"
           inkscape:connector-curvature="0" /><path
           d="m 89.784,41.49 23.643,0 0,12.24 -23.643,0 0,-12.24 z"
           style="fill:#cdd5d7;fill-opacity:1;fill-rule:nonzero;stroke:none"
           id="path4653"
           inkscape:connector-curvature="0" /><path
           d="m 104.826,37.408 -15.042,0 0,0.973 15.042,0 0,-0.973 z"
           style="fill:#cdd5d7;fill-opacity:1;fill-rule:nonzero;stroke:none"
           id="path4655"
           inkscape:connector-curvature="0" /><path
           d="m 111.662,35.164 -21.878,0 0,0.483 21.878,0 0,-0.483 z"
           style="fill:#cdd5d7;fill-opacity:1;fill-rule:nonzero;stroke:none"
           id="path4657"
           inkscape:connector-curvature="0" /><path
           d="m 111.662,30.187 -21.878,0 0,0.486 21.878,0 0,-0.486 z"
           style="fill:#cdd5d7;fill-opacity:1;fill-rule:nonzero;stroke:none"
           id="path4659"
           inkscape:connector-curvature="0" /><path
           d="m 113.608,32.676 -23.824,0 0,0.485 23.824,0 0,-0.485 z"
           style="fill:#cdd5d7;fill-opacity:1;fill-rule:nonzero;stroke:none"
           id="path4661"
           inkscape:connector-curvature="0" /><path
           d="m 47.782,79.061 -15.043,0 0,0.971 15.043,0 0,-0.971 z"
           style="fill:#e5e8ec;fill-opacity:1;fill-rule:nonzero;stroke:none"
           id="path4663"
           inkscape:connector-curvature="0" /><path
           d="m 112.83,79.303 -5.79,0 0,0.486 5.79,0 0,-0.486 z"
           style="fill:#e5e8ec;fill-opacity:1;fill-rule:nonzero;stroke:none"
           id="path4665"
           inkscape:connector-curvature="0" /><path
           d="m 105.05,79.303 -5.79,0 0,0.486 5.79,0 0,-0.486 z"
           style="fill:#e5e8ec;fill-opacity:1;fill-rule:nonzero;stroke:none"
           id="path4667"
           inkscape:connector-curvature="0" /><path
           d="m 97.271,79.303 -5.791,0 0,0.486 5.791,0 0,-0.486 z"
           style="fill:#e5e8ec;fill-opacity:1;fill-rule:nonzero;stroke:none"
           id="path4669"
           inkscape:connector-curvature="0" /><path
           d="m 89.489,79.303 -5.789,0 0,0.486 5.789,0 0,-0.486 z"
           style="fill:#e5e8ec;fill-opacity:1;fill-rule:nonzero;stroke:none"
           id="path4671"
           inkscape:connector-curvature="0" /><path
           d="m 81.71,79.303 -5.791,0 0,0.486 5.791,0 0,-0.486 z"
           style="fill:#e5e8ec;fill-opacity:1;fill-rule:nonzero;stroke:none"
           id="path4673"
           inkscape:connector-curvature="0" /><path
           d="m 73.928,79.303 -5.788,0 0,0.486 5.788,0 0,-0.486 z"
           style="fill:#e5e8ec;fill-opacity:1;fill-rule:nonzero;stroke:none"
           id="path4675"
           inkscape:connector-curvature="0" /></g></g><g
       id="g4677"><g
         id="g4679"
         clip-path="url(#clipPath4681)"><g
           id="g4685"
           transform="translate(16.6279,33.5039)"><path
             d="m 0,0 6.384,2.709 6.385,2.711 13.617,-32.076 -7.651,0.268 -5.119,-5.688 L 0,0 Z"
             style="fill:#ff876c;fill-opacity:1;fill-rule:nonzero;stroke:none"
             id="path4687"
             inkscape:connector-curvature="0" /></g><g
           id="g4689"
           transform="translate(31.2266,2.5186)"><path
             d="M 0,0 1.146,1.272 -11.944,32.111 -13.373,31.505 0,0 Z"
             style="fill:#ffa38f;fill-opacity:1;fill-rule:nonzero;stroke:none"
             id="path4691"
             inkscape:connector-curvature="0" /></g><g
           id="g4693"
           transform="translate(39.8359,6.96)"><path
             d="M 0,0 1.711,-0.062 -11.662,31.442 -13.09,30.838 0,0 Z"
             style="fill:#ffa38f;fill-opacity:1;fill-rule:nonzero;stroke:none"
             id="path4695"
             inkscape:connector-curvature="0" /></g><g
           id="g4697"
           transform="translate(19.459,37.5049)"><path
             d="m 0,0 6.43,-2.597 6.431,-2.599 -13.051,-32.309 -5.222,5.6 -7.643,-0.404 L 0,0 Z"
             style="fill:#ff876c;fill-opacity:1;fill-rule:nonzero;stroke:none"
             id="path4699"
             inkscape:connector-curvature="0" /></g><g
           id="g4701"
           transform="translate(7.8701,5.2744)"><path
             d="M 0,0 1.71,0.089 14.261,31.151 12.821,31.733 0,0 Z"
             style="fill:#ffa38f;fill-opacity:1;fill-rule:nonzero;stroke:none"
             id="path4703"
             inkscape:connector-curvature="0" /></g><g
           id="g4705"
           transform="translate(17.0996,2.3252)"><path
             d="M 0,0 1.166,-1.25 13.988,30.483 12.549,31.062 0,0 Z"
             style="fill:#ffa38f;fill-opacity:1;fill-rule:nonzero;stroke:none"
             id="path4707"
             inkscape:connector-curvature="0" /></g><g
           id="g4709"
           transform="translate(49.416,40.7432)"><path
             d="m 0,0 c 0,-1.573 -2.418,-2.89 -2.712,-4.377 -0.304,-1.532 1.421,-3.672 0.837,-5.081 -0.596,-1.436 -3.333,-1.725 -4.187,-3 -0.86,-1.285 -0.086,-3.924 -1.175,-5.014 -1.09,-1.09 -3.729,-0.315 -5.014,-1.175 -1.274,-0.854 -1.564,-3.591 -2.999,-4.186 -1.41,-0.584 -3.548,1.141 -5.08,0.837 -1.487,-0.294 -2.804,-2.712 -4.377,-2.712 -1.574,10e-4 -2.89,2.418 -4.377,2.713 -1.533,0.303 -3.671,-1.421 -5.081,-0.836 -1.435,0.596 -1.726,3.332 -3,4.185 -1.285,0.86 -3.925,0.086 -5.014,1.176 -1.089,1.09 -0.315,3.729 -1.176,5.014 -0.853,1.274 -3.59,1.564 -4.185,2.998 -0.585,1.41 1.14,3.549 0.836,5.08 -0.294,1.488 -2.712,2.804 -2.712,4.378 0,1.574 2.418,2.891 2.713,4.378 0.303,1.533 -1.422,3.671 -0.837,5.08 0.595,1.436 3.332,1.726 4.186,3.001 0.861,1.284 0.087,3.924 1.176,5.013 1.09,1.09 3.729,0.315 5.014,1.175 1.275,0.854 1.564,3.59 2.999,4.185 1.41,0.585 3.549,-1.14 5.081,-0.835 1.487,0.293 2.803,2.711 4.377,2.711 1.574,0 2.89,-2.418 4.377,-2.711 1.533,-0.304 3.672,1.42 5.082,0.835 1.435,-0.595 1.724,-3.332 2.999,-4.186 1.285,-0.861 3.924,-0.086 5.013,-1.175 1.09,-1.089 0.314,-3.729 1.175,-5.014 0.854,-1.276 3.59,-1.565 4.186,-2.999 C -1.29,8.048 -3.016,5.909 -2.712,4.377 -2.418,2.89 0,1.573 0,0"
             style="fill:#f0ca67;fill-opacity:1;fill-rule:nonzero;stroke:none"
             id="path4711"
             inkscape:connector-curvature="0" /></g><g
           id="g4713"
           transform="translate(43.0361,40.7432)"><path
             d="m 0,0 c 0,-10.122 -8.207,-18.328 -18.327,-18.328 -10.122,0 -18.328,8.206 -18.328,18.328 0,10.124 8.206,18.328 18.328,18.328 C -8.207,18.328 0,10.124 0,0"
             style="fill:#f3b840;fill-opacity:1;fill-rule:nonzero;stroke:none"
             id="path4715"
             inkscape:connector-curvature="0" /></g><g
           id="g4717"
           transform="translate(41.0732,40.7432)"><path
             d="m 0,0 c 0,-9.037 -7.327,-16.365 -16.364,-16.365 -9.037,0 -16.365,7.328 -16.365,16.365 0,9.036 7.328,16.366 16.365,16.366 C -7.327,16.366 0,9.036 0,0"
             style="fill:#f4da80;fill-opacity:1;fill-rule:nonzero;stroke:none"
             id="path4719"
             inkscape:connector-curvature="0" /></g><g
           id="g4721"
           transform="translate(41.0732,40.3066)"><path
             d="m 0,0 c 0,-8.795 -7.132,-15.929 -15.929,-15.929 -8.797,0 -15.926,7.134 -15.926,15.929 0,8.797 7.129,15.93 15.926,15.93 C -7.132,15.93 0,8.797 0,0"
             style="fill:#f0ca67;fill-opacity:1;fill-rule:nonzero;stroke:none"
             id="path4723"
             inkscape:connector-curvature="0" /></g><g
           id="g4725"
           transform="translate(24.2725,51.1719)"><path
             d="m 0,0 3.245,-6.574 7.256,-1.055 -5.25,-5.119 1.239,-7.225 -6.49,3.411 -6.49,-3.411 1.24,7.225 -5.251,5.119 7.256,1.055 L 0,0 Z"
             style="fill:#484f59;fill-opacity:1;fill-rule:nonzero;stroke:none"
             id="path4727"
             inkscape:connector-curvature="0" /></g></g></g></g></svg>