<?xml version="1.0" encoding="UTF-8" standalone="no"?>
<!-- Created with Inkscape (http://www.inkscape.org/) -->

<svg
   xmlns:dc="http://purl.org/dc/elements/1.1/"
   xmlns:cc="http://creativecommons.org/ns#"
   xmlns:rdf="http://www.w3.org/1999/02/22-rdf-syntax-ns#"
   xmlns:svg="http://www.w3.org/2000/svg"
   xmlns="http://www.w3.org/2000/svg"
   xmlns:sodipodi="http://sodipodi.sourceforge.net/DTD/sodipodi-0.dtd"
   xmlns:inkscape="http://www.inkscape.org/namespaces/inkscape"
   id="svg5005"
   version="1.1"
   inkscape:version="0.91 r13725"
   xml:space="preserve"
   width="133.99625"
   height="130.78625"
   viewBox="0 0 133.99625 130.78625"
   sodipodi:docname="taken-house-ban.svg"><metadata
     id="metadata5011"><rdf:RDF><cc:Work
         rdf:about=""><dc:format>image/svg+xml</dc:format><dc:type
           rdf:resource="http://purl.org/dc/dcmitype/StillImage" /><dc:title></dc:title></cc:Work></rdf:RDF></metadata><defs
     id="defs5009"><clipPath
       clipPathUnits="userSpaceOnUse"
       id="clipPath5019"><path
         d="m 0,104.629 107.197,0 L 107.197,0 0,0 0,104.629 Z"
         id="path5021"
         inkscape:connector-curvature="0" /></clipPath></defs><sodipodi:namedview
     pagecolor="#ffffff"
     bordercolor="#666666"
     borderopacity="1"
     objecttolerance="10"
     gridtolerance="10"
     guidetolerance="10"
     inkscape:pageopacity="0"
     inkscape:pageshadow="2"
     inkscape:window-width="640"
     inkscape:window-height="480"
     id="namedview5007"
     showgrid="false"
     inkscape:zoom="1.804471"
     inkscape:cx="66.998123"
     inkscape:cy="65.393127"
     inkscape:window-x="0"
     inkscape:window-y="0"
     inkscape:window-maximized="0"
     inkscape:current-layer="g5013" /><g
     id="g5013"
     inkscape:groupmode="layer"
     inkscape:label="taken-house-ban"
     transform="matrix(1.25,0,0,-1.25,0,130.78625)"><g
       id="g5015"><g
         id="g5017"
         clip-path="url(#clipPath5019)"><g
           id="g5023"
           transform="translate(54.1973,0.2798)"><path
             d="m 0,0 c -29.225,0 -53,23.406 -53,52.175 0,28.77 23.775,52.175 53,52.175 29.225,0 53,-23.405 53,-52.175 C 53,23.406 29.225,0 0,0"
             style="fill:#82cf8f;fill-opacity:1;fill-rule:nonzero;stroke:none"
             id="path5025"
             inkscape:connector-curvature="0" /></g><g
           id="g5027"
           transform="translate(55.1553,69.0889)"><path
             d="m 0,0 c 0.02,0.131 0.03,0.264 0.03,0.4 0,1.546 -1.251,2.799 -2.798,2.799 -0.195,0 -0.384,-0.022 -0.57,-0.06 -0.519,1.109 -1.367,2.031 -2.42,2.644 -0.965,2.015 -3.017,3.412 -5.404,3.412 -2.111,0 -3.963,-1.095 -5.033,-2.745 -0.799,0.828 -1.92,1.345 -3.16,1.345 -1.615,0 -3.02,-0.87 -3.786,-2.165 -1.099,1.323 -2.755,2.165 -4.609,2.165 -2.233,0 -4.174,-1.222 -5.207,-3.029 C -35.582,4.501 -37.705,2.542 -38.223,0 L 0,0 Z"
             style="fill:#e5e8ec;fill-opacity:1;fill-rule:nonzero;stroke:none"
             id="path5029"
             inkscape:connector-curvature="0" /></g><g
           id="g5031"
           transform="translate(15.168,38.3096)"><path
             d="m 0,0 c 0.008,0.052 0.014,0.105 0.014,0.158 0,0.615 -0.498,1.112 -1.111,1.112 -0.078,0 -0.153,-0.008 -0.227,-0.023 -0.205,0.44 -0.543,0.805 -0.959,1.048 -0.385,0.8 -1.199,1.354 -2.147,1.354 -0.838,0 -1.572,-0.435 -1.996,-1.089 -0.318,0.329 -0.761,0.534 -1.256,0.534 -0.638,0 -1.197,-0.346 -1.5,-0.86 -0.437,0.525 -1.093,0.86 -1.83,0.86 -0.886,0 -1.656,-0.485 -2.067,-1.201 C -14.119,1.787 -14.963,1.008 -15.168,0 L 0,0 Z"
             style="fill:#e5e8ec;fill-opacity:1;fill-rule:nonzero;stroke:none"
             id="path5033"
             inkscape:connector-curvature="0" /></g><g
           id="g5035"
           transform="translate(101.1704,59.7046)"><path
             d="m 0,0 c 0.008,0.053 0.014,0.104 0.014,0.159 0,0.614 -0.498,1.111 -1.111,1.111 -0.076,0 -0.153,-0.008 -0.227,-0.024 -0.205,0.441 -0.541,0.806 -0.959,1.049 -0.384,0.8 -1.199,1.354 -2.146,1.354 -0.838,0 -1.573,-0.434 -1.998,-1.089 -0.317,0.328 -0.763,0.535 -1.254,0.535 -0.64,0 -1.197,-0.347 -1.5,-0.86 -0.438,0.524 -1.096,0.86 -1.83,0.86 -0.887,0 -1.656,-0.487 -2.067,-1.203 C -14.119,1.787 -14.962,1.01 -15.167,0 L 0,0 Z"
             style="fill:#e5e8ec;fill-opacity:1;fill-rule:nonzero;stroke:none"
             id="path5037"
             inkscape:connector-curvature="0" /></g><path
           d="m 43.854,0 -1.164,0 0,88.319 1.164,0 0,-88.319 z"
           style="fill:#484f59;fill-opacity:1;fill-rule:nonzero;stroke:none"
           id="path5039"
           inkscape:connector-curvature="0" /><path
           d="m 46.183,0 -1.165,0 0,88.319 1.165,0 0,-88.319 z"
           style="fill:#484f59;fill-opacity:1;fill-rule:nonzero;stroke:none"
           id="path5041"
           inkscape:connector-curvature="0" /><path
           d="m 48.509,0 -1.162,0 0,88.319 1.162,0 0,-88.319 z"
           style="fill:#484f59;fill-opacity:1;fill-rule:nonzero;stroke:none"
           id="path5043"
           inkscape:connector-curvature="0" /><path
           d="m 50.839,0 -1.166,0 0,88.319 1.166,0 0,-88.319 z"
           style="fill:#484f59;fill-opacity:1;fill-rule:nonzero;stroke:none"
           id="path5045"
           inkscape:connector-curvature="0" /><path
           d="M 53.165,0 52,0 l 0,88.319 1.165,0 0,-88.319 z"
           style="fill:#484f59;fill-opacity:1;fill-rule:nonzero;stroke:none"
           id="path5047"
           inkscape:connector-curvature="0" /><path
           d="m 55.493,0 -1.164,0 0,88.319 1.164,0 0,-88.319 z"
           style="fill:#484f59;fill-opacity:1;fill-rule:nonzero;stroke:none"
           id="path5049"
           inkscape:connector-curvature="0" /><path
           d="m 57.823,0 -1.166,0 0,88.319 1.166,0 0,-88.319 z"
           style="fill:#484f59;fill-opacity:1;fill-rule:nonzero;stroke:none"
           id="path5051"
           inkscape:connector-curvature="0" /><path
           d="m 60.149,0 -1.163,0 0,88.319 1.163,0 0,-88.319 z"
           style="fill:#484f59;fill-opacity:1;fill-rule:nonzero;stroke:none"
           id="path5053"
           inkscape:connector-curvature="0" /><path
           d="m 62.478,0 -1.166,0 0,88.319 1.166,0 0,-88.319 z"
           style="fill:#484f59;fill-opacity:1;fill-rule:nonzero;stroke:none"
           id="path5055"
           inkscape:connector-curvature="0" /><path
           d="m 64.806,0 -1.164,0 0,88.319 1.164,0 0,-88.319 z"
           style="fill:#484f59;fill-opacity:1;fill-rule:nonzero;stroke:none"
           id="path5057"
           inkscape:connector-curvature="0" /><path
           d="m 67.133,0 -1.164,0 0,88.319 1.164,0 0,-88.319 z"
           style="fill:#484f59;fill-opacity:1;fill-rule:nonzero;stroke:none"
           id="path5059"
           inkscape:connector-curvature="0" /><path
           d="m 69.462,0 -1.164,0 0,88.319 1.164,0 0,-88.319 z"
           style="fill:#484f59;fill-opacity:1;fill-rule:nonzero;stroke:none"
           id="path5061"
           inkscape:connector-curvature="0" /><path
           d="m 45.018,0 -1.164,0 0,88.319 1.164,0 0,-88.319 z"
           style="fill:#30363d;fill-opacity:1;fill-rule:nonzero;stroke:none"
           id="path5063"
           inkscape:connector-curvature="0" /><path
           d="m 47.345,0 -1.164,0 0,88.319 1.164,0 0,-88.319 z"
           style="fill:#30363d;fill-opacity:1;fill-rule:nonzero;stroke:none"
           id="path5065"
           inkscape:connector-curvature="0" /><path
           d="m 49.673,0 -1.164,0 0,88.319 1.164,0 0,-88.319 z"
           style="fill:#30363d;fill-opacity:1;fill-rule:nonzero;stroke:none"
           id="path5067"
           inkscape:connector-curvature="0" /><path
           d="m 52,0 -1.164,0 0,88.319 1.164,0 L 52,0 Z"
           style="fill:#30363d;fill-opacity:1;fill-rule:nonzero;stroke:none"
           id="path5069"
           inkscape:connector-curvature="0" /><path
           d="m 54.329,0 -1.164,0 0,88.319 1.164,0 0,-88.319 z"
           style="fill:#30363d;fill-opacity:1;fill-rule:nonzero;stroke:none"
           id="path5071"
           inkscape:connector-curvature="0" /><path
           d="m 56.657,0 -1.164,0 0,88.319 1.164,0 0,-88.319 z"
           style="fill:#30363d;fill-opacity:1;fill-rule:nonzero;stroke:none"
           id="path5073"
           inkscape:connector-curvature="0" /><path
           d="m 58.985,0 -1.164,0 0,88.319 1.164,0 0,-88.319 z"
           style="fill:#30363d;fill-opacity:1;fill-rule:nonzero;stroke:none"
           id="path5075"
           inkscape:connector-curvature="0" /><path
           d="m 61.312,0 -1.163,0 0,88.319 1.163,0 0,-88.319 z"
           style="fill:#30363d;fill-opacity:1;fill-rule:nonzero;stroke:none"
           id="path5077"
           inkscape:connector-curvature="0" /><path
           d="m 63.642,0 -1.164,0 0,88.319 1.164,0 0,-88.319 z"
           style="fill:#30363d;fill-opacity:1;fill-rule:nonzero;stroke:none"
           id="path5079"
           inkscape:connector-curvature="0" /><path
           d="m 65.969,0 -1.164,0 0,88.319 1.164,0 0,-88.319 z"
           style="fill:#30363d;fill-opacity:1;fill-rule:nonzero;stroke:none"
           id="path5081"
           inkscape:connector-curvature="0" /><path
           d="m 68.298,0 -1.165,0 0,88.319 1.165,0 0,-88.319 z"
           style="fill:#30363d;fill-opacity:1;fill-rule:nonzero;stroke:none"
           id="path5083"
           inkscape:connector-curvature="0" /><path
           d="m 70.626,0 -1.164,0 0,88.319 1.164,0 0,-88.319 z"
           style="fill:#30363d;fill-opacity:1;fill-rule:nonzero;stroke:none"
           id="path5085"
           inkscape:connector-curvature="0" /><path
           d="m 70.989,87.446 -28.662,0 0,1.602 28.662,0 0,-1.602 z"
           style="fill:#30363d;fill-opacity:1;fill-rule:nonzero;stroke:none"
           id="path5087"
           inkscape:connector-curvature="0" /><path
           d="m 80.755,5.565 -25.396,0 0,70.653 25.396,0 0,-70.653 z"
           style="fill:#cdd5d7;fill-opacity:1;fill-rule:nonzero;stroke:none"
           id="path5089"
           inkscape:connector-curvature="0" /><path
           d="m 81.843,0 -27.573,0 0,6.959 27.573,0 0,-6.959 z"
           style="fill:#b7bec0;fill-opacity:1;fill-rule:nonzero;stroke:none"
           id="path5091"
           inkscape:connector-curvature="0" /><path
           d="m 58.416,0 -4.146,0 0,6.431 4.146,0 0,-6.431 z"
           style="fill:#cdd5d7;fill-opacity:1;fill-rule:nonzero;stroke:none"
           id="path5093"
           inkscape:connector-curvature="0" /><path
           d="m 81.843,0 -4.146,0 0,6.431 4.146,0 0,-6.431 z"
           style="fill:#cdd5d7;fill-opacity:1;fill-rule:nonzero;stroke:none"
           id="path5095"
           inkscape:connector-curvature="0" /><path
           d="m 80.651,0 -23.574,0 0,6.431 23.574,0 0,-6.431 z"
           style="fill:#cdd5d7;fill-opacity:1;fill-rule:nonzero;stroke:none"
           id="path5097"
           inkscape:connector-curvature="0" /><path
           d="m 80.755,73.562 -25.396,0 0,2.656 25.396,0 0,-2.656 z"
           style="fill:#b7bec0;fill-opacity:1;fill-rule:nonzero;stroke:none"
           id="path5099"
           inkscape:connector-curvature="0" /><path
           d="m 82.024,75.581 -27.936,0 0,3.274 27.936,0 0,-3.274 z"
           style="fill:#cdd5d7;fill-opacity:1;fill-rule:nonzero;stroke:none"
           id="path5101"
           inkscape:connector-curvature="0" /><path
           d="m 61.536,67.443 -4.246,0 0,4.246 4.246,0 0,-4.246 z"
           style="fill:#b7bec0;fill-opacity:1;fill-rule:nonzero;stroke:none"
           id="path5103"
           inkscape:connector-curvature="0" /><path
           d="m 67.298,67.443 -4.246,0 0,4.246 4.246,0 0,-4.246 z"
           style="fill:#b7bec0;fill-opacity:1;fill-rule:nonzero;stroke:none"
           id="path5105"
           inkscape:connector-curvature="0" /><path
           d="m 73.061,67.443 -4.246,0 0,4.246 4.246,0 0,-4.246 z"
           style="fill:#484f59;fill-opacity:1;fill-rule:nonzero;stroke:none"
           id="path5107"
           inkscape:connector-curvature="0" /><path
           d="m 78.823,67.443 -4.246,0 0,4.246 4.246,0 0,-4.246 z"
           style="fill:#484f59;fill-opacity:1;fill-rule:nonzero;stroke:none"
           id="path5109"
           inkscape:connector-curvature="0" /><path
           d="m 61.536,61.81 -4.246,0 0,4.247 4.246,0 0,-4.247 z"
           style="fill:#484f59;fill-opacity:1;fill-rule:nonzero;stroke:none"
           id="path5111"
           inkscape:connector-curvature="0" /><path
           d="m 67.298,61.81 -4.246,0 0,4.247 4.246,0 0,-4.247 z"
           style="fill:#484f59;fill-opacity:1;fill-rule:nonzero;stroke:none"
           id="path5113"
           inkscape:connector-curvature="0" /><path
           d="m 73.061,61.81 -4.246,0 0,4.247 4.246,0 0,-4.247 z"
           style="fill:#484f59;fill-opacity:1;fill-rule:nonzero;stroke:none"
           id="path5115"
           inkscape:connector-curvature="0" /><path
           d="m 78.823,61.81 -4.246,0 0,4.247 4.246,0 0,-4.247 z"
           style="fill:#484f59;fill-opacity:1;fill-rule:nonzero;stroke:none"
           id="path5117"
           inkscape:connector-curvature="0" /><path
           d="m 61.536,56.178 -4.246,0 0,4.246 4.246,0 0,-4.246 z"
           style="fill:#484f59;fill-opacity:1;fill-rule:nonzero;stroke:none"
           id="path5119"
           inkscape:connector-curvature="0" /><path
           d="m 67.298,56.178 -4.246,0 0,4.246 4.246,0 0,-4.246 z"
           style="fill:#484f59;fill-opacity:1;fill-rule:nonzero;stroke:none"
           id="path5121"
           inkscape:connector-curvature="0" /><path
           d="m 73.061,56.178 -4.246,0 0,4.246 4.246,0 0,-4.246 z"
           style="fill:#b7bec0;fill-opacity:1;fill-rule:nonzero;stroke:none"
           id="path5123"
           inkscape:connector-curvature="0" /><path
           d="m 78.823,56.178 -4.246,0 0,4.246 4.246,0 0,-4.246 z"
           style="fill:#484f59;fill-opacity:1;fill-rule:nonzero;stroke:none"
           id="path5125"
           inkscape:connector-curvature="0" /><path
           d="m 61.536,50.545 -4.246,0 0,4.246 4.246,0 0,-4.246 z"
           style="fill:#484f59;fill-opacity:1;fill-rule:nonzero;stroke:none"
           id="path5127"
           inkscape:connector-curvature="0" /><path
           d="m 67.298,50.545 -4.246,0 0,4.246 4.246,0 0,-4.246 z"
           style="fill:#b7bec0;fill-opacity:1;fill-rule:nonzero;stroke:none"
           id="path5129"
           inkscape:connector-curvature="0" /><path
           d="m 73.061,50.545 -4.246,0 0,4.246 4.246,0 0,-4.246 z"
           style="fill:#484f59;fill-opacity:1;fill-rule:nonzero;stroke:none"
           id="path5131"
           inkscape:connector-curvature="0" /><path
           d="m 78.823,50.545 -4.246,0 0,4.246 4.246,0 0,-4.246 z"
           style="fill:#484f59;fill-opacity:1;fill-rule:nonzero;stroke:none"
           id="path5133"
           inkscape:connector-curvature="0" /><path
           d="m 61.536,44.913 -4.246,0 0,4.246 4.246,0 0,-4.246 z"
           style="fill:#484f59;fill-opacity:1;fill-rule:nonzero;stroke:none"
           id="path5135"
           inkscape:connector-curvature="0" /><path
           d="m 67.298,44.913 -4.246,0 0,4.246 4.246,0 0,-4.246 z"
           style="fill:#484f59;fill-opacity:1;fill-rule:nonzero;stroke:none"
           id="path5137"
           inkscape:connector-curvature="0" /><path
           d="m 73.061,44.913 -4.246,0 0,4.246 4.246,0 0,-4.246 z"
           style="fill:#484f59;fill-opacity:1;fill-rule:nonzero;stroke:none"
           id="path5139"
           inkscape:connector-curvature="0" /><path
           d="m 78.823,44.913 -4.246,0 0,4.246 4.246,0 0,-4.246 z"
           style="fill:#484f59;fill-opacity:1;fill-rule:nonzero;stroke:none"
           id="path5141"
           inkscape:connector-curvature="0" /><path
           d="m 61.536,39.279 -4.246,0 0,4.247 4.246,0 0,-4.247 z"
           style="fill:#b7bec0;fill-opacity:1;fill-rule:nonzero;stroke:none"
           id="path5143"
           inkscape:connector-curvature="0" /><path
           d="m 67.298,39.279 -4.246,0 0,4.247 4.246,0 0,-4.247 z"
           style="fill:#484f59;fill-opacity:1;fill-rule:nonzero;stroke:none"
           id="path5145"
           inkscape:connector-curvature="0" /><path
           d="m 73.061,39.279 -4.246,0 0,4.247 4.246,0 0,-4.247 z"
           style="fill:#484f59;fill-opacity:1;fill-rule:nonzero;stroke:none"
           id="path5147"
           inkscape:connector-curvature="0" /><path
           d="m 78.823,39.279 -4.246,0 0,4.247 4.246,0 0,-4.247 z"
           style="fill:#b7bec0;fill-opacity:1;fill-rule:nonzero;stroke:none"
           id="path5149"
           inkscape:connector-curvature="0" /><path
           d="m 61.536,33.647 -4.246,0 0,4.247 4.246,0 0,-4.247 z"
           style="fill:#b7bec0;fill-opacity:1;fill-rule:nonzero;stroke:none"
           id="path5151"
           inkscape:connector-curvature="0" /><path
           d="m 67.298,33.647 -4.246,0 0,4.247 4.246,0 0,-4.247 z"
           style="fill:#484f59;fill-opacity:1;fill-rule:nonzero;stroke:none"
           id="path5153"
           inkscape:connector-curvature="0" /><path
           d="m 73.061,33.647 -4.246,0 0,4.247 4.246,0 0,-4.247 z"
           style="fill:#484f59;fill-opacity:1;fill-rule:nonzero;stroke:none"
           id="path5155"
           inkscape:connector-curvature="0" /><path
           d="m 78.823,33.647 -4.246,0 0,4.247 4.246,0 0,-4.247 z"
           style="fill:#484f59;fill-opacity:1;fill-rule:nonzero;stroke:none"
           id="path5157"
           inkscape:connector-curvature="0" /><path
           d="m 61.536,28.015 -4.246,0 0,4.246 4.246,0 0,-4.246 z"
           style="fill:#484f59;fill-opacity:1;fill-rule:nonzero;stroke:none"
           id="path5159"
           inkscape:connector-curvature="0" /><path
           d="m 67.298,28.015 -4.246,0 0,4.246 4.246,0 0,-4.246 z"
           style="fill:#b7bec0;fill-opacity:1;fill-rule:nonzero;stroke:none"
           id="path5161"
           inkscape:connector-curvature="0" /><path
           d="m 73.061,28.015 -4.246,0 0,4.246 4.246,0 0,-4.246 z"
           style="fill:#484f59;fill-opacity:1;fill-rule:nonzero;stroke:none"
           id="path5163"
           inkscape:connector-curvature="0" /><path
           d="m 78.823,28.015 -4.246,0 0,4.246 4.246,0 0,-4.246 z"
           style="fill:#484f59;fill-opacity:1;fill-rule:nonzero;stroke:none"
           id="path5165"
           inkscape:connector-curvature="0" /><path
           d="m 61.536,22.381 -4.246,0 0,4.247 4.246,0 0,-4.247 z"
           style="fill:#484f59;fill-opacity:1;fill-rule:nonzero;stroke:none"
           id="path5167"
           inkscape:connector-curvature="0" /><path
           d="m 67.298,22.381 -4.246,0 0,4.247 4.246,0 0,-4.247 z"
           style="fill:#484f59;fill-opacity:1;fill-rule:nonzero;stroke:none"
           id="path5169"
           inkscape:connector-curvature="0" /><path
           d="m 73.061,22.381 -4.246,0 0,4.247 4.246,0 0,-4.247 z"
           style="fill:#484f59;fill-opacity:1;fill-rule:nonzero;stroke:none"
           id="path5171"
           inkscape:connector-curvature="0" /><path
           d="m 78.823,22.381 -4.246,0 0,4.247 4.246,0 0,-4.247 z"
           style="fill:#b7bec0;fill-opacity:1;fill-rule:nonzero;stroke:none"
           id="path5173"
           inkscape:connector-curvature="0" /><path
           d="m 61.536,16.749 -4.246,0 0,4.247 4.246,0 0,-4.247 z"
           style="fill:#484f59;fill-opacity:1;fill-rule:nonzero;stroke:none"
           id="path5175"
           inkscape:connector-curvature="0" /><path
           d="m 67.298,16.749 -4.246,0 0,4.247 4.246,0 0,-4.247 z"
           style="fill:#484f59;fill-opacity:1;fill-rule:nonzero;stroke:none"
           id="path5177"
           inkscape:connector-curvature="0" /><path
           d="m 73.061,16.749 -4.246,0 0,4.247 4.246,0 0,-4.247 z"
           style="fill:#484f59;fill-opacity:1;fill-rule:nonzero;stroke:none"
           id="path5179"
           inkscape:connector-curvature="0" /><path
           d="m 78.823,16.749 -4.246,0 0,4.247 4.246,0 0,-4.247 z"
           style="fill:#484f59;fill-opacity:1;fill-rule:nonzero;stroke:none"
           id="path5181"
           inkscape:connector-curvature="0" /><g
           id="g5183"
           transform="translate(21.1045,54.3237)"><path
             d="M 0,0 13.979,4.27 27.953,0 0,0 Z"
             style="fill:#cdd5d7;fill-opacity:1;fill-rule:nonzero;stroke:none"
             id="path5185"
             inkscape:connector-curvature="0" /></g><path
           d="m 47.786,5.565 -25.396,0 0,46.126 25.396,0 0,-46.126 z"
           style="fill:#cdd5d7;fill-opacity:1;fill-rule:nonzero;stroke:none"
           id="path5187"
           inkscape:connector-curvature="0" /><path
           d="m 48.874,0 -27.573,0 0,6.959 27.573,0 0,-6.959 z"
           style="fill:#b7bec0;fill-opacity:1;fill-rule:nonzero;stroke:none"
           id="path5189"
           inkscape:connector-curvature="0" /><path
           d="m 25.448,0 -4.147,0 0,6.431 4.147,0 0,-6.431 z"
           style="fill:#cdd5d7;fill-opacity:1;fill-rule:nonzero;stroke:none"
           id="path5191"
           inkscape:connector-curvature="0" /><path
           d="m 48.874,0 -25.244,0 0,6.431 25.244,0 0,-6.431 z"
           style="fill:#cdd5d7;fill-opacity:1;fill-rule:nonzero;stroke:none"
           id="path5193"
           inkscape:connector-curvature="0" /><path
           d="m 47.786,49.035 -25.396,0 0,2.656 25.396,0 0,-2.656 z"
           style="fill:#b7bec0;fill-opacity:1;fill-rule:nonzero;stroke:none"
           id="path5195"
           inkscape:connector-curvature="0" /><path
           d="m 49.056,51.054 -27.936,0 0,3.274 27.936,0 0,-3.274 z"
           style="fill:#cdd5d7;fill-opacity:1;fill-rule:nonzero;stroke:none"
           id="path5197"
           inkscape:connector-curvature="0" /><path
           d="m 28.564,42.915 -4.243,0 0,4.247 4.243,0 0,-4.247 z"
           style="fill:#b7bec0;fill-opacity:1;fill-rule:nonzero;stroke:none"
           id="path5199"
           inkscape:connector-curvature="0" /><path
           d="m 34.329,42.915 -4.246,0 0,4.247 4.246,0 0,-4.247 z"
           style="fill:#484f59;fill-opacity:1;fill-rule:nonzero;stroke:none"
           id="path5201"
           inkscape:connector-curvature="0" /><path
           d="m 40.091,42.915 -4.244,0 0,4.247 4.244,0 0,-4.247 z"
           style="fill:#484f59;fill-opacity:1;fill-rule:nonzero;stroke:none"
           id="path5203"
           inkscape:connector-curvature="0" /><path
           d="m 45.854,42.915 -4.246,0 0,4.247 4.246,0 0,-4.247 z"
           style="fill:#484f59;fill-opacity:1;fill-rule:nonzero;stroke:none"
           id="path5205"
           inkscape:connector-curvature="0" /><path
           d="m 28.564,37.284 -4.243,0 0,4.247 4.243,0 0,-4.247 z"
           style="fill:#484f59;fill-opacity:1;fill-rule:nonzero;stroke:none"
           id="path5207"
           inkscape:connector-curvature="0" /><path
           d="m 34.329,37.284 -4.246,0 0,4.247 4.246,0 0,-4.247 z"
           style="fill:#b7bec0;fill-opacity:1;fill-rule:nonzero;stroke:none"
           id="path5209"
           inkscape:connector-curvature="0" /><path
           d="m 40.091,37.284 -4.244,0 0,4.247 4.244,0 0,-4.247 z"
           style="fill:#484f59;fill-opacity:1;fill-rule:nonzero;stroke:none"
           id="path5211"
           inkscape:connector-curvature="0" /><path
           d="m 45.854,37.284 -4.246,0 0,4.247 4.246,0 0,-4.247 z"
           style="fill:#484f59;fill-opacity:1;fill-rule:nonzero;stroke:none"
           id="path5213"
           inkscape:connector-curvature="0" /><path
           d="m 28.564,31.651 -4.243,0 0,4.246 4.243,0 0,-4.246 z"
           style="fill:#b7bec0;fill-opacity:1;fill-rule:nonzero;stroke:none"
           id="path5215"
           inkscape:connector-curvature="0" /><path
           d="m 34.329,31.651 -4.246,0 0,4.246 4.246,0 0,-4.246 z"
           style="fill:#484f59;fill-opacity:1;fill-rule:nonzero;stroke:none"
           id="path5217"
           inkscape:connector-curvature="0" /><path
           d="m 40.091,31.651 -4.244,0 0,4.246 4.244,0 0,-4.246 z"
           style="fill:#484f59;fill-opacity:1;fill-rule:nonzero;stroke:none"
           id="path5219"
           inkscape:connector-curvature="0" /><path
           d="m 45.854,31.651 -4.246,0 0,4.246 4.246,0 0,-4.246 z"
           style="fill:#b7bec0;fill-opacity:1;fill-rule:nonzero;stroke:none"
           id="path5221"
           inkscape:connector-curvature="0" /><path
           d="m 28.564,26.018 -4.243,0 0,4.247 4.243,0 0,-4.247 z"
           style="fill:#484f59;fill-opacity:1;fill-rule:nonzero;stroke:none"
           id="path5223"
           inkscape:connector-curvature="0" /><path
           d="m 34.329,26.018 -4.246,0 0,4.247 4.246,0 0,-4.247 z"
           style="fill:#484f59;fill-opacity:1;fill-rule:nonzero;stroke:none"
           id="path5225"
           inkscape:connector-curvature="0" /><path
           d="m 40.091,26.018 -4.244,0 0,4.247 4.244,0 0,-4.247 z"
           style="fill:#484f59;fill-opacity:1;fill-rule:nonzero;stroke:none"
           id="path5227"
           inkscape:connector-curvature="0" /><path
           d="m 45.854,26.018 -4.246,0 0,4.247 4.246,0 0,-4.247 z"
           style="fill:#484f59;fill-opacity:1;fill-rule:nonzero;stroke:none"
           id="path5229"
           inkscape:connector-curvature="0" /><path
           d="m 28.564,20.385 -4.243,0 0,4.247 4.243,0 0,-4.247 z"
           style="fill:#484f59;fill-opacity:1;fill-rule:nonzero;stroke:none"
           id="path5231"
           inkscape:connector-curvature="0" /><path
           d="m 34.329,20.385 -4.246,0 0,4.247 4.246,0 0,-4.247 z"
           style="fill:#484f59;fill-opacity:1;fill-rule:nonzero;stroke:none"
           id="path5233"
           inkscape:connector-curvature="0" /><path
           d="m 40.091,20.385 -4.244,0 0,4.247 4.244,0 0,-4.247 z"
           style="fill:#484f59;fill-opacity:1;fill-rule:nonzero;stroke:none"
           id="path5235"
           inkscape:connector-curvature="0" /><path
           d="m 45.854,20.385 -4.246,0 0,4.247 4.246,0 0,-4.247 z"
           style="fill:#484f59;fill-opacity:1;fill-rule:nonzero;stroke:none"
           id="path5237"
           inkscape:connector-curvature="0" /><path
           d="m 28.564,14.753 -4.243,0 0,4.246 4.243,0 0,-4.246 z"
           style="fill:#484f59;fill-opacity:1;fill-rule:nonzero;stroke:none"
           id="path5239"
           inkscape:connector-curvature="0" /><path
           d="m 34.329,14.753 -4.246,0 0,4.246 4.246,0 0,-4.246 z"
           style="fill:#484f59;fill-opacity:1;fill-rule:nonzero;stroke:none"
           id="path5241"
           inkscape:connector-curvature="0" /><path
           d="m 40.091,14.753 -4.244,0 0,4.246 4.244,0 0,-4.246 z"
           style="fill:#b7bec0;fill-opacity:1;fill-rule:nonzero;stroke:none"
           id="path5243"
           inkscape:connector-curvature="0" /><path
           d="m 45.854,14.753 -4.246,0 0,4.246 4.246,0 0,-4.246 z"
           style="fill:#b7bec0;fill-opacity:1;fill-rule:nonzero;stroke:none"
           id="path5245"
           inkscape:connector-curvature="0" /><path
           d="m 28.564,9.119 -4.243,0 0,4.247 4.243,0 0,-4.247 z"
           style="fill:#484f59;fill-opacity:1;fill-rule:nonzero;stroke:none"
           id="path5247"
           inkscape:connector-curvature="0" /><path
           d="m 34.329,9.119 -4.246,0 0,4.247 4.246,0 0,-4.247 z"
           style="fill:#484f59;fill-opacity:1;fill-rule:nonzero;stroke:none"
           id="path5249"
           inkscape:connector-curvature="0" /><path
           d="m 40.091,9.119 -4.244,0 0,4.247 4.244,0 0,-4.247 z"
           style="fill:#484f59;fill-opacity:1;fill-rule:nonzero;stroke:none"
           id="path5251"
           inkscape:connector-curvature="0" /><path
           d="m 45.854,9.119 -4.246,0 0,4.247 4.246,0 0,-4.247 z"
           style="fill:#484f59;fill-opacity:1;fill-rule:nonzero;stroke:none"
           id="path5253"
           inkscape:connector-curvature="0" /></g></g></g></svg>