<?xml version="1.0" encoding="UTF-8" standalone="no"?>
<!-- Created with Inkscape (http://www.inkscape.org/) -->

<svg
   xmlns:dc="http://purl.org/dc/elements/1.1/"
   xmlns:cc="http://creativecommons.org/ns#"
   xmlns:rdf="http://www.w3.org/1999/02/22-rdf-syntax-ns#"
   xmlns:svg="http://www.w3.org/2000/svg"
   xmlns="http://www.w3.org/2000/svg"
   xmlns:sodipodi="http://sodipodi.sourceforge.net/DTD/sodipodi-0.dtd"
   xmlns:inkscape="http://www.inkscape.org/namespaces/inkscape"
   id="svg5255"
   version="1.1"
   inkscape:version="0.91 r13725"
   xml:space="preserve"
   width="132.5"
   height="155.96625"
   viewBox="0 0 132.5 155.96625"
   sodipodi:docname="telefon-ban.svg"><metadata
     id="metadata5261"><rdf:RDF><cc:Work
         rdf:about=""><dc:format>image/svg+xml</dc:format><dc:type
           rdf:resource="http://purl.org/dc/dcmitype/StillImage" /><dc:title></dc:title></cc:Work></rdf:RDF></metadata><defs
     id="defs5259"><clipPath
       clipPathUnits="userSpaceOnUse"
       id="clipPath5269"><path
         d="m 0,124.773 106,0 L 106,0 0,0 0,124.773 Z"
         id="path5271"
         inkscape:connector-curvature="0" /></clipPath><clipPath
       clipPathUnits="userSpaceOnUse"
       id="clipPath5281"><path
         d="m 53,124.773 c -29.224,0 -53,-23.406 -53,-52.175 l 0,0 C 0,43.828 23.776,20.424 53,20.424 l 0,0 c 29.224,0 53,23.404 53,52.174 l 0,0 c 0,28.769 -23.776,52.175 -53,52.175 z"
         id="path5283"
         inkscape:connector-curvature="0" /></clipPath><clipPath
       clipPathUnits="userSpaceOnUse"
       id="clipPath5331"><path
         d="m 0,124.773 106,0 L 106,0 0,0 0,124.773 Z"
         id="path5333"
         inkscape:connector-curvature="0" /></clipPath></defs><sodipodi:namedview
     pagecolor="#ffffff"
     bordercolor="#666666"
     borderopacity="1"
     objecttolerance="10"
     gridtolerance="10"
     guidetolerance="10"
     inkscape:pageopacity="0"
     inkscape:pageshadow="2"
     inkscape:window-width="640"
     inkscape:window-height="480"
     id="namedview5257"
     showgrid="false"
     inkscape:zoom="1.5131479"
     inkscape:cx="66.25"
     inkscape:cy="77.983124"
     inkscape:window-x="0"
     inkscape:window-y="0"
     inkscape:window-maximized="0"
     inkscape:current-layer="g5263" /><g
     id="g5263"
     inkscape:groupmode="layer"
     inkscape:label="telefon-ban"
     transform="matrix(1.25,0,0,-1.25,0,155.96625)"><g
       id="g5265"><g
         id="g5267"
         clip-path="url(#clipPath5269)"><g
           id="g5273"
           transform="translate(53,20.4238)"><path
             d="m 0,0 c -29.224,0 -53,23.404 -53,52.174 0,28.769 23.776,52.176 53,52.176 29.224,0 53,-23.407 53,-52.176 C 53,23.404 29.224,0 0,0"
             style="fill:#ff876c;fill-opacity:1;fill-rule:nonzero;stroke:none"
             id="path5275"
             inkscape:connector-curvature="0" /></g></g></g><g
       id="g5277"><g
         id="g5279"
         clip-path="url(#clipPath5281)"><g
           id="g5285"
           transform="translate(65.3486,6.123)"><path
             d="m 0,0 c 0,-3.367 -2.753,-6.123 -6.122,-6.123 l -36.57,0 c -3.369,0 -6.125,2.756 -6.125,6.123 l 0,86.645 c 0,3.367 2.756,6.123 6.125,6.123 l 36.57,0 C -2.753,92.768 0,90.012 0,86.645 L 0,0 Z"
             style="fill:#474f59;fill-opacity:1;fill-rule:nonzero;stroke:none"
             id="path5287"
             inkscape:connector-curvature="0" /></g><g
           id="g5289"
           transform="translate(23.5952,0.9434)"><path
             d="m 0,0 c -3.366,0 -6.122,2.755 -6.122,6.121 l 0,84.764 c 0,3.367 2.756,6.119 6.122,6.119 l 34.69,0 c 3.368,0 6.122,-2.752 6.122,-6.119 l 0,-84.764 C 40.812,2.755 38.058,0 34.69,0 L 0,0 Z"
             style="fill:#30363d;fill-opacity:1;fill-rule:nonzero;stroke:none"
             id="path5291"
             inkscape:connector-curvature="0" /></g><g
           id="g5293"
           transform="translate(35.1323,92.8457)"><path
             d="m 0,0 c 0,-0.455 -0.368,-0.822 -0.824,-0.822 -0.454,0 -0.822,0.367 -0.822,0.822 0,0.454 0.368,0.825 0.822,0.825 C -0.368,0.825 0,0.454 0,0"
             style="fill:#596273;fill-opacity:1;fill-rule:nonzero;stroke:none"
             id="path5295"
             inkscape:connector-curvature="0" /></g><g
           id="g5297"
           transform="translate(41.3901,95.7109)"><path
             d="m 0,0 c 0,-0.294 -0.235,-0.528 -0.529,-0.528 -0.29,0 -0.528,0.234 -0.528,0.528 0,0.292 0.238,0.531 0.528,0.531 C -0.235,0.531 0,0.292 0,0"
             style="fill:#596273;fill-opacity:1;fill-rule:nonzero;stroke:none"
             id="path5299"
             inkscape:connector-curvature="0" /></g><g
           id="g5301"
           transform="translate(44.1187,92.9258)"><path
             d="m 0,0 c 0,-0.217 -0.177,-0.394 -0.392,-0.394 l -5.652,0 c -0.214,0 -0.391,0.177 -0.391,0.394 0,0.217 0.177,0.392 0.391,0.392 l 5.652,0 C -0.177,0.392 0,0.217 0,0"
             style="fill:#596273;fill-opacity:1;fill-rule:nonzero;stroke:none"
             id="path5303"
             inkscape:connector-curvature="0" /></g><g
           id="g5305"
           transform="translate(17.4136,83.4863)"><path
             d="m 0,0 0,0 -1.146,0 0,3.769 L 0,3.769 0,0 Z"
             style="fill:#30363d;fill-opacity:1;fill-rule:nonzero;stroke:none"
             id="path5307"
             inkscape:connector-curvature="0" /></g><g
           id="g5309"
           transform="translate(17.4136,73.5977)"><path
             d="m 0,0 0,0 -1.146,0 0,6.358 L 0,6.358 0,0 Z"
             style="fill:#30363d;fill-opacity:1;fill-rule:nonzero;stroke:none"
             id="path5311"
             inkscape:connector-curvature="0" /></g><g
           id="g5313"
           transform="translate(17.4136,66.0645)"><path
             d="m 0,0 0,0 -1.146,0 0,6.061 L 0,6.061 0,0 Z"
             style="fill:#30363d;fill-opacity:1;fill-rule:nonzero;stroke:none"
             id="path5315"
             inkscape:connector-curvature="0" /></g><path
           d="m 62.325,11.616 -42.851,0 0,76.05 42.851,0 0,-76.05 z"
           style="fill:#01bacc;fill-opacity:1;fill-rule:nonzero;stroke:none"
           id="path5317"
           inkscape:connector-curvature="0" /><g
           id="g5319"
           transform="translate(19.4741,63.2207)"><path
             d="m 0,0 0,-24.562 30.159,49.007 -15.116,0 L 0,0 Z"
             style="fill:#00c6da;fill-opacity:1;fill-rule:nonzero;stroke:none"
             id="path5321"
             inkscape:connector-curvature="0" /></g><g
           id="g5323"
           transform="translate(19.4741,25.041)"><path
             d="m 0,0 38.537,62.625 -5.751,0 L 0,9.346 0,0 Z"
             style="fill:#00c6da;fill-opacity:1;fill-rule:nonzero;stroke:none"
             id="path5325"
             inkscape:connector-curvature="0" /></g></g></g><g
       id="g5327"><g
         id="g5329"
         clip-path="url(#clipPath5331)"><g
           id="g5335"
           transform="translate(64.2236,110.2441)"><path
             d="m 0,0 c -15.229,0 -27.568,-12.338 -27.568,-27.565 0,-6.802 2.472,-13.015 6.56,-17.826 l -6.426,-12.179 11.684,7.402 c 4.465,-3.117 9.887,-4.963 15.75,-4.963 15.219,0 27.559,12.346 27.559,27.566 C 27.559,-12.338 15.219,0 0,0"
             style="fill:#e5e8ec;fill-opacity:1;fill-rule:nonzero;stroke:none"
             id="path5337"
             inkscape:connector-curvature="0" /></g><g
           id="g5339"
           transform="translate(64.2236,110.2441)"><path
             d="m 0,0 c -0.092,0 -0.184,-0.006 -0.279,-0.006 l 0,-55.12 c 0.095,0 0.187,-0.005 0.279,-0.005 15.219,0 27.559,12.346 27.559,27.566 C 27.559,-12.338 15.219,0 0,0"
             style="fill:#cdd5d7;fill-opacity:1;fill-rule:nonzero;stroke:none"
             id="path5341"
             inkscape:connector-curvature="0" /></g><g
           id="g5343"
           transform="translate(71.9326,83.0664)"><path
             d="m 0,0 c 0,-4.265 -3.457,-7.72 -7.719,-7.72 -4.265,0 -7.721,3.455 -7.721,7.72 0,4.265 3.456,7.721 7.721,7.721 C -3.457,7.721 0,4.265 0,0 M 9.281,-1.654 9.283,2.941 6.541,3.527 C 6.402,4.092 6.23,4.643 6.029,5.178 l 2.057,1.858 -2.297,3.981 -2.84,-0.918 c -0.363,0.382 -0.742,0.749 -1.142,1.09 l 0.898,2.779 -3.98,2.298 -2.024,-2.241 c -0.492,0.157 -0.996,0.286 -1.51,0.388 l -0.613,2.862 -4.596,0 -0.613,-2.862 c -0.545,-0.107 -1.076,-0.253 -1.598,-0.419 l -1.886,2.087 -3.979,-2.298 0.84,-2.601 c -0.467,-0.398 -0.902,-0.828 -1.316,-1.283 l -2.475,0.8 -2.297,-3.978 1.832,-1.657 c -0.238,-0.65 -0.445,-1.316 -0.592,-2.007 l -2.252,-0.483 -0.002,-4.594 2.159,-0.463 c 0.131,-0.773 0.32,-1.525 0.568,-2.253 l -1.529,-1.382 2.297,-3.98 1.91,0.618 c 0.537,-0.635 1.125,-1.223 1.76,-1.758 l -0.586,-1.81 3.98,-2.296 1.307,1.446 c 0.787,-0.27 1.601,-0.47 2.441,-0.604 l 0.399,-1.855 4.593,0 0.426,1.984 c 0.801,0.171 1.572,0.414 2.318,0.708 l 1.354,-1.495 3.98,2.294 -0.695,2.15 c 0.539,0.505 1.041,1.048 1.5,1.629 l 2.145,-0.692 2.298,3.977 -1.876,1.697 c 0.179,0.623 0.314,1.265 0.412,1.919 l 2.476,0.532 z"
             style="fill:#484f59;fill-opacity:1;fill-rule:nonzero;stroke:none"
             id="path5345"
             inkscape:connector-curvature="0" /></g><g
           id="g5347"
           transform="translate(64.2139,75.3467)"><path
             d="m 0,0 c -4.266,0 -7.721,3.455 -7.721,7.72 0,4.264 3.455,7.72 7.721,7.72 4.262,0 7.719,-3.456 7.719,-7.72 C 7.719,3.455 4.262,0 0,0 m 0,17.46 c -5.381,0 -9.742,-4.361 -9.742,-9.74 0,-5.379 4.361,-9.741 9.742,-9.741 5.379,0 9.74,4.362 9.74,9.741 0,5.379 -4.361,9.74 -9.74,9.74"
             style="fill:#30363d;fill-opacity:1;fill-rule:nonzero;stroke:none"
             id="path5349"
             inkscape:connector-curvature="0" /></g></g></g></g></svg>