<?xml version="1.0" encoding="utf-8"?><!DOCTYPE svg PUBLIC "-//W3C//DTD SVG 1.1//EN" "http://www.w3.org/Graphics/SVG/1.1/DTD/svg11.dtd"><svg width="248" height="180" viewBox="0 0 248 180" xmlns="http://www.w3.org/2000/svg" xmlns:xlink="http://www.w3.org/1999/xlink"><view id="svg--arr-black" viewBox="208 105 28 32"/><svg width="28" height="32" viewBox="7.88 5 28 32" x="208" y="105"><path fill="#2F2F2F" stroke="#2F2F2F" stroke-miterlimit="10" d="M20.41 24.5l-.868-.81 2.93-2.69-2.93-2.69.868-.81 2.93 2.69.87.81-3.8 3.5z"/></svg><view id="svg--arr-right" viewBox="208 70 30 35"/><svg width="30" height="35" viewBox="-10 -10 30 35" x="208" y="70"><path fill="none" stroke="#231F20" stroke-width="2" stroke-miterlimit="10" d="M1.354 1.5l6 6-6 6"/></svg><view id="svg--arr-up" viewBox="208 40 36 30"/><svg width="36" height="30" viewBox="-10 -10 36 30" x="208" y="40"><path fill="none" stroke="#231F20" stroke-width="2" stroke-miterlimit="10" d="M2 8.646l6-6 6 6"/></svg><view id="svg--c-20x20" viewBox="208 0 40 40"/><svg viewBox="-10 -10 40 40" width="40" height="40" x="208"><circle fill="#F26722" cx="10" cy="10" r="10"/></svg><view id="svg--c-50x33" viewBox="52 0 52 41.12"/><svg viewBox="-31.25 -31.25 162.5 128.5" width="52" height="41.12" x="52"><path fill="#999" d="M81.8 65.9l-60.6.1v-.1c-.3.1-.8.1-1.5.1-5.3 0-9.9-1.8-13.9-5.4C2 57 0 52.6 0 47.3c0-3.3.9-6.4 2.6-9.2 1.7-2.8 4.1-5.1 7-6.7-.3-1.4-.5-2.8-.5-4.1 0-5.3 2-9.7 5.9-13.3 3.9-3.6 8.5-5.4 13.8-5.4 4.9 0 9.2 1.5 12.9 4.7 2-4.1 5-7.3 9-9.7C54.7 1.2 59 0 63.6 0c6.5 0 12.2 2.2 17.1 6.7S88 16.6 88 23c0 2.2-.4 4.5-1.1 6.8 3.9 1.3 7 3.5 9.5 6.7s3.7 6.8 3.7 10.8c0 5-1.8 9.3-5.3 12.8-3.6 3.5-7.9 5.5-13 5.8z"/></svg><view id="svg--h-50x50" viewBox="0 52 52 52"/><svg viewBox="-31.25 -31.25 162.5 162.5" width="52" height="52" y="52"><path fill="#B9529F" d="M100 28.5c0 3.2-.7 6.9-2.2 11.2-.8 2.6-2.6 6.3-5.3 11-9.6 16.8-23.8 33.2-42.6 49.3C31.2 83.8 17 67.4 7.5 50.7 4.8 46 3 42.3 2.1 39.7.7 35.7 0 31.9 0 28.5c0-7.9 2.6-14.6 7.8-20.2S19.3 0 26.6 0c4.8 0 9.3 1.3 13.5 3.9s7.4 6.2 9.8 10.8c2.4-4.6 5.7-8.2 9.9-10.8C64 1.3 68.5 0 73.4 0 80.7 0 87 2.8 92.2 8.3c5.2 5.6 7.8 12.3 7.8 20.2z"/></svg><view id="svg--r-100x200" viewBox="52 52 36 52"/><svg viewBox="-62.5 -62.5 225 325" width="36" height="52" x="52" y="52"><path fill="#ED1968" d="M0 0h100v200H0z"/></svg><view id="svg--r-20x20" viewBox="120 140 40 40"/><svg viewBox="-10 -10 40 40" width="40" height="40" x="120" y="140"><path fill="#fff" d="M15 20H5c-2.8 0-5-2.2-5-5V5c0-2.8 2.2-5 5-5h10c2.8 0 5 2.2 5 5v10c0 2.8-2.2 5-5 5z"/></svg><view id="svg--r-20x20-1" viewBox="160 140 40 40"/><svg viewBox="-10 -10 40 40" width="40" height="40" x="160" y="140"><path fill="#F8991D" d="M15 20H5c-2.8 0-5-2.2-5-5V5c0-2.8 2.2-5 5-5h10c2.8 0 5 2.2 5 5v10c0 2.8-2.2 5-5 5z"/></svg><view id="svg--r-20x20-2" viewBox="0 140 40 40"/><svg viewBox="-10 -10 40 40" width="40" height="40" y="140"><path fill="#CADB2A" d="M15 20H5c-2.8 0-5-2.2-5-5V5c0-2.8 2.2-5 5-5h10c2.8 0 5 2.2 5 5v10c0 2.8-2.2 5-5 5z"/></svg><view id="svg--r-20x20-3" viewBox="40 140 40 40"/><svg viewBox="-11 -11 40 40" width="40" height="40" x="40" y="140"><path fill="#98509F" d="M14 19H4c-2.8 0-5-2.2-5-5V4c0-2.8 2.2-5 5-5h10c2.8 0 5 2.2 5 5v10c0 2.8-2.2 5-5 5z"/></svg><view id="svg--r-300x100" viewBox="104 52 52 30.67"/><svg viewBox="-93.75 -93.75 487.5 287.5" width="52" height="30.67" x="104" y="52"><path fill="#6FC7B2" d="M-.1 0h300v100H-.1z"/></svg><view id="svg--r-60x30" viewBox="0 104 52 36"/><svg viewBox="-18.75 -18.75 97.5 67.5" width="52" height="36" y="104"><path fill="#3953A4" d="M15 30L0 15 15 0h30l15 15-15 15"/></svg><view id="svg--s-40x40" viewBox="156 0 52 52"/><svg viewBox="-12.5 -12.5 65 65" width="52" height="52" x="156"><path fill="#6FCCDD" d="M0 0h40v40H0z"/></svg><view id="svg--s-40x40-1" viewBox="156 52 52 52"/><svg viewBox="-12.5 -12.5 65 65" width="52" height="52" x="156" y="52"><path fill="#488FCD" d="M0 0h40v40H0z"/></svg><view id="svg--s-40x40-2" viewBox="104 0 52 52"/><svg viewBox="-12.5 -12.5 65 65" width="52" height="52" x="104"><path fill="#5D52A3" d="M0 0h40v40H0z"/></svg><view id="svg--s-50x50" viewBox="0 0 52 52"/><svg viewBox="-15.62 -15.62 81.25 81.25" width="52" height="52"><path fill="#F6EC13" d="M25 0l5.9 19.1H50L34.5 30.9l6 19.1L25 38.2 9.5 50l6-19.1L0 19.1h19.1"/></svg><view id="svg--t-20x20" viewBox="80 140 40 40"/><svg viewBox="-10 -10 40 40" width="40" height="40" x="80" y="140"><path fill="#6CBE45" d="M20 20H0L10 0"/></svg></svg>