<?xml version="1.0" encoding="utf-8"?><svg width="104" height="104" viewBox="0 0 104 104" xmlns="http://www.w3.org/2000/svg" xmlns:xlink="http://www.w3.org/1999/xlink"><view id="pin20" viewBox="0 0 52 52"/><svg viewBox="-164.11 -164.11 853.37 853.37" width="52" height="52"><path d="M262.576 0C160.96 0 78.816 82.164 78.816 183.76c0 137.874 183.76 341.393 183.76 341.393s183.76-203.518 183.76-341.393C446.336 82.164 364.194 0 262.576 0zm0 249.404c-36.257 0-65.644-29.387-65.644-65.644 0-36.17 29.387-65.644 65.644-65.644s65.644 29.474 65.644 65.644c0 36.28-29.386 65.644-65.644 65.644z"/></svg><view id="stars55" viewBox="52 0 52 52"/><svg viewBox="-164.11 -164.11 853.37 853.37" width="52" height="52" x="52"><path d="M262.576 414.028l162.272 97.963-43.062-184.59 143.367-124.2-188.77-15.993-73.807-174.044-73.806 174.044L0 203.2l143.367 124.2-43.062 184.59 162.27-97.962z"/></svg><view id="tbilisi" viewBox="0 52 52 52"/><svg width="52" height="52" viewBox="-29.09 -29.09 151.26 151.26" y="52"><path d="M91.405 67.947h-5.86L67.37 18.557 46.54 48.684 24.274 18.916l-16.74 49.03h-5.86L0 74.523h22.242l8.73-24.036 15.83 21.14.096.133.097-.134 15.112-21.14 8.73 24.036H93.08"/></svg></svg>